<svg width="70" height="70" viewBox="0 0 70 70" fill="none" xmlns="http://www.w3.org/2000/svg">
<mask id="path-1-inside-1_3754_16080" fill="white">
<path fill-rule="evenodd" clip-rule="evenodd" d="M42.1353 14.0252C40.7485 14.0246 39.393 13.6127 38.2402 12.8418C37.0875 12.0708 36.1892 10.9754 35.6589 9.69391C35.1287 8.41246 34.9903 7.00256 35.2612 5.64247C35.5322 4.28237 36.2003 3.03316 37.1812 2.05276C38.1621 1.07237 39.4116 0.404814 40.7718 0.134503C42.1321 -0.135808 43.5419 0.00326132 44.8231 0.534129C46.1043 1.065 47.1993 1.96382 47.9697 3.11697C48.7401 4.27012 49.1513 5.6258 49.1513 7.01263C49.1489 8.87232 48.4088 10.6551 47.0935 11.9698C45.7781 13.2845 43.995 14.0237 42.1353 14.0252ZM42.1353 2.69231C41.281 2.69298 40.446 2.94692 39.736 3.42205C39.026 3.89718 38.4727 4.57215 38.1463 5.36164C37.8198 6.15114 37.7347 7.0197 37.9018 7.85754C38.0689 8.69537 38.4806 9.46487 39.085 10.0687C39.6893 10.6726 40.4591 11.0837 41.2971 11.2502C42.135 11.4166 43.0035 11.3308 43.7928 11.0038C44.582 10.6767 45.2566 10.1229 45.7311 9.41251C46.2057 8.70211 46.459 7.86696 46.459 7.01263C46.4574 5.8667 46.0013 4.76821 45.1907 3.95823C44.3801 3.14826 43.2812 2.69298 42.1353 2.69231ZM25.4552 38.8914L32.3687 47.0277C32.3938 47.0548 32.4178 47.083 32.4405 47.1122L36.9821 52.4569C37.936 53.5805 38.4599 55.0064 38.4603 56.4803V62.7517L38.409 65.051C38.3888 65.9959 39.9865 66.6193 40.4762 66.7876C40.9149 66.9481 41.3975 66.9403 41.8308 66.7657C42.9649 66.2828 43.1239 64.7886 43.1391 64.606V51.4069C43.1399 50.5261 42.8096 49.6771 42.2136 49.0284L35.9237 42.1605C34.9974 41.1517 34.3601 39.912 34.0788 38.5716C33.9258 37.8424 33.8812 37.098 33.9436 36.3621C32.7038 37.1532 31.2705 37.7759 29.6642 38.2141C28.2879 38.5846 26.8774 38.8115 25.4552 38.8914ZM38.1097 31.7945C38.1392 31.7268 38.1631 31.6569 38.1812 31.5854L38.3869 30.9833L38.5808 31.3052C38.6557 31.4297 38.7339 31.55 38.8122 31.6619C40.0675 33.4683 42.1624 34.5469 44.4156 34.5469H53.8301V68.6539C53.8301 69.0109 53.9719 69.3533 54.2243 69.6058C54.4768 69.8582 54.8192 70 55.1762 70C55.5332 70 55.8756 69.8582 56.1281 69.6058C56.3806 69.3533 56.5224 69.0109 56.5224 68.6539V34.3419C56.7018 34.284 56.8777 34.214 57.0488 34.1323C57.6282 33.8554 58.1373 33.4506 58.5376 32.9484C59.5606 31.6603 59.6751 30.1643 58.8505 28.8434C58.3197 27.9936 57.4818 27.3694 56.5224 27.0722V20.8543C56.5224 20.4973 56.3806 20.1549 56.1281 19.9024C55.8756 19.65 55.5332 19.5081 55.1762 19.5081C54.8192 19.5081 54.4768 19.65 54.2243 19.9024C53.9719 20.1549 53.8301 20.4973 53.8301 20.8543V26.878H48.6871C48.5015 26.8781 48.3188 26.832 48.1555 26.7438C47.9922 26.6557 47.8534 26.5284 47.7515 26.3732L42.0892 17.8361C41.384 16.7614 40.4391 15.8648 39.3288 15.217C37.7243 14.294 36.0509 14.045 34.3589 14.4749C33.8332 14.6111 33.3277 14.8092 32.8525 15.0638C32.7531 14.6523 32.5961 14.2312 32.359 13.8209C31.6523 12.5976 30.4416 11.8 28.7589 11.4492L22.3487 9.75554C21.8352 9.6178 21.297 9.60004 20.7755 9.70363C20.2541 9.80721 19.7635 10.0294 19.3417 10.3529C18.8074 10.7627 18.425 11.3388 18.2547 11.9902L18.2126 12.1517C18.0586 12.7507 17.9131 13.3161 17.7322 13.8664L16.5419 17.4806C16.511 17.546 16.4854 17.614 16.4654 17.6838C16.455 17.72 16.4462 17.7565 16.4389 17.7933L11.2303 33.6086C11.2019 33.6982 11.1662 33.7931 11.1285 33.8934L11.1142 33.9316L11.1041 33.9586C10.9729 34.3041 10.9181 34.674 10.9436 35.0428C10.969 35.4115 11.074 35.7704 11.2513 36.0947C11.7418 36.9824 12.7481 37.589 14.2398 37.8969C14.4629 37.9433 14.6831 38.0025 14.8994 38.0744L18.7435 39.3238C19.3501 39.5215 19.9702 39.7411 20.5701 39.9548L20.6719 39.9909C20.9272 40.0815 21.1821 40.172 21.4383 40.2611C21.6407 40.3312 21.8503 40.3772 22.0628 40.3983L21.9675 48.1487C21.9017 48.7805 21.6659 49.3827 21.2852 49.8911L12.7034 61.3528C12.3293 61.8537 12.0507 62.4193 11.8814 63.0212C11.8038 63.2981 11.7412 63.5789 11.6938 63.8625C11.5695 64.5993 11.6065 65.3542 11.8024 66.0753C11.9982 66.7963 12.3482 67.4663 12.8281 68.0389C13.308 68.6115 13.9065 69.0732 14.5822 69.3921C15.2579 69.7109 15.9948 69.8793 16.7419 69.8857C17.3869 69.884 18.0259 69.7613 18.6257 69.5239L18.7148 69.4878L18.7409 69.4768C19.5879 69.1253 20.3248 68.5525 20.8746 67.8185L31.3073 53.9195C31.4224 53.7666 31.5033 53.5907 31.5445 53.4037L32.1055 50.88L34.9267 54.201C35.469 54.837 35.7672 55.6453 35.768 56.4811V62.7071L35.7175 64.993C35.6772 66.8894 37.0931 68.472 39.6012 69.3335C40.0979 69.5052 40.6196 69.5933 41.1451 69.5943C41.7434 69.5963 42.3359 69.4766 42.8867 69.2426C45.0943 68.3029 45.7767 65.9496 45.8314 64.7078V64.648V51.4069C45.8329 49.8508 45.2487 48.3511 44.1949 47.2061L37.9042 40.3415C37.3052 39.6889 36.8933 38.8868 36.7118 38.0198C36.5302 37.1527 36.5858 36.2527 36.8727 35.4146L38.1097 31.7945ZM18.6433 19.7088L13.7846 34.4507C13.7438 34.5764 13.7007 34.6933 13.6589 34.8068L13.65 34.831C13.7509 34.9152 14.0479 35.1078 14.7841 35.2601C15.1043 35.3267 15.4206 35.4109 15.7315 35.5125L19.5756 36.767C20.2137 36.9744 20.8477 37.1992 21.4609 37.4168L21.472 37.4207C21.7558 37.5217 22.0399 37.6221 22.3243 37.7219C22.34 37.7219 22.3754 37.7104 22.4275 37.6792C22.4668 37.6357 22.509 37.5948 22.5538 37.5567C22.5994 37.5179 22.6474 37.4824 22.6975 37.4502C22.8042 37.3374 22.9291 37.1814 23.067 36.9679L28.3133 22.4826L18.6433 19.7088ZM29.2323 19.9453L29.6525 18.7851C29.825 18.2994 30.0516 17.8367 30.3266 17.4052L30.1724 17.3538C30.2847 16.9911 30.4709 15.9167 30.0243 15.157C29.7121 14.6269 29.0929 14.2643 28.1842 14.0792C28.159 14.0742 28.1338 14.0683 28.1094 14.0616L21.6638 12.3587C21.552 12.3257 21.434 12.3191 21.3191 12.3392C21.2043 12.3594 21.0956 12.4057 21.0017 12.4748C20.9343 12.5184 20.8853 12.5851 20.8637 12.6624L20.8225 12.8231L20.821 12.8288L20.821 12.8289L20.821 12.829L20.8209 12.8291L20.8209 12.8292C20.6632 13.4423 20.5004 14.0754 20.2916 14.7077L19.4867 17.1499L29.2323 19.9453ZM30.1724 17.3538L30.1698 17.3529V17.3622L30.1724 17.3538ZM55.1762 29.5664C55.1429 29.5664 55.1098 29.5652 55.0768 29.5628H48.6871C48.0572 29.5637 47.4369 29.4083 46.8818 29.1106C46.3268 28.8128 45.8543 28.3819 45.5068 27.8565L39.8454 19.3227C39.3703 18.5962 38.7333 17.9897 37.9843 17.5509C36.9932 16.9813 36.0223 16.829 35.0186 17.0839C34.3676 17.2554 33.7685 17.5837 33.2737 18.0401C32.7788 18.4965 32.4033 19.0672 32.1799 19.7022L26.2324 36.1234C28.8668 35.8309 33.5321 34.7451 35.62 30.7544L36.5731 27.9652C36.1968 27.3455 35.8791 26.8317 35.5722 26.3463L34.6812 24.9345C34.5746 24.7855 34.4997 24.6163 34.4608 24.4373C34.4219 24.2583 34.42 24.0732 34.4552 23.8934C34.4903 23.7136 34.5618 23.5429 34.6652 23.3917C34.7686 23.2405 34.9018 23.112 35.0566 23.0141C35.2115 22.9161 35.3846 22.8508 35.5656 22.8221C35.7465 22.7935 35.9314 22.802 36.1089 22.8473C36.2864 22.8925 36.4528 22.9735 36.5979 23.0854C36.743 23.1972 36.8638 23.3374 36.9528 23.4975L37.8489 24.9034C38.2154 25.4844 38.5967 26.1026 39.0691 26.883C39.1482 26.9725 39.2158 27.0728 39.2693 27.1819C39.2878 27.2197 39.3045 27.2581 39.3193 27.2971C39.4527 27.5186 39.5856 27.7405 39.7185 27.9623L39.7191 27.9633C39.8427 28.1696 39.9662 28.3758 40.0902 28.5818C40.3544 29.0243 40.6194 29.4666 40.8853 29.9086C40.9299 29.9818 40.9761 30.0524 41.0216 30.1181C41.4058 30.6588 41.9151 31.0987 42.5061 31.4C43.0971 31.7014 43.7522 31.8553 44.4156 31.8487H55.1915C55.4282 31.8499 55.6622 31.7982 55.8764 31.6973C56.0905 31.5965 56.2794 31.449 56.4291 31.2657C56.8246 30.7684 56.7245 30.516 56.5654 30.2611C56.4213 30.0428 56.2245 29.8644 55.9932 29.7424C55.7725 29.6259 55.5271 29.5643 55.2779 29.5626C55.2442 29.5652 55.2103 29.5664 55.1762 29.5664ZM24.6598 48.2387L24.7336 42.202L29.9193 48.3065L28.9793 52.5363L18.7275 66.2015C18.4695 66.5482 18.1232 66.8194 17.7246 66.9865L17.6918 66.9991L17.6463 67.0184C17.2464 67.1782 16.8109 67.2277 16.3854 67.1615C15.9599 67.0953 15.56 66.916 15.2275 66.6423C14.884 66.368 14.6208 66.0064 14.4652 65.5953C14.3096 65.1842 14.2675 64.7389 14.3432 64.3059C14.3751 64.1189 14.4164 63.9335 14.4669 63.7506C14.5485 63.4669 14.6814 63.2006 14.859 62.9648L23.4415 51.5031C24.1304 50.5826 24.5504 49.4889 24.6547 48.3439C24.6598 48.3086 24.6598 48.2732 24.6598 48.2387Z"/>
</mask>
<path fill-rule="evenodd" clip-rule="evenodd" d="M42.1353 14.0252C40.7485 14.0246 39.393 13.6127 38.2402 12.8418C37.0875 12.0708 36.1892 10.9754 35.6589 9.69391C35.1287 8.41246 34.9903 7.00256 35.2612 5.64247C35.5322 4.28237 36.2003 3.03316 37.1812 2.05276C38.1621 1.07237 39.4116 0.404814 40.7718 0.134503C42.1321 -0.135808 43.5419 0.00326132 44.8231 0.534129C46.1043 1.065 47.1993 1.96382 47.9697 3.11697C48.7401 4.27012 49.1513 5.6258 49.1513 7.01263C49.1489 8.87232 48.4088 10.6551 47.0935 11.9698C45.7781 13.2845 43.995 14.0237 42.1353 14.0252ZM42.1353 2.69231C41.281 2.69298 40.446 2.94692 39.736 3.42205C39.026 3.89718 38.4727 4.57215 38.1463 5.36164C37.8198 6.15114 37.7347 7.0197 37.9018 7.85754C38.0689 8.69537 38.4806 9.46487 39.085 10.0687C39.6893 10.6726 40.4591 11.0837 41.2971 11.2502C42.135 11.4166 43.0035 11.3308 43.7928 11.0038C44.582 10.6767 45.2566 10.1229 45.7311 9.41251C46.2057 8.70211 46.459 7.86696 46.459 7.01263C46.4574 5.8667 46.0013 4.76821 45.1907 3.95823C44.3801 3.14826 43.2812 2.69298 42.1353 2.69231ZM25.4552 38.8914L32.3687 47.0277C32.3938 47.0548 32.4178 47.083 32.4405 47.1122L36.9821 52.4569C37.936 53.5805 38.4599 55.0064 38.4603 56.4803V62.7517L38.409 65.051C38.3888 65.9959 39.9865 66.6193 40.4762 66.7876C40.9149 66.9481 41.3975 66.9403 41.8308 66.7657C42.9649 66.2828 43.1239 64.7886 43.1391 64.606V51.4069C43.1399 50.5261 42.8096 49.6771 42.2136 49.0284L35.9237 42.1605C34.9974 41.1517 34.3601 39.912 34.0788 38.5716C33.9258 37.8424 33.8812 37.098 33.9436 36.3621C32.7038 37.1532 31.2705 37.7759 29.6642 38.2141C28.2879 38.5846 26.8774 38.8115 25.4552 38.8914ZM38.1097 31.7945C38.1392 31.7268 38.1631 31.6569 38.1812 31.5854L38.3869 30.9833L38.5808 31.3052C38.6557 31.4297 38.7339 31.55 38.8122 31.6619C40.0675 33.4683 42.1624 34.5469 44.4156 34.5469H53.8301V68.6539C53.8301 69.0109 53.9719 69.3533 54.2243 69.6058C54.4768 69.8582 54.8192 70 55.1762 70C55.5332 70 55.8756 69.8582 56.1281 69.6058C56.3806 69.3533 56.5224 69.0109 56.5224 68.6539V34.3419C56.7018 34.284 56.8777 34.214 57.0488 34.1323C57.6282 33.8554 58.1373 33.4506 58.5376 32.9484C59.5606 31.6603 59.6751 30.1643 58.8505 28.8434C58.3197 27.9936 57.4818 27.3694 56.5224 27.0722V20.8543C56.5224 20.4973 56.3806 20.1549 56.1281 19.9024C55.8756 19.65 55.5332 19.5081 55.1762 19.5081C54.8192 19.5081 54.4768 19.65 54.2243 19.9024C53.9719 20.1549 53.8301 20.4973 53.8301 20.8543V26.878H48.6871C48.5015 26.8781 48.3188 26.832 48.1555 26.7438C47.9922 26.6557 47.8534 26.5284 47.7515 26.3732L42.0892 17.8361C41.384 16.7614 40.4391 15.8648 39.3288 15.217C37.7243 14.294 36.0509 14.045 34.3589 14.4749C33.8332 14.6111 33.3277 14.8092 32.8525 15.0638C32.7531 14.6523 32.5961 14.2312 32.359 13.8209C31.6523 12.5976 30.4416 11.8 28.7589 11.4492L22.3487 9.75554C21.8352 9.6178 21.297 9.60004 20.7755 9.70363C20.2541 9.80721 19.7635 10.0294 19.3417 10.3529C18.8074 10.7627 18.425 11.3388 18.2547 11.9902L18.2126 12.1517C18.0586 12.7507 17.9131 13.3161 17.7322 13.8664L16.5419 17.4806C16.511 17.546 16.4854 17.614 16.4654 17.6838C16.455 17.72 16.4462 17.7565 16.4389 17.7933L11.2303 33.6086C11.2019 33.6982 11.1662 33.7931 11.1285 33.8934L11.1142 33.9316L11.1041 33.9586C10.9729 34.3041 10.9181 34.674 10.9436 35.0428C10.969 35.4115 11.074 35.7704 11.2513 36.0947C11.7418 36.9824 12.7481 37.589 14.2398 37.8969C14.4629 37.9433 14.6831 38.0025 14.8994 38.0744L18.7435 39.3238C19.3501 39.5215 19.9702 39.7411 20.5701 39.9548L20.6719 39.9909C20.9272 40.0815 21.1821 40.172 21.4383 40.2611C21.6407 40.3312 21.8503 40.3772 22.0628 40.3983L21.9675 48.1487C21.9017 48.7805 21.6659 49.3827 21.2852 49.8911L12.7034 61.3528C12.3293 61.8537 12.0507 62.4193 11.8814 63.0212C11.8038 63.2981 11.7412 63.5789 11.6938 63.8625C11.5695 64.5993 11.6065 65.3542 11.8024 66.0753C11.9982 66.7963 12.3482 67.4663 12.8281 68.0389C13.308 68.6115 13.9065 69.0732 14.5822 69.3921C15.2579 69.7109 15.9948 69.8793 16.7419 69.8857C17.3869 69.884 18.0259 69.7613 18.6257 69.5239L18.7148 69.4878L18.7409 69.4768C19.5879 69.1253 20.3248 68.5525 20.8746 67.8185L31.3073 53.9195C31.4224 53.7666 31.5033 53.5907 31.5445 53.4037L32.1055 50.88L34.9267 54.201C35.469 54.837 35.7672 55.6453 35.768 56.4811V62.7071L35.7175 64.993C35.6772 66.8894 37.0931 68.472 39.6012 69.3335C40.0979 69.5052 40.6196 69.5933 41.1451 69.5943C41.7434 69.5963 42.3359 69.4766 42.8867 69.2426C45.0943 68.3029 45.7767 65.9496 45.8314 64.7078V64.648V51.4069C45.8329 49.8508 45.2487 48.3511 44.1949 47.2061L37.9042 40.3415C37.3052 39.6889 36.8933 38.8868 36.7118 38.0198C36.5302 37.1527 36.5858 36.2527 36.8727 35.4146L38.1097 31.7945ZM18.6433 19.7088L13.7846 34.4507C13.7438 34.5764 13.7007 34.6933 13.6589 34.8068L13.65 34.831C13.7509 34.9152 14.0479 35.1078 14.7841 35.2601C15.1043 35.3267 15.4206 35.4109 15.7315 35.5125L19.5756 36.767C20.2137 36.9744 20.8477 37.1992 21.4609 37.4168L21.472 37.4207C21.7558 37.5217 22.0399 37.6221 22.3243 37.7219C22.34 37.7219 22.3754 37.7104 22.4275 37.6792C22.4668 37.6357 22.509 37.5948 22.5538 37.5567C22.5994 37.5179 22.6474 37.4824 22.6975 37.4502C22.8042 37.3374 22.9291 37.1814 23.067 36.9679L28.3133 22.4826L18.6433 19.7088ZM29.2323 19.9453L29.6525 18.7851C29.825 18.2994 30.0516 17.8367 30.3266 17.4052L30.1724 17.3538C30.2847 16.9911 30.4709 15.9167 30.0243 15.157C29.7121 14.6269 29.0929 14.2643 28.1842 14.0792C28.159 14.0742 28.1338 14.0683 28.1094 14.0616L21.6638 12.3587C21.552 12.3257 21.434 12.3191 21.3191 12.3392C21.2043 12.3594 21.0956 12.4057 21.0017 12.4748C20.9343 12.5184 20.8853 12.5851 20.8637 12.6624L20.8225 12.8231L20.821 12.8288L20.821 12.8289L20.821 12.829L20.8209 12.8291L20.8209 12.8292C20.6632 13.4423 20.5004 14.0754 20.2916 14.7077L19.4867 17.1499L29.2323 19.9453ZM30.1724 17.3538L30.1698 17.3529V17.3622L30.1724 17.3538ZM55.1762 29.5664C55.1429 29.5664 55.1098 29.5652 55.0768 29.5628H48.6871C48.0572 29.5637 47.4369 29.4083 46.8818 29.1106C46.3268 28.8128 45.8543 28.3819 45.5068 27.8565L39.8454 19.3227C39.3703 18.5962 38.7333 17.9897 37.9843 17.5509C36.9932 16.9813 36.0223 16.829 35.0186 17.0839C34.3676 17.2554 33.7685 17.5837 33.2737 18.0401C32.7788 18.4965 32.4033 19.0672 32.1799 19.7022L26.2324 36.1234C28.8668 35.8309 33.5321 34.7451 35.62 30.7544L36.5731 27.9652C36.1968 27.3455 35.8791 26.8317 35.5722 26.3463L34.6812 24.9345C34.5746 24.7855 34.4997 24.6163 34.4608 24.4373C34.4219 24.2583 34.42 24.0732 34.4552 23.8934C34.4903 23.7136 34.5618 23.5429 34.6652 23.3917C34.7686 23.2405 34.9018 23.112 35.0566 23.0141C35.2115 22.9161 35.3846 22.8508 35.5656 22.8221C35.7465 22.7935 35.9314 22.802 36.1089 22.8473C36.2864 22.8925 36.4528 22.9735 36.5979 23.0854C36.743 23.1972 36.8638 23.3374 36.9528 23.4975L37.8489 24.9034C38.2154 25.4844 38.5967 26.1026 39.0691 26.883C39.1482 26.9725 39.2158 27.0728 39.2693 27.1819C39.2878 27.2197 39.3045 27.2581 39.3193 27.2971C39.4527 27.5186 39.5856 27.7405 39.7185 27.9623L39.7191 27.9633C39.8427 28.1696 39.9662 28.3758 40.0902 28.5818C40.3544 29.0243 40.6194 29.4666 40.8853 29.9086C40.9299 29.9818 40.9761 30.0524 41.0216 30.1181C41.4058 30.6588 41.9151 31.0987 42.5061 31.4C43.0971 31.7014 43.7522 31.8553 44.4156 31.8487H55.1915C55.4282 31.8499 55.6622 31.7982 55.8764 31.6973C56.0905 31.5965 56.2794 31.449 56.4291 31.2657C56.8246 30.7684 56.7245 30.516 56.5654 30.2611C56.4213 30.0428 56.2245 29.8644 55.9932 29.7424C55.7725 29.6259 55.5271 29.5643 55.2779 29.5626C55.2442 29.5652 55.2103 29.5664 55.1762 29.5664ZM24.6598 48.2387L24.7336 42.202L29.9193 48.3065L28.9793 52.5363L18.7275 66.2015C18.4695 66.5482 18.1232 66.8194 17.7246 66.9865L17.6918 66.9991L17.6463 67.0184C17.2464 67.1782 16.8109 67.2277 16.3854 67.1615C15.9599 67.0953 15.56 66.916 15.2275 66.6423C14.884 66.368 14.6208 66.0064 14.4652 65.5953C14.3096 65.1842 14.2675 64.7389 14.3432 64.3059C14.3751 64.1189 14.4164 63.9335 14.4669 63.7506C14.5485 63.4669 14.6814 63.2006 14.859 62.9648L23.4415 51.5031C24.1304 50.5826 24.5504 49.4889 24.6547 48.3439C24.6598 48.3086 24.6598 48.2732 24.6598 48.2387Z" fill="white"/>
<path d="M38.2402 12.8418L38.5249 12.4162L38.5249 12.4162L38.2402 12.8418ZM42.1353 14.0252L42.1351 14.5372L42.1358 14.5372L42.1353 14.0252ZM35.6589 9.69391L35.1858 9.88967L35.1858 9.88967L35.6589 9.69391ZM37.1812 2.05276L37.5432 2.41489L37.5432 2.41489L37.1812 2.05276ZM44.8231 0.534129L44.6271 1.00713L44.8231 0.534129ZM47.9697 3.11697L47.544 3.4014L47.544 3.4014L47.9697 3.11697ZM49.1513 7.01263L49.6633 7.0133V7.01263H49.1513ZM39.736 3.42205L39.4513 2.99653L39.4513 2.99653L39.736 3.42205ZM42.1353 2.69231L42.1356 2.18031L42.1349 2.18031L42.1353 2.69231ZM38.1463 5.36164L38.6194 5.5573L38.6194 5.5573L38.1463 5.36164ZM37.9018 7.85754L38.4039 7.75741L38.4039 7.75741L37.9018 7.85754ZM39.085 10.0687L38.7231 10.4309L38.7231 10.4309L39.085 10.0687ZM45.7311 9.41251L45.3054 9.1281L45.3054 9.1281L45.7311 9.41251ZM46.459 7.01263L46.971 7.01263L46.971 7.01193L46.459 7.01263ZM45.1907 3.95823L45.5526 3.59606L45.5526 3.59605L45.1907 3.95823ZM32.3687 47.0277L31.9786 47.3592L31.9854 47.3672L31.9926 47.375L32.3687 47.0277ZM25.4552 38.8914L25.4265 38.3802L24.3981 38.438L25.065 39.2229L25.4552 38.8914ZM32.4405 47.1122L32.037 47.4273L32.0435 47.4356L32.0504 47.4437L32.4405 47.1122ZM36.9821 52.4569L37.3724 52.1256L37.3723 52.1254L36.9821 52.4569ZM38.4603 56.4803L38.9723 56.4803L38.9723 56.4801L38.4603 56.4803ZM38.4603 62.7517L38.9723 62.7631V62.7517H38.4603ZM38.409 65.051L37.8971 65.0396L37.8971 65.0401L38.409 65.051ZM40.4762 66.7876L40.6522 66.3067L40.6426 66.3034L40.4762 66.7876ZM41.8308 66.7657L42.0222 67.2407L42.0314 67.2368L41.8308 66.7657ZM43.1391 64.606L43.6493 64.6483L43.6511 64.6272V64.606H43.1391ZM43.1391 51.4069L42.6271 51.4064V51.4069H43.1391ZM42.2136 49.0284L41.836 49.3742L41.8366 49.3749L42.2136 49.0284ZM35.9237 42.1605L36.3013 41.8147L36.3008 41.8143L35.9237 42.1605ZM34.0788 38.5716L34.5799 38.4665L34.5799 38.4665L34.0788 38.5716ZM33.9436 36.3621L34.4538 36.4053L34.5413 35.3733L33.6682 35.9305L33.9436 36.3621ZM29.6642 38.2141L29.7973 38.7085L29.7989 38.708L29.6642 38.2141ZM38.1812 31.5854L37.6967 31.4199L37.6899 31.4398L37.6847 31.4602L38.1812 31.5854ZM38.1097 31.7945L37.6404 31.5898L37.632 31.6091L37.6252 31.629L38.1097 31.7945ZM38.3869 30.9833L38.8254 30.7191L38.2579 29.7773L37.9024 30.8178L38.3869 30.9833ZM38.5808 31.3052L39.0196 31.0413L39.0194 31.041L38.5808 31.3052ZM38.8122 31.6619L39.2326 31.3698L39.2318 31.3685L38.8122 31.6619ZM53.8301 34.5469H54.3421V34.0349H53.8301V34.5469ZM54.2243 69.6058L53.8623 69.9678L53.8623 69.9678L54.2243 69.6058ZM56.1281 69.6058L56.4901 69.9678L56.4901 69.9678L56.1281 69.6058ZM56.5224 34.3419L56.3651 33.8546L56.0104 33.9691V34.3419H56.5224ZM57.0488 34.1323L57.2695 34.5942L57.2695 34.5942L57.0488 34.1323ZM58.5376 32.9484L58.9379 33.2675L58.9385 33.2668L58.5376 32.9484ZM58.8505 28.8434L59.2849 28.5723L59.2848 28.5722L58.8505 28.8434ZM56.5224 27.0722H56.0104V27.4495L56.3708 27.5612L56.5224 27.0722ZM53.8301 26.878V27.39H54.3421V26.878H53.8301ZM48.6871 26.878L48.6871 26.366L48.687 26.366L48.6871 26.878ZM47.7515 26.3732L48.1795 26.0922L48.1782 26.0902L47.7515 26.3732ZM42.0892 17.8361L41.6612 18.117L41.6626 18.1191L42.0892 17.8361ZM39.3288 15.217L39.5868 14.7747L39.5841 14.7732L39.3288 15.217ZM34.3589 14.4749L34.2329 13.9787L34.2305 13.9793L34.3589 14.4749ZM32.8525 15.0638L32.3548 15.184L32.5104 15.8278L33.0942 15.5151L32.8525 15.0638ZM32.359 13.8209L31.9157 14.077L31.9157 14.077L32.359 13.8209ZM28.7589 11.4492L28.6281 11.9442L28.6412 11.9476L28.6544 11.9504L28.7589 11.4492ZM22.3487 9.75554L22.216 10.2501L22.2179 10.2506L22.3487 9.75554ZM20.7755 9.70363L20.8753 10.2058L20.8753 10.2058L20.7755 9.70363ZM19.3417 10.3529L19.0301 9.94663L19.0301 9.94663L19.3417 10.3529ZM18.2547 11.9902L17.7593 11.8607L17.7592 11.8611L18.2547 11.9902ZM18.2126 12.1517L17.7171 12.0227L17.7167 12.0242L18.2126 12.1517ZM17.7322 13.8664L18.2185 14.0265L18.2186 14.0263L17.7322 13.8664ZM16.5419 17.4806L17.005 17.699L17.0184 17.6706L17.0282 17.6407L16.5419 17.4806ZM16.4654 17.6838L15.9732 17.5427L15.9732 17.5427L16.4654 17.6838ZM16.4389 17.7933L16.9252 17.9535L16.935 17.9236L16.9411 17.8928L16.4389 17.7933ZM11.2303 33.6086L10.7439 33.4484L10.7422 33.454L11.2303 33.6086ZM11.1285 33.8934L10.6493 33.7133L10.6492 33.7134L11.1285 33.8934ZM11.1142 33.9316L10.6349 33.7516L10.6348 33.7519L11.1142 33.9316ZM11.1041 33.9586L11.5828 34.1402L11.5835 34.1383L11.1041 33.9586ZM10.9436 35.0428L11.4543 35.0076L10.9436 35.0428ZM11.2513 36.0947L10.8021 36.3404L10.8032 36.3424L11.2513 36.0947ZM14.2398 37.8969L14.344 37.3956L14.3433 37.3955L14.2398 37.8969ZM14.8994 38.0744L14.7379 38.5603L14.7411 38.5613L14.8994 38.0744ZM18.7435 39.3238L18.9022 38.837L18.9018 38.8369L18.7435 39.3238ZM20.5701 39.9548L20.3982 40.4371L20.3989 40.4374L20.5701 39.9548ZM20.6719 39.9909L20.843 39.5084L20.843 39.5084L20.6719 39.9909ZM21.4383 40.2611L21.2701 40.7447L21.2707 40.7449L21.4383 40.2611ZM22.0628 40.3983L22.5747 40.4046L22.5805 39.9352L22.1134 39.8888L22.0628 40.3983ZM21.9675 48.1487L22.4767 48.2017L22.4792 48.1784L22.4794 48.155L21.9675 48.1487ZM21.2852 49.8911L20.8753 49.5842L20.8753 49.5843L21.2852 49.8911ZM12.7034 61.3528L12.2936 61.0459L12.2932 61.0464L12.7034 61.3528ZM11.8814 63.0212L11.3885 62.8826L11.3884 62.883L11.8814 63.0212ZM11.6938 63.8625L12.1987 63.9477L12.1988 63.9469L11.6938 63.8625ZM14.5822 69.3921L14.8007 68.929L14.8007 68.929L14.5822 69.3921ZM16.7419 69.8857L16.7375 70.3977L16.7433 70.3977L16.7419 69.8857ZM18.6257 69.5239L18.814 70.0001L18.8181 69.9984L18.6257 69.5239ZM18.7148 69.4878L18.9073 69.9622L18.9129 69.9599L18.7148 69.4878ZM18.7409 69.4768L18.5446 69.0039L18.5429 69.0047L18.7409 69.4768ZM20.8746 67.8185L20.4651 67.5112L20.4648 67.5116L20.8746 67.8185ZM31.3073 53.9195L30.8982 53.6116L30.8978 53.6121L31.3073 53.9195ZM31.5445 53.4037L31.0447 53.2927L31.0445 53.2935L31.5445 53.4037ZM32.1055 50.88L32.4957 50.5485L31.8291 49.7638L31.6057 50.7689L32.1055 50.88ZM34.9267 54.201L34.5365 54.5325L34.5371 54.5332L34.9267 54.201ZM35.768 56.4811L36.28 56.4811L36.28 56.4806L35.768 56.4811ZM35.768 62.7071L36.28 62.7184V62.7071H35.768ZM35.7175 64.993L35.2057 64.9817L35.2057 64.9821L35.7175 64.993ZM39.6012 69.3335L39.7685 68.8496L39.7675 68.8493L39.6012 69.3335ZM41.1451 69.5943L41.1467 69.0823L41.146 69.0823L41.1451 69.5943ZM42.8867 69.2426L43.0869 69.7139L43.0872 69.7137L42.8867 69.2426ZM45.8314 64.7078L46.3429 64.7303L46.3434 64.7191V64.7078H45.8314ZM45.8314 51.4069L45.3194 51.4064V51.4069H45.8314ZM44.1949 47.2061L43.8175 47.552L43.8182 47.5528L44.1949 47.2061ZM37.9042 40.3415L38.2817 39.9956L38.2814 39.9954L37.9042 40.3415ZM36.7118 38.0198L36.2106 38.1247L36.2106 38.1247L36.7118 38.0198ZM36.8727 35.4146L37.3571 35.5804L37.3572 35.5802L36.8727 35.4146ZM13.7846 34.4507L13.2983 34.2905L13.2977 34.2925L13.7846 34.4507ZM18.6433 19.7088L18.7845 19.2167L18.3111 19.0809L18.157 19.5486L18.6433 19.7088ZM13.6589 34.8068L13.1784 34.6299L13.1784 34.6299L13.6589 34.8068ZM13.65 34.831L13.1695 34.6541L13.0447 34.9931L13.3222 35.2244L13.65 34.831ZM14.7841 35.2601L14.8883 34.7588L14.8878 34.7587L14.7841 35.2601ZM15.7315 35.5125L15.5725 35.9992L15.5726 35.9993L15.7315 35.5125ZM19.5756 36.767L19.4168 37.2537L19.4173 37.2539L19.5756 36.767ZM21.4609 37.4168L21.2898 37.8993L21.2898 37.8993L21.4609 37.4168ZM21.472 37.4207L21.6436 36.9383L21.6431 36.9381L21.472 37.4207ZM22.3243 37.7219L22.1547 38.205L22.237 38.2339H22.3243V37.7219ZM22.4275 37.6792L22.6909 38.1182L22.7561 38.0791L22.8071 38.0227L22.4275 37.6792ZM22.5538 37.5567L22.8854 37.9468L22.8854 37.9468L22.5538 37.5567ZM22.6975 37.4502L22.9745 37.8808L23.0268 37.8471L23.0696 37.8019L22.6975 37.4502ZM23.067 36.9679L23.497 37.2458L23.5286 37.1969L23.5484 37.1422L23.067 36.9679ZM28.3133 22.4826L28.7947 22.6569L28.9814 22.1415L28.4545 21.9904L28.3133 22.4826ZM29.6525 18.7851L30.1339 18.9595L30.1349 18.9565L29.6525 18.7851ZM29.2323 19.9453L29.0911 20.4375L29.5508 20.5693L29.7137 20.1197L29.2323 19.9453ZM30.3266 17.4052L30.7584 17.6804L31.1111 17.127L30.4885 16.9194L30.3266 17.4052ZM30.0243 15.157L30.4656 14.8975L30.4655 14.8972L30.0243 15.157ZM28.1842 14.0792L28.2864 13.5775L28.2847 13.5772L28.1842 14.0792ZM28.1094 14.0616L28.2455 13.568L28.2401 13.5665L28.1094 14.0616ZM21.6638 12.3587L21.5192 12.8498L21.5261 12.8518L21.533 12.8537L21.6638 12.3587ZM21.3191 12.3392L21.2307 11.8349L21.2307 11.8349L21.3191 12.3392ZM21.0017 12.4748L21.2801 12.9045L21.2927 12.8963L21.3048 12.8874L21.0017 12.4748ZM20.8637 12.6624L20.3704 12.5247L20.3677 12.5352L20.8637 12.6624ZM20.8225 12.8231L21.3183 12.9505L21.3184 12.9503L20.8225 12.8231ZM20.821 12.8288L20.3251 12.7013L20.3243 12.7046L20.821 12.8288ZM20.8209 12.8292L21.3168 12.9567L21.3176 12.9534L20.8209 12.8292ZM20.2916 14.7077L19.8054 14.5472L19.8053 14.5474L20.2916 14.7077ZM19.4867 17.1499L19.0004 16.9896L18.8337 17.4953L19.3455 17.6421L19.4867 17.1499ZM30.1698 17.3529L30.3317 16.8672L29.6578 16.6425V17.3529H30.1698ZM30.1698 17.3622H29.6578L30.6585 17.515L30.1698 17.3622ZM55.0768 29.5628L55.1146 29.0522L55.0957 29.0508H55.0768V29.5628ZM48.6871 29.5628L48.6871 29.0508L48.6863 29.0508L48.6871 29.5628ZM46.8818 29.1106L47.1239 28.6594L47.1239 28.6594L46.8818 29.1106ZM45.5068 27.8565L45.9338 27.574L45.9334 27.5735L45.5068 27.8565ZM39.8454 19.3227L39.4168 19.6029L39.4187 19.6058L39.8454 19.3227ZM37.9843 17.5509L38.2431 17.1091L38.2394 17.107L37.9843 17.5509ZM35.0186 17.0839L34.8925 16.5877L34.8881 16.5888L35.0186 17.0839ZM33.2737 18.0401L33.6208 18.4165L33.6208 18.4165L33.2737 18.0401ZM32.1799 19.7022L32.6613 19.8766L32.6628 19.8721L32.1799 19.7022ZM26.2324 36.1234L25.751 35.949L25.4707 36.7231L26.2889 36.6322L26.2324 36.1234ZM35.62 30.7544L36.0736 30.9918L36.0918 30.9571L36.1045 30.92L35.62 30.7544ZM36.5731 27.9652L37.0576 28.1307L37.135 27.9041L37.0107 27.6994L36.5731 27.9652ZM35.5722 26.3463L35.1392 26.6196L35.1394 26.6199L35.5722 26.3463ZM34.6812 24.9345L35.1142 24.6613L35.1063 24.6488L35.0977 24.6368L34.6812 24.9345ZM34.4608 24.4373L33.9604 24.5459L33.9604 24.5459L34.4608 24.4373ZM34.4552 23.8934L34.9577 23.9916L34.9577 23.9916L34.4552 23.8934ZM34.6652 23.3917L34.2426 23.1026L34.2426 23.1026L34.6652 23.3917ZM36.1089 22.8473L36.2354 22.3511L36.2354 22.3511L36.1089 22.8473ZM36.5979 23.0854L36.9104 22.6798L36.9104 22.6798L36.5979 23.0854ZM36.9528 23.4975L36.5053 23.7463L36.5128 23.7597L36.5211 23.7727L36.9528 23.4975ZM37.8489 24.9034L38.2819 24.6302L38.2806 24.6282L37.8489 24.9034ZM39.0691 26.883L38.6311 27.1481L38.655 27.1876L38.6856 27.2222L39.0691 26.883ZM39.2693 27.1819L38.8096 27.4074L38.8096 27.4074L39.2693 27.1819ZM39.3193 27.2971L38.8406 27.4788L38.8569 27.5219L38.8807 27.5614L39.3193 27.2971ZM39.7185 27.9623L40.1582 27.7L40.1577 27.6992L39.7185 27.9623ZM39.7191 27.9633L39.2794 28.2257L39.2799 28.2264L39.7191 27.9633ZM40.0902 28.5818L40.5298 28.3193L40.5288 28.3177L40.0902 28.5818ZM40.8853 29.9086L40.4465 30.1725L40.448 30.1749L40.8853 29.9086ZM41.0216 30.1181L40.6006 30.4095L40.6042 30.4146L41.0216 30.1181ZM42.5061 31.4L42.7387 30.9439L42.7387 30.9439L42.5061 31.4ZM44.4156 31.8487L44.4156 31.3367L44.4105 31.3367L44.4156 31.8487ZM55.1915 31.8487L55.1942 31.3367H55.1915V31.8487ZM55.8764 31.6973L56.0946 32.1605L56.0946 32.1605L55.8764 31.6973ZM56.4291 31.2657L56.8257 31.5897L56.8299 31.5843L56.4291 31.2657ZM56.5654 30.2611L57 29.99L56.9927 29.979L56.5654 30.2611ZM55.9932 29.7424L56.2321 29.2895L56.2321 29.2895L55.9932 29.7424ZM55.2779 29.5626L55.2814 29.0506L55.2603 29.0505L55.2392 29.0521L55.2779 29.5626ZM24.7336 42.202L25.1238 41.8705L24.2383 40.8281L24.2216 42.1957L24.7336 42.202ZM24.6598 48.2387L24.1478 48.2325V48.2387H24.6598ZM29.9193 48.3065L30.4191 48.4176L30.4743 48.169L30.3095 47.975L29.9193 48.3065ZM28.9793 52.5363L29.3888 52.8436L29.4551 52.7552L29.4791 52.6474L28.9793 52.5363ZM18.7275 66.2015L18.3179 65.8942L18.3166 65.8959L18.7275 66.2015ZM17.7246 66.9865L17.9084 67.4643L17.9155 67.4616L17.9225 67.4586L17.7246 66.9865ZM17.6918 66.9991L17.508 66.5212L17.4995 66.5245L17.4912 66.528L17.6918 66.9991ZM17.6463 67.0184L17.8364 67.494L17.8469 67.4895L17.6463 67.0184ZM16.3854 67.1615L16.3068 67.6674L16.3068 67.6674L16.3854 67.1615ZM15.2275 66.6423L15.5529 66.247L15.547 66.2423L15.2275 66.6423ZM14.3432 64.3059L14.8476 64.3941L14.8479 64.392L14.3432 64.3059ZM14.4669 63.7506L13.9748 63.6091L13.9734 63.6143L14.4669 63.7506ZM14.859 62.9648L15.2679 63.2728L15.2688 63.2717L14.859 62.9648ZM23.4415 51.5031L23.8514 51.81L23.8515 51.8099L23.4415 51.5031ZM24.6547 48.3439L24.1479 48.2715L24.146 48.2844L24.1449 48.2974L24.6547 48.3439ZM37.9556 13.2674C39.1925 14.0946 40.647 14.5365 42.1351 14.5372L42.1356 13.5132C40.85 13.5126 39.5935 13.1309 38.5249 12.4162L37.9556 13.2674ZM35.1858 9.88967C35.7548 11.2647 36.7187 12.4401 37.9556 13.2674L38.5249 12.4162C37.4563 11.7015 36.6235 10.686 36.132 9.49815L35.1858 9.88967ZM34.7591 5.54243C34.4683 7.00183 34.6168 8.51467 35.1858 9.88967L36.132 9.49815C35.6405 8.31026 35.5122 7.0033 35.7634 5.74251L34.7591 5.54243ZM36.8193 1.69064C35.7668 2.74261 35.0498 4.08304 34.7591 5.54243L35.7634 5.74251C36.0145 4.48171 36.6339 3.32371 37.5432 2.41489L36.8193 1.69064ZM40.672 -0.367677C39.2125 -0.0776305 37.8717 0.638662 36.8193 1.69064L37.5432 2.41489C38.4524 1.50607 39.6107 0.887258 40.8716 0.636683L40.672 -0.367677ZM45.0191 0.0611261C43.6443 -0.508501 42.1316 -0.657724 40.672 -0.367677L40.8716 0.636683C42.1325 0.386108 43.4394 0.515024 44.6271 1.00713L45.0191 0.0611261ZM48.3954 2.83254C47.5688 1.5952 46.3938 0.630753 45.0191 0.0611261L44.6271 1.00713C45.8147 1.49924 46.8298 2.33244 47.544 3.4014L48.3954 2.83254ZM49.6633 7.01263C49.6633 5.52455 49.2221 4.06988 48.3954 2.83254L47.544 3.4014C48.2581 4.47035 48.6393 5.72706 48.6393 7.01263H49.6633ZM47.4554 12.3319C48.8666 10.9214 49.6607 9.00859 49.6633 7.0133L48.6393 7.01195C48.637 8.73605 47.9509 10.3888 46.7315 11.6077L47.4554 12.3319ZM42.1358 14.5372C44.131 14.5356 46.0442 13.7425 47.4554 12.3319L46.7315 11.6077C45.5121 12.8265 43.859 13.5118 42.1349 13.5132L42.1358 14.5372ZM40.0207 3.84757C40.6466 3.42875 41.3826 3.2049 42.1357 3.20431L42.1349 2.18031C41.1793 2.18106 40.2454 2.4651 39.4513 2.99653L40.0207 3.84757ZM38.6194 5.5573C38.9072 4.86137 39.3949 4.26639 40.0207 3.84757L39.4513 2.99653C38.6571 3.52797 38.0383 4.28293 37.6731 5.16599L38.6194 5.5573ZM38.4039 7.75741C38.2566 7.01886 38.3316 6.25323 38.6194 5.5573L37.6731 5.16599C37.308 6.04904 37.2128 7.02054 37.3997 7.95767L38.4039 7.75741ZM39.4469 9.70656C38.9141 9.17425 38.5512 8.49595 38.4039 7.75741L37.3997 7.95767C37.5866 8.8948 38.0471 9.75548 38.7231 10.4309L39.4469 9.70656ZM41.3968 10.748C40.6582 10.6013 39.9796 10.2389 39.4469 9.70656L38.7231 10.4309C39.399 11.1064 40.2601 11.5662 41.1973 11.7524L41.3968 10.748ZM43.5968 10.5308C42.901 10.8191 42.1355 10.8947 41.3968 10.748L41.1973 11.7524C42.1346 11.9385 43.106 11.8426 43.9888 11.4767L43.5968 10.5308ZM45.3054 9.1281C44.8871 9.75431 44.2925 10.2424 43.5968 10.5308L43.9888 11.4767C44.8716 11.1109 45.6261 10.4915 46.1569 9.69692L45.3054 9.1281ZM45.947 7.01263C45.947 7.76571 45.7237 8.50189 45.3054 9.1281L46.1569 9.69692C46.6877 8.90234 46.971 7.96821 46.971 7.01263H45.947ZM44.8288 4.32041C45.5435 5.03453 45.9456 6.00302 45.947 7.01332L46.971 7.01193C46.9693 5.73039 46.4591 4.50189 45.5526 3.59606L44.8288 4.32041ZM42.135 3.20431C43.1453 3.2049 44.1141 3.6063 44.8288 4.32041L45.5526 3.59605C44.6461 2.69022 43.4172 2.18106 42.1356 2.18031L42.135 3.20431ZM32.7589 46.6961L25.8454 38.5599L25.065 39.2229L31.9786 47.3592L32.7589 46.6961ZM32.844 46.797C32.8126 46.7567 32.7795 46.7178 32.7449 46.6803L31.9926 47.375C32.0081 47.3918 32.0229 47.4093 32.037 47.4273L32.844 46.797ZM37.3723 52.1254L32.8307 46.7806L32.0504 47.4437L36.5919 52.7885L37.3723 52.1254ZM38.9723 56.4801C38.9719 54.8849 38.4048 53.3416 37.3724 52.1256L36.5918 52.7883C37.4672 53.8194 37.9479 55.1278 37.9483 56.4804L38.9723 56.4801ZM38.9723 62.7517V56.4803H37.9483V62.7517H38.9723ZM38.9209 65.0625L38.9722 62.7631L37.9485 62.7402L37.8971 65.0396L38.9209 65.0625ZM40.6426 66.3034C40.4116 66.224 39.9352 66.0419 39.5286 65.7801C39.3253 65.6492 39.1621 65.5125 39.055 65.3782C38.9501 65.2466 38.9191 65.1439 38.9209 65.062L37.8971 65.0401C37.8888 65.4307 38.05 65.7602 38.2543 66.0165C38.4564 66.27 38.7194 66.4769 38.9742 66.641C39.4838 66.9692 40.0512 67.1829 40.3098 67.2718L40.6426 66.3034ZM41.6394 66.2908C41.3236 66.4181 40.9719 66.4238 40.6522 66.3068L40.3002 67.2684C40.8579 67.4725 41.4714 67.4626 42.0222 67.2406L41.6394 66.2908ZM42.6288 64.5637C42.6233 64.6303 42.5859 64.9926 42.4294 65.3824C42.2714 65.7758 42.0212 66.1281 41.6302 66.2946L42.0314 67.2368C42.7744 66.9204 43.1708 66.2841 43.3797 65.764C43.59 65.2403 43.6397 64.7642 43.6493 64.6483L42.6288 64.5637ZM42.6271 51.4069V64.606H43.6511V51.4069H42.6271ZM41.8366 49.3749C42.3456 49.9289 42.6278 50.654 42.6271 51.4064L43.6511 51.4074C43.6521 50.3981 43.2735 49.4252 42.5906 48.682L41.8366 49.3749ZM35.5461 42.5063L41.836 49.3742L42.5912 48.6826L36.3013 41.8147L35.5461 42.5063ZM33.5777 38.6768C33.8779 40.1072 34.558 41.4302 35.5465 42.5068L36.3008 41.8143C35.4368 40.8732 34.8423 39.7168 34.5799 38.4665L33.5777 38.6768ZM33.4334 36.3188C33.3668 37.1041 33.4144 37.8985 33.5777 38.6768L34.5799 38.4665C34.4371 37.7862 34.3955 37.0918 34.4538 36.4053L33.4334 36.3188ZM29.7989 38.708C31.4493 38.2579 32.931 37.6156 34.219 36.7937L33.6682 35.9305C32.4765 36.6909 31.0917 37.294 29.5294 37.7201L29.7989 38.708ZM25.4839 39.4026C26.9414 39.3207 28.3869 39.0881 29.7973 38.7085L29.5311 37.7197C28.1889 38.081 26.8134 38.3022 25.4265 38.3802L25.4839 39.4026ZM37.6847 31.4602C37.6735 31.5045 37.6587 31.5478 37.6404 31.5898L38.579 31.9993C38.6198 31.9058 38.6527 31.8093 38.6776 31.7107L37.6847 31.4602ZM37.9024 30.8178L37.6967 31.4199L38.6656 31.751L38.8714 31.1489L37.9024 30.8178ZM39.0194 31.041L38.8254 30.7191L37.9483 31.2476L38.1423 31.5694L39.0194 31.041ZM39.2318 31.3685C39.1603 31.2663 39.0885 31.1559 39.0196 31.0413L38.142 31.5691C38.2229 31.7036 38.3076 31.8337 38.3926 31.9553L39.2318 31.3685ZM44.4156 34.0349C42.3253 34.0349 40.3895 33.0345 39.2326 31.3698L38.3917 31.9541C39.7455 33.9021 41.9996 35.0589 44.4156 35.0589V34.0349ZM53.8301 34.0349H44.4156V35.0589H53.8301V34.0349ZM54.3421 68.6539V34.5469H53.3181V68.6539H54.3421ZM54.5864 69.2437C54.43 69.0873 54.3421 68.8751 54.3421 68.6539H53.3181C53.3181 69.1467 53.5138 69.6193 53.8623 69.9678L54.5864 69.2437ZM55.1762 69.488C54.955 69.488 54.7428 69.4001 54.5864 69.2437L53.8623 69.9678C54.2108 70.3163 54.6834 70.512 55.1762 70.512V69.488ZM55.7661 69.2437C55.6096 69.4001 55.3975 69.488 55.1762 69.488V70.512C55.669 70.512 56.1417 70.3163 56.4901 69.9678L55.7661 69.2437ZM56.0104 68.6539C56.0104 68.8751 55.9225 69.0873 55.7661 69.2437L56.4901 69.9678C56.8386 69.6193 57.0344 69.1467 57.0344 68.6539H56.0104ZM56.0104 34.3419V68.6539H57.0344V34.3419H56.0104ZM56.828 33.6703C56.6776 33.7422 56.5229 33.8037 56.3651 33.8546L56.6796 34.8291C56.8807 34.7642 57.0778 34.6858 57.2695 34.5942L56.828 33.6703ZM58.1372 32.6292C57.7852 33.0708 57.3375 33.4268 56.828 33.6703L57.2695 34.5942C57.9189 34.2839 58.4894 33.8303 58.9379 33.2675L58.1372 32.6292ZM58.4162 29.1145C59.1175 30.238 59.0353 31.4985 58.1366 32.6299L58.9385 33.2668C60.086 31.822 60.2326 30.0907 59.2849 28.5723L58.4162 29.1145ZM56.3708 27.5612C57.2191 27.8241 57.9539 28.3743 58.4163 29.1146L59.2848 28.5722C58.6856 27.6128 57.7444 26.9148 56.6739 26.5831L56.3708 27.5612ZM56.0104 20.8543V27.0722H57.0344V20.8543H56.0104ZM55.7661 20.2645C55.9225 20.4209 56.0104 20.6331 56.0104 20.8543H57.0344C57.0344 20.3615 56.8386 19.8889 56.4901 19.5404L55.7661 20.2645ZM55.1762 20.0201C55.3975 20.0201 55.6096 20.108 55.7661 20.2645L56.4901 19.5404C56.1417 19.1919 55.669 18.9961 55.1762 18.9961V20.0201ZM54.5864 20.2645C54.7428 20.108 54.955 20.0201 55.1762 20.0201V18.9961C54.6834 18.9961 54.2108 19.1919 53.8623 19.5404L54.5864 20.2645ZM54.3421 20.8543C54.3421 20.6331 54.43 20.4209 54.5864 20.2645L53.8623 19.5404C53.5138 19.8889 53.3181 20.3615 53.3181 20.8543H54.3421ZM54.3421 26.878V20.8543H53.3181V26.878H54.3421ZM48.6871 27.39H53.8301V26.366H48.6871V27.39ZM47.9124 27.1944C48.1504 27.3229 48.4167 27.3901 48.6872 27.39L48.687 26.366C48.5863 26.3661 48.4872 26.341 48.3986 26.2932L47.9124 27.1944ZM47.3235 26.6543C47.472 26.8804 47.6743 27.066 47.9124 27.1944L48.3986 26.2932C48.31 26.2454 48.2347 26.1764 48.1795 26.0922L47.3235 26.6543ZM41.6626 18.1191L47.3248 26.6562L48.1782 26.0902L42.5159 17.5531L41.6626 18.1191ZM39.0707 15.6592C40.1126 16.2672 40.9993 17.1085 41.6612 18.117L42.5173 17.5552C41.7686 16.4143 40.7655 15.4625 39.5868 14.7748L39.0707 15.6592ZM34.485 14.9711C36.0398 14.5761 37.5771 14.8 39.0735 15.6608L39.5841 14.7732C37.8716 13.7881 36.062 13.5139 34.2329 13.9787L34.485 14.9711ZM33.0942 15.5151C33.5337 15.2797 34.0012 15.0965 34.4874 14.9705L34.2305 13.9793C33.6653 14.1257 33.1217 14.3388 32.6108 14.6124L33.0942 15.5151ZM31.9157 14.077C32.1256 14.4404 32.2656 14.8149 32.3548 15.184L33.3502 14.9435C33.2405 14.4898 33.0665 14.0221 32.8023 13.5648L31.9157 14.077ZM28.6544 11.9504C30.2279 12.2785 31.2974 13.0068 31.9157 14.077L32.8023 13.5648C32.0072 12.1884 30.6552 11.3215 28.8634 10.9479L28.6544 11.9504ZM22.2179 10.2506L28.6281 11.9442L28.8897 10.9542L22.4795 9.26052L22.2179 10.2506ZM20.8753 10.2058C21.3197 10.1175 21.7784 10.1327 22.216 10.2501L22.4813 9.26102C21.892 9.10294 21.2742 9.08255 20.6758 9.20144L20.8753 10.2058ZM19.6533 10.7592C20.0128 10.4834 20.4309 10.2941 20.8753 10.2058L20.6758 9.20144C20.0773 9.32033 19.5142 9.5753 19.0301 9.94663L19.6533 10.7592ZM18.75 12.1197C18.8915 11.5784 19.2094 11.0997 19.6533 10.7592L19.0301 9.94663C18.4055 10.4257 17.9584 11.0991 17.7593 11.8607L18.75 12.1197ZM18.7081 12.2807L18.7501 12.1192L17.7592 11.8611L17.7171 12.0227L18.7081 12.2807ZM18.2186 14.0263C18.4057 13.4572 18.5553 12.8753 18.7085 12.2791L17.7167 12.0242C17.562 12.6262 17.4205 13.175 17.2458 13.7065L18.2186 14.0263ZM17.0282 17.6407L18.2185 14.0265L17.2459 13.7062L16.0556 17.3204L17.0282 17.6407ZM16.9575 17.825C16.97 17.7817 16.9858 17.7395 17.005 17.699L16.0788 17.2621C16.0362 17.3524 16.0009 17.4463 15.9732 17.5427L16.9575 17.825ZM16.9411 17.8928C16.9456 17.87 16.9511 17.8474 16.9575 17.825L15.9732 17.5427C15.9589 17.5926 15.9467 17.6431 15.9366 17.6938L16.9411 17.8928ZM11.7166 33.7687L16.9252 17.9535L15.9526 17.6332L10.744 33.4484L11.7166 33.7687ZM11.6078 34.0735C11.6443 33.9763 11.6851 33.8681 11.7184 33.7631L10.7422 33.454C10.7186 33.5283 10.6881 33.61 10.6493 33.7133L11.6078 34.0735ZM11.5935 34.1116L11.6078 34.0734L10.6492 33.7134L10.6349 33.7516L11.5935 34.1116ZM11.5835 34.1383L11.5936 34.1114L10.6348 33.7519L10.6247 33.7788L11.5835 34.1383ZM11.4543 35.0076C11.434 34.7126 11.4778 34.4167 11.5828 34.1402L10.6254 33.7769C10.468 34.1916 10.4023 34.6355 10.4328 35.078L11.4543 35.0076ZM11.7005 35.8491C11.5587 35.5897 11.4747 35.3026 11.4543 35.0076L10.4328 35.078C10.4633 35.5205 10.5893 35.9512 10.8021 36.3404L11.7005 35.8491ZM14.3433 37.3955C12.9235 37.1024 12.0875 36.5494 11.6994 35.8471L10.8032 36.3424C11.3961 37.4153 12.5726 38.0755 14.1363 38.3983L14.3433 37.3955ZM15.0609 37.5885C14.8258 37.5104 14.5865 37.446 14.344 37.3956L14.1356 38.3982C14.3393 38.4405 14.5404 38.4947 14.7379 38.5603L15.0609 37.5885ZM18.9018 38.8369L15.0576 37.5875L14.7411 38.5613L18.5852 39.8107L18.9018 38.8369ZM20.7419 39.4725C20.1423 39.2589 19.5162 39.0372 18.9022 38.837L18.5848 39.8106C19.184 40.0059 19.7981 40.2233 20.3982 40.4371L20.7419 39.4725ZM20.843 39.5084L20.7412 39.4723L20.3989 40.4374L20.5007 40.4735L20.843 39.5084ZM21.6065 39.7775C21.3521 39.689 21.0986 39.5991 20.843 39.5084L20.5007 40.4735C20.7558 40.564 21.0122 40.6549 21.2701 40.7447L21.6065 39.7775ZM22.1134 39.8888C21.9407 39.8717 21.7704 39.8343 21.606 39.7773L21.2707 40.7449C21.511 40.8281 21.7599 40.8827 22.0122 40.9078L22.1134 39.8888ZM22.4794 48.155L22.5747 40.4046L21.5508 40.392L21.4555 48.1424L22.4794 48.155ZM21.695 50.198C22.1312 49.6155 22.4014 48.9256 22.4767 48.2017L21.4582 48.0957C21.402 48.6354 21.2006 49.1499 20.8753 49.5842L21.695 50.198ZM13.1133 61.6597L21.695 50.198L20.8753 49.5843L12.2936 61.0459L13.1133 61.6597ZM12.3743 63.1598C12.5265 62.6184 12.7771 62.1097 13.1136 61.6592L12.2932 61.0464C11.8815 61.5977 11.5748 62.2202 11.3885 62.8826L12.3743 63.1598ZM12.1988 63.9469C12.2432 63.6814 12.3018 63.4185 12.3744 63.1594L11.3884 62.883C11.3058 63.1776 11.2392 63.4764 11.1888 63.7782L12.1988 63.9469ZM12.2965 65.9411C12.1201 65.2915 12.0867 64.6114 12.1987 63.9477L11.1889 63.7773C11.0523 64.5871 11.093 65.4169 11.3083 66.2095L12.2965 65.9411ZM13.2205 67.71C12.7881 67.1942 12.4729 66.5906 12.2965 65.9411L11.3083 66.2095C11.5235 67.002 11.9082 67.7384 12.4357 68.3678L13.2205 67.71ZM14.8007 68.929C14.192 68.6418 13.6528 68.2259 13.2205 67.71L12.4357 68.3678C12.9632 68.9972 13.621 69.5046 14.3637 69.8551L14.8007 68.929ZM16.7463 69.3737C16.0732 69.368 15.4094 69.2163 14.8007 68.929L14.3637 69.8551C15.1064 70.2056 15.9163 70.3907 16.7375 70.3977L16.7463 69.3737ZM18.4373 69.0479C17.897 69.2616 17.3215 69.3722 16.7405 69.3737L16.7433 70.3977C17.4523 70.3958 18.1547 70.2609 18.814 70L18.4373 69.0479ZM18.5224 69.0133L18.4332 69.0495L18.8181 69.9984L18.9073 69.9622L18.5224 69.0133ZM18.5429 69.0047L18.5168 69.0156L18.9129 69.9599L18.939 69.949L18.5429 69.0047ZM20.4648 67.5116C19.97 68.1721 19.3069 68.6876 18.5446 69.0039L18.9372 69.9497C19.8689 69.563 20.6796 68.9329 21.2844 68.1255L20.4648 67.5116ZM30.8978 53.6121L20.4651 67.5112L21.2841 68.1259L31.7168 54.2269L30.8978 53.6121ZM31.0445 53.2935C31.0191 53.4088 30.9692 53.5173 30.8982 53.6116L31.7163 54.2274C31.8756 54.0159 31.9875 53.7726 32.0445 53.514L31.0445 53.2935ZM31.6057 50.7689L31.0447 53.2927L32.0443 53.5148L32.6053 50.9911L31.6057 50.7689ZM35.3169 53.8696L32.4957 50.5485L31.7152 51.2115L34.5365 54.5325L35.3169 53.8696ZM36.28 56.4806C36.2791 55.5232 35.9375 54.5974 35.3163 53.8689L34.5371 54.5332C35.0005 55.0767 35.2553 55.7674 35.256 56.4816L36.28 56.4806ZM36.28 62.7071V56.4811H35.256V62.7071H36.28ZM36.2294 65.0043L36.2799 62.7184L35.2561 62.6958L35.2057 64.9817L36.2294 65.0043ZM39.7675 68.8493C37.366 68.0243 36.1958 66.5844 36.2294 65.0039L35.2057 64.9821C35.1585 67.1944 36.8203 68.9196 39.4349 69.8177L39.7675 68.8493ZM41.146 69.0823C40.6771 69.0815 40.2116 69.0028 39.7685 68.8496L39.4339 69.8174C39.9841 70.0076 40.562 70.1052 41.1441 70.1063L41.146 69.0823ZM42.6864 68.7714C42.1996 68.9783 41.6757 69.084 41.1467 69.0823L41.1434 70.1063C41.8111 70.1085 42.4723 69.975 43.0869 69.7139L42.6864 68.7714ZM45.3199 64.6853C45.2691 65.8373 44.6312 67.9436 42.6861 68.7715L43.0872 69.7137C45.5575 68.6621 46.2842 66.0619 46.3429 64.7303L45.3199 64.6853ZM45.3194 64.648V64.7078H46.3434V64.648H45.3194ZM45.3194 51.4069V64.648H46.3434V51.4069H45.3194ZM43.8182 47.5528C44.7848 48.6032 45.3207 49.9789 45.3194 51.4064L46.3434 51.4074C46.345 49.7227 45.7125 48.0991 44.5717 46.8594L43.8182 47.5528ZM37.5267 40.6875L43.8175 47.552L44.5724 46.8602L38.2817 39.9956L37.5267 40.6875ZM36.2106 38.1247C36.411 39.0818 36.8658 39.9673 37.527 40.6877L38.2814 39.9954C37.7447 39.4105 37.3756 38.6918 37.2129 37.9148L36.2106 38.1247ZM36.3883 35.2488C36.0716 36.174 36.0102 37.1675 36.2106 38.1247L37.2129 37.9148C37.0502 37.1379 37.1001 36.3314 37.3571 35.5804L36.3883 35.2488ZM37.6252 31.629L36.3882 35.2491L37.3572 35.5802L38.5942 31.9601L37.6252 31.629ZM14.2709 34.611L19.1296 19.8691L18.157 19.5486L13.2983 34.2905L14.2709 34.611ZM14.1393 34.9838C14.1808 34.8713 14.2272 34.7455 14.2715 34.609L13.2977 34.2925C13.2603 34.4073 13.2207 34.5153 13.1784 34.6299L14.1393 34.9838ZM14.1305 35.0079L14.1394 34.9837L13.1784 34.6299L13.1695 34.6541L14.1305 35.0079ZM14.8878 34.7587C14.2047 34.6174 13.9944 34.4516 13.9778 34.4377L13.3222 35.2244C13.5075 35.3788 13.8912 35.5982 14.6804 35.7615L14.8878 34.7587ZM15.8905 35.0258C15.5616 34.9184 15.2271 34.8292 14.8883 34.7588L14.6799 35.7614C14.9816 35.8241 15.2796 35.9035 15.5725 35.9992L15.8905 35.0258ZM19.7344 36.2802L15.8903 35.0258L15.5726 35.9993L19.4168 37.2537L19.7344 36.2802ZM21.6321 36.9342C21.0199 36.7171 20.3795 36.4899 19.7339 36.28L19.4173 37.2539C20.0479 37.4589 20.6755 37.6814 21.2898 37.8993L21.6321 36.9342ZM21.6431 36.9381L21.6321 36.9342L21.2898 37.8993L21.3008 37.9032L21.6431 36.9381ZM22.4939 37.2388C22.2102 37.1392 21.9267 37.039 21.6436 36.9383L21.3004 37.9031C21.5849 38.0043 21.8696 38.1049 22.1547 38.205L22.4939 37.2388ZM22.164 37.2402C22.1571 37.2443 22.1611 37.2411 22.1759 37.2354C22.1834 37.2325 22.1975 37.2273 22.2173 37.2225C22.2337 37.2184 22.2723 37.2099 22.3243 37.2099V38.2339C22.4286 38.2339 22.5128 38.2031 22.5486 38.1892C22.598 38.1698 22.6458 38.1453 22.6909 38.1182L22.164 37.2402ZM22.2223 37.1666C22.1603 37.2192 22.1021 37.2757 22.0478 37.3357L22.8071 38.0227C22.8315 37.9958 22.8576 37.9704 22.8854 37.9468L22.2223 37.1666ZM22.4206 37.0195C22.3515 37.064 22.2852 37.1131 22.2223 37.1666L22.8854 37.9468C22.9136 37.9228 22.9434 37.9008 22.9745 37.8808L22.4206 37.0195ZM22.637 36.69C22.5135 36.881 22.4076 37.0116 22.3255 37.0984L23.0696 37.8019C23.2007 37.6632 23.3446 37.4817 23.497 37.2458L22.637 36.69ZM27.8319 22.3082L22.5856 36.7935L23.5484 37.1422L28.7947 22.6569L27.8319 22.3082ZM28.4545 21.9904L18.7845 19.2167L18.5021 20.201L28.1722 22.9747L28.4545 21.9904ZM29.1711 18.6108L28.7509 19.771L29.7137 20.1197L30.1339 18.9595L29.1711 18.6108ZM29.8949 17.13C29.5991 17.5939 29.3556 18.0914 29.17 18.6137L30.1349 18.9565C30.2945 18.5073 30.504 18.0794 30.7584 17.6804L29.8949 17.13ZM30.0105 17.8395L30.1647 17.8909L30.4885 16.9194L30.3344 16.868L30.0105 17.8395ZM29.5829 15.4165C29.7402 15.6841 29.8002 16.0371 29.796 16.3983C29.7918 16.7556 29.7255 17.066 29.6833 17.2024L30.6616 17.5051C30.7316 17.2789 30.8145 16.8707 30.8199 16.4102C30.8252 15.9536 30.7549 15.3896 30.4656 14.8975L29.5829 15.4165ZM28.082 14.5809C28.9209 14.7518 29.3752 15.0637 29.5831 15.4168L30.4655 14.8972C30.0491 14.1901 29.2649 13.7768 28.2864 13.5775L28.082 14.5809ZM27.9732 14.5551C28.0108 14.5655 28.0481 14.5741 28.0838 14.5813L28.2847 13.5772C28.2699 13.5742 28.2567 13.5711 28.2455 13.568L27.9732 14.5551ZM21.533 12.8537L27.9786 14.5566L28.2401 13.5665L21.7946 11.8636L21.533 12.8537ZM21.4076 12.8435C21.4448 12.837 21.483 12.8392 21.5192 12.8498L21.8084 11.8675C21.6209 11.8123 21.4232 11.8011 21.2307 11.8349L21.4076 12.8435ZM21.3048 12.8874C21.3352 12.8651 21.3704 12.85 21.4076 12.8435L21.2307 11.8349C21.0382 11.8687 20.8561 11.9464 20.6986 12.0621L21.3048 12.8874ZM21.3568 12.8001C21.3448 12.8431 21.3175 12.8802 21.2801 12.9045L20.7233 12.0451C20.5512 12.1566 20.4257 12.3272 20.3706 12.5247L21.3568 12.8001ZM21.3184 12.9503L21.3596 12.7896L20.3677 12.5352L20.3265 12.6959L21.3184 12.9503ZM21.3169 12.9562L21.3183 12.9505L20.3266 12.6956L20.3251 12.7013L21.3169 12.9562ZM21.3177 12.953L21.3177 12.953L20.3243 12.7046L20.3243 12.7047L21.3177 12.953ZM21.3177 12.9531L21.3177 12.953L20.3243 12.7047L20.3242 12.7048L21.3177 12.9531ZM21.3176 12.9532L21.3177 12.9531L20.3242 12.7048L20.3242 12.7049L21.3176 12.9532ZM21.3176 12.9534L21.3176 12.9532L20.3242 12.7049L20.3242 12.705L21.3176 12.9534ZM20.7778 14.8683C20.9928 14.217 21.1597 13.5674 21.3168 12.9567L20.325 12.7016C20.1667 13.3172 20.0079 13.9338 19.8054 14.5472L20.7778 14.8683ZM19.9729 17.3102L20.7778 14.868L19.8053 14.5474L19.0004 16.9896L19.9729 17.3102ZM19.3455 17.6421L29.0911 20.4375L29.3734 19.4532L19.6278 16.6578L19.3455 17.6421ZM30.0079 17.8386L30.0105 17.8395L30.3343 16.868L30.3317 16.8672L30.0079 17.8386ZM30.6818 17.3622V17.3529H29.6578V17.3622H30.6818ZM29.6838 17.201L29.6812 17.2093L30.6585 17.515L30.6611 17.5066L29.6838 17.201ZM55.039 30.0734C55.0845 30.0767 55.1303 30.0784 55.1762 30.0784V29.0544C55.1556 29.0544 55.135 29.0537 55.1146 29.0522L55.039 30.0734ZM48.6871 30.0748H55.0768V29.0508H48.6871V30.0748ZM46.6398 29.5617C47.2695 29.8996 47.9732 30.0759 48.6878 30.0748L48.6863 29.0508C48.1411 29.0516 47.6043 28.9171 47.1239 28.6594L46.6398 29.5617ZM45.0798 28.139C45.474 28.735 46.0101 29.2239 46.6398 29.5617L47.1239 28.6594C46.6435 28.4017 46.2346 28.0287 45.9338 27.574L45.0798 28.139ZM39.4187 19.6058L45.0801 28.1396L45.9334 27.5735L40.272 19.0397L39.4187 19.6058ZM37.7255 17.9926C38.4062 18.3914 38.9851 18.9427 39.4168 19.6029L40.2739 19.0426C39.7555 18.2498 39.0604 17.588 38.2431 17.1091L37.7255 17.9926ZM35.1446 17.5802C36.0057 17.3615 36.8407 17.4842 37.7292 17.9948L38.2394 17.107C37.1457 16.4784 36.0389 16.2965 34.8925 16.5877L35.1446 17.5802ZM33.6208 18.4165C34.0542 18.0167 34.5789 17.7292 35.149 17.579L34.8881 16.5888C34.1563 16.7816 33.4828 17.1507 32.9265 17.6638L33.6208 18.4165ZM32.6628 19.8721C32.8585 19.316 33.1874 18.8162 33.6208 18.4165L32.9265 17.6638C32.3702 18.1769 31.9481 18.8184 31.6969 19.5323L32.6628 19.8721ZM26.7138 36.2977L32.6613 19.8765L31.6985 19.5278L25.751 35.949L26.7138 36.2977ZM35.1663 30.5171C33.2081 34.2598 28.7909 35.3242 26.1759 35.6145L26.2889 36.6322C28.9426 36.3376 33.856 35.2303 36.0736 30.9918L35.1663 30.5171ZM36.0886 27.7996L35.1355 30.5889L36.1045 30.92L37.0576 28.1307L36.0886 27.7996ZM35.1394 26.6199C35.4444 27.1022 35.7605 27.6133 36.1354 28.2309L37.0107 27.6994C36.6332 27.0777 36.3138 26.5612 36.0049 26.0727L35.1394 26.6199ZM34.2482 25.2078L35.1392 26.6196L36.0051 26.073L35.1142 24.6613L34.2482 25.2078ZM33.9604 24.5459C34.0141 24.793 34.1176 25.0266 34.2647 25.2323L35.0977 24.6368C35.0317 24.5444 34.9852 24.4396 34.9611 24.3287L33.9604 24.5459ZM33.9527 23.7952C33.9042 24.0433 33.9068 24.2988 33.9604 24.5459L34.9611 24.3287C34.9371 24.2177 34.9359 24.1031 34.9577 23.9916L33.9527 23.7952ZM34.2426 23.1026C34.0999 23.3113 34.0012 23.547 33.9527 23.7952L34.9577 23.9916C34.9794 23.8802 35.0237 23.7744 35.0878 23.6808L34.2426 23.1026ZM34.7829 22.5814C34.5692 22.7165 34.3854 22.8939 34.2426 23.1026L35.0878 23.6808C35.1519 23.5871 35.2344 23.5074 35.3304 23.4468L34.7829 22.5814ZM35.4854 22.3165C35.2357 22.356 34.9966 22.4462 34.7829 22.5814L35.3304 23.4468C35.4263 23.3861 35.5336 23.3456 35.6457 23.3278L35.4854 22.3165ZM36.2354 22.3511C35.9904 22.2887 35.7352 22.2769 35.4854 22.3165L35.6457 23.3278C35.7578 23.3101 35.8724 23.3154 35.9824 23.3434L36.2354 22.3511ZM36.9104 22.6798C36.7101 22.5254 36.4804 22.4136 36.2354 22.3511L35.9824 23.3434C36.0924 23.3714 36.1955 23.4216 36.2854 23.4909L36.9104 22.6798ZM37.4003 23.2487C37.2774 23.0277 37.1107 22.8341 36.9104 22.6798L36.2854 23.4909C36.3753 23.5602 36.4502 23.6471 36.5053 23.7463L37.4003 23.2487ZM38.2806 24.6282L37.3846 23.2223L36.5211 23.7727L37.4171 25.1786L38.2806 24.6282ZM39.5071 26.6179C39.0335 25.8354 38.6505 25.2145 38.2819 24.6302L37.4158 25.1766C37.7803 25.7543 38.16 26.3697 38.6311 27.1481L39.5071 26.6179ZM39.729 26.9565C39.6551 26.8059 39.5619 26.6673 39.4526 26.5438L38.6856 27.2222C38.7346 27.2776 38.7764 27.3398 38.8096 27.4074L39.729 26.9565ZM39.798 27.1155C39.7775 27.0616 39.7545 27.0086 39.729 26.9564L38.8096 27.4074C38.8211 27.4308 38.8314 27.4546 38.8406 27.4788L39.798 27.1155ZM40.1577 27.6992C40.0249 27.4774 39.8916 27.255 39.7578 27.0329L38.8807 27.5614C39.0138 27.7822 39.1463 28.0035 39.2793 28.2254L40.1577 27.6992ZM40.1588 27.701L40.1582 27.7L39.2788 28.2246L39.2794 28.2257L40.1588 27.701ZM40.5288 28.3177C40.4052 28.1123 40.2819 27.9065 40.1583 27.7002L39.2799 28.2264C39.4034 28.4326 39.5272 28.6393 39.6516 28.8459L40.5288 28.3177ZM41.324 29.6447C41.0584 29.2032 40.7937 28.7614 40.5298 28.3193L39.6506 28.8442C39.915 29.2872 40.1804 29.73 40.4465 30.1725L41.324 29.6447ZM41.4425 29.8266C41.4023 29.7685 41.3615 29.7062 41.3225 29.6422L40.448 30.1749C40.4982 30.2573 40.55 30.3364 40.6006 30.4095L41.4425 29.8266ZM42.7387 30.9439C42.2213 30.68 41.7753 30.295 41.4389 29.8215L40.6042 30.4146C41.0363 31.0227 41.609 31.5173 42.2735 31.8561L42.7387 30.9439ZM44.4105 31.3367C43.8297 31.3425 43.2561 31.2077 42.7387 30.9439L42.2735 31.8561C42.9381 32.195 43.6747 32.3681 44.4206 32.3607L44.4105 31.3367ZM55.1915 31.3367H44.4156V32.3607H55.1915V31.3367ZM55.6582 31.2342C55.5131 31.3025 55.3545 31.3376 55.1942 31.3367L55.1889 32.3607C55.5019 32.3623 55.8114 32.2939 56.0946 32.1605L55.6582 31.2342ZM56.0327 30.9417C55.9312 31.0659 55.8032 31.1658 55.6582 31.2342L56.0946 32.1605C56.3778 32.0271 56.6275 31.832 56.8256 31.5896L56.0327 30.9417ZM56.131 30.5321C56.1652 30.5869 56.1805 30.6171 56.1882 30.6376C56.1942 30.6532 56.1934 30.6572 56.1934 30.6578C56.1934 30.6586 56.1924 30.7407 56.0284 30.947L56.8299 31.5843C57.0613 31.2934 57.208 31.0007 57.217 30.6872C57.2261 30.3706 57.0894 30.1337 56.9999 29.9901L56.131 30.5321ZM55.7543 30.1952C55.9095 30.2771 56.0415 30.3968 56.1382 30.5432L56.9927 29.979C56.8012 29.6889 56.5396 29.4518 56.2321 29.2895L55.7543 30.1952ZM55.2744 30.0746C55.4416 30.0757 55.6062 30.117 55.7543 30.1952L56.2321 29.2895C55.9387 29.1347 55.6126 29.0529 55.2814 29.0506L55.2744 30.0746ZM55.1762 30.0784C55.2232 30.0784 55.27 30.0767 55.3165 30.0731L55.2392 29.0521C55.2183 29.0536 55.1973 29.0544 55.1762 29.0544V30.0784ZM24.2216 42.1957L24.1478 48.2325L25.1718 48.245L25.2455 42.2082L24.2216 42.1957ZM30.3095 47.975L25.1238 41.8705L24.3434 42.5334L29.5291 48.638L30.3095 47.975ZM29.4791 52.6474L30.4191 48.4176L29.4195 48.1954L28.4795 52.4252L29.4791 52.6474ZM19.137 66.5087L29.3888 52.8436L28.5697 52.2291L18.3179 65.8942L19.137 66.5087ZM17.9225 67.4586C18.4057 67.2561 18.8256 66.9274 19.1383 66.507L18.3166 65.8959C18.1135 66.1691 17.8406 66.3826 17.5266 66.5143L17.9225 67.4586ZM17.8756 67.4769L17.9084 67.4643L17.5408 66.5086L17.508 66.5212L17.8756 67.4769ZM17.8469 67.4895L17.8924 67.4701L17.4912 66.528L17.4457 66.5474L17.8469 67.4895ZM16.3068 67.6674C16.823 67.7477 17.3512 67.6877 17.8363 67.4939L17.4563 66.543C17.1416 66.6687 16.7989 66.7076 16.4641 66.6556L16.3068 67.6674ZM14.9021 67.0376C15.3054 67.3696 15.7906 67.5872 16.3068 67.6674L16.4641 66.6556C16.1292 66.6035 15.8145 66.4624 15.5529 66.247L14.9021 67.0376ZM13.9863 65.7765C14.1744 66.2735 14.4927 66.7107 14.9079 67.0424L15.547 66.2423C15.2754 66.0253 15.0671 65.7392 14.944 65.4141L13.9863 65.7765ZM13.8389 64.2177C13.7473 64.7411 13.7982 65.2796 13.9863 65.7765L14.944 65.4141C14.821 65.0889 14.7876 64.7366 14.8475 64.3941L13.8389 64.2177ZM13.9734 63.6143C13.9183 63.8138 13.8733 64.0159 13.8385 64.2199L14.8479 64.392C14.8769 64.2218 14.9145 64.0533 14.9604 63.8869L13.9734 63.6143ZM14.45 62.6568C14.2348 62.9426 14.0737 63.2653 13.9748 63.6091L14.9589 63.8922C15.0233 63.6686 15.128 63.4587 15.2679 63.2728L14.45 62.6568ZM23.0317 51.1963L14.4491 62.6579L15.2688 63.2717L23.8514 51.81L23.0317 51.1963ZM24.1449 48.2974C24.0491 49.3481 23.6637 50.3516 23.0316 51.1964L23.8515 51.8099C24.5971 50.8135 25.0516 49.6297 25.1646 48.3904L24.1449 48.2974ZM24.1478 48.2387C24.1478 48.2477 24.1478 48.2541 24.1477 48.2601C24.1477 48.2659 24.1476 48.2698 24.1475 48.2726C24.1473 48.2784 24.1471 48.2771 24.1479 48.2715L25.1616 48.4163C25.1726 48.3391 25.1718 48.2676 25.1718 48.2387H24.1478Z" fill="white" mask="url(#path-1-inside-1_3754_16080)"/>
</svg>
