<svg width="72" height="72" viewBox="0 0 72 72" fill="none" xmlns="http://www.w3.org/2000/svg">
<mask id="path-1-outside-1_3754_16077" maskUnits="userSpaceOnUse" x="0" y="0.0800781" width="72" height="72" fill="black">
<rect fill="white" y="0.0800781" width="72" height="72"/>
<path d="M69.9193 18.7216H68.7253L70.1867 16.512C70.7158 15.7119 70.9016 14.7536 70.7101 13.8137C70.5186 12.8738 69.9724 12.0647 69.1724 11.5355C68.609 11.163 67.9671 10.9614 67.3083 10.9412C67.5052 9.6047 66.9375 8.2104 65.7383 7.41714C65.2274 7.07937 64.6609 6.88989 64.0897 6.83778C64.2819 6.20413 64.2919 5.53733 64.1334 4.91132H69.7829C70.3481 4.91132 70.806 4.45323 70.806 3.8882C70.806 3.32316 70.3481 2.86508 69.7829 2.86508H62.7305C62.6988 2.84271 62.6676 2.81993 62.6351 2.79851C61.2801 1.90239 59.5352 2.04822 58.3487 3.04092C58.0772 2.53577 57.6812 2.0886 57.1703 1.7507C56.3704 1.22154 55.4116 1.03561 54.472 1.22727C53.532 1.4188 52.723 1.96501 52.1939 2.76509L52.1277 2.86522H35.2899L33.9144 2.27508C32.0667 1.4821 30.11 1.08008 28.0991 1.08008H8.2726C6.29239 1.08008 4.68145 2.69115 4.68145 4.67122C4.68145 5.36094 4.87735 6.00551 5.21566 6.55308C3.99133 7.12589 3.14077 8.36891 3.14077 9.80728C3.14077 10.4198 3.2952 10.9968 3.5668 11.502C2.08423 11.9442 1 13.3194 1 14.9436C1 16.5678 2.08423 17.943 3.56666 18.3851C3.29506 18.8903 3.14064 19.4673 3.14064 20.0798C3.14064 22.06 4.75171 23.6709 6.73192 23.6709H18.226L16.7903 24.7675C15.945 25.4128 15.4107 26.35 15.2856 27.4061C15.1605 28.4623 15.4613 29.4984 16.1325 30.3234C16.9042 31.2722 18.022 31.7665 19.153 31.7665C19.9726 31.7665 20.7991 31.5069 21.506 30.9723L24.7036 28.5538L35.0488 38.899C35.2064 39.0566 35.411 39.1584 35.6316 39.1889L52.7275 41.5606C53.7194 41.6983 54.4163 42.5866 54.3139 43.5829C54.2623 44.0853 54.0154 44.5341 53.6187 44.8468C53.2222 45.1594 52.7282 45.295 52.2274 45.2276L47.7812 44.6318L47.3035 44.1541C46.9038 43.7545 46.2561 43.7545 45.8565 44.1541C45.457 44.5536 45.457 45.2015 45.8565 45.6009L56.8459 56.5903C57.1378 56.8821 57.2984 57.27 57.2984 57.6827C57.2984 58.0953 57.1376 58.4833 56.8458 58.7751C56.554 59.0669 56.1661 59.2276 55.7534 59.2276C55.3408 59.2276 54.9527 59.0669 54.6609 58.7751L48.0633 52.1775C47.6636 51.7779 47.0159 51.7779 46.6164 52.1775C46.2168 52.577 46.2168 53.2249 46.6164 53.6243L54.7278 61.7357C55.3302 62.3381 55.3302 63.3183 54.7278 63.9207C54.1256 64.5231 53.1451 64.5231 52.5429 63.9207L44.8944 56.2721C44.4947 55.8726 43.847 55.8726 43.4474 56.2721C43.0479 56.6717 43.0479 57.3195 43.4474 57.719L49.5823 63.8539C50.1847 64.4563 50.1847 65.4364 49.5823 66.0388C49.2905 66.3306 48.9027 66.4913 48.4899 66.4913C48.0771 66.4913 47.6893 66.3306 47.3975 66.0388L41.2624 59.9039C40.8627 59.5044 40.215 59.5044 39.8155 59.9039C39.4159 60.3035 39.4159 60.9513 39.8155 61.3508L44.861 66.3962C45.4634 66.9987 45.4634 67.9788 44.861 68.5812C44.5692 68.873 44.1813 69.0337 43.7685 69.0337C43.3557 69.0337 42.9679 68.873 42.6761 68.5812L28.6564 54.5619C27.4318 53.3373 26.4851 51.901 25.8425 50.2926L25.2093 48.7076C25.1579 48.5788 25.0808 48.4618 24.9826 48.3637L19.5978 42.979C19.1983 42.5794 18.5504 42.5794 18.151 42.979C17.7515 43.3785 17.7515 44.0264 18.151 44.4258L23.3871 49.6618L23.8657 50.8597L11.7979 69.1064C11.4861 69.5777 11.6156 70.2125 12.0869 70.5242C12.2606 70.639 12.4565 70.694 12.6503 70.694C12.9822 70.694 13.3078 70.5326 13.5047 70.2351L24.8971 53.0098C25.5323 54.1008 26.3054 55.1046 27.2096 56.0086L34.5901 63.3891L30.755 69.1877C30.4433 69.659 30.5726 70.2938 31.0439 70.6055C31.2176 70.7205 31.4135 70.7755 31.6073 70.7755C31.9392 70.7755 32.2649 70.6141 32.4617 70.3166L36.0666 64.8658L41.229 70.0282C41.9074 70.7064 42.8091 71.0801 43.7684 71.0801C44.7277 71.0801 45.6295 70.7064 46.3078 70.0282C46.7948 69.5412 47.112 68.9478 47.2601 68.3222C47.6489 68.4635 48.0636 68.5376 48.4896 68.5376C49.4489 68.5376 50.3507 68.1639 51.029 67.4857C51.4542 67.0604 51.7595 66.5474 51.9283 65.9873C52.459 66.2737 53.047 66.4177 53.6352 66.4177C54.5548 66.4177 55.4744 66.0676 56.1746 65.3675C57.3231 64.2189 57.5288 62.4799 56.7931 61.119C57.3423 60.9538 57.8596 60.655 58.2927 60.2219C59.6929 58.8218 59.6929 56.5435 58.2927 55.1433L50.1652 47.0158L51.9557 47.2557C52.1323 47.2793 52.3084 47.2911 52.4833 47.2911C53.3526 47.2911 54.1903 47.0019 54.8855 46.4537C55.7207 45.7953 56.2406 44.85 56.3494 43.7921C56.565 41.6941 55.0975 39.8235 53.0085 39.5338L52.8362 39.5099L53.794 38.0619L55.045 37.2402C56.7259 36.1361 58.1404 34.7258 59.2494 33.0488L63.1589 27.1388C63.4706 26.6675 63.3412 26.0327 62.87 25.721C62.3984 25.4092 61.7641 25.5385 61.4521 26.0099L57.5426 31.9201C56.5875 33.3644 55.3691 34.579 53.9213 35.53L52.4948 36.467C52.3788 36.5431 52.2798 36.642 52.2031 36.7577L50.5891 39.1982L36.2527 37.2093L35.7075 36.664L40.9188 28.7845C41.0416 28.5987 41.1005 28.3778 41.0865 28.1555L39.9961 10.9303C39.9328 9.93074 40.664 9.0705 41.6606 8.97187C42.1628 8.92249 42.6524 9.07445 43.0379 9.40062C43.4235 9.72693 43.6546 10.1841 43.689 10.688L43.9931 15.1635L43.6203 15.7273C43.3085 16.1986 43.438 16.8334 43.9092 17.1451C44.083 17.2601 44.2789 17.3151 44.4727 17.3151C44.8046 17.3151 45.1301 17.1537 45.3271 16.8562L53.9006 3.89365C54.1282 3.54948 54.4762 3.31443 54.8807 3.23204C55.2848 3.14964 55.6973 3.22958 56.0415 3.45712C56.7521 3.92708 56.9478 4.88744 56.4777 5.59803L51.3307 13.3804C51.019 13.8517 51.1485 14.4865 51.6197 14.7982C52.091 15.1098 52.7256 14.9804 53.0376 14.5091L59.3656 4.94119C59.5933 4.59701 59.9413 4.36211 60.3458 4.27957C60.7499 4.19732 61.1622 4.27712 61.5066 4.5048C61.8509 4.73247 62.0856 5.08047 62.1682 5.48494C62.2507 5.88942 62.1706 6.30153 61.9429 6.64584L55.976 15.668C55.6643 16.1393 55.7937 16.774 56.2649 17.0857C56.4387 17.2007 56.6346 17.2557 56.8284 17.2557C57.1603 17.2557 57.486 17.0943 57.6828 16.7968L58.6377 15.3531L62.469 9.56023C62.6966 9.21605 63.0446 8.98101 63.4491 8.89861C63.8532 8.81622 64.2657 8.89616 64.6099 9.12384C65.3205 9.59379 65.5164 10.5542 65.0463 11.2646L60.2601 18.5012C59.9484 18.9725 60.0779 19.6073 60.5491 19.919C60.7228 20.034 60.9187 20.0889 61.1126 20.0889C61.4445 20.0889 61.7701 19.9276 61.967 19.63L65.9032 13.6785C66.1309 13.3343 66.4789 13.0994 66.8832 13.017C67.2874 12.9346 67.6997 13.0146 68.044 13.2421C68.3882 13.4698 68.6232 13.8179 68.7058 14.2222C68.7882 14.6266 68.7082 15.0388 68.4805 15.383L61.3183 26.2122C61.0066 26.6836 61.136 27.3183 61.6072 27.63C61.781 27.745 61.9769 27.8 62.1708 27.8C62.5027 27.8 62.8282 27.6386 63.0251 27.3411L67.3726 20.7677H69.92C70.4852 20.7677 70.9431 20.3097 70.9431 19.7446C70.9431 19.1796 70.4845 18.7216 69.9193 18.7216ZM45.7307 10.5495C45.6587 9.48834 45.1716 8.52579 44.3596 7.8388C43.5477 7.15181 42.5175 6.83123 41.4594 6.936C39.3605 7.14362 37.8208 8.95509 37.9541 11.0598L38.4392 18.7216H34.6543C34.4316 18.7216 34.2148 18.7944 34.0372 18.9289L30.1375 21.8784C29.6867 22.2193 29.5978 22.861 29.9387 23.3116C30.1399 23.5776 30.4458 23.7176 30.7554 23.7176C30.9704 23.7176 31.1872 23.6501 31.3719 23.5104L34.9978 20.7679H38.5689L39.0232 27.9423L34.2313 35.1876L26.3514 27.3077L32.3344 22.7824C32.7849 22.4415 32.874 21.7998 32.5332 21.3492C32.1923 20.8987 31.5506 20.8096 31.1001 21.1503L20.2719 29.3402C19.473 29.9444 18.3522 29.8091 17.7201 29.0321C17.4014 28.6403 17.2586 28.1483 17.3179 27.6468C17.3774 27.1453 17.631 26.7003 18.0325 26.3937L21.5978 23.6709H22.2735C22.8385 23.6709 23.2966 23.2129 23.2966 22.6478C23.2966 22.0828 22.8385 21.6247 22.2735 21.6247H6.73192C5.88 21.6247 5.18687 20.9316 5.18687 20.0798C5.18687 19.2279 5.88 18.5348 6.73192 18.5348H16.0624C16.6274 18.5348 17.0855 18.0767 17.0855 17.5116C17.0855 16.9466 16.6274 16.4885 16.0624 16.4885H4.59128C3.73937 16.4885 3.04624 15.7954 3.04624 14.9435C3.04624 14.0916 3.73937 13.3986 4.59128 13.3986H15.408C15.973 13.3986 16.4311 12.9405 16.4311 12.3754C16.4311 11.8104 15.973 11.3523 15.408 11.3523H6.73192C5.88 11.3523 5.18687 10.6592 5.18687 9.80728C5.18687 8.95536 5.88 8.26237 6.73192 8.26237H15.408C15.973 8.26237 16.4311 7.80429 16.4311 7.23925C16.4311 6.67422 15.973 6.21613 15.408 6.21613H8.2726C7.42068 6.21613 6.72755 5.523 6.72755 4.67109C6.72769 3.81944 7.42068 3.12632 8.2726 3.12632H28.0991C29.8311 3.12632 31.5161 3.47254 33.1076 4.1553L34.6763 4.82837C34.8037 4.88308 34.9409 4.91118 35.0797 4.91118H50.7742L45.8531 12.3517L45.7307 10.5495Z"/>
<path d="M19.0911 44.9422C19.3529 44.9422 19.6148 44.8423 19.8145 44.6425C20.2141 44.2429 20.2141 43.5951 19.8145 43.1956L2.74653 26.1279C2.34697 25.7284 1.69913 25.7284 1.29971 26.1279C0.900144 26.5275 0.900144 27.1753 1.29971 27.5748L18.3677 44.6425C18.5674 44.8423 18.8293 44.9422 19.0911 44.9422Z"/>
</mask>
<path d="M69.9193 18.7216H68.7253L70.1867 16.512C70.7158 15.7119 70.9016 14.7536 70.7101 13.8137C70.5186 12.8738 69.9724 12.0647 69.1724 11.5355C68.609 11.163 67.9671 10.9614 67.3083 10.9412C67.5052 9.6047 66.9375 8.2104 65.7383 7.41714C65.2274 7.07937 64.6609 6.88989 64.0897 6.83778C64.2819 6.20413 64.2919 5.53733 64.1334 4.91132H69.7829C70.3481 4.91132 70.806 4.45323 70.806 3.8882C70.806 3.32316 70.3481 2.86508 69.7829 2.86508H62.7305C62.6988 2.84271 62.6676 2.81993 62.6351 2.79851C61.2801 1.90239 59.5352 2.04822 58.3487 3.04092C58.0772 2.53577 57.6812 2.0886 57.1703 1.7507C56.3704 1.22154 55.4116 1.03561 54.472 1.22727C53.532 1.4188 52.723 1.96501 52.1939 2.76509L52.1277 2.86522H35.2899L33.9144 2.27508C32.0667 1.4821 30.11 1.08008 28.0991 1.08008H8.2726C6.29239 1.08008 4.68145 2.69115 4.68145 4.67122C4.68145 5.36094 4.87735 6.00551 5.21566 6.55308C3.99133 7.12589 3.14077 8.36891 3.14077 9.80728C3.14077 10.4198 3.2952 10.9968 3.5668 11.502C2.08423 11.9442 1 13.3194 1 14.9436C1 16.5678 2.08423 17.943 3.56666 18.3851C3.29506 18.8903 3.14064 19.4673 3.14064 20.0798C3.14064 22.06 4.75171 23.6709 6.73192 23.6709H18.226L16.7903 24.7675C15.945 25.4128 15.4107 26.35 15.2856 27.4061C15.1605 28.4623 15.4613 29.4984 16.1325 30.3234C16.9042 31.2722 18.022 31.7665 19.153 31.7665C19.9726 31.7665 20.7991 31.5069 21.506 30.9723L24.7036 28.5538L35.0488 38.899C35.2064 39.0566 35.411 39.1584 35.6316 39.1889L52.7275 41.5606C53.7194 41.6983 54.4163 42.5866 54.3139 43.5829C54.2623 44.0853 54.0154 44.5341 53.6187 44.8468C53.2222 45.1594 52.7282 45.295 52.2274 45.2276L47.7812 44.6318L47.3035 44.1541C46.9038 43.7545 46.2561 43.7545 45.8565 44.1541C45.457 44.5536 45.457 45.2015 45.8565 45.6009L56.8459 56.5903C57.1378 56.8821 57.2984 57.27 57.2984 57.6827C57.2984 58.0953 57.1376 58.4833 56.8458 58.7751C56.554 59.0669 56.1661 59.2276 55.7534 59.2276C55.3408 59.2276 54.9527 59.0669 54.6609 58.7751L48.0633 52.1775C47.6636 51.7779 47.0159 51.7779 46.6164 52.1775C46.2168 52.577 46.2168 53.2249 46.6164 53.6243L54.7278 61.7357C55.3302 62.3381 55.3302 63.3183 54.7278 63.9207C54.1256 64.5231 53.1451 64.5231 52.5429 63.9207L44.8944 56.2721C44.4947 55.8726 43.847 55.8726 43.4474 56.2721C43.0479 56.6717 43.0479 57.3195 43.4474 57.719L49.5823 63.8539C50.1847 64.4563 50.1847 65.4364 49.5823 66.0388C49.2905 66.3306 48.9027 66.4913 48.4899 66.4913C48.0771 66.4913 47.6893 66.3306 47.3975 66.0388L41.2624 59.9039C40.8627 59.5044 40.215 59.5044 39.8155 59.9039C39.4159 60.3035 39.4159 60.9513 39.8155 61.3508L44.861 66.3962C45.4634 66.9987 45.4634 67.9788 44.861 68.5812C44.5692 68.873 44.1813 69.0337 43.7685 69.0337C43.3557 69.0337 42.9679 68.873 42.6761 68.5812L28.6564 54.5619C27.4318 53.3373 26.4851 51.901 25.8425 50.2926L25.2093 48.7076C25.1579 48.5788 25.0808 48.4618 24.9826 48.3637L19.5978 42.979C19.1983 42.5794 18.5504 42.5794 18.151 42.979C17.7515 43.3785 17.7515 44.0264 18.151 44.4258L23.3871 49.6618L23.8657 50.8597L11.7979 69.1064C11.4861 69.5777 11.6156 70.2125 12.0869 70.5242C12.2606 70.639 12.4565 70.694 12.6503 70.694C12.9822 70.694 13.3078 70.5326 13.5047 70.2351L24.8971 53.0098C25.5323 54.1008 26.3054 55.1046 27.2096 56.0086L34.5901 63.3891L30.755 69.1877C30.4433 69.659 30.5726 70.2938 31.0439 70.6055C31.2176 70.7205 31.4135 70.7755 31.6073 70.7755C31.9392 70.7755 32.2649 70.6141 32.4617 70.3166L36.0666 64.8658L41.229 70.0282C41.9074 70.7064 42.8091 71.0801 43.7684 71.0801C44.7277 71.0801 45.6295 70.7064 46.3078 70.0282C46.7948 69.5412 47.112 68.9478 47.2601 68.3222C47.6489 68.4635 48.0636 68.5376 48.4896 68.5376C49.4489 68.5376 50.3507 68.1639 51.029 67.4857C51.4542 67.0604 51.7595 66.5474 51.9283 65.9873C52.459 66.2737 53.047 66.4177 53.6352 66.4177C54.5548 66.4177 55.4744 66.0676 56.1746 65.3675C57.3231 64.2189 57.5288 62.4799 56.7931 61.119C57.3423 60.9538 57.8596 60.655 58.2927 60.2219C59.6929 58.8218 59.6929 56.5435 58.2927 55.1433L50.1652 47.0158L51.9557 47.2557C52.1323 47.2793 52.3084 47.2911 52.4833 47.2911C53.3526 47.2911 54.1903 47.0019 54.8855 46.4537C55.7207 45.7953 56.2406 44.85 56.3494 43.7921C56.565 41.6941 55.0975 39.8235 53.0085 39.5338L52.8362 39.5099L53.794 38.0619L55.045 37.2402C56.7259 36.1361 58.1404 34.7258 59.2494 33.0488L63.1589 27.1388C63.4706 26.6675 63.3412 26.0327 62.87 25.721C62.3984 25.4092 61.7641 25.5385 61.4521 26.0099L57.5426 31.9201C56.5875 33.3644 55.3691 34.579 53.9213 35.53L52.4948 36.467C52.3788 36.5431 52.2798 36.642 52.2031 36.7577L50.5891 39.1982L36.2527 37.2093L35.7075 36.664L40.9188 28.7845C41.0416 28.5987 41.1005 28.3778 41.0865 28.1555L39.9961 10.9303C39.9328 9.93074 40.664 9.0705 41.6606 8.97187C42.1628 8.92249 42.6524 9.07445 43.0379 9.40062C43.4235 9.72693 43.6546 10.1841 43.689 10.688L43.9931 15.1635L43.6203 15.7273C43.3085 16.1986 43.438 16.8334 43.9092 17.1451C44.083 17.2601 44.2789 17.3151 44.4727 17.3151C44.8046 17.3151 45.1301 17.1537 45.3271 16.8562L53.9006 3.89365C54.1282 3.54948 54.4762 3.31443 54.8807 3.23204C55.2848 3.14964 55.6973 3.22958 56.0415 3.45712C56.7521 3.92708 56.9478 4.88744 56.4777 5.59803L51.3307 13.3804C51.019 13.8517 51.1485 14.4865 51.6197 14.7982C52.091 15.1098 52.7256 14.9804 53.0376 14.5091L59.3656 4.94119C59.5933 4.59701 59.9413 4.36211 60.3458 4.27957C60.7499 4.19732 61.1622 4.27712 61.5066 4.5048C61.8509 4.73247 62.0856 5.08047 62.1682 5.48494C62.2507 5.88942 62.1706 6.30153 61.9429 6.64584L55.976 15.668C55.6643 16.1393 55.7937 16.774 56.2649 17.0857C56.4387 17.2007 56.6346 17.2557 56.8284 17.2557C57.1603 17.2557 57.486 17.0943 57.6828 16.7968L58.6377 15.3531L62.469 9.56023C62.6966 9.21605 63.0446 8.98101 63.4491 8.89861C63.8532 8.81622 64.2657 8.89616 64.6099 9.12384C65.3205 9.59379 65.5164 10.5542 65.0463 11.2646L60.2601 18.5012C59.9484 18.9725 60.0779 19.6073 60.5491 19.919C60.7228 20.034 60.9187 20.0889 61.1126 20.0889C61.4445 20.0889 61.7701 19.9276 61.967 19.63L65.9032 13.6785C66.1309 13.3343 66.4789 13.0994 66.8832 13.017C67.2874 12.9346 67.6997 13.0146 68.044 13.2421C68.3882 13.4698 68.6232 13.8179 68.7058 14.2222C68.7882 14.6266 68.7082 15.0388 68.4805 15.383L61.3183 26.2122C61.0066 26.6836 61.136 27.3183 61.6072 27.63C61.781 27.745 61.9769 27.8 62.1708 27.8C62.5027 27.8 62.8282 27.6386 63.0251 27.3411L67.3726 20.7677H69.92C70.4852 20.7677 70.9431 20.3097 70.9431 19.7446C70.9431 19.1796 70.4845 18.7216 69.9193 18.7216ZM45.7307 10.5495C45.6587 9.48834 45.1716 8.52579 44.3596 7.8388C43.5477 7.15181 42.5175 6.83123 41.4594 6.936C39.3605 7.14362 37.8208 8.95509 37.9541 11.0598L38.4392 18.7216H34.6543C34.4316 18.7216 34.2148 18.7944 34.0372 18.9289L30.1375 21.8784C29.6867 22.2193 29.5978 22.861 29.9387 23.3116C30.1399 23.5776 30.4458 23.7176 30.7554 23.7176C30.9704 23.7176 31.1872 23.6501 31.3719 23.5104L34.9978 20.7679H38.5689L39.0232 27.9423L34.2313 35.1876L26.3514 27.3077L32.3344 22.7824C32.7849 22.4415 32.874 21.7998 32.5332 21.3492C32.1923 20.8987 31.5506 20.8096 31.1001 21.1503L20.2719 29.3402C19.473 29.9444 18.3522 29.8091 17.7201 29.0321C17.4014 28.6403 17.2586 28.1483 17.3179 27.6468C17.3774 27.1453 17.631 26.7003 18.0325 26.3937L21.5978 23.6709H22.2735C22.8385 23.6709 23.2966 23.2129 23.2966 22.6478C23.2966 22.0828 22.8385 21.6247 22.2735 21.6247H6.73192C5.88 21.6247 5.18687 20.9316 5.18687 20.0798C5.18687 19.2279 5.88 18.5348 6.73192 18.5348H16.0624C16.6274 18.5348 17.0855 18.0767 17.0855 17.5116C17.0855 16.9466 16.6274 16.4885 16.0624 16.4885H4.59128C3.73937 16.4885 3.04624 15.7954 3.04624 14.9435C3.04624 14.0916 3.73937 13.3986 4.59128 13.3986H15.408C15.973 13.3986 16.4311 12.9405 16.4311 12.3754C16.4311 11.8104 15.973 11.3523 15.408 11.3523H6.73192C5.88 11.3523 5.18687 10.6592 5.18687 9.80728C5.18687 8.95536 5.88 8.26237 6.73192 8.26237H15.408C15.973 8.26237 16.4311 7.80429 16.4311 7.23925C16.4311 6.67422 15.973 6.21613 15.408 6.21613H8.2726C7.42068 6.21613 6.72755 5.523 6.72755 4.67109C6.72769 3.81944 7.42068 3.12632 8.2726 3.12632H28.0991C29.8311 3.12632 31.5161 3.47254 33.1076 4.1553L34.6763 4.82837C34.8037 4.88308 34.9409 4.91118 35.0797 4.91118H50.7742L45.8531 12.3517L45.7307 10.5495Z" fill="white"/>
<path d="M19.0911 44.9422C19.3529 44.9422 19.6148 44.8423 19.8145 44.6425C20.2141 44.2429 20.2141 43.5951 19.8145 43.1956L2.74653 26.1279C2.34697 25.7284 1.69913 25.7284 1.29971 26.1279C0.900144 26.5275 0.900144 27.1753 1.29971 27.5748L18.3677 44.6425C18.5674 44.8423 18.8293 44.9422 19.0911 44.9422Z" fill="white"/>
<path d="M69.9193 18.7216H68.7253L70.1867 16.512C70.7158 15.7119 70.9016 14.7536 70.7101 13.8137C70.5186 12.8738 69.9724 12.0647 69.1724 11.5355C68.609 11.163 67.9671 10.9614 67.3083 10.9412C67.5052 9.6047 66.9375 8.2104 65.7383 7.41714C65.2274 7.07937 64.6609 6.88989 64.0897 6.83778C64.2819 6.20413 64.2919 5.53733 64.1334 4.91132H69.7829C70.3481 4.91132 70.806 4.45323 70.806 3.8882C70.806 3.32316 70.3481 2.86508 69.7829 2.86508H62.7305C62.6988 2.84271 62.6676 2.81993 62.6351 2.79851C61.2801 1.90239 59.5352 2.04822 58.3487 3.04092C58.0772 2.53577 57.6812 2.0886 57.1703 1.7507C56.3704 1.22154 55.4116 1.03561 54.472 1.22727C53.532 1.4188 52.723 1.96501 52.1939 2.76509L52.1277 2.86522H35.2899L33.9144 2.27508C32.0667 1.4821 30.11 1.08008 28.0991 1.08008H8.2726C6.29239 1.08008 4.68145 2.69115 4.68145 4.67122C4.68145 5.36094 4.87735 6.00551 5.21566 6.55308C3.99133 7.12589 3.14077 8.36891 3.14077 9.80728C3.14077 10.4198 3.2952 10.9968 3.5668 11.502C2.08423 11.9442 1 13.3194 1 14.9436C1 16.5678 2.08423 17.943 3.56666 18.3851C3.29506 18.8903 3.14064 19.4673 3.14064 20.0798C3.14064 22.06 4.75171 23.6709 6.73192 23.6709H18.226L16.7903 24.7675C15.945 25.4128 15.4107 26.35 15.2856 27.4061C15.1605 28.4623 15.4613 29.4984 16.1325 30.3234C16.9042 31.2722 18.022 31.7665 19.153 31.7665C19.9726 31.7665 20.7991 31.5069 21.506 30.9723L24.7036 28.5538L35.0488 38.899C35.2064 39.0566 35.411 39.1584 35.6316 39.1889L52.7275 41.5606C53.7194 41.6983 54.4163 42.5866 54.3139 43.5829C54.2623 44.0853 54.0154 44.5341 53.6187 44.8468C53.2222 45.1594 52.7282 45.295 52.2274 45.2276L47.7812 44.6318L47.3035 44.1541C46.9038 43.7545 46.2561 43.7545 45.8565 44.1541C45.457 44.5536 45.457 45.2015 45.8565 45.6009L56.8459 56.5903C57.1378 56.8821 57.2984 57.27 57.2984 57.6827C57.2984 58.0953 57.1376 58.4833 56.8458 58.7751C56.554 59.0669 56.1661 59.2276 55.7534 59.2276C55.3408 59.2276 54.9527 59.0669 54.6609 58.7751L48.0633 52.1775C47.6636 51.7779 47.0159 51.7779 46.6164 52.1775C46.2168 52.577 46.2168 53.2249 46.6164 53.6243L54.7278 61.7357C55.3302 62.3381 55.3302 63.3183 54.7278 63.9207C54.1256 64.5231 53.1451 64.5231 52.5429 63.9207L44.8944 56.2721C44.4947 55.8726 43.847 55.8726 43.4474 56.2721C43.0479 56.6717 43.0479 57.3195 43.4474 57.719L49.5823 63.8539C50.1847 64.4563 50.1847 65.4364 49.5823 66.0388C49.2905 66.3306 48.9027 66.4913 48.4899 66.4913C48.0771 66.4913 47.6893 66.3306 47.3975 66.0388L41.2624 59.9039C40.8627 59.5044 40.215 59.5044 39.8155 59.9039C39.4159 60.3035 39.4159 60.9513 39.8155 61.3508L44.861 66.3962C45.4634 66.9987 45.4634 67.9788 44.861 68.5812C44.5692 68.873 44.1813 69.0337 43.7685 69.0337C43.3557 69.0337 42.9679 68.873 42.6761 68.5812L28.6564 54.5619C27.4318 53.3373 26.4851 51.901 25.8425 50.2926L25.2093 48.7076C25.1579 48.5788 25.0808 48.4618 24.9826 48.3637L19.5978 42.979C19.1983 42.5794 18.5504 42.5794 18.151 42.979C17.7515 43.3785 17.7515 44.0264 18.151 44.4258L23.3871 49.6618L23.8657 50.8597L11.7979 69.1064C11.4861 69.5777 11.6156 70.2125 12.0869 70.5242C12.2606 70.639 12.4565 70.694 12.6503 70.694C12.9822 70.694 13.3078 70.5326 13.5047 70.2351L24.8971 53.0098C25.5323 54.1008 26.3054 55.1046 27.2096 56.0086L34.5901 63.3891L30.755 69.1877C30.4433 69.659 30.5726 70.2938 31.0439 70.6055C31.2176 70.7205 31.4135 70.7755 31.6073 70.7755C31.9392 70.7755 32.2649 70.6141 32.4617 70.3166L36.0666 64.8658L41.229 70.0282C41.9074 70.7064 42.8091 71.0801 43.7684 71.0801C44.7277 71.0801 45.6295 70.7064 46.3078 70.0282C46.7948 69.5412 47.112 68.9478 47.2601 68.3222C47.6489 68.4635 48.0636 68.5376 48.4896 68.5376C49.4489 68.5376 50.3507 68.1639 51.029 67.4857C51.4542 67.0604 51.7595 66.5474 51.9283 65.9873C52.459 66.2737 53.047 66.4177 53.6352 66.4177C54.5548 66.4177 55.4744 66.0676 56.1746 65.3675C57.3231 64.2189 57.5288 62.4799 56.7931 61.119C57.3423 60.9538 57.8596 60.655 58.2927 60.2219C59.6929 58.8218 59.6929 56.5435 58.2927 55.1433L50.1652 47.0158L51.9557 47.2557C52.1323 47.2793 52.3084 47.2911 52.4833 47.2911C53.3526 47.2911 54.1903 47.0019 54.8855 46.4537C55.7207 45.7953 56.2406 44.85 56.3494 43.7921C56.565 41.6941 55.0975 39.8235 53.0085 39.5338L52.8362 39.5099L53.794 38.0619L55.045 37.2402C56.7259 36.1361 58.1404 34.7258 59.2494 33.0488L63.1589 27.1388C63.4706 26.6675 63.3412 26.0327 62.87 25.721C62.3984 25.4092 61.7641 25.5385 61.4521 26.0099L57.5426 31.9201C56.5875 33.3644 55.3691 34.579 53.9213 35.53L52.4948 36.467C52.3788 36.5431 52.2798 36.642 52.2031 36.7577L50.5891 39.1982L36.2527 37.2093L35.7075 36.664L40.9188 28.7845C41.0416 28.5987 41.1005 28.3778 41.0865 28.1555L39.9961 10.9303C39.9328 9.93074 40.664 9.0705 41.6606 8.97187C42.1628 8.92249 42.6524 9.07445 43.0379 9.40062C43.4235 9.72693 43.6546 10.1841 43.689 10.688L43.9931 15.1635L43.6203 15.7273C43.3085 16.1986 43.438 16.8334 43.9092 17.1451C44.083 17.2601 44.2789 17.3151 44.4727 17.3151C44.8046 17.3151 45.1301 17.1537 45.3271 16.8562L53.9006 3.89365C54.1282 3.54948 54.4762 3.31443 54.8807 3.23204C55.2848 3.14964 55.6973 3.22958 56.0415 3.45712C56.7521 3.92708 56.9478 4.88744 56.4777 5.59803L51.3307 13.3804C51.019 13.8517 51.1485 14.4865 51.6197 14.7982C52.091 15.1098 52.7256 14.9804 53.0376 14.5091L59.3656 4.94119C59.5933 4.59701 59.9413 4.36211 60.3458 4.27957C60.7499 4.19732 61.1622 4.27712 61.5066 4.5048C61.8509 4.73247 62.0856 5.08047 62.1682 5.48494C62.2507 5.88942 62.1706 6.30153 61.9429 6.64584L55.976 15.668C55.6643 16.1393 55.7937 16.774 56.2649 17.0857C56.4387 17.2007 56.6346 17.2557 56.8284 17.2557C57.1603 17.2557 57.486 17.0943 57.6828 16.7968L58.6377 15.3531L62.469 9.56023C62.6966 9.21605 63.0446 8.98101 63.4491 8.89861C63.8532 8.81622 64.2657 8.89616 64.6099 9.12384C65.3205 9.59379 65.5164 10.5542 65.0463 11.2646L60.2601 18.5012C59.9484 18.9725 60.0779 19.6073 60.5491 19.919C60.7228 20.034 60.9187 20.0889 61.1126 20.0889C61.4445 20.0889 61.7701 19.9276 61.967 19.63L65.9032 13.6785C66.1309 13.3343 66.4789 13.0994 66.8832 13.017C67.2874 12.9346 67.6997 13.0146 68.044 13.2421C68.3882 13.4698 68.6232 13.8179 68.7058 14.2222C68.7882 14.6266 68.7082 15.0388 68.4805 15.383L61.3183 26.2122C61.0066 26.6836 61.136 27.3183 61.6072 27.63C61.781 27.745 61.9769 27.8 62.1708 27.8C62.5027 27.8 62.8282 27.6386 63.0251 27.3411L67.3726 20.7677H69.92C70.4852 20.7677 70.9431 20.3097 70.9431 19.7446C70.9431 19.1796 70.4845 18.7216 69.9193 18.7216ZM45.7307 10.5495C45.6587 9.48834 45.1716 8.52579 44.3596 7.8388C43.5477 7.15181 42.5175 6.83123 41.4594 6.936C39.3605 7.14362 37.8208 8.95509 37.9541 11.0598L38.4392 18.7216H34.6543C34.4316 18.7216 34.2148 18.7944 34.0372 18.9289L30.1375 21.8784C29.6867 22.2193 29.5978 22.861 29.9387 23.3116C30.1399 23.5776 30.4458 23.7176 30.7554 23.7176C30.9704 23.7176 31.1872 23.6501 31.3719 23.5104L34.9978 20.7679H38.5689L39.0232 27.9423L34.2313 35.1876L26.3514 27.3077L32.3344 22.7824C32.7849 22.4415 32.874 21.7998 32.5332 21.3492C32.1923 20.8987 31.5506 20.8096 31.1001 21.1503L20.2719 29.3402C19.473 29.9444 18.3522 29.8091 17.7201 29.0321C17.4014 28.6403 17.2586 28.1483 17.3179 27.6468C17.3774 27.1453 17.631 26.7003 18.0325 26.3937L21.5978 23.6709H22.2735C22.8385 23.6709 23.2966 23.2129 23.2966 22.6478C23.2966 22.0828 22.8385 21.6247 22.2735 21.6247H6.73192C5.88 21.6247 5.18687 20.9316 5.18687 20.0798C5.18687 19.2279 5.88 18.5348 6.73192 18.5348H16.0624C16.6274 18.5348 17.0855 18.0767 17.0855 17.5116C17.0855 16.9466 16.6274 16.4885 16.0624 16.4885H4.59128C3.73937 16.4885 3.04624 15.7954 3.04624 14.9435C3.04624 14.0916 3.73937 13.3986 4.59128 13.3986H15.408C15.973 13.3986 16.4311 12.9405 16.4311 12.3754C16.4311 11.8104 15.973 11.3523 15.408 11.3523H6.73192C5.88 11.3523 5.18687 10.6592 5.18687 9.80728C5.18687 8.95536 5.88 8.26237 6.73192 8.26237H15.408C15.973 8.26237 16.4311 7.80429 16.4311 7.23925C16.4311 6.67422 15.973 6.21613 15.408 6.21613H8.2726C7.42068 6.21613 6.72755 5.523 6.72755 4.67109C6.72769 3.81944 7.42068 3.12632 8.2726 3.12632H28.0991C29.8311 3.12632 31.5161 3.47254 33.1076 4.1553L34.6763 4.82837C34.8037 4.88308 34.9409 4.91118 35.0797 4.91118H50.7742L45.8531 12.3517L45.7307 10.5495Z" stroke="white" stroke-width="0.68852" mask="url(#path-1-outside-1_3754_16077)"/>
<path d="M19.0911 44.9422C19.3529 44.9422 19.6148 44.8423 19.8145 44.6425C20.2141 44.2429 20.2141 43.5951 19.8145 43.1956L2.74653 26.1279C2.34697 25.7284 1.69913 25.7284 1.29971 26.1279C0.900144 26.5275 0.900144 27.1753 1.29971 27.5748L18.3677 44.6425C18.5674 44.8423 18.8293 44.9422 19.0911 44.9422Z" stroke="white" stroke-width="0.68852" mask="url(#path-1-outside-1_3754_16077)"/>
</svg>
