<svg width="72" height="72" viewBox="0 0 72 72" fill="none" xmlns="http://www.w3.org/2000/svg">
<path d="M65.0093 42.6363L65.0093 42.6363L65.0078 42.6348C64.5086 42.1355 63.705 42.1419 63.208 42.6387L63.208 42.6387C62.7087 43.1381 62.7152 43.9496 63.2119 44.4465L63.212 44.4466C63.4609 44.6955 63.7878 44.8201 64.1138 44.8201C64.4397 44.8201 64.7666 44.6956 65.0156 44.4466L65.0156 44.4465C65.5136 43.9483 65.5137 43.1408 65.0156 42.6427L65.0093 42.6363Z" fill="white" stroke="white" stroke-width="0.5"/>
<path d="M58.5743 44.4429L58.5743 44.4429C58.3249 44.6943 57.9964 44.8203 57.6686 44.8203C57.3444 44.8203 57.0192 44.6971 56.7706 44.4504L58.5743 44.4429ZM58.5743 44.4429C59.0704 43.9427 59.0667 43.135 58.5666 42.6391L58.5666 42.6391M58.5743 44.4429L58.5666 42.6391M58.5666 42.6391L58.5659 42.6383M58.5666 42.6391L58.5659 42.6383M58.5659 42.6383L58.5582 42.6308M58.5659 42.6383L58.5582 42.6308M58.5582 42.6308C58.0568 42.1337 57.2534 42.1437 56.759 42.6426L58.5582 42.6308ZM56.7589 42.6427C56.2617 43.1441 56.2716 43.9556 56.7705 44.4503L56.7589 42.6427Z" fill="white" stroke="white" stroke-width="0.5"/>
<path d="M52.1157 42.6363L52.1157 42.6363L52.1142 42.6348C51.615 42.1355 50.8114 42.1419 50.3145 42.6387L50.3144 42.6387C49.8151 43.1381 49.8216 43.9496 50.3184 44.4465L50.3184 44.4466C50.5674 44.6955 50.8943 44.8201 51.2202 44.8201C51.5461 44.8201 51.8731 44.6956 52.122 44.4466L52.1221 44.4465C52.6201 43.9483 52.6201 43.1408 52.122 42.6427L52.1157 42.6363Z" fill="white" stroke="white" stroke-width="0.5"/>
<path d="M45.667 42.6363L45.6671 42.6363L45.6655 42.6348C45.1663 42.1355 44.3627 42.1419 43.8657 42.6387L43.8657 42.6387C43.3664 43.1381 43.3729 43.9496 43.8696 44.4465L43.8697 44.4466C44.1186 44.6956 44.4456 44.8201 44.7715 44.8201C45.0974 44.8201 45.4243 44.6955 45.6733 44.4466L45.6733 44.4465C46.1713 43.9483 46.1714 43.1408 45.6733 42.6427L45.667 42.6363Z" fill="white" stroke="white" stroke-width="0.5"/>
<path d="M39.2188 42.6363L39.2188 42.6363L39.2173 42.6348C38.7181 42.1355 37.9145 42.1419 37.4175 42.6387L37.4175 42.6387C36.9181 43.1381 36.9247 43.9496 37.4214 44.4465L37.4214 44.4466C37.6704 44.6956 37.9973 44.8201 38.3232 44.8201C38.6492 44.8201 38.9761 44.6956 39.2251 44.4466L39.2251 44.4465C39.7231 43.9483 39.7231 43.1408 39.2251 42.6427L39.2188 42.6363Z" fill="white" stroke="white" stroke-width="0.5"/>
<path d="M32.7705 42.6363L32.7705 42.6363L32.769 42.6348C32.2698 42.1355 31.4662 42.1419 30.9693 42.6387L30.9692 42.6387C30.4699 43.1381 30.4764 43.9496 30.9732 44.4465L30.9732 44.4466C31.2221 44.6955 31.5491 44.8201 31.875 44.8201C32.2009 44.8201 32.5279 44.6955 32.7768 44.4466L32.7768 44.4465C33.2748 43.9483 33.2749 43.1408 32.7768 42.6427L32.7705 42.6363Z" fill="white" stroke="white" stroke-width="0.5"/>
<path d="M61.9461 37.9224C61.5545 37.3374 60.7628 37.1804 60.1775 37.5716L60.1774 37.5716C59.592 37.9632 59.4345 38.7552 59.8262 39.3409M61.9461 37.9224L59.8262 39.3409M61.9461 37.9224L61.9537 37.9337L61.9546 37.935L61.9546 37.935C62.3463 38.5206 62.1887 39.3126 61.6033 39.7042L61.6032 39.7043C61.3858 39.8496 61.1392 39.9195 60.8953 39.9195C60.4843 39.9195 60.0801 39.7207 59.8341 39.3527L59.8339 39.3525L59.8262 39.3409M61.9461 37.9224L59.8262 39.3409M59.8262 39.3409L59.826 39.3406L60.034 39.2019L59.8262 39.3409Z" fill="white" stroke="white" stroke-width="0.5"/>
<path d="M55.3368 37.7299L55.3368 37.7299C54.8387 37.232 54.0312 37.2319 53.5332 37.7299L53.5332 37.73C53.0352 38.2282 53.0351 39.0357 53.5332 39.5338L53.5332 39.5339L53.5451 39.5457C53.5451 39.5457 53.5451 39.5457 53.5451 39.5458C53.7941 39.7947 54.121 39.9192 54.4469 39.9192C54.7728 39.9192 55.0998 39.7947 55.3487 39.5457L55.3488 39.5457C55.8468 39.0475 55.8468 38.24 55.3487 37.7418L55.3368 37.7299Z" fill="white" stroke="white" stroke-width="0.5"/>
<path d="M48.8809 37.7242L48.8809 37.7242L48.8794 37.7227C48.38 37.2232 47.5764 37.2299 47.0796 37.7266L47.0796 37.7266C46.5802 38.226 46.5868 39.0375 47.0835 39.5344L47.0835 39.5345C47.3325 39.7834 47.6594 39.908 47.9854 39.908C48.3113 39.908 48.6382 39.7834 48.8872 39.5345L48.8872 39.5344C49.3852 39.0362 49.3852 38.2287 48.8872 37.7306L48.8809 37.7242Z" fill="white" stroke="white" stroke-width="0.5"/>
<path d="M42.4327 37.7242L42.4327 37.7242L42.4312 37.7227C41.9319 37.2232 41.1283 37.23 40.6315 37.7266C40.1318 38.2259 40.1386 39.0375 40.6353 39.5344L40.6354 39.5345C40.8843 39.7834 41.2112 39.908 41.5372 39.908C41.8631 39.908 42.19 39.7834 42.439 39.5345L42.439 39.5344C42.937 39.0362 42.9371 38.2287 42.439 37.7306L42.4327 37.7242Z" fill="white" stroke="white" stroke-width="0.5"/>
<path d="M34.0097 39.317L34.0094 39.3164C33.6202 38.7293 33.7805 37.9378 34.3676 37.5486L34.0097 39.317ZM34.0097 39.317L34.0173 39.3283C34.0174 39.3284 34.0174 39.3285 34.0175 39.3286C34.2631 39.699 34.6688 39.8992 35.0813 39.8992C35.3234 39.8992 35.5684 39.8304 35.785 39.6867C36.3722 39.2975 36.5325 38.506 36.1433 37.9188L36.143 37.9183M34.0097 39.317L36.143 37.9183M36.143 37.9183L36.1354 37.9069C36.1354 37.9068 36.1353 37.9067 36.1352 37.9066M36.143 37.9183L36.1352 37.9066M36.1352 37.9066C35.7461 37.3199 34.9549 37.159 34.3677 37.5485L36.1352 37.9066Z" fill="white" stroke="white" stroke-width="0.5"/>
<path d="M52.2604 34.4578L52.2603 34.458C52.0137 34.8228 51.6111 35.0192 51.2027 35.0192C50.9567 35.0192 50.708 34.9481 50.4893 34.8002L52.2604 34.4578ZM52.2604 34.4578L52.2682 34.4462L52.2604 34.4578ZM50.1549 33.0176L50.1551 33.0174C50.5495 32.4338 51.3425 32.2803 51.926 32.6752L50.1549 33.0176ZM50.1549 33.0176L50.1471 33.0291M50.1549 33.0176L50.1471 33.0291M50.1471 33.0291C50.1471 33.0292 50.1471 33.0292 50.1471 33.0293M50.1471 33.0291L50.1471 33.0293M50.1471 33.0293C49.7527 33.6129 49.9059 34.4056 50.4893 34.8002L50.1471 33.0293ZM52.2683 34.446C52.6626 33.8624 52.5094 33.0698 51.9261 32.6752L52.2683 34.446Z" fill="white" stroke="white" stroke-width="0.5"/>
<path d="M44.0447 34.8028L44.0448 34.8029C44.2626 34.9487 44.5096 35.0189 44.754 35.0189C45.1643 35.0189 45.5682 34.8209 45.8143 34.4536L45.8218 34.4424L45.8222 34.4419C46.2145 33.8569 46.0582 33.0643 45.4731 32.6721L45.473 32.6721C44.888 32.2802 44.0957 32.436 43.7035 33.0214L43.696 33.0325L43.696 33.0325L43.6956 33.0331C43.3034 33.6181 43.4597 34.4104 44.0447 34.8028Z" fill="white" stroke="white" stroke-width="0.5"/>
<mask id="path-14-outside-1_3754_16076" maskUnits="userSpaceOnUse" x="0" y="0.0800781" width="72" height="72" fill="black">
<rect fill="white" y="0.0800781" width="72" height="72"/>
<path d="M68.3755 49.6882C69.8227 49.6882 71 48.5106 71 47.0633V45.6613C71 40.1662 68.4678 35.559 63.6769 32.3376C59.5226 29.5439 53.9521 28.0055 47.9913 28.0055C47.8059 28.0055 47.6211 28.007 47.4365 28.01L48.0129 23.7765C49.4464 23.714 50.5942 22.5316 50.5942 21.0827V18.7329C50.5942 17.2421 49.3833 16.0291 47.8947 16.0291H29.9004V9.73975L38.0547 7.61708C39.8224 7.15355 40.8878 5.33716 40.4293 3.5659C39.9669 1.796 38.1489 0.728376 36.3752 1.18603L25.7412 3.95846C24.2557 4.34706 23.2577 5.63921 23.2577 7.17392V16.029H3.69951C2.21092 16.029 1 17.242 1 18.7328V21.0826C1 22.5314 2.14789 23.7139 3.58139 23.7764L9.57746 67.7917C9.84064 69.7278 11.2457 71.0801 12.9942 71.0801H29.3291H66.654C69.0504 71.0801 71 69.1301 71 66.7334V64.1389C71 63.1727 70.2124 62.3868 69.2441 62.3868H67.3082V59.5863C69.0526 59.0999 70.3366 57.4963 70.3366 55.5972C70.3366 53.7131 69.0705 52.1203 67.345 51.6223C67.5823 51.0348 67.7454 50.3877 67.8244 49.6883L68.3755 49.6882ZM25.3083 7.17392C25.3083 6.57734 25.6818 6.09412 26.2592 5.94303L36.8899 3.17128C37.5699 2.99585 38.2678 3.40551 38.4444 4.08221C38.6198 4.75973 38.2116 5.45544 37.5362 5.63264L28.6166 7.95454C28.1648 8.07199 27.8495 8.48015 27.8495 8.94696V16.0289H25.3082L25.3083 7.17392ZM5.65199 23.7824H29.7618C30.3281 23.7824 30.7872 23.3234 30.7872 22.7569C30.7872 22.1904 30.3281 21.7314 29.7618 21.7314H3.69951C3.34787 21.7314 3.05078 21.4343 3.05078 21.0826V18.7328C3.05078 18.3789 3.34787 18.08 3.69951 18.08H47.8948C48.2464 18.08 48.5435 18.3791 48.5435 18.7328V21.0826C48.5435 21.4343 48.2464 21.7314 47.8948 21.7314H29.1277C28.5614 21.7314 28.1023 22.1904 28.1023 22.7569C28.1023 23.3234 28.5614 23.7824 29.1277 23.7824H45.9425L45.3536 28.108C40.4007 28.4932 35.8406 29.9606 32.3061 32.3376C30.0872 33.8297 28.3537 35.6197 27.1311 37.6569L8.39785 43.9397L5.65199 23.7824ZM8.58406 45.3058C8.59049 45.3251 8.59227 45.3448 8.59213 45.3646L8.58406 45.3058ZM8.67977 46.0084L25.9063 40.2307C25.2955 41.9176 24.9829 43.7346 24.9829 45.6613V47.0633C24.9829 48.5106 26.1604 49.6882 27.6075 49.6882H28.1586C28.2375 50.3877 28.4006 51.0346 28.6378 51.6223C26.9123 52.1204 25.6463 53.7133 25.6463 55.5972C25.6463 55.9468 25.6904 56.2861 25.7723 56.6105L10.8294 61.7883L8.67977 46.0084ZM25.641 69.0291H12.9942C12.1798 69.0291 11.7119 68.2688 11.6095 67.5151L11.1117 63.8612L26.7757 58.4335C27.2861 58.9751 27.9385 59.381 28.6747 59.5863V62.3868H26.7388C25.7706 62.3868 24.9829 63.1727 24.9829 64.1389V66.7334C24.9829 67.5757 25.2245 68.3623 25.641 69.0291ZM68.9492 64.4378V66.7334C68.9492 67.9993 67.9196 69.0291 66.654 69.0291H29.3291C28.0635 69.0291 27.0337 67.9993 27.0337 66.7334V64.4378H52.8469C53.4132 64.4378 53.8723 63.9788 53.8723 63.4123C53.8723 62.8458 53.4132 62.3868 52.8469 62.3868H30.7255V59.7385H65.2574V62.3868H51.9024C51.3361 62.3868 50.877 62.8458 50.877 63.4123C50.877 63.9788 51.3361 64.4378 51.9024 64.4378H68.9492ZM68.2859 55.5972C68.2859 56.7499 67.3502 57.6874 66.1999 57.6874H29.7831C28.6329 57.6874 27.6972 56.7499 27.6972 55.5972C27.6972 54.4467 28.6329 53.5107 29.7831 53.5107H29.8672C30.3156 53.961 30.8408 54.3295 31.4412 54.5977C33.3379 55.4447 35.6303 55.1599 37.2913 53.9091C38.3207 54.8248 39.5756 55.3234 40.8744 55.3234C42.1636 55.3234 43.4092 54.8323 44.4342 53.9298C45.4583 54.8298 46.7023 55.3195 47.9895 55.3195C49.2776 55.3195 50.5216 54.8311 51.5468 53.9315C52.5717 54.833 53.8181 55.3236 55.1088 55.3236C56.4087 55.3236 57.6645 54.8242 58.692 53.9095C60.3522 55.1603 62.6425 55.4447 64.5391 54.5985C65.1404 54.3302 65.6661 53.9614 66.115 53.5109H66.1999C67.3502 53.5108 68.2859 54.4466 68.2859 55.5972ZM30.2264 49.6882H65.7567C65.5378 51.1618 64.8284 52.2234 63.7037 52.7252C62.4086 53.3029 60.7585 53.0366 59.6838 52.0715C58.7689 51.2646 58.0384 51.6561 57.5838 52.13C56.883 52.8667 56.004 53.2724 55.1088 53.2724C54.2109 53.2724 53.3306 52.8666 52.6298 52.13C52.6124 52.1117 52.5942 52.0939 52.5756 52.0769C51.6587 51.2455 50.9226 51.646 50.4688 52.1259C49.7577 52.8733 48.9005 53.2683 47.9897 53.2683C47.0945 53.2683 46.2154 52.8626 45.5167 52.1281C45.0631 51.6483 44.329 51.249 43.4089 52.0724C43.3884 52.0908 43.3687 52.1098 43.3497 52.1299C42.6489 52.8666 41.7699 53.2723 40.8747 53.2723C39.9795 53.2723 39.1005 52.8665 38.3965 52.1266C37.9419 51.6525 37.2083 51.2591 36.293 52.0771C35.2232 53.0364 33.572 53.3026 32.2776 52.7247C31.1537 52.2231 30.4451 51.1615 30.2264 49.6882ZM27.6075 47.6372C27.2912 47.6372 27.0337 47.3797 27.0337 47.0633V45.6613C27.0337 39.622 30.523 36.0079 33.4502 34.0396C37.2698 31.471 42.434 30.0565 47.9913 30.0565C53.5487 30.0565 58.7129 31.471 62.5326 34.0396C65.4599 36.0079 68.9492 39.622 68.9492 45.6612V47.0632C68.9492 47.3796 68.6919 47.637 68.3755 47.637L27.6075 47.6372Z"/>
</mask>
<path d="M68.3755 49.6882C69.8227 49.6882 71 48.5106 71 47.0633V45.6613C71 40.1662 68.4678 35.559 63.6769 32.3376C59.5226 29.5439 53.9521 28.0055 47.9913 28.0055C47.8059 28.0055 47.6211 28.007 47.4365 28.01L48.0129 23.7765C49.4464 23.714 50.5942 22.5316 50.5942 21.0827V18.7329C50.5942 17.2421 49.3833 16.0291 47.8947 16.0291H29.9004V9.73975L38.0547 7.61708C39.8224 7.15355 40.8878 5.33716 40.4293 3.5659C39.9669 1.796 38.1489 0.728376 36.3752 1.18603L25.7412 3.95846C24.2557 4.34706 23.2577 5.63921 23.2577 7.17392V16.029H3.69951C2.21092 16.029 1 17.242 1 18.7328V21.0826C1 22.5314 2.14789 23.7139 3.58139 23.7764L9.57746 67.7917C9.84064 69.7278 11.2457 71.0801 12.9942 71.0801H29.3291H66.654C69.0504 71.0801 71 69.1301 71 66.7334V64.1389C71 63.1727 70.2124 62.3868 69.2441 62.3868H67.3082V59.5863C69.0526 59.0999 70.3366 57.4963 70.3366 55.5972C70.3366 53.7131 69.0705 52.1203 67.345 51.6223C67.5823 51.0348 67.7454 50.3877 67.8244 49.6883L68.3755 49.6882ZM25.3083 7.17392C25.3083 6.57734 25.6818 6.09412 26.2592 5.94303L36.8899 3.17128C37.5699 2.99585 38.2678 3.40551 38.4444 4.08221C38.6198 4.75973 38.2116 5.45544 37.5362 5.63264L28.6166 7.95454C28.1648 8.07199 27.8495 8.48015 27.8495 8.94696V16.0289H25.3082L25.3083 7.17392ZM5.65199 23.7824H29.7618C30.3281 23.7824 30.7872 23.3234 30.7872 22.7569C30.7872 22.1904 30.3281 21.7314 29.7618 21.7314H3.69951C3.34787 21.7314 3.05078 21.4343 3.05078 21.0826V18.7328C3.05078 18.3789 3.34787 18.08 3.69951 18.08H47.8948C48.2464 18.08 48.5435 18.3791 48.5435 18.7328V21.0826C48.5435 21.4343 48.2464 21.7314 47.8948 21.7314H29.1277C28.5614 21.7314 28.1023 22.1904 28.1023 22.7569C28.1023 23.3234 28.5614 23.7824 29.1277 23.7824H45.9425L45.3536 28.108C40.4007 28.4932 35.8406 29.9606 32.3061 32.3376C30.0872 33.8297 28.3537 35.6197 27.1311 37.6569L8.39785 43.9397L5.65199 23.7824ZM8.58406 45.3058C8.59049 45.3251 8.59227 45.3448 8.59213 45.3646L8.58406 45.3058ZM8.67977 46.0084L25.9063 40.2307C25.2955 41.9176 24.9829 43.7346 24.9829 45.6613V47.0633C24.9829 48.5106 26.1604 49.6882 27.6075 49.6882H28.1586C28.2375 50.3877 28.4006 51.0346 28.6378 51.6223C26.9123 52.1204 25.6463 53.7133 25.6463 55.5972C25.6463 55.9468 25.6904 56.2861 25.7723 56.6105L10.8294 61.7883L8.67977 46.0084ZM25.641 69.0291H12.9942C12.1798 69.0291 11.7119 68.2688 11.6095 67.5151L11.1117 63.8612L26.7757 58.4335C27.2861 58.9751 27.9385 59.381 28.6747 59.5863V62.3868H26.7388C25.7706 62.3868 24.9829 63.1727 24.9829 64.1389V66.7334C24.9829 67.5757 25.2245 68.3623 25.641 69.0291ZM68.9492 64.4378V66.7334C68.9492 67.9993 67.9196 69.0291 66.654 69.0291H29.3291C28.0635 69.0291 27.0337 67.9993 27.0337 66.7334V64.4378H52.8469C53.4132 64.4378 53.8723 63.9788 53.8723 63.4123C53.8723 62.8458 53.4132 62.3868 52.8469 62.3868H30.7255V59.7385H65.2574V62.3868H51.9024C51.3361 62.3868 50.877 62.8458 50.877 63.4123C50.877 63.9788 51.3361 64.4378 51.9024 64.4378H68.9492ZM68.2859 55.5972C68.2859 56.7499 67.3502 57.6874 66.1999 57.6874H29.7831C28.6329 57.6874 27.6972 56.7499 27.6972 55.5972C27.6972 54.4467 28.6329 53.5107 29.7831 53.5107H29.8672C30.3156 53.961 30.8408 54.3295 31.4412 54.5977C33.3379 55.4447 35.6303 55.1599 37.2913 53.9091C38.3207 54.8248 39.5756 55.3234 40.8744 55.3234C42.1636 55.3234 43.4092 54.8323 44.4342 53.9298C45.4583 54.8298 46.7023 55.3195 47.9895 55.3195C49.2776 55.3195 50.5216 54.8311 51.5468 53.9315C52.5717 54.833 53.8181 55.3236 55.1088 55.3236C56.4087 55.3236 57.6645 54.8242 58.692 53.9095C60.3522 55.1603 62.6425 55.4447 64.5391 54.5985C65.1404 54.3302 65.6661 53.9614 66.115 53.5109H66.1999C67.3502 53.5108 68.2859 54.4466 68.2859 55.5972ZM30.2264 49.6882H65.7567C65.5378 51.1618 64.8284 52.2234 63.7037 52.7252C62.4086 53.3029 60.7585 53.0366 59.6838 52.0715C58.7689 51.2646 58.0384 51.6561 57.5838 52.13C56.883 52.8667 56.004 53.2724 55.1088 53.2724C54.2109 53.2724 53.3306 52.8666 52.6298 52.13C52.6124 52.1117 52.5942 52.0939 52.5756 52.0769C51.6587 51.2455 50.9226 51.646 50.4688 52.1259C49.7577 52.8733 48.9005 53.2683 47.9897 53.2683C47.0945 53.2683 46.2154 52.8626 45.5167 52.1281C45.0631 51.6483 44.329 51.249 43.4089 52.0724C43.3884 52.0908 43.3687 52.1098 43.3497 52.1299C42.6489 52.8666 41.7699 53.2723 40.8747 53.2723C39.9795 53.2723 39.1005 52.8665 38.3965 52.1266C37.9419 51.6525 37.2083 51.2591 36.293 52.0771C35.2232 53.0364 33.572 53.3026 32.2776 52.7247C31.1537 52.2231 30.4451 51.1615 30.2264 49.6882ZM27.6075 47.6372C27.2912 47.6372 27.0337 47.3797 27.0337 47.0633V45.6613C27.0337 39.622 30.523 36.0079 33.4502 34.0396C37.2698 31.471 42.434 30.0565 47.9913 30.0565C53.5487 30.0565 58.7129 31.471 62.5326 34.0396C65.4599 36.0079 68.9492 39.622 68.9492 45.6612V47.0632C68.9492 47.3796 68.6919 47.637 68.3755 47.637L27.6075 47.6372Z" fill="white"/>
<path d="M68.3755 49.6882C69.8227 49.6882 71 48.5106 71 47.0633V45.6613C71 40.1662 68.4678 35.559 63.6769 32.3376C59.5226 29.5439 53.9521 28.0055 47.9913 28.0055C47.8059 28.0055 47.6211 28.007 47.4365 28.01L48.0129 23.7765C49.4464 23.714 50.5942 22.5316 50.5942 21.0827V18.7329C50.5942 17.2421 49.3833 16.0291 47.8947 16.0291H29.9004V9.73975L38.0547 7.61708C39.8224 7.15355 40.8878 5.33716 40.4293 3.5659C39.9669 1.796 38.1489 0.728376 36.3752 1.18603L25.7412 3.95846C24.2557 4.34706 23.2577 5.63921 23.2577 7.17392V16.029H3.69951C2.21092 16.029 1 17.242 1 18.7328V21.0826C1 22.5314 2.14789 23.7139 3.58139 23.7764L9.57746 67.7917C9.84064 69.7278 11.2457 71.0801 12.9942 71.0801H29.3291H66.654C69.0504 71.0801 71 69.1301 71 66.7334V64.1389C71 63.1727 70.2124 62.3868 69.2441 62.3868H67.3082V59.5863C69.0526 59.0999 70.3366 57.4963 70.3366 55.5972C70.3366 53.7131 69.0705 52.1203 67.345 51.6223C67.5823 51.0348 67.7454 50.3877 67.8244 49.6883L68.3755 49.6882ZM25.3083 7.17392C25.3083 6.57734 25.6818 6.09412 26.2592 5.94303L36.8899 3.17128C37.5699 2.99585 38.2678 3.40551 38.4444 4.08221C38.6198 4.75973 38.2116 5.45544 37.5362 5.63264L28.6166 7.95454C28.1648 8.07199 27.8495 8.48015 27.8495 8.94696V16.0289H25.3082L25.3083 7.17392ZM5.65199 23.7824H29.7618C30.3281 23.7824 30.7872 23.3234 30.7872 22.7569C30.7872 22.1904 30.3281 21.7314 29.7618 21.7314H3.69951C3.34787 21.7314 3.05078 21.4343 3.05078 21.0826V18.7328C3.05078 18.3789 3.34787 18.08 3.69951 18.08H47.8948C48.2464 18.08 48.5435 18.3791 48.5435 18.7328V21.0826C48.5435 21.4343 48.2464 21.7314 47.8948 21.7314H29.1277C28.5614 21.7314 28.1023 22.1904 28.1023 22.7569C28.1023 23.3234 28.5614 23.7824 29.1277 23.7824H45.9425L45.3536 28.108C40.4007 28.4932 35.8406 29.9606 32.3061 32.3376C30.0872 33.8297 28.3537 35.6197 27.1311 37.6569L8.39785 43.9397L5.65199 23.7824ZM8.58406 45.3058C8.59049 45.3251 8.59227 45.3448 8.59213 45.3646L8.58406 45.3058ZM8.67977 46.0084L25.9063 40.2307C25.2955 41.9176 24.9829 43.7346 24.9829 45.6613V47.0633C24.9829 48.5106 26.1604 49.6882 27.6075 49.6882H28.1586C28.2375 50.3877 28.4006 51.0346 28.6378 51.6223C26.9123 52.1204 25.6463 53.7133 25.6463 55.5972C25.6463 55.9468 25.6904 56.2861 25.7723 56.6105L10.8294 61.7883L8.67977 46.0084ZM25.641 69.0291H12.9942C12.1798 69.0291 11.7119 68.2688 11.6095 67.5151L11.1117 63.8612L26.7757 58.4335C27.2861 58.9751 27.9385 59.381 28.6747 59.5863V62.3868H26.7388C25.7706 62.3868 24.9829 63.1727 24.9829 64.1389V66.7334C24.9829 67.5757 25.2245 68.3623 25.641 69.0291ZM68.9492 64.4378V66.7334C68.9492 67.9993 67.9196 69.0291 66.654 69.0291H29.3291C28.0635 69.0291 27.0337 67.9993 27.0337 66.7334V64.4378H52.8469C53.4132 64.4378 53.8723 63.9788 53.8723 63.4123C53.8723 62.8458 53.4132 62.3868 52.8469 62.3868H30.7255V59.7385H65.2574V62.3868H51.9024C51.3361 62.3868 50.877 62.8458 50.877 63.4123C50.877 63.9788 51.3361 64.4378 51.9024 64.4378H68.9492ZM68.2859 55.5972C68.2859 56.7499 67.3502 57.6874 66.1999 57.6874H29.7831C28.6329 57.6874 27.6972 56.7499 27.6972 55.5972C27.6972 54.4467 28.6329 53.5107 29.7831 53.5107H29.8672C30.3156 53.961 30.8408 54.3295 31.4412 54.5977C33.3379 55.4447 35.6303 55.1599 37.2913 53.9091C38.3207 54.8248 39.5756 55.3234 40.8744 55.3234C42.1636 55.3234 43.4092 54.8323 44.4342 53.9298C45.4583 54.8298 46.7023 55.3195 47.9895 55.3195C49.2776 55.3195 50.5216 54.8311 51.5468 53.9315C52.5717 54.833 53.8181 55.3236 55.1088 55.3236C56.4087 55.3236 57.6645 54.8242 58.692 53.9095C60.3522 55.1603 62.6425 55.4447 64.5391 54.5985C65.1404 54.3302 65.6661 53.9614 66.115 53.5109H66.1999C67.3502 53.5108 68.2859 54.4466 68.2859 55.5972ZM30.2264 49.6882H65.7567C65.5378 51.1618 64.8284 52.2234 63.7037 52.7252C62.4086 53.3029 60.7585 53.0366 59.6838 52.0715C58.7689 51.2646 58.0384 51.6561 57.5838 52.13C56.883 52.8667 56.004 53.2724 55.1088 53.2724C54.2109 53.2724 53.3306 52.8666 52.6298 52.13C52.6124 52.1117 52.5942 52.0939 52.5756 52.0769C51.6587 51.2455 50.9226 51.646 50.4688 52.1259C49.7577 52.8733 48.9005 53.2683 47.9897 53.2683C47.0945 53.2683 46.2154 52.8626 45.5167 52.1281C45.0631 51.6483 44.329 51.249 43.4089 52.0724C43.3884 52.0908 43.3687 52.1098 43.3497 52.1299C42.6489 52.8666 41.7699 53.2723 40.8747 53.2723C39.9795 53.2723 39.1005 52.8665 38.3965 52.1266C37.9419 51.6525 37.2083 51.2591 36.293 52.0771C35.2232 53.0364 33.572 53.3026 32.2776 52.7247C31.1537 52.2231 30.4451 51.1615 30.2264 49.6882ZM27.6075 47.6372C27.2912 47.6372 27.0337 47.3797 27.0337 47.0633V45.6613C27.0337 39.622 30.523 36.0079 33.4502 34.0396C37.2698 31.471 42.434 30.0565 47.9913 30.0565C53.5487 30.0565 58.7129 31.471 62.5326 34.0396C65.4599 36.0079 68.9492 39.622 68.9492 45.6612V47.0632C68.9492 47.3796 68.6919 47.637 68.3755 47.637L27.6075 47.6372Z" stroke="white" mask="url(#path-14-outside-1_3754_16076)"/>
</svg>
