<svg width="70" height="70" viewBox="0 0 70 70" fill="none" xmlns="http://www.w3.org/2000/svg">
<mask id="path-1-inside-1_3754_16084" fill="white">
<path d="M57.4867 59.7153C64.3854 59.7153 69.998 54.1026 69.998 47.2037C69.998 42.5888 67.4679 38.3876 63.4657 36.2111C63.5643 35.5935 63.6141 34.9672 63.6141 34.3384C63.6141 27.8321 58.321 22.5389 51.8149 22.5389C50.5689 22.5389 49.368 22.7346 48.2395 23.0943C48.2557 22.7242 48.2667 22.3538 48.2667 21.984C48.2667 17.4874 47.0661 13.074 44.7947 9.22086C42.5906 5.48188 39.44 2.35689 35.6835 0.18375C35.26 -0.06125 34.7379 -0.06125 34.3143 0.18375C30.5577 2.35689 27.4072 5.48188 25.2031 9.22086C22.9317 13.074 21.7311 17.4874 21.7311 21.984C21.7311 22.1715 21.7363 22.3586 21.7404 22.5457C20.5767 22.3155 19.3894 22.1975 18.1917 22.1975C14.4436 22.1975 10.8441 23.3285 7.78235 25.4682C4.79103 27.5588 2.51883 30.4568 1.21143 33.8492C0.939914 34.5537 1.291 35.3451 1.99549 35.6166C2.15722 35.6789 2.32333 35.7085 2.48684 35.7085C3.03575 35.7085 3.55363 35.3754 3.7628 34.8325C6.04512 28.9105 11.8436 24.9318 18.1918 24.9318C19.4717 24.9318 20.7364 25.0901 21.9641 25.398C22.4138 28.6937 23.5107 31.876 25.2031 34.7469C27.2236 38.1745 30.0412 41.0837 33.3903 43.2191C32.1319 50.03 26.4312 55.1785 19.559 55.7869V50.5683L25.7915 44.3356C26.3254 43.8017 26.3254 42.936 25.7915 42.402C25.2576 41.8679 24.392 41.8681 23.858 42.402L19.559 46.7011V36.5261C19.559 35.771 18.9469 35.1589 18.1918 35.1589C17.4367 35.1589 16.8247 35.771 16.8247 36.5261V40.8047L14.1571 38.137C13.6232 37.6031 12.7575 37.6031 12.2235 38.137C11.6895 38.6709 11.6897 39.5366 12.2235 40.0706L16.8247 44.6719V55.7837C11.024 55.2597 5.88024 51.4408 3.76294 45.9475C3.49129 45.243 2.70012 44.8921 1.99549 45.1635C1.291 45.4351 0.939914 46.2264 1.21157 46.931C2.51911 50.3233 4.79131 53.2213 7.78249 55.3116C10.47 57.1897 13.5718 58.29 16.8245 58.5312V67.2656H1.36715C0.612072 67.2656 0 67.8777 0 68.6328C0 69.3879 0.612072 70 1.36715 70H68.6308C69.3859 70 69.998 69.3879 69.998 68.6328C69.998 67.8777 69.3859 67.2656 68.6308 67.2656H52.3057V58.5945C53.9198 59.3313 55.6752 59.7153 57.4867 59.7153ZM60.8798 34.3386C60.8798 35.1143 60.7816 35.8848 60.588 36.6287C60.4184 37.281 60.7494 37.9597 61.3678 38.2275C64.9494 39.7787 67.2637 43.3021 67.2637 47.2038C67.2637 52.595 62.8777 56.9811 57.4867 56.9811C55.6344 56.9811 53.8573 56.4684 52.3057 55.4948V47.4748L57.6863 42.0941C58.2201 41.5602 58.2201 40.6945 57.6863 40.1604C57.1524 39.6266 56.2867 39.6266 55.7527 40.1604L52.3056 43.6077V40.6505C52.3056 39.8954 51.6935 39.2833 50.9384 39.2833C50.1833 39.2833 49.5713 39.8954 49.5713 40.6505V48.8299L46.4627 45.7212C45.9288 45.1873 45.0631 45.1873 44.5291 45.7212C43.9951 46.2551 43.9952 47.1208 44.5291 47.6548L49.5711 52.697V55.529C48.1708 56.4803 46.5462 56.981 44.8338 56.981C40.1646 56.981 36.3659 53.1821 36.3659 48.5127C36.3659 44.6101 39.0084 41.2303 42.792 40.2938C43.1944 40.1941 43.5297 39.9175 43.704 39.5414C43.8783 39.1653 43.8725 38.7305 43.6884 38.3593C43.0656 37.1031 42.7498 35.7503 42.7498 34.3384C42.7498 29.3398 46.8163 25.2733 51.8146 25.2733C56.8129 25.2733 60.8798 29.34 60.8798 34.3386ZM24.4655 21.984C24.4655 14.2666 28.4815 7.05168 34.999 2.96311C41.5165 7.05154 45.5324 14.2665 45.5324 21.984C45.5324 22.8055 45.4857 23.6303 45.3971 24.4448C42.1613 26.5512 40.0157 30.1979 40.0157 34.3384C40.0157 35.0681 40.0831 35.7853 40.2122 36.488C39.0688 37.8369 37.782 39.037 36.3661 40.0758V24.1604L40.5678 19.9586C41.1017 19.4247 41.1017 18.559 40.5678 18.025C40.0339 17.4911 39.1682 17.4911 38.6342 18.025L36.3661 20.2934V14.4922C36.3661 13.7371 35.7541 13.125 34.999 13.125C34.2439 13.125 33.6318 13.7371 33.6318 14.4922V26.6973L30.2436 23.309C29.7098 22.7752 28.8441 22.7752 28.3102 23.309C27.7763 23.8429 27.7763 24.7086 28.3102 25.2425L33.6318 30.5643V40.072C27.9255 35.8725 24.4655 29.1454 24.4655 21.984ZM19.559 58.5304C25.4441 58.0884 30.6247 54.8179 33.6318 50.0105V67.2656H19.559V58.5304ZM36.3661 67.2656V55.8343C38.4218 58.2088 41.4544 59.7155 44.8341 59.7155C46.4996 59.7155 48.1028 59.3579 49.5714 58.6687V67.2656H36.3661Z"/>
</mask>
<path d="M57.4867 59.7153C64.3854 59.7153 69.998 54.1026 69.998 47.2037C69.998 42.5888 67.4679 38.3876 63.4657 36.2111C63.5643 35.5935 63.6141 34.9672 63.6141 34.3384C63.6141 27.8321 58.321 22.5389 51.8149 22.5389C50.5689 22.5389 49.368 22.7346 48.2395 23.0943C48.2557 22.7242 48.2667 22.3538 48.2667 21.984C48.2667 17.4874 47.0661 13.074 44.7947 9.22086C42.5906 5.48188 39.44 2.35689 35.6835 0.18375C35.26 -0.06125 34.7379 -0.06125 34.3143 0.18375C30.5577 2.35689 27.4072 5.48188 25.2031 9.22086C22.9317 13.074 21.7311 17.4874 21.7311 21.984C21.7311 22.1715 21.7363 22.3586 21.7404 22.5457C20.5767 22.3155 19.3894 22.1975 18.1917 22.1975C14.4436 22.1975 10.8441 23.3285 7.78235 25.4682C4.79103 27.5588 2.51883 30.4568 1.21143 33.8492C0.939914 34.5537 1.291 35.3451 1.99549 35.6166C2.15722 35.6789 2.32333 35.7085 2.48684 35.7085C3.03575 35.7085 3.55363 35.3754 3.7628 34.8325C6.04512 28.9105 11.8436 24.9318 18.1918 24.9318C19.4717 24.9318 20.7364 25.0901 21.9641 25.398C22.4138 28.6937 23.5107 31.876 25.2031 34.7469C27.2236 38.1745 30.0412 41.0837 33.3903 43.2191C32.1319 50.03 26.4312 55.1785 19.559 55.7869V50.5683L25.7915 44.3356C26.3254 43.8017 26.3254 42.936 25.7915 42.402C25.2576 41.8679 24.392 41.8681 23.858 42.402L19.559 46.7011V36.5261C19.559 35.771 18.9469 35.1589 18.1918 35.1589C17.4367 35.1589 16.8247 35.771 16.8247 36.5261V40.8047L14.1571 38.137C13.6232 37.6031 12.7575 37.6031 12.2235 38.137C11.6895 38.6709 11.6897 39.5366 12.2235 40.0706L16.8247 44.6719V55.7837C11.024 55.2597 5.88024 51.4408 3.76294 45.9475C3.49129 45.243 2.70012 44.8921 1.99549 45.1635C1.291 45.4351 0.939914 46.2264 1.21157 46.931C2.51911 50.3233 4.79131 53.2213 7.78249 55.3116C10.47 57.1897 13.5718 58.29 16.8245 58.5312V67.2656H1.36715C0.612072 67.2656 0 67.8777 0 68.6328C0 69.3879 0.612072 70 1.36715 70H68.6308C69.3859 70 69.998 69.3879 69.998 68.6328C69.998 67.8777 69.3859 67.2656 68.6308 67.2656H52.3057V58.5945C53.9198 59.3313 55.6752 59.7153 57.4867 59.7153ZM60.8798 34.3386C60.8798 35.1143 60.7816 35.8848 60.588 36.6287C60.4184 37.281 60.7494 37.9597 61.3678 38.2275C64.9494 39.7787 67.2637 43.3021 67.2637 47.2038C67.2637 52.595 62.8777 56.9811 57.4867 56.9811C55.6344 56.9811 53.8573 56.4684 52.3057 55.4948V47.4748L57.6863 42.0941C58.2201 41.5602 58.2201 40.6945 57.6863 40.1604C57.1524 39.6266 56.2867 39.6266 55.7527 40.1604L52.3056 43.6077V40.6505C52.3056 39.8954 51.6935 39.2833 50.9384 39.2833C50.1833 39.2833 49.5713 39.8954 49.5713 40.6505V48.8299L46.4627 45.7212C45.9288 45.1873 45.0631 45.1873 44.5291 45.7212C43.9951 46.2551 43.9952 47.1208 44.5291 47.6548L49.5711 52.697V55.529C48.1708 56.4803 46.5462 56.981 44.8338 56.981C40.1646 56.981 36.3659 53.1821 36.3659 48.5127C36.3659 44.6101 39.0084 41.2303 42.792 40.2938C43.1944 40.1941 43.5297 39.9175 43.704 39.5414C43.8783 39.1653 43.8725 38.7305 43.6884 38.3593C43.0656 37.1031 42.7498 35.7503 42.7498 34.3384C42.7498 29.3398 46.8163 25.2733 51.8146 25.2733C56.8129 25.2733 60.8798 29.34 60.8798 34.3386ZM24.4655 21.984C24.4655 14.2666 28.4815 7.05168 34.999 2.96311C41.5165 7.05154 45.5324 14.2665 45.5324 21.984C45.5324 22.8055 45.4857 23.6303 45.3971 24.4448C42.1613 26.5512 40.0157 30.1979 40.0157 34.3384C40.0157 35.0681 40.0831 35.7853 40.2122 36.488C39.0688 37.8369 37.782 39.037 36.3661 40.0758V24.1604L40.5678 19.9586C41.1017 19.4247 41.1017 18.559 40.5678 18.025C40.0339 17.4911 39.1682 17.4911 38.6342 18.025L36.3661 20.2934V14.4922C36.3661 13.7371 35.7541 13.125 34.999 13.125C34.2439 13.125 33.6318 13.7371 33.6318 14.4922V26.6973L30.2436 23.309C29.7098 22.7752 28.8441 22.7752 28.3102 23.309C27.7763 23.8429 27.7763 24.7086 28.3102 25.2425L33.6318 30.5643V40.072C27.9255 35.8725 24.4655 29.1454 24.4655 21.984ZM19.559 58.5304C25.4441 58.0884 30.6247 54.8179 33.6318 50.0105V67.2656H19.559V58.5304ZM36.3661 67.2656V55.8343C38.4218 58.2088 41.4544 59.7155 44.8341 59.7155C46.4996 59.7155 48.1028 59.3579 49.5714 58.6687V67.2656H36.3661Z" fill="white" stroke="white" stroke-width="2" mask="url(#path-1-inside-1_3754_16084)"/>
<path d="M55.9196 8.15757V8.1576C55.9196 11.4242 58.5761 14.0808 61.8427 14.0808C65.1092 14.0808 67.7657 11.4242 67.7657 8.1576C67.7657 4.89102 65.1092 2.23438 61.8427 2.23438C58.5763 2.23438 55.9197 4.89103 55.9196 8.15757ZM69.5 8.15746C69.5 12.3794 66.0644 15.8151 61.8427 15.8151C57.6209 15.8151 54.1853 12.3796 54.1853 8.1576C54.1853 3.93554 57.6208 0.5 61.8427 0.5C66.0646 0.5 69.5 3.93555 69.5 8.15746Z" fill="white" stroke="white"/>
<path d="M2.2343 40.39C2.2343 40.6158 2.1415 40.8406 1.97968 41.0036C1.81996 41.163 1.59496 41.2559 1.36715 41.2559C1.1391 41.2559 0.913883 41.1628 0.754133 41.0031C0.593482 40.8424 0.5 40.6168 0.5 40.39C0.5 40.1616 0.593668 39.9361 0.754133 39.7756C0.914783 39.615 1.14038 39.5215 1.36715 39.5215C1.59369 39.5215 1.81906 39.6148 1.97968 39.7751C2.14131 39.9379 2.2343 40.1626 2.2343 40.39Z" fill="white" stroke="white"/>
</svg>
