<svg width="70" height="70" viewBox="0 0 70 70" fill="none" xmlns="http://www.w3.org/2000/svg">
<mask id="path-1-inside-1_3754_16082" fill="white">
<path fill-rule="evenodd" clip-rule="evenodd" d="M29.1443 9.03779C29.1443 11.613 31.2319 13.7006 33.8071 13.7006C36.3823 13.7006 38.4699 11.613 38.4699 9.03779C38.4699 6.4626 36.3823 4.375 33.8071 4.375C31.2319 4.375 29.1443 6.4626 29.1443 9.03779ZM36.1385 9.03779C36.1385 10.3254 35.0947 11.3692 33.8071 11.3692C32.5195 11.3692 31.4757 10.3254 31.4757 9.03779C31.4757 7.75019 32.5195 6.70639 33.8071 6.70639C35.0947 6.70639 36.1385 7.75019 36.1385 9.03779ZM50.1231 18.9459C50.1231 22.4868 52.9935 25.3573 56.5344 25.3573C60.0753 25.3573 62.9457 22.4868 62.9457 18.9459C62.9457 15.405 60.0753 12.5346 56.5344 12.5346C52.9951 12.5384 50.1269 15.4066 50.1231 18.9459ZM60.6143 18.9459C60.6143 21.1992 58.7877 23.0259 56.5344 23.0259C54.2811 23.0259 52.4545 21.1992 52.4545 18.9459C52.4545 16.6926 54.2811 14.866 56.5344 14.866C58.7877 14.866 60.6143 16.6926 60.6143 18.9459ZM54.5378 43.921C52.6265 44.2861 50.687 43.4415 49.6523 41.7936L46.3791 36.4698L44.1129 39.869L51.0465 43.3346C51.9474 43.7877 52.6782 44.519 53.1308 45.4201L58.9593 57.077C59.5125 58.1831 59.6038 59.4636 59.2129 60.6369C58.822 61.8102 57.981 62.7801 56.875 63.3333C56.2291 63.6545 55.5179 63.8228 54.7966 63.8253H68.7768C69.4206 63.8253 69.9425 64.3472 69.9425 64.991C69.9425 65.6348 69.4206 66.1567 68.7768 66.1567H30.3088C29.665 66.1567 29.1431 65.6348 29.1431 64.991C29.1431 64.3472 29.665 63.8253 30.3088 63.8253H54.7524C52.9978 63.8185 51.3957 62.8217 50.6152 61.2479L45.4861 50.9804L37.3029 46.89L27.7314 51.6717C26.2751 52.3841 24.5556 52.3023 23.1735 51.4549L13.848 45.6264C11.6642 44.2615 11.0003 41.3848 12.3652 39.2011C13.73 37.0173 16.6067 36.3535 18.7905 37.7183L25.9013 42.1608L28.8295 40.6967L25.456 33.9356C24.7306 33.4783 24.1535 32.8202 23.7948 32.0414L19.0155 29.6563L12.181 33.0788C11.0256 33.6552 9.65423 33.593 8.55569 32.9145L1.74918 28.6538C0.913088 28.1338 0.318225 27.3026 0.0958191 26.3434C-0.126586 25.3842 0.0417412 24.376 0.563668 23.5411C1.08636 22.7035 1.92045 22.1078 2.88238 21.8853C3.84431 21.6627 4.85525 21.8315 5.69273 22.3544L10.725 25.5018L16.4661 22.6202L20.5787 16.4595H18.0048L14.8493 19.6255C13.9192 20.599 12.5353 20.9933 11.2318 20.6562C9.92824 20.319 8.90903 19.3032 8.56755 18.0008C8.22608 16.6984 8.61576 15.3132 9.58616 14.3799L13.841 10.1251C14.5407 9.43049 15.486 9.03972 16.4719 9.03749H24.1189C25.4095 9.03342 26.6081 9.70461 27.2791 10.807L32.7311 19.6663C33.0828 19.5789 33.4435 19.5327 33.8059 19.5288H44.2971C45.9171 19.522 47.423 20.3618 48.2687 21.7436L55.8923 34.1396L64.3658 32.4459C66.0086 32.0959 67.7127 32.6567 68.8267 33.9137C69.9408 35.1708 70.2926 36.9299 69.7478 38.5187C69.203 40.1076 67.8458 41.2806 66.1947 41.5896L54.5378 43.921ZM11.147 30.9876L18.4909 27.311C18.8188 27.1467 19.2048 27.1462 19.5331 27.3098L23.3915 29.2344C23.5474 28.3023 23.9856 27.4405 24.647 26.7654L22.2235 25.5612C21.924 25.4122 21.7031 25.1417 21.6168 24.8185C21.5304 24.4953 21.5871 24.1507 21.7724 23.8722L24.6866 19.4891C24.897 19.1483 25.2763 18.9491 25.6763 18.9692C26.0733 18.9758 26.4397 19.184 26.6485 19.5218L28.6441 22.7659L30.5093 20.9008C30.5372 20.8729 30.5676 20.8496 30.598 20.8265C30.6222 20.8081 30.6462 20.7897 30.669 20.7691L25.2939 12.0263C25.0443 11.6167 24.5986 11.3673 24.1189 11.3689H16.4719C16.1041 11.3689 15.751 11.5138 15.4893 11.7722L11.2345 16.027C10.6962 16.567 10.6962 17.4407 11.2345 17.9807C11.7823 18.5153 12.6566 18.5153 13.2045 17.9807L16.6946 14.4778C16.9135 14.2582 17.211 14.1348 17.5211 14.1351H22.6991C23.1751 14.135 23.6033 14.4243 23.7809 14.866C23.9307 15.2389 23.897 15.6605 23.6899 16.0049L18.2345 24.1764C18.1221 24.3448 17.9678 24.4809 17.7868 24.5716L11.1773 27.8821C10.8137 28.0647 10.3811 28.0444 10.0361 27.8285L4.45243 24.3314C3.80237 23.9271 2.94766 24.1252 2.54186 24.7744C2.34695 25.0846 2.28387 25.4598 2.36659 25.8167C2.4493 26.1736 2.67099 26.4828 2.98249 26.6757L9.7785 30.9316C10.1952 31.1827 10.7112 31.2038 11.147 30.9876ZM25.6215 22.2938L24.4453 24.0622L26.3804 25.0239L26.955 24.4503L25.6215 22.2938ZM30.9732 33.5638C30.25 34.1788 29.3542 34.5551 28.4087 34.6409L30.9138 39.6569L33.4014 38.4131L30.9732 33.5638ZM32.7276 31.8607L35.0904 36.5864L40.2487 28.8543H35.7374L32.7276 31.8607ZM41.4412 39.6743L45.4442 33.6628H45.4477C45.6632 33.3319 46.0343 33.1357 46.4292 33.1441C46.8267 33.1512 47.1931 33.3603 47.4014 33.699L51.6282 40.5673C52.1442 41.3957 53.1184 41.8193 54.0762 41.6315L65.7331 39.3002C66.5498 39.1363 67.217 38.5491 67.4834 37.7599C67.7499 36.9707 67.575 36.0993 67.0247 35.474C66.4745 34.8487 65.6324 34.5644 64.8157 34.7283L55.5496 36.5817C55.071 36.6774 54.5835 36.4648 54.3279 36.049L46.2788 22.9699C45.8572 22.2795 45.1061 21.8588 44.2971 21.8602H33.8059C33.1875 21.8583 32.5942 22.1043 32.1587 22.5433L27.4726 27.2294L27.4586 27.2422L26.3291 28.3717C25.6855 29.0065 25.4746 29.96 25.7905 30.8069L25.7975 30.8302C25.9125 31.1445 26.0938 31.4303 26.3291 31.6683C27.2513 32.5494 28.7034 32.5494 29.6257 31.6683L34.4307 26.8645C34.6492 26.6459 34.9457 26.523 35.2548 26.5229H42.3434C42.7471 26.5231 43.1219 26.7322 43.3343 27.0755C43.5872 27.4788 43.5943 27.9894 43.3529 28.3997L35.8785 39.6067C35.7661 39.7751 35.6118 39.9113 35.4308 40.0019L26.3582 44.5388C25.9951 44.7205 25.5637 44.7001 25.2193 44.4852L17.5572 39.6953C16.8492 39.2537 15.9594 39.2233 15.2229 39.6156C14.4864 40.0079 14.0152 40.7633 13.9867 41.5973C13.9582 42.4312 14.3768 43.217 15.0848 43.6587L24.4103 49.4872C25.1037 49.9115 25.9662 49.9507 26.6951 49.5909L36.7819 44.5435C37.1105 44.3802 37.4966 44.3802 37.8252 44.5435L46.8756 49.0687C47.1013 49.1818 47.2841 49.365 47.3967 49.5909L52.7041 60.2058C53.2947 61.3401 54.6788 61.8013 55.8317 61.2479C56.3849 60.9713 56.8055 60.4862 57.0009 59.8994C57.1964 59.3126 57.1507 58.6722 56.8738 58.1192L51.0453 46.4622C50.8193 46.012 50.4543 45.6466 50.0044 45.4201L41.89 41.3634C41.5909 41.2139 41.3705 40.9432 41.2846 40.6201C41.1987 40.297 41.2558 39.9526 41.4412 39.6743Z"/>
</mask>
<path fill-rule="evenodd" clip-rule="evenodd" d="M29.1443 9.03779C29.1443 11.613 31.2319 13.7006 33.8071 13.7006C36.3823 13.7006 38.4699 11.613 38.4699 9.03779C38.4699 6.4626 36.3823 4.375 33.8071 4.375C31.2319 4.375 29.1443 6.4626 29.1443 9.03779ZM36.1385 9.03779C36.1385 10.3254 35.0947 11.3692 33.8071 11.3692C32.5195 11.3692 31.4757 10.3254 31.4757 9.03779C31.4757 7.75019 32.5195 6.70639 33.8071 6.70639C35.0947 6.70639 36.1385 7.75019 36.1385 9.03779ZM50.1231 18.9459C50.1231 22.4868 52.9935 25.3573 56.5344 25.3573C60.0753 25.3573 62.9457 22.4868 62.9457 18.9459C62.9457 15.405 60.0753 12.5346 56.5344 12.5346C52.9951 12.5384 50.1269 15.4066 50.1231 18.9459ZM60.6143 18.9459C60.6143 21.1992 58.7877 23.0259 56.5344 23.0259C54.2811 23.0259 52.4545 21.1992 52.4545 18.9459C52.4545 16.6926 54.2811 14.866 56.5344 14.866C58.7877 14.866 60.6143 16.6926 60.6143 18.9459ZM54.5378 43.921C52.6265 44.2861 50.687 43.4415 49.6523 41.7936L46.3791 36.4698L44.1129 39.869L51.0465 43.3346C51.9474 43.7877 52.6782 44.519 53.1308 45.4201L58.9593 57.077C59.5125 58.1831 59.6038 59.4636 59.2129 60.6369C58.822 61.8102 57.981 62.7801 56.875 63.3333C56.2291 63.6545 55.5179 63.8228 54.7966 63.8253H68.7768C69.4206 63.8253 69.9425 64.3472 69.9425 64.991C69.9425 65.6348 69.4206 66.1567 68.7768 66.1567H30.3088C29.665 66.1567 29.1431 65.6348 29.1431 64.991C29.1431 64.3472 29.665 63.8253 30.3088 63.8253H54.7524C52.9978 63.8185 51.3957 62.8217 50.6152 61.2479L45.4861 50.9804L37.3029 46.89L27.7314 51.6717C26.2751 52.3841 24.5556 52.3023 23.1735 51.4549L13.848 45.6264C11.6642 44.2615 11.0003 41.3848 12.3652 39.2011C13.73 37.0173 16.6067 36.3535 18.7905 37.7183L25.9013 42.1608L28.8295 40.6967L25.456 33.9356C24.7306 33.4783 24.1535 32.8202 23.7948 32.0414L19.0155 29.6563L12.181 33.0788C11.0256 33.6552 9.65423 33.593 8.55569 32.9145L1.74918 28.6538C0.913088 28.1338 0.318225 27.3026 0.0958191 26.3434C-0.126586 25.3842 0.0417412 24.376 0.563668 23.5411C1.08636 22.7035 1.92045 22.1078 2.88238 21.8853C3.84431 21.6627 4.85525 21.8315 5.69273 22.3544L10.725 25.5018L16.4661 22.6202L20.5787 16.4595H18.0048L14.8493 19.6255C13.9192 20.599 12.5353 20.9933 11.2318 20.6562C9.92824 20.319 8.90903 19.3032 8.56755 18.0008C8.22608 16.6984 8.61576 15.3132 9.58616 14.3799L13.841 10.1251C14.5407 9.43049 15.486 9.03972 16.4719 9.03749H24.1189C25.4095 9.03342 26.6081 9.70461 27.2791 10.807L32.7311 19.6663C33.0828 19.5789 33.4435 19.5327 33.8059 19.5288H44.2971C45.9171 19.522 47.423 20.3618 48.2687 21.7436L55.8923 34.1396L64.3658 32.4459C66.0086 32.0959 67.7127 32.6567 68.8267 33.9137C69.9408 35.1708 70.2926 36.9299 69.7478 38.5187C69.203 40.1076 67.8458 41.2806 66.1947 41.5896L54.5378 43.921ZM11.147 30.9876L18.4909 27.311C18.8188 27.1467 19.2048 27.1462 19.5331 27.3098L23.3915 29.2344C23.5474 28.3023 23.9856 27.4405 24.647 26.7654L22.2235 25.5612C21.924 25.4122 21.7031 25.1417 21.6168 24.8185C21.5304 24.4953 21.5871 24.1507 21.7724 23.8722L24.6866 19.4891C24.897 19.1483 25.2763 18.9491 25.6763 18.9692C26.0733 18.9758 26.4397 19.184 26.6485 19.5218L28.6441 22.7659L30.5093 20.9008C30.5372 20.8729 30.5676 20.8496 30.598 20.8265C30.6222 20.8081 30.6462 20.7897 30.669 20.7691L25.2939 12.0263C25.0443 11.6167 24.5986 11.3673 24.1189 11.3689H16.4719C16.1041 11.3689 15.751 11.5138 15.4893 11.7722L11.2345 16.027C10.6962 16.567 10.6962 17.4407 11.2345 17.9807C11.7823 18.5153 12.6566 18.5153 13.2045 17.9807L16.6946 14.4778C16.9135 14.2582 17.211 14.1348 17.5211 14.1351H22.6991C23.1751 14.135 23.6033 14.4243 23.7809 14.866C23.9307 15.2389 23.897 15.6605 23.6899 16.0049L18.2345 24.1764C18.1221 24.3448 17.9678 24.4809 17.7868 24.5716L11.1773 27.8821C10.8137 28.0647 10.3811 28.0444 10.0361 27.8285L4.45243 24.3314C3.80237 23.9271 2.94766 24.1252 2.54186 24.7744C2.34695 25.0846 2.28387 25.4598 2.36659 25.8167C2.4493 26.1736 2.67099 26.4828 2.98249 26.6757L9.7785 30.9316C10.1952 31.1827 10.7112 31.2038 11.147 30.9876ZM25.6215 22.2938L24.4453 24.0622L26.3804 25.0239L26.955 24.4503L25.6215 22.2938ZM30.9732 33.5638C30.25 34.1788 29.3542 34.5551 28.4087 34.6409L30.9138 39.6569L33.4014 38.4131L30.9732 33.5638ZM32.7276 31.8607L35.0904 36.5864L40.2487 28.8543H35.7374L32.7276 31.8607ZM41.4412 39.6743L45.4442 33.6628H45.4477C45.6632 33.3319 46.0343 33.1357 46.4292 33.1441C46.8267 33.1512 47.1931 33.3603 47.4014 33.699L51.6282 40.5673C52.1442 41.3957 53.1184 41.8193 54.0762 41.6315L65.7331 39.3002C66.5498 39.1363 67.217 38.5491 67.4834 37.7599C67.7499 36.9707 67.575 36.0993 67.0247 35.474C66.4745 34.8487 65.6324 34.5644 64.8157 34.7283L55.5496 36.5817C55.071 36.6774 54.5835 36.4648 54.3279 36.049L46.2788 22.9699C45.8572 22.2795 45.1061 21.8588 44.2971 21.8602H33.8059C33.1875 21.8583 32.5942 22.1043 32.1587 22.5433L27.4726 27.2294L27.4586 27.2422L26.3291 28.3717C25.6855 29.0065 25.4746 29.96 25.7905 30.8069L25.7975 30.8302C25.9125 31.1445 26.0938 31.4303 26.3291 31.6683C27.2513 32.5494 28.7034 32.5494 29.6257 31.6683L34.4307 26.8645C34.6492 26.6459 34.9457 26.523 35.2548 26.5229H42.3434C42.7471 26.5231 43.1219 26.7322 43.3343 27.0755C43.5872 27.4788 43.5943 27.9894 43.3529 28.3997L35.8785 39.6067C35.7661 39.7751 35.6118 39.9113 35.4308 40.0019L26.3582 44.5388C25.9951 44.7205 25.5637 44.7001 25.2193 44.4852L17.5572 39.6953C16.8492 39.2537 15.9594 39.2233 15.2229 39.6156C14.4864 40.0079 14.0152 40.7633 13.9867 41.5973C13.9582 42.4312 14.3768 43.217 15.0848 43.6587L24.4103 49.4872C25.1037 49.9115 25.9662 49.9507 26.6951 49.5909L36.7819 44.5435C37.1105 44.3802 37.4966 44.3802 37.8252 44.5435L46.8756 49.0687C47.1013 49.1818 47.2841 49.365 47.3967 49.5909L52.7041 60.2058C53.2947 61.3401 54.6788 61.8013 55.8317 61.2479C56.3849 60.9713 56.8055 60.4862 57.0009 59.8994C57.1964 59.3126 57.1507 58.6722 56.8738 58.1192L51.0453 46.4622C50.8193 46.012 50.4543 45.6466 50.0044 45.4201L41.89 41.3634C41.5909 41.2139 41.3705 40.9432 41.2846 40.6201C41.1987 40.297 41.2558 39.9526 41.4412 39.6743Z" fill="white"/>
<path d="M50.1231 18.9459L41.7296 18.9368V18.9459H50.1231ZM56.5344 12.5346L56.5344 4.14114L56.5253 4.14115L56.5344 12.5346ZM49.6523 41.7936L42.5023 46.1898L42.5229 46.2233L42.5438 46.2566L49.6523 41.7936ZM54.5378 43.921L56.1128 52.1653L56.1483 52.1585L56.1839 52.1514L54.5378 43.921ZM46.3791 36.4698L53.5291 32.0736L46.6649 20.9096L39.3953 31.814L46.3791 36.4698ZM44.1129 39.869L37.1292 35.2132L31.8544 43.1253L40.3603 47.3768L44.1129 39.869ZM51.0465 43.3346L54.8177 35.8361L54.8084 35.8314L54.7992 35.8268L51.0465 43.3346ZM53.1308 45.4201L60.6381 41.6664L60.6348 41.6597L60.6314 41.6531L53.1308 45.4201ZM58.9593 57.077L51.4519 60.8307L51.4527 60.8322L58.9593 57.077ZM59.2129 60.6369L67.1761 63.2898L67.1761 63.2898L59.2129 60.6369ZM56.875 63.3333L60.6117 70.8491L60.6207 70.8446L60.6297 70.8401L56.875 63.3333ZM54.7966 63.8253L54.7679 55.4319L54.7966 72.2187V63.8253ZM54.7524 63.8253V72.2187L54.7848 55.4319L54.7524 63.8253ZM50.6152 61.2479L58.1346 57.5185L58.1293 57.5077L58.1239 57.497L50.6152 61.2479ZM45.4861 50.9804L52.9948 47.2295L51.7435 44.7246L49.2389 43.4727L45.4861 50.9804ZM37.3029 46.89L41.0557 39.3823L37.304 37.5069L33.5518 39.3814L37.3029 46.89ZM27.7314 51.6717L31.4196 59.2114L31.4511 59.196L31.4825 59.1803L27.7314 51.6717ZM23.1735 51.4549L18.725 58.5725L18.7556 58.5916L18.7863 58.6104L23.1735 51.4549ZM13.848 45.6264L9.39944 52.744L9.39944 52.744L13.848 45.6264ZM12.3652 39.2011L19.4828 43.6496L19.4828 43.6496L12.3652 39.2011ZM18.7905 37.7183L14.342 44.8359L14.3433 44.8367L18.7905 37.7183ZM25.9013 42.1608L21.454 49.2792L25.4454 51.7728L29.6549 49.6681L25.9013 42.1608ZM28.8295 40.6967L32.5832 48.204L40.0843 44.4534L36.3399 36.9492L28.8295 40.6967ZM25.456 33.9356L32.9664 30.1882L31.9182 28.0875L29.9323 26.8355L25.456 33.9356ZM23.7948 32.0414L31.4187 28.5305L30.184 25.8492L27.5426 24.5311L23.7948 32.0414ZM19.0155 29.6563L22.7633 22.1461L19.0089 20.2726L15.2572 22.1513L19.0155 29.6563ZM12.181 33.0788L15.9275 40.5897L15.9393 40.5838L12.181 33.0788ZM8.55569 32.9145L4.10224 40.029L4.12351 40.0423L4.14486 40.0555L8.55569 32.9145ZM1.74918 28.6538L6.20263 21.5393L6.19234 21.5329L6.18204 21.5265L1.74918 28.6538ZM0.0958191 26.3434L-8.08069 28.2393L-8.08069 28.2393L0.0958191 26.3434ZM0.563668 23.5411L7.68085 27.9903L7.68444 27.9846L0.563668 23.5411ZM2.88238 21.8853L4.77434 30.0627L4.77434 30.0627L2.88238 21.8853ZM5.69273 22.3544L10.1435 15.2382L10.1382 15.2349L5.69273 22.3544ZM10.725 25.5018L6.27431 32.618L10.274 35.1196L14.4903 33.0033L10.725 25.5018ZM16.4661 22.6202L20.2313 30.1217L22.2148 29.1261L23.447 27.2803L16.4661 22.6202ZM20.5787 16.4595L27.5596 21.1196L36.2735 8.06604H20.5787V16.4595ZM18.0048 16.4595V8.06604H14.52L12.0599 10.5343L18.0048 16.4595ZM14.8493 19.6255L8.90438 13.7003L8.84176 13.7631L8.78048 13.8273L14.8493 19.6255ZM11.2318 20.6562L9.13005 28.7822L9.13005 28.7822L11.2318 20.6562ZM8.56755 18.0008L16.6866 15.8721L16.6866 15.8721L8.56755 18.0008ZM9.58616 14.3799L15.4046 20.4293L15.4634 20.3727L15.5212 20.3149L9.58616 14.3799ZM13.841 10.1251L7.92779 4.16821L7.91682 4.1791L7.9059 4.19002L13.841 10.1251ZM16.4719 9.03749V0.644046H16.4625L16.453 0.644068L16.4719 9.03749ZM24.1189 9.03749V17.4309H24.1321L24.1454 17.4309L24.1189 9.03749ZM27.2791 10.807L20.1093 15.1709L20.12 15.1885L20.1308 15.206L27.2791 10.807ZM32.7311 19.6663L25.5828 24.0653L28.7999 29.2931L34.7567 27.8117L32.7311 19.6663ZM33.8059 19.5288V11.1353H33.7604L33.7149 11.1358L33.8059 19.5288ZM44.2971 19.5288V27.9222H44.3146L44.3321 27.9221L44.2971 19.5288ZM48.2687 21.7436L41.1095 26.125L41.1143 26.1328L41.1191 26.1406L48.2687 21.7436ZM55.8923 34.1396L48.7428 38.5366L51.8052 43.5161L57.5375 42.3702L55.8923 34.1396ZM64.3658 32.4459L66.011 40.6765L66.0627 40.6661L66.1143 40.6551L64.3658 32.4459ZM68.8267 33.9137L62.5451 39.4807L62.5451 39.4807L68.8267 33.9137ZM69.7478 38.5187L61.8082 35.7963L61.8082 35.7963L69.7478 38.5187ZM66.1947 41.5896L64.651 33.3393L64.5997 33.3489L64.5487 33.3591L66.1947 41.5896ZM18.4909 27.311L22.2484 34.8164L22.2512 34.815L18.4909 27.311ZM11.147 30.9876L14.8782 38.5061L14.8914 38.4996L14.9045 38.493L11.147 30.9876ZM19.5331 27.3098L23.2795 19.7988L23.2765 19.7974L19.5331 27.3098ZM23.3915 29.2344L19.6451 36.7453L29.7983 41.8096L31.67 30.6189L23.3915 29.2344ZM24.647 26.7654L30.6427 32.6392L38.7258 24.3884L28.3818 19.2487L24.647 26.7654ZM22.2235 25.5612L18.4829 33.0751L18.4886 33.0779L22.2235 25.5612ZM21.7724 23.8722L28.7612 28.5204L28.7618 28.5194L21.7724 23.8722ZM24.6866 19.4891L31.6761 24.1364L31.7545 24.0185L31.8289 23.898L24.6866 19.4891ZM25.6763 18.9692L25.2538 27.352L25.3954 27.3592L25.5372 27.3615L25.6763 18.9692ZM26.6485 19.5218L33.7975 15.1239L33.7926 15.1159L33.7877 15.108L26.6485 19.5218ZM28.6441 22.7659L21.4951 27.1637L27.0639 36.2163L34.5792 28.701L28.6441 22.7659ZM30.5093 20.9008L36.4443 26.8359L36.4443 26.8358L30.5093 20.9008ZM30.598 20.8265L35.6868 27.5013L35.6873 27.501L30.598 20.8265ZM30.669 20.7691L36.3149 26.9798L41.463 22.2999L37.8192 16.3731L30.669 20.7691ZM25.2939 12.0263L18.1266 16.3943L18.1351 16.4083L18.1437 16.4223L25.2939 12.0263ZM24.1189 11.3689V19.7623H24.1324L24.146 19.7623L24.1189 11.3689ZM16.4719 11.3689L16.4719 2.97544L16.4718 2.97544L16.4719 11.3689ZM15.4893 11.7722L9.59271 5.79888L9.57339 5.81796L9.55419 5.83715L15.4893 11.7722ZM11.2345 16.027L5.29939 10.0919L5.28997 10.1014L11.2345 16.027ZM11.2345 17.9807L5.28996 23.9063L5.33116 23.9477L5.37293 23.9884L11.2345 17.9807ZM13.2045 17.9807L19.066 23.9884L19.1085 23.9469L19.1504 23.9049L13.2045 17.9807ZM16.6946 14.4778L10.7502 8.55204L10.7487 8.55363L16.6946 14.4778ZM17.5211 14.1351L17.5145 22.5285H17.5211V14.1351ZM22.6991 14.1351L22.6991 22.5285L22.7005 22.5285L22.6991 14.1351ZM23.7809 14.866L31.5691 11.7365L31.5686 11.7352L23.7809 14.866ZM23.6899 16.0049L30.6706 20.6653L30.7808 20.5003L30.883 20.3303L23.6899 16.0049ZM18.2345 24.1764L11.2538 19.516L11.2533 19.5166L18.2345 24.1764ZM17.7868 24.5716L14.0288 17.0664L14.0279 17.0669L17.7868 24.5716ZM11.1773 27.8821L7.41838 20.3775L7.41213 20.3806L11.1773 27.8821ZM10.0361 27.8285L5.58093 34.942L5.58413 34.944L10.0361 27.8285ZM4.45243 24.3314L8.90762 17.218L8.89672 17.2112L8.88581 17.2044L4.45243 24.3314ZM2.54186 24.7744L9.64908 29.2395L9.65412 29.2315L9.65914 29.2235L2.54186 24.7744ZM2.36659 25.8167L-5.81013 27.7117L-5.81013 27.7117L2.36659 25.8167ZM2.98249 26.6757L7.43736 19.562L7.41919 19.5506L7.40095 19.5393L2.98249 26.6757ZM9.7785 30.9316L5.32363 38.0453L5.38448 38.0834L5.44597 38.1204L9.7785 30.9316ZM24.4453 24.0622L17.4566 19.4138L12.1838 27.3412L20.7098 31.5785L24.4453 24.0622ZM25.6215 22.2938L32.7603 17.8793L25.8788 6.75114L18.6328 17.6454L25.6215 22.2938ZM26.3804 25.0239L22.6448 32.5402L28.0427 35.2229L32.3094 30.965L26.3804 25.0239ZM26.955 24.4503L32.8841 30.3914L37.5921 25.693L34.0938 20.0359L26.955 24.4503ZM28.4087 34.6409L27.6504 26.2817L15.4067 27.3924L20.8996 38.391L28.4087 34.6409ZM30.9732 33.5638L38.4784 29.8058L33.6871 20.237L25.5353 27.1701L30.9732 33.5638ZM30.9138 39.6569L23.4047 43.407L27.1566 50.9196L34.6674 47.1642L30.9138 39.6569ZM33.4014 38.4131L37.155 45.9204L44.6667 42.1646L40.9065 34.6551L33.4014 38.4131ZM35.0904 36.5864L27.5831 40.3401L34.049 53.2719L42.0728 41.2444L35.0904 36.5864ZM32.7276 31.8607L26.796 25.9222L22.5131 30.2L25.2203 35.6143L32.7276 31.8607ZM40.2487 28.8543L47.231 33.5124L55.9379 20.4609H40.2487V28.8543ZM35.7374 28.8543V20.4609H32.2636L29.8058 22.9158L35.7374 28.8543ZM45.4442 33.6628V25.2694H40.9492L38.4579 29.0107L45.4442 33.6628ZM41.4412 39.6743L48.4258 44.3289L48.4274 44.3264L41.4412 39.6743ZM45.4477 33.6628V42.0563H49.9981L52.4813 38.2431L45.4477 33.6628ZM46.4292 33.1441L46.2512 41.5357L46.2654 41.536L46.2797 41.5362L46.4292 33.1441ZM47.4014 33.699L40.2517 38.0958L40.2531 38.0981L47.4014 33.699ZM51.6282 40.5673L44.4799 44.9664L44.4917 44.9856L44.5037 45.0047L51.6282 40.5673ZM54.0762 41.6315L55.6904 49.8683L55.7063 49.8652L55.7222 49.862L54.0762 41.6315ZM65.7331 39.3002L67.3792 47.5306L67.3845 47.5296L65.7331 39.3002ZM67.4834 37.7599L59.5309 35.0753L59.5309 35.0753L67.4834 37.7599ZM67.0247 35.474L60.7235 41.0188L60.7236 41.0188L67.0247 35.474ZM64.8157 34.7283L66.462 42.9587L66.4671 42.9577L64.8157 34.7283ZM55.5496 36.5817L57.195 44.8123L57.1959 44.8122L55.5496 36.5817ZM54.3279 36.049L61.4789 31.6543L61.4762 31.6499L54.3279 36.049ZM46.2788 22.9699L39.1152 27.3439L39.1229 27.3565L39.1306 27.3691L46.2788 22.9699ZM44.2971 21.8602L44.2971 30.2536L44.311 30.2536L44.2971 21.8602ZM33.8059 21.8602L33.7803 30.2536L33.7931 30.2536H33.8059V21.8602ZM32.1587 22.5433L38.0938 28.4783L38.1054 28.4667L38.1169 28.4551L32.1587 22.5433ZM27.4726 27.2294L33.1443 33.4166L33.2787 33.2934L33.4077 33.1644L27.4726 27.2294ZM27.4586 27.2422L21.7869 21.055L21.6525 21.1782L21.5236 21.3071L27.4586 27.2422ZM26.3291 28.3717L32.2228 34.3478L32.2435 34.3274L32.2641 34.3068L26.3291 28.3717ZM25.7905 30.8069L33.8302 28.3958L33.751 28.1317L33.6547 27.8735L25.7905 30.8069ZM25.7975 30.8302L17.7578 33.2413L17.8294 33.4799L17.915 33.7138L25.7975 30.8302ZM26.3291 31.6683L20.3602 37.5694L20.4445 37.6547L20.5312 37.7374L26.3291 31.6683ZM29.6257 31.6683L35.4236 37.7374L35.4925 37.6716L35.56 37.6041L29.6257 31.6683ZM34.4307 26.8645L40.365 32.8003L40.3666 32.7986L34.4307 26.8645ZM35.2548 26.5229L35.2548 18.1295L35.253 18.1295L35.2548 26.5229ZM42.3434 26.5229L42.3475 18.1295H42.3434V26.5229ZM43.3343 27.0755L36.1958 31.4905L36.2094 31.5124L36.2231 31.5343L43.3343 27.0755ZM43.3529 28.3997L50.3358 33.0569L50.4669 32.8603L50.5868 32.6566L43.3529 28.3997ZM35.8785 39.6067L42.8597 44.2664L42.8613 44.2639L35.8785 39.6067ZM35.4308 40.0019L39.1849 47.509L39.189 47.5069L35.4308 40.0019ZM26.3582 44.5388L22.6042 37.0317L22.6024 37.0326L26.3582 44.5388ZM25.2193 44.4852L20.7701 51.6024L20.7748 51.6053L25.2193 44.4852ZM17.5572 39.6953L22.0064 32.5781L21.9997 32.5739L17.5572 39.6953ZM15.2229 39.6156L19.1689 47.0236L19.169 47.0236L15.2229 39.6156ZM13.9867 41.5973L5.59813 41.3106L5.59813 41.3106L13.9867 41.5973ZM15.0848 43.6587L19.5333 36.5411L19.5272 36.5373L15.0848 43.6587ZM24.4103 49.4872L19.9618 56.6048L19.9953 56.6257L20.0289 56.6463L24.4103 49.4872ZM26.6951 49.5909L30.4097 57.1177L30.4305 57.1074L30.4512 57.097L26.6951 49.5909ZM36.7819 44.5435L33.0482 37.0262L33.037 37.0317L33.0258 37.0374L36.7819 44.5435ZM37.8252 44.5435L41.5788 37.0361L41.5688 37.0311L41.5588 37.0262L37.8252 44.5435ZM46.8756 49.0687L50.6361 41.5647L50.6293 41.5614L46.8756 49.0687ZM47.3967 49.5909L39.8844 53.3346L39.8894 53.3446L47.3967 49.5909ZM52.7041 60.2058L45.1968 63.9594L45.2275 64.0208L45.2592 64.0817L52.7041 60.2058ZM55.8317 61.2479L59.4638 68.8148L59.5249 68.7854L59.5856 68.7551L55.8317 61.2479ZM57.0009 59.8994L49.0376 57.247L49.0376 57.247L57.0009 59.8994ZM56.8738 58.1192L49.3665 61.8728L49.3681 61.876L56.8738 58.1192ZM51.0453 46.4622L58.5527 42.7085L58.5466 42.6965L51.0453 46.4622ZM50.0044 45.4201L53.7785 37.923L53.7681 37.9177L53.7576 37.9125L50.0044 45.4201ZM41.89 41.3634L45.6432 33.8559L45.6431 33.8559L41.89 41.3634ZM41.2846 40.6201L33.1726 42.7755L33.1726 42.7755L41.2846 40.6201ZM33.8071 5.30713C35.8675 5.30713 37.5377 6.97741 37.5377 9.03779H20.7509C20.7509 16.2485 26.5963 22.094 33.8071 22.094V5.30713ZM30.0764 9.03779C30.0764 6.97741 31.7467 5.30713 33.8071 5.30713V22.094C41.0178 22.094 46.8633 16.2485 46.8633 9.03779H30.0764ZM33.8071 12.7684C31.7467 12.7684 30.0764 11.0982 30.0764 9.03779H46.8633C46.8633 1.82703 41.0178 -4.01844 33.8071 -4.01844V12.7684ZM37.5377 9.03779C37.5377 11.0982 35.8675 12.7684 33.8071 12.7684V-4.01844C26.5963 -4.01844 20.7509 1.82703 20.7509 9.03779H37.5377ZM33.8071 19.7626C39.7303 19.7626 44.5319 14.961 44.5319 9.03779H27.745C27.745 5.68981 30.4591 2.97574 33.8071 2.97574V19.7626ZM23.0823 9.03779C23.0823 14.961 27.8839 19.7626 33.8071 19.7626V2.97574C37.1551 2.97574 39.8691 5.68981 39.8691 9.03779H23.0823ZM33.8071 -1.68705C27.8839 -1.68705 23.0823 3.11463 23.0823 9.03779H39.8691C39.8691 12.3858 37.1551 15.0998 33.8071 15.0998V-1.68705ZM44.5319 9.03779C44.5319 3.11463 39.7303 -1.68705 33.8071 -1.68705V15.0998C30.4591 15.0998 27.745 12.3858 27.745 9.03779H44.5319ZM56.5344 16.9638C57.6291 16.9638 58.5165 17.8512 58.5165 18.9459H41.7296C41.7296 27.1224 48.358 33.7507 56.5344 33.7507V16.9638ZM54.5523 18.9459C54.5523 17.8512 55.4397 16.9638 56.5344 16.9638V33.7507C64.7109 33.7507 71.3392 27.1224 71.3392 18.9459H54.5523ZM56.5344 20.928C55.4397 20.928 54.5523 20.0406 54.5523 18.9459H71.3392C71.3392 10.7695 64.7109 4.14115 56.5344 4.14115V20.928ZM58.5165 18.9551C58.5153 20.0442 57.6327 20.9268 56.5435 20.928L56.5253 4.14115C48.3576 4.15005 41.7385 10.7691 41.7296 18.9368L58.5165 18.9551ZM56.5344 31.4193C63.4233 31.4193 69.0078 25.8348 69.0078 18.9459H52.2209C52.2209 16.5636 54.1521 14.6324 56.5344 14.6324V31.4193ZM44.061 18.9459C44.061 25.8348 49.6456 31.4193 56.5344 31.4193V14.6324C58.9167 14.6324 60.8479 16.5636 60.8479 18.9459H44.061ZM56.5344 6.47254C49.6456 6.47254 44.061 12.0571 44.061 18.9459H60.8479C60.8479 21.3282 58.9167 23.2594 56.5344 23.2594V6.47254ZM69.0078 18.9459C69.0078 12.0571 63.4233 6.47254 56.5344 6.47254V23.2594C54.1521 23.2594 52.2209 21.3282 52.2209 18.9459H69.0078ZM42.5438 46.2566C45.4175 50.8336 50.8044 53.1794 56.1128 52.1653L52.9628 35.6766C54.4486 35.3928 55.9565 36.0494 56.7609 37.3305L42.5438 46.2566ZM39.229 40.866L42.5023 46.1898L56.8024 37.3974L53.5291 32.0736L39.229 40.866ZM51.0967 44.5249L53.3628 41.1257L39.3953 31.814L37.1292 35.2132L51.0967 44.5249ZM54.7992 35.8268L47.8656 32.3612L40.3603 47.3768L47.2939 50.8425L54.7992 35.8268ZM60.6314 41.6531C59.3691 39.1396 57.3304 37.0998 54.8177 35.8361L47.2753 50.8332C46.5643 50.4756 45.9873 49.8983 45.6301 49.187L60.6314 41.6531ZM66.4666 53.3234L60.6381 41.6664L45.6234 49.1737L51.4519 60.8307L66.4666 53.3234ZM67.1761 63.2898C68.2705 60.0044 68.0151 56.4189 66.4658 53.3219L51.4527 60.8322C51.01 59.9472 50.937 58.9227 51.2497 57.984L67.1761 63.2898ZM60.6297 70.8401C63.7268 69.291 66.0816 66.5751 67.1761 63.2898L51.2497 57.984C51.5625 57.0452 52.2353 56.2692 53.1203 55.8265L60.6297 70.8401ZM54.8252 72.2186C56.8336 72.2118 58.8134 71.7432 60.6117 70.8491L53.1383 55.8175C53.6447 55.5658 54.2023 55.4338 54.7679 55.4319L54.8252 72.2186ZM68.7768 55.4318H54.7966V72.2187H68.7768V55.4318ZM78.3359 64.991C78.3359 59.7116 74.0561 55.4318 68.7768 55.4318V72.2187C64.785 72.2187 61.549 68.9827 61.549 64.991H78.3359ZM68.7768 74.5501C74.0561 74.5501 78.3359 70.2703 78.3359 64.991H61.549C61.549 60.9992 64.785 57.7632 68.7768 57.7632V74.5501ZM30.3088 74.5501H68.7768V57.7632H30.3088V74.5501ZM20.7496 64.991C20.7496 70.2703 25.0294 74.5501 30.3088 74.5501V57.7632C34.3005 57.7632 37.5365 60.9992 37.5365 64.991H20.7496ZM30.3088 55.4318C25.0294 55.4318 20.7496 59.7116 20.7496 64.991H37.5365C37.5365 68.9827 34.3005 72.2187 30.3088 72.2187V55.4318ZM54.7524 55.4318H30.3088V72.2187H54.7524V55.4318ZM43.0958 64.9773C45.2889 69.399 49.7898 72.1996 54.72 72.2186L54.7848 55.4319C56.2057 55.4374 57.5026 56.2443 58.1346 57.5185L43.0958 64.9773ZM37.9774 54.7314L43.1065 64.9988L58.1239 57.497L52.9948 47.2295L37.9774 54.7314ZM33.5501 54.3978L41.7333 58.4882L49.2389 43.4727L41.0557 39.3823L33.5501 54.3978ZM31.4825 59.1803L41.054 54.3986L33.5518 39.3814L23.9803 44.1631L31.4825 59.1803ZM18.7863 58.6104C22.6172 60.9592 27.383 61.1859 31.4196 59.2114L24.0433 44.132C25.1671 43.5822 26.4941 43.6453 27.5608 44.2993L18.7863 58.6104ZM9.39944 52.744L18.725 58.5725L27.622 44.3373L18.2965 38.5088L9.39944 52.744ZM5.24756 34.7526C1.42586 40.8673 3.28472 48.9223 9.39944 52.744L18.2965 38.5088C20.0437 39.6008 20.5748 41.9024 19.4828 43.6496L5.24756 34.7526ZM23.239 30.6007C17.1243 26.779 9.06926 28.6378 5.24756 34.7526L19.4828 43.6496C18.3908 45.3968 16.0892 45.9279 14.342 44.8359L23.239 30.6007ZM30.3485 35.0424L23.2378 30.5999L14.3433 44.8367L21.454 49.2792L30.3485 35.0424ZM25.0758 33.1893L22.1476 34.6534L29.6549 49.6681L32.5832 48.204L25.0758 33.1893ZM17.9455 37.6831L21.3191 44.4441L36.3399 36.9492L32.9664 30.1882L17.9455 37.6831ZM16.1709 35.5522C17.2093 37.807 18.8797 39.7119 20.9796 41.0358L29.9323 26.8355C30.5814 27.2447 31.0978 27.8335 31.4187 28.5305L16.1709 35.5522ZM15.2677 37.1666L20.047 39.5516L27.5426 24.5311L22.7633 22.1461L15.2677 37.1666ZM15.9393 40.5838L22.7738 37.1614L15.2572 22.1513L8.42273 25.5738L15.9393 40.5838ZM4.14486 40.0555C7.71525 42.2608 12.1722 42.4629 15.9275 40.5897L8.43446 25.5679C9.8789 24.8474 11.5932 24.9252 12.9665 25.7734L4.14486 40.0555ZM-2.70426 35.7684L4.10224 40.029L13.0091 25.7999L6.20263 21.5393L-2.70426 35.7684ZM-8.08069 28.2393C-7.3547 31.3703 -5.41291 34.0838 -2.68368 35.7812L6.18204 21.5265C7.23908 22.1839 7.99115 23.2348 8.27233 24.4475L-8.08069 28.2393ZM-6.55351 19.0919C-8.25722 21.8172 -8.80668 25.1084 -8.08069 28.2393L8.27233 24.4475C8.55351 25.6601 8.3407 26.9348 7.68084 27.9903L-6.55351 19.0919ZM0.990424 13.7078C-2.14069 14.4323 -4.8557 16.3711 -6.5571 19.0976L7.68444 27.9846C7.02843 29.0358 5.9816 29.7834 4.77434 30.0627L0.990424 13.7078ZM10.1382 15.2349C7.4122 13.5327 4.12154 12.9834 0.990424 13.7078L4.77434 30.0627C3.56708 30.342 2.29831 30.1302 1.24723 29.4739L10.1382 15.2349ZM15.1758 18.3856L10.1435 15.2382L1.24199 29.4706L6.27431 32.618L15.1758 18.3856ZM12.7009 15.1187L6.95982 18.0003L14.4903 33.0033L20.2313 30.1217L12.7009 15.1187ZM13.5978 11.7994L9.48519 17.9601L23.447 27.2803L27.5596 21.1196L13.5978 11.7994ZM18.0048 24.8529H20.5787V8.06604H18.0048V24.8529ZM20.7942 25.5507L23.9497 22.3847L12.0599 10.5343L8.90438 13.7003L20.7942 25.5507ZM9.13005 28.7822C13.3777 29.8808 17.8873 28.596 20.9181 25.4238L8.78048 13.8273C9.9511 12.602 11.6929 12.1058 13.3334 12.5301L9.13005 28.7822ZM0.448541 20.1296C1.56126 24.3735 4.88243 27.6836 9.13005 28.7822L13.3335 12.5301C14.974 12.9544 16.2568 14.2329 16.6866 15.8721L0.448541 20.1296ZM3.76776 8.33041C0.605612 11.3718 -0.664181 15.8856 0.448543 20.1296L16.6866 15.8721C17.1163 17.5112 16.6259 19.2547 15.4046 20.4293L3.76776 8.33041ZM7.9059 4.19002L3.6511 8.44482L15.5212 20.3149L19.776 16.0601L7.9059 4.19002ZM16.453 0.644068C13.2582 0.651283 10.1951 1.91752 7.92779 4.16821L19.7541 16.082C18.8863 16.9435 17.7138 17.4281 16.4909 17.4309L16.453 0.644068ZM24.1189 0.644046H16.4719V17.4309H24.1189V0.644046ZM34.4489 6.44311C32.25 2.83035 28.3218 0.630751 24.0924 0.644088L24.1454 17.4309C22.4972 17.4361 20.9662 16.5789 20.1093 15.1709L34.4489 6.44311ZM39.8794 15.2673L34.4274 6.40798L20.1308 15.206L25.5828 24.0653L39.8794 15.2673ZM33.7149 11.1358C32.7002 11.1468 31.6902 11.2761 30.7054 11.521L34.7567 27.8117C34.4753 27.8816 34.1868 27.9186 33.8968 27.9217L33.7149 11.1358ZM44.2971 11.1353H33.8059V27.9222H44.2971V11.1353ZM55.4278 17.3622C53.0503 13.4774 48.8166 11.1164 44.2622 11.1354L44.3321 27.9221C43.0176 27.9276 41.7957 27.2462 41.1095 26.125L55.4278 17.3622ZM63.0419 29.7426L55.4182 17.3466L41.1191 26.1406L48.7428 38.5366L63.0419 29.7426ZM62.7205 24.2152L54.2471 25.909L57.5375 42.3702L66.011 40.6765L62.7205 24.2152ZM75.1083 28.3467C71.9888 24.8268 67.2173 23.2568 62.6172 24.2366L66.1143 40.6551C64.7999 40.9351 63.4365 40.4865 62.5451 39.4807L75.1083 28.3467ZM77.6875 41.2412C79.213 36.7922 78.2278 31.8665 75.1083 28.3467L62.5451 39.4807C61.6538 38.475 61.3723 37.0675 61.8082 35.7963L77.6875 41.2412ZM67.7385 49.8398C72.3615 48.9748 76.162 45.6901 77.6875 41.2411L61.8082 35.7963C62.244 34.5251 63.33 33.5865 64.651 33.3393L67.7385 49.8398ZM56.1839 52.1514L67.8408 49.82L64.5487 33.3591L52.8917 35.6905L56.1839 52.1514ZM14.7334 19.8055L7.38956 23.4822L14.9045 38.493L22.2484 34.8164L14.7334 19.8055ZM23.2765 19.7974C20.5849 18.4562 17.4192 18.4597 14.7307 19.8069L22.2512 34.815C20.2184 35.8336 17.8247 35.8363 15.7896 34.8222L23.2765 19.7974ZM27.1379 21.7234L23.2795 19.7988L15.7867 34.8207L19.6451 36.7453L27.1379 21.7234ZM18.6513 20.8916C16.7874 22.7941 15.5524 25.2229 15.1131 27.8498L31.67 30.6189C31.5424 31.3816 31.1838 32.0868 30.6427 32.6392L18.6513 20.8916ZM18.4886 33.0779L20.9121 34.2821L28.3818 19.2487L25.9583 18.0445L18.4886 33.0779ZM13.5076 26.9843C14.2153 29.6344 16.0274 31.8527 18.4829 33.0751L25.964 18.0474C27.8207 18.9717 29.1908 20.649 29.726 22.6527L13.5076 26.9843ZM14.7835 19.2239C13.2645 21.5078 12.7998 24.3342 13.5076 26.9843L29.726 22.6527C30.2611 24.6564 29.9097 26.7935 28.7612 28.5204L14.7835 19.2239ZM17.6971 14.8419L14.7829 19.2249L28.7618 28.5194L31.6761 24.1364L17.6971 14.8419ZM26.0988 10.5864C22.6412 10.4122 19.3629 12.1343 17.5443 15.0803L31.8289 23.898C30.4311 26.1623 27.9114 27.486 25.2538 27.352L26.0988 10.5864ZM33.7877 15.108C32.0754 12.3384 29.071 10.6309 25.8154 10.5769L25.5372 27.3615C23.0755 27.3207 20.804 26.0297 19.5093 23.9356L33.7877 15.108ZM35.7932 18.3681L33.7975 15.1239L19.4994 23.9196L21.4951 27.1637L35.7932 18.3681ZM24.5742 14.9657L22.7091 16.8308L34.5792 28.701L36.4443 26.8359L24.5742 14.9657ZM25.5092 14.1516C25.5064 14.1538 25.47 14.1814 25.4292 14.2131C25.385 14.2474 25.318 14.3 25.2382 14.3652C25.0794 14.4951 24.842 14.6979 24.5742 14.9657L36.4443 26.8358C36.2044 27.0757 35.9962 27.2529 35.8672 27.3585C35.7525 27.4523 35.6532 27.527 35.6868 27.5013L25.5092 14.1516ZM25.0231 14.5583C25.1852 14.4109 25.3207 14.3002 25.4008 14.2364C25.4722 14.1794 25.533 14.1335 25.5088 14.1519L35.6873 27.501C35.6902 27.4988 35.7144 27.4803 35.7415 27.4594C35.7707 27.4369 35.8148 27.4027 35.8673 27.3608C35.9711 27.2781 36.13 27.1478 36.3149 26.9798L25.0231 14.5583ZM18.1437 16.4223L23.5188 25.165L37.8192 16.3731L32.4441 7.63039L18.1437 16.4223ZM24.146 19.7623C21.6884 19.7702 19.4055 18.4929 18.1266 16.3943L32.4613 7.65837C30.683 4.74049 27.5089 2.96447 24.0919 2.97548L24.146 19.7623ZM16.4719 19.7623H24.1189V2.97544H16.4719V19.7623ZM21.3858 17.7455C20.0768 19.0377 18.3115 19.7623 16.4721 19.7623L16.4718 2.97544C13.8967 2.97548 11.4253 3.98985 9.59271 5.79888L21.3858 17.7455ZM17.1695 21.9621L21.4243 17.7073L9.55419 5.83715L5.2994 10.0919L17.1695 21.9621ZM17.179 12.0551C19.9059 14.7908 19.9059 19.217 17.1789 21.9526L5.28997 10.1014C1.48641 13.9171 1.48642 20.0907 5.28996 23.9063L17.179 12.0551ZM7.34295 11.973C10.0554 9.32658 14.3836 9.32659 17.096 11.973L5.37293 23.9884C9.18114 27.704 15.2578 27.704 19.066 23.9884L7.34295 11.973ZM10.7487 8.55363L7.25855 12.0566L19.1504 23.9049L22.6405 20.402L10.7487 8.55363ZM17.5277 5.74164C14.9847 5.73964 12.5456 6.75101 10.7502 8.55204L22.6389 20.4036C21.2814 21.7653 19.4372 22.53 17.5145 22.5285L17.5277 5.74164ZM22.6991 5.74164H17.5211V22.5285H22.6991V5.74164ZM31.5686 11.7352C30.1126 8.1136 26.601 5.74098 22.6977 5.74164L22.7005 22.5285C19.7492 22.529 17.094 20.7351 15.9932 17.9967L31.5686 11.7352ZM30.883 20.3303C32.4458 17.7315 32.6997 14.5504 31.5691 11.7365L15.9926 17.9954C15.1617 15.9274 15.3483 13.5894 16.4969 11.6794L30.883 20.3303ZM25.2152 28.8368L30.6706 20.6653L16.7092 11.3444L11.2538 19.516L25.2152 28.8368ZM21.5449 32.0767C23.0291 31.3335 24.2942 30.2167 25.2156 28.8362L11.2533 19.5166C11.95 18.4728 12.9066 17.6284 14.0288 17.0664L21.5449 32.0767ZM14.9363 35.3868L21.5458 32.0762L14.0279 17.0669L7.41838 20.3775L14.9363 35.3868ZM5.58413 34.944C8.41301 36.714 11.9601 36.8806 14.9425 35.3837L7.41213 20.3806C9.66715 19.2488 12.3492 19.3748 14.4881 20.7131L5.58413 34.944ZM-0.00275475 31.4449L5.58093 34.942L14.4913 20.7151L8.90762 17.218L-0.00275475 31.4449ZM9.65914 29.2235C7.61162 32.4989 3.29903 33.4988 0.0190606 31.4585L8.88581 17.2044C4.30571 14.3553 -1.7163 15.7515 -4.57543 20.3253L9.65914 29.2235ZM10.5433 23.9217C10.9653 25.7426 10.6435 27.6567 9.64908 29.2395L-4.56537 20.3093C-5.94955 22.5125 -6.3976 25.1769 -5.81013 27.7117L10.5433 23.9217ZM7.40095 19.5393C8.99023 20.5233 10.1213 22.1007 10.5433 23.9217L-5.81013 27.7117C-5.22267 30.2465 -3.64825 32.4422 -1.43597 33.812L7.40095 19.5393ZM14.2334 23.818L7.43736 19.562L-1.47238 33.7893L5.32363 38.0453L14.2334 23.818ZM7.41582 23.4691C9.54787 22.411 12.0725 22.5142 14.111 23.7428L5.44597 38.1204C8.3179 39.8513 11.8746 39.9967 14.8782 38.5061L7.41582 23.4691ZM31.434 28.7106L32.6102 26.9422L18.6328 17.6454L17.4566 19.4138L31.434 28.7106ZM30.1159 17.5075L28.1808 16.5458L20.7098 31.5785L22.6448 32.5402L30.1159 17.5075ZM21.026 18.5092L20.4513 19.0828L32.3094 30.965L32.8841 30.3914L21.026 18.5092ZM18.4827 26.7083L19.8163 28.8648L34.0938 20.0359L32.7603 17.8793L18.4827 26.7083ZM29.167 43C31.8378 42.7577 34.3682 41.6949 36.4111 39.9575L25.5353 27.1701C26.1318 26.6628 26.8706 26.3525 27.6504 26.2817L29.167 43ZM38.4228 35.9067L35.9177 30.8907L20.8996 38.391L23.4047 43.407L38.4228 35.9067ZM29.6477 30.9057L27.1601 32.1495L34.6674 47.1642L37.155 45.9204L29.6477 30.9057ZM23.4681 37.3218L25.8962 42.1711L40.9065 34.6551L38.4784 29.8058L23.4681 37.3218ZM42.5978 32.8328L40.2349 28.107L25.2203 35.6143L27.5831 40.3401L42.5978 32.8328ZM33.2664 24.1963L28.1081 31.9284L42.0728 41.2444L47.231 33.5124L33.2664 24.1963ZM35.7374 37.2478H40.2487V20.4609H35.7374V37.2478ZM38.6592 37.7992L41.669 34.7929L29.8058 22.9158L26.796 25.9222L38.6592 37.7992ZM38.4579 29.0107L34.4549 35.0222L48.4274 44.3264L52.4304 38.3149L38.4579 29.0107ZM45.4477 25.2694H45.4442V42.0563H45.4477V25.2694ZM46.6071 24.7526C43.3112 24.6827 40.213 26.3201 38.4141 29.0826L52.4813 38.2431C51.1133 40.3437 48.7575 41.5888 46.2512 41.5357L46.6071 24.7526ZM54.551 29.3022C52.8433 26.5253 49.8382 24.8101 46.5787 24.752L46.2797 41.5362C43.8151 41.4923 41.5429 40.1954 40.2517 38.0958L54.551 29.3022ZM58.7765 36.1681L54.5496 29.2999L40.2531 38.0981L44.4799 44.9664L58.7765 36.1681ZM52.4619 33.3948C54.9233 32.9124 57.4267 34.0008 58.7527 36.1298L44.5037 45.0047C46.8617 48.7906 51.3135 50.7261 55.6904 49.8683L52.4619 33.3948ZM64.087 31.0697L52.4301 33.4011L55.7222 49.862L67.3792 47.5306L64.087 31.0697ZM59.5309 35.0753C60.2236 33.0234 61.9584 31.4969 64.0818 31.0708L67.3845 47.5296C71.1413 46.7757 74.2105 44.0749 75.436 40.4445L59.5309 35.0753ZM60.7236 41.0188C59.2929 39.393 58.8382 37.1273 59.5309 35.0753L75.436 40.4446C76.6615 36.8142 75.8572 32.8057 73.3259 29.9292L60.7236 41.0188ZM66.4671 42.9577C64.3437 43.3838 62.1542 42.6447 60.7235 41.0188L73.326 29.9292C70.7947 27.0527 66.9212 25.745 63.1644 26.4989L66.4671 42.9577ZM57.1959 44.8122L66.462 42.9587L63.1694 26.4979L53.9033 28.3513L57.1959 44.8122ZM47.177 40.4438C49.2726 43.8536 53.2705 45.5969 57.195 44.8123L53.9042 28.3512C56.8715 27.7579 59.8944 29.076 61.4789 31.6543L47.177 40.4438ZM39.1306 27.3691L47.1797 40.4482L61.4762 31.6499L53.427 18.5707L39.1306 27.3691ZM44.311 30.2536C42.1899 30.2571 40.2205 29.1542 39.1152 27.3439L53.4424 18.5959C51.4939 15.4047 48.0223 13.4605 44.2833 13.4667L44.311 30.2536ZM33.8059 30.2536H44.2971V13.4667H33.8059V30.2536ZM38.1169 28.4551C36.9703 29.6107 35.4083 30.2585 33.7803 30.2536L33.8314 13.4668C30.9668 13.458 28.2182 14.5979 26.2005 16.6315L38.1169 28.4551ZM33.4077 33.1644L38.0938 28.4783L26.2237 16.6082L21.5376 21.2943L33.4077 33.1644ZM33.1303 33.4294L33.1443 33.4166L21.8009 21.0421L21.7869 21.055L33.1303 33.4294ZM32.2641 34.3068L33.3937 33.1772L21.5236 21.3071L20.394 22.4367L32.2641 34.3068ZM33.6547 27.8735C34.4946 30.1252 33.934 32.6603 32.2228 34.3478L20.4353 22.3956C17.437 25.3527 16.4546 29.7947 17.9264 33.7403L33.6547 27.8735ZM33.8372 28.4191L33.8302 28.3958L17.7508 33.218L17.7578 33.2413L33.8372 28.4191ZM32.2979 25.7672C32.9097 26.386 33.3811 27.1293 33.6801 27.9465L17.915 33.7138C18.4439 35.1597 19.2779 36.4746 20.3602 37.5694L32.2979 25.7672ZM23.8277 25.5992C26.1496 23.3812 29.8052 23.3812 32.127 25.5992L20.5312 37.7374C24.6975 41.7176 31.2572 41.7176 35.4236 37.7374L23.8277 25.5992ZM28.4963 20.9287L23.6913 25.7326L35.56 37.6041L40.365 32.8003L28.4963 20.9287ZM35.253 18.1295C32.718 18.13 30.287 19.1375 28.4947 20.9303L40.3666 32.7986C39.0115 34.1542 37.1734 34.916 35.2566 34.9164L35.253 18.1295ZM42.3434 18.1295H35.2548V34.9164H42.3434V18.1295ZM50.4727 22.6605C48.7316 19.8453 45.6578 18.1311 42.3475 18.1295L42.3394 34.9164C39.8364 34.9152 37.5123 33.6191 36.1958 31.4905L50.4727 22.6605ZM50.5868 32.6566C52.4173 29.5459 52.3628 25.6746 50.4454 22.6167L36.2231 31.5343C34.8115 29.2831 34.7714 26.433 36.119 24.1429L50.5868 32.6566ZM42.8613 44.2639L50.3358 33.0569L36.37 23.7425L28.8956 34.9495L42.8613 44.2639ZM39.189 47.5069C40.673 46.7639 41.9381 45.6471 42.8597 44.2664L28.8973 34.9471C29.5941 33.9031 30.5506 33.0587 31.6726 32.4969L39.189 47.5069ZM30.1123 52.0459L39.1849 47.509L31.6768 32.4948L22.6042 37.0317L30.1123 52.0459ZM20.7748 51.6053C23.5989 53.3682 27.1368 53.5347 30.114 52.045L22.6024 37.0326C24.8535 35.9062 27.5285 36.0321 29.6639 37.3651L20.7748 51.6053ZM13.108 46.8125L20.7701 51.6024L29.6685 37.368L22.0064 32.5781L13.108 46.8125ZM19.169 47.0236C17.2589 48.041 14.951 47.9622 13.1147 46.8167L21.9997 32.5739C18.7475 30.5451 14.6599 30.4055 11.2768 32.2076L19.169 47.0236ZM22.3752 41.8839C22.3013 44.0468 21.0791 46.0061 19.1689 47.0236L11.2769 32.2076C7.89374 34.0097 5.72902 37.4797 5.59813 41.3106L22.3752 41.8839ZM19.5272 36.5373C21.3635 37.6828 22.4491 39.7209 22.3752 41.8839L5.59813 41.3106C5.46724 45.1415 7.39003 48.7513 10.6423 50.7801L19.5272 36.5373ZM28.8588 42.3696L19.5333 36.5411L10.6362 50.7763L19.9618 56.6048L28.8588 42.3696ZM22.9805 42.0642C24.8346 41.1492 27.0283 41.2488 28.7918 42.3281L20.0289 56.6463C23.179 58.5742 27.0978 58.7522 30.4097 57.1177L22.9805 42.0642ZM33.0258 37.0374L22.939 42.0848L30.4512 57.097L40.538 52.0496L33.0258 37.0374ZM41.5588 37.0262C38.8782 35.6948 35.7289 35.6948 33.0482 37.0262L40.5155 52.0608C38.4921 53.0657 36.1149 53.0657 34.0915 52.0608L41.5588 37.0262ZM50.6293 41.5614L41.5788 37.0361L34.0715 52.0508L43.122 56.576L50.6293 41.5614ZM54.909 45.8472C53.9859 43.9949 52.4866 42.4921 50.6361 41.5647L43.1152 56.5726C41.716 55.8715 40.5823 54.7351 39.8844 53.3346L54.909 45.8472ZM60.2115 56.4521L54.904 45.8373L39.8894 53.3446L45.1968 63.9594L60.2115 56.4521ZM52.1996 53.681C55.1301 52.2744 58.648 53.4466 60.1491 56.3299L45.2592 64.0817C47.9413 69.2336 54.2274 71.3282 59.4638 68.8148L52.1996 53.681ZM49.0376 57.247C49.5458 55.7213 50.6394 54.4599 52.0778 53.7407L59.5856 68.7551C62.1303 67.4826 64.0651 65.2512 64.9642 62.5519L49.0376 57.247ZM49.3681 61.876C48.6483 60.4379 48.5294 58.7727 49.0376 57.247L64.9642 62.5519C65.8633 59.8526 65.653 56.9066 64.3796 54.3624L49.3681 61.876ZM43.538 50.2159L49.3665 61.8728L64.3812 54.3655L58.5527 42.7085L43.538 50.2159ZM46.2303 52.9171C45.0692 52.3326 44.1273 51.3896 43.5441 50.2279L58.5466 42.6965C57.5114 40.6344 55.8395 38.9605 53.7785 37.923L46.2303 52.9171ZM38.1367 48.871L46.2511 52.9276L53.7576 37.9125L45.6432 33.8559L38.1367 48.871ZM33.1726 42.7755C33.8767 45.4252 35.6845 47.6451 38.1368 48.871L45.6431 33.8559C47.4973 34.7828 48.8643 36.4613 49.3966 38.4647L33.1726 42.7755ZM34.4565 35.0198C32.9361 37.3013 32.4686 40.1258 33.1726 42.7755L49.3966 38.4648C49.9289 40.4682 49.5754 42.6038 48.4258 44.3289L34.4565 35.0198Z" fill="white" mask="url(#path-1-inside-1_3754_16082)"/>
</svg>
