<svg width="96" height="96" viewBox="0 0 96 96" fill="none" xmlns="http://www.w3.org/2000/svg">
<path d="M46.5893 25.2938C54.5617 22.3902 61.4469 19.8826 67.2097 22.2698C67.612 22.4304 68.0636 22.4314 68.4666 22.2726C68.8697 22.1137 69.1918 21.8078 69.3632 21.421C69.5346 21.0343 69.5415 20.5979 69.3824 20.2062C69.2234 19.8146 68.9111 19.4993 68.5133 19.3286C61.6972 16.5048 54.0863 19.1468 46.0296 22.078C48.8303 17.3914 49.5961 11.7419 49.6404 11.3979C49.6722 11.1507 49.6439 10.8998 49.5578 10.665C49.4716 10.4303 49.3299 10.2182 49.1439 10.0458C48.958 9.87329 48.733 9.74516 48.4868 9.67157C48.2406 9.59798 47.98 9.58098 47.7259 9.6219L39.9392 10.8763C39.9775 7.93908 38.8264 5.27226 36.5469 3.06864C35.2523 1.82514 33.731 0.823582 32.0599 0.114413C31.8302 0.025605 31.5828 -0.0122982 31.3359 0.00349139C31.089 0.019281 30.849 0.0883618 30.6334 0.205653C30.4177 0.322944 30.2321 0.485461 30.09 0.681252C29.9479 0.877044 29.8531 1.10113 29.8124 1.33702C29.7986 1.41903 28.2461 9.5991 23.1692 9.5991C18.3122 9.5991 11.613 4.16205 9.44213 2.06763C9.18614 1.8201 8.85323 1.66053 8.49444 1.61339C8.13564 1.56624 7.77075 1.63412 7.45569 1.80661C7.14062 1.97911 6.89276 2.24671 6.75009 2.5684C6.60742 2.89009 6.57782 3.24813 6.66581 3.58764L9.96706 16.3516C7.95382 15.5203 6.05966 14.4419 4.33125 13.1431C4.05158 12.9298 3.70818 12.8094 3.35207 12.7998C2.99596 12.7902 2.64615 12.8919 2.35461 13.0898C2.06307 13.2877 1.84537 13.5713 1.73384 13.8983C1.62231 14.2254 1.62292 14.5785 1.73556 14.9051C1.7906 15.0651 3.12455 18.8604 6.62071 22.6622C9.8665 26.1918 15.6594 30.3993 24.8244 30.3993C32.5714 30.3993 40.0187 27.6869 46.5893 25.2938ZM23.1692 12.7991C26.5457 12.7991 29.3471 10.8335 31.2707 7.11468C31.783 6.11147 32.2068 5.0683 32.5376 3.99625C34.5157 5.28026 37.3764 7.97628 36.4435 12.4853C36.3909 12.7393 36.4029 13.0019 36.4785 13.2504C36.5541 13.4989 36.691 13.726 36.8774 13.9121C37.0639 14.0982 37.2942 14.2378 37.5488 14.3188C37.8033 14.3998 38.0744 14.4199 38.3388 14.3773L45.9595 13.1497C45.1848 16.5328 43.381 21.6624 40.1062 23.9526C37.8188 21.8154 34.0383 17.8266 33.0506 14.0111C32.9766 13.7246 32.822 13.4635 32.604 13.2566C32.386 13.0498 32.113 12.9053 31.8152 12.8391C31.5175 12.773 31.2066 12.7878 30.917 12.8819C30.6274 12.976 30.3704 13.1458 30.1745 13.3723L30.0375 13.5305C28.0131 15.8706 26.0978 18.0838 22.9116 19.1918C19.7954 19.04 16.7092 18.5288 13.7185 17.669L11.1394 7.69028C14.3471 10.0561 18.9714 12.7991 23.1692 12.7991ZM9.17853 20.6266C8.66161 20.0697 8.17426 19.4878 7.71836 18.8832C15.1578 22.2912 22.7595 22.3962 23.1563 22.3992C23.338 22.4 23.5186 22.3724 23.6912 22.3176C26.8983 21.287 29.0322 19.473 30.871 17.5068C32.3255 20.4634 34.7005 23.2068 36.7586 25.2468C32.8699 26.3891 28.896 27.1989 24.8249 27.1989C18.4986 27.1993 13.2346 24.9878 9.17853 20.6266Z" fill="white"/>
<path d="M95.7215 64.8797C95.8723 64.6586 95.9639 64.4049 95.9883 64.1412C96.0126 63.8775 95.9689 63.612 95.861 63.3687C93.639 58.357 89.2156 54.6612 83.0692 52.681C81.5296 52.1882 79.9522 51.8137 78.3516 51.561C82.566 47.7763 90.4316 40.3373 94.1039 34.4208C94.3298 34.0569 94.3968 33.6212 94.2904 33.2095C94.1839 32.7979 93.9126 32.4439 93.5361 32.2256C93.1597 32.0073 92.7089 31.9424 92.283 32.0453C91.8571 32.1483 91.4909 32.4105 91.2651 32.7744C87.7617 38.4186 79.841 45.8545 75.8221 49.4567C75.5615 47.771 75.152 46.1099 74.5983 44.4917C72.5499 38.5504 68.7262 34.2748 63.5414 32.127C63.2895 32.0226 63.0147 31.9803 62.7417 32.0039C62.4687 32.0275 62.206 32.1163 61.9773 32.2623C61.7486 32.4082 61.5609 32.6068 61.4311 32.8402C61.3014 33.0736 61.2336 33.3345 61.234 33.5994V39.6207C57.0238 38.8406 47.1972 37.5022 39.1918 40.0817C38.9567 40.1574 38.7422 40.2833 38.5641 40.4499C38.386 40.6166 38.2489 40.8197 38.1629 41.0444C38.0769 41.2691 38.0442 41.5096 38.0672 41.7482C38.0903 41.9867 38.1684 42.2172 38.2959 42.4227L42.4258 49.0753L30.5616 56.2428C30.327 56.3845 30.1329 56.5807 29.997 56.8136C29.8611 57.0465 29.7877 57.3086 29.7836 57.5759C29.7795 57.8433 29.8448 58.1074 29.9735 58.344C30.1021 58.5807 30.2901 58.7825 30.5202 58.9308L39.6504 64.8145L38.0644 86.2859C38.0475 86.5146 38.0817 86.7442 38.1646 86.959C38.2475 87.1739 38.3773 87.369 38.545 87.5311C38.7128 87.6933 38.9146 87.8187 39.1369 87.8988C39.3591 87.979 39.5966 88.012 39.8333 87.9957L62.0463 86.4623L68.1332 95.2876C68.2843 95.5067 68.4891 95.6864 68.7294 95.8107C68.9696 95.9349 69.2379 96 69.5104 96H69.5348C69.8114 95.996 70.0825 95.9252 70.3234 95.7938C70.5644 95.6625 70.7674 95.4749 70.914 95.2482L78.3291 83.7799L85.2115 87.7715C85.424 87.8946 85.6624 87.97 85.9091 87.9921C86.1557 88.0143 86.4044 87.9826 86.6367 87.8995C86.8691 87.8164 87.0791 87.6839 87.2514 87.5119C87.4238 87.3399 87.5539 87.1326 87.6324 86.9055C90.3015 79.1674 88.9152 69.6691 88.1093 65.5993H94.3396C94.6135 65.5993 94.8832 65.5335 95.1244 65.4079C95.3656 65.2823 95.5708 65.1008 95.7215 64.8797ZM86.0632 62.3997C85.8116 62.3997 85.5634 62.4551 85.3373 62.5617C85.1113 62.6683 84.9133 62.8234 84.7585 63.015C84.6037 63.2066 84.4961 63.4299 84.4439 63.6677C84.3917 63.9056 84.3963 64.1518 84.4573 64.3877C84.4869 64.5027 87.1927 75.1758 85.0592 83.9519L78.6384 80.2278C78.2664 80.0121 77.8217 79.9461 77.3999 80.0441C76.9781 80.1421 76.613 80.3963 76.3831 80.7518L69.4655 91.4503L64.2664 83.9123C64.1153 83.6931 63.9105 83.5134 63.6702 83.3892C63.43 83.2649 63.1617 83.1999 62.8892 83.1999C62.8501 83.1999 62.8106 83.2013 62.7711 83.2041L41.5022 84.6725L43.0213 64.1137C43.0422 63.8317 42.9854 63.5494 42.8567 63.2955C42.728 63.0417 42.532 62.8253 42.2887 62.6685L34.4902 57.643L45.5583 50.9564C45.9261 50.7341 46.189 50.3812 46.2904 49.9735C46.3918 49.5658 46.3235 49.1359 46.1004 48.7763L42.2479 42.5701C51.3128 40.5141 62.3691 43.1231 62.4876 43.1517C62.7317 43.2107 62.9864 43.2151 63.2325 43.1647C63.4786 43.1143 63.7096 43.0103 63.9079 42.8607C64.1062 42.711 64.2665 42.5197 64.3769 42.3011C64.4872 42.0826 64.5445 41.8426 64.5445 41.5995V36.2656C71.5683 40.7181 72.6324 49.7037 72.7926 52.1642L71.2505 53.6548C64.2937 46.4881 55.0267 46.3995 54.6128 46.3995C54.1738 46.3995 53.7528 46.5681 53.4424 46.8681C53.132 47.1682 52.9576 47.5752 52.9576 47.9995C52.9576 48.4239 53.132 48.8309 53.4424 49.1309C53.7528 49.431 54.1738 49.5995 54.6128 49.5995C54.69 49.5995 61.2168 49.6595 66.8909 54.0996C54.4109 53.7106 47.462 57.6416 47.1401 57.8278C46.764 58.0459 46.4928 58.3993 46.3861 58.8105C46.2794 59.2217 46.3459 59.657 46.5709 60.0209C46.7959 60.3847 47.1612 60.6474 47.5864 60.7512C48.0116 60.855 48.462 60.7914 48.8388 60.5744C48.9108 60.5332 55.5754 56.8206 67.4522 57.3264L50.1318 74.0686C49.8214 74.3686 49.647 74.7756 49.647 75.2C49.647 75.6243 49.8214 76.0313 50.1318 76.3314C50.4422 76.6315 50.8633 76.8 51.3023 76.8C51.7413 76.8 52.1623 76.6315 52.4728 76.3314L69.793 59.5892C70.3157 71.0595 66.4824 77.5002 66.433 77.581C66.2077 77.9452 66.1413 78.381 66.2485 78.7926C66.3556 79.2041 66.6275 79.5576 67.0043 79.7754C67.3811 79.9932 67.8319 80.0574 68.2577 79.9538C68.6834 79.8502 69.0492 79.5874 69.2745 79.2232C69.4671 78.9128 73.5329 72.1978 73.1319 60.1384C77.6883 65.6019 77.7868 71.9198 77.7868 72.0036C77.7873 72.4279 77.9622 72.8347 78.273 73.1344C78.5838 73.4341 79.005 73.6022 79.444 73.6017C79.883 73.6012 80.3038 73.4321 80.6139 73.1317C80.9239 72.8313 81.0978 72.4241 81.0973 71.9998C81.0973 71.5997 81.0057 62.6421 73.5914 55.9176L75.1333 54.427C77.6825 54.5822 86.9758 55.6118 91.5812 62.3997H86.0632Z" fill="white"/>
<path d="M77.7942 17.5982C78.0047 17.5981 78.2132 17.5592 78.4085 17.4834C78.7785 17.3402 87.4919 13.8978 89.3313 6.78575C89.3858 6.58134 89.3978 6.36854 89.3669 6.15959C89.3359 5.95065 89.2624 5.74969 89.1507 5.56831C89.039 5.38692 88.8913 5.22869 88.7161 5.10273C88.5409 4.97677 88.3416 4.88557 88.1297 4.83438C87.9179 4.78319 87.6977 4.77303 87.4817 4.80448C87.2658 4.83593 87.0584 4.90836 86.8716 5.01761C86.6847 5.12687 86.5221 5.27078 86.393 5.44105C86.264 5.61133 86.1711 5.8046 86.1196 6.00974C84.6936 11.5232 77.2525 14.4836 77.1768 14.5132C76.8198 14.6516 76.5238 14.9059 76.3396 15.2324C76.1555 15.5588 76.0948 15.9371 76.1678 16.3021C76.2409 16.6672 76.4432 16.9962 76.74 17.2328C77.0368 17.4693 77.4095 17.5985 77.7942 17.5982Z" fill="white"/>
<path d="M94.8578 6.47809C94.4404 6.34667 93.9861 6.3809 93.5948 6.57323C93.2035 6.76557 92.9073 7.10026 92.7713 7.50369C89.332 17.7096 79.12 20.8238 78.9727 20.8666C78.7631 20.9256 78.5676 21.0241 78.3976 21.1565C78.2275 21.2888 78.0862 21.4523 77.9818 21.6376C77.8774 21.823 77.812 22.0264 77.7893 22.2363C77.7665 22.4462 77.787 22.6583 77.8494 22.8605C77.9119 23.0627 78.0151 23.251 78.1531 23.4145C78.2912 23.5779 78.4613 23.7134 78.6537 23.8131C78.8461 23.9128 79.0571 23.9747 79.2743 23.9952C79.4916 24.0158 79.7109 23.9946 79.9197 23.9328C80.408 23.7928 91.9217 20.357 95.9188 8.4949C96.0548 8.09145 96.0194 7.65232 95.8204 7.2741C95.6214 6.89588 95.2751 6.60955 94.8578 6.47809Z" fill="white"/>
<path d="M19.7454 56.5945C19.8262 56.3994 19.8664 56.1908 19.8637 55.9807C19.8611 55.7706 19.8157 55.563 19.73 55.3698C19.6444 55.1767 19.5202 55.0017 19.3646 54.855C19.2091 54.7082 19.0251 54.5925 18.8232 54.5145C17.414 53.9233 16.0771 53.1827 14.8371 52.3062C12.9824 51.0024 10.6172 48.852 9.88263 46.0122C9.8312 45.807 9.73827 45.6138 9.60922 45.4435C9.48016 45.2732 9.31753 45.1293 9.13068 45.0201C8.94384 44.9108 8.73648 44.8384 8.52054 44.8069C8.30461 44.7755 8.08437 44.7856 7.87252 44.8368C7.66066 44.888 7.46138 44.9792 7.28616 45.1052C7.11093 45.2311 6.96321 45.3894 6.85153 45.5708C6.73984 45.7521 6.66639 45.9531 6.6354 46.162C6.60442 46.371 6.61651 46.5838 6.67098 46.7882C8.51041 53.9003 17.2234 57.3427 17.5938 57.4859C17.7956 57.5641 18.0114 57.6031 18.2288 57.6006C18.4462 57.5982 18.661 57.5543 18.8609 57.4715C19.0608 57.3887 19.2418 57.2686 19.3936 57.1181C19.5454 56.9676 19.6648 56.7897 19.7454 56.5945Z" fill="white"/>
<path d="M3.22321 47.5046C3.08352 47.1056 2.78672 46.776 2.39719 46.5872C2.00766 46.3984 1.55684 46.3657 1.14253 46.4962C0.728213 46.6267 0.383836 46.9098 0.184113 47.2841C-0.0156098 47.6585 -0.0545675 48.0939 0.0756923 48.4958C4.07278 60.3579 15.5865 63.7933 16.0748 63.9337C16.4947 64.053 16.9464 64.0066 17.3311 63.8048C17.7157 63.6029 18.002 63.262 18.1273 62.8567C18.2526 62.4514 18.2068 62.0145 17.9998 61.6418C17.7927 61.269 17.4414 60.9907 17.0227 60.8677C16.9194 60.8377 6.66991 57.7331 3.22321 47.5046Z" fill="white"/>
</svg>
