<svg width="96" height="96" viewBox="0 0 96 96" fill="none" xmlns="http://www.w3.org/2000/svg">
<path d="M73.9183 84.4294C73.2751 84.8544 73.0944 85.7263 73.5249 86.3692C73.9501 87.0176 74.8218 87.1931 75.4702 86.7679C76.9796 85.7687 78.2606 84.5302 79.265 83.1431C80.2908 81.7241 81.0348 80.1401 81.4494 78.4871C81.5186 78.2055 81.7895 77.5091 81.5345 76.8289C81.2954 76.1805 80.7425 75.8561 80.2111 75.4948C78.404 74.2564 76.2568 73.4698 73.982 73.2094C71.7337 72.9542 69.3526 73.2146 67.046 74.0704C65.4091 74.6816 63.9369 75.5374 62.6718 76.5791C62.8207 76.2071 62.9801 75.8404 63.1396 75.4789C65.255 70.7273 68.3908 66.8102 71.9199 63.0259C74.4393 65.3646 77.7558 66.8951 81.5506 67.2566C84.3144 67.5171 87.4344 67.2566 89.9696 66.2256C92.3454 65.2583 93.8761 63.7009 93.9929 61.7822C94.0993 60.0283 92.999 58.4338 91.091 57.222C89.9748 56.5099 88.5558 55.9146 86.9401 55.5C87.9553 54.1712 88.7099 52.8264 89.1511 51.5775C89.9006 49.4514 89.7836 47.5223 88.6196 46.2041C87.4503 44.886 85.5476 44.5352 83.3471 45.0242C82.0556 45.3113 80.6259 45.8959 79.1908 46.7462C78.9674 45.0825 78.5529 43.5998 77.9842 42.4093C77.1391 40.6341 75.6828 38.9758 73.5781 38.9706C71.7498 38.9706 70.1075 40.278 68.9062 42.4359C67.8326 44.3653 67.0779 47.0492 66.8919 50.0256L66.8866 50.0256L66.8866 50.1319L66.8866 50.1371L66.8814 50.1371L66.8814 50.1478C66.6581 54.2456 67.838 57.9874 70.0383 60.9319C69.0073 62.0321 68.0347 63.1163 67.1152 64.2058C66.8653 62.7176 66.2754 61.2401 65.3188 59.9061C64.3408 58.5347 63.0918 57.4719 61.7152 56.7542C60.2801 55.9995 58.7015 55.6221 57.1496 55.6539C56.6021 55.6646 56.2886 55.638 55.8155 55.9729C55.268 56.3663 55.1724 56.8446 55.0183 57.291C54.5293 58.7154 54.3911 60.2674 54.6303 61.8086C54.8641 63.3394 55.4647 64.8647 56.4479 66.2413C57.5004 67.7136 58.8663 68.8298 60.3652 69.5471C61.1092 69.9032 61.8853 70.1636 62.6771 70.3178C61.901 71.604 61.2048 72.9326 60.5776 74.3359C58.2018 79.6721 56.9581 85.965 56.9581 94.5966C56.9581 95.3724 57.5853 95.9996 58.3612 95.9996C59.1373 95.9996 59.7697 95.3724 59.7697 94.5966C59.7697 92.0241 59.8813 89.6749 60.1046 87.5117C61.0719 88.0592 62.1136 88.4897 63.2085 88.7927C65.0156 89.2924 66.9609 89.4358 68.9326 89.1861C69.7033 89.0904 70.2455 88.3888 70.1497 87.6234C70.0488 86.8528 69.3525 86.3108 68.5818 86.4064C66.9873 86.6083 65.4142 86.4915 63.9525 86.0874C62.7673 85.7578 61.6563 85.2424 60.6731 84.5567C61.0824 82.9674 61.8796 81.4581 63.0063 80.1559C64.2819 78.6729 65.988 77.4611 68.0236 76.7064C69.9105 76.0103 71.8505 75.7924 73.6734 75.9996C75.5231 76.2122 77.2556 76.8553 78.7066 77.8704C78.377 79.1512 77.7926 80.3844 76.9899 81.4952C76.1773 82.617 75.1408 83.6214 73.9183 84.4294ZM51.2129 29.9882C50.4954 30.2807 50.1498 31.0991 50.4423 31.8167C50.7346 32.5343 51.5531 32.8796 52.2706 32.5928C54.0723 31.8593 55.6085 30.5996 56.6874 28.9997C57.7344 27.4478 58.3404 25.5821 58.3404 23.5785C58.3404 20.8892 57.2506 18.4601 55.4915 16.7008C53.7322 14.9417 51.3033 13.8521 48.614 13.8521C45.9299 13.8521 43.5011 14.9417 41.7363 16.7008C39.977 18.4601 38.8876 20.889 38.8876 23.5785C38.8876 25.5823 39.4989 27.4478 40.5459 28.9997C41.6195 30.5995 43.1555 31.8593 44.9626 32.5928C45.6802 32.8798 46.4986 32.5343 46.7909 31.8167C47.0833 31.0991 46.7326 30.2807 46.0149 29.9882C44.7286 29.4621 43.6338 28.5692 42.8739 27.4371C42.1351 26.3368 41.7046 25.008 41.7046 23.5783C41.7046 21.6703 42.4753 19.9375 43.7296 18.6885C44.9788 17.4394 46.706 16.6635 48.6142 16.6635C50.5276 16.6635 52.2549 17.4396 53.504 18.6885C54.7584 19.9375 55.529 21.6701 55.529 23.5783C55.529 25.008 55.0985 26.3368 54.3598 27.4371C53.594 28.569 52.5044 29.4621 51.2129 29.9882ZM44.7658 2.3344C43.5273 4.02977 42.7938 6.19315 42.4111 7.56958C42.2518 8.13302 41.3323 7.68133 41.0081 7.50058C39.8388 6.84696 37.9732 6.03902 36.0705 5.81046C34.5451 5.62446 33.0622 5.85302 31.9779 6.87883C30.8191 7.96296 30.6438 9.72752 30.8617 11.2105C31.154 13.225 32.1958 15.3615 32.8867 16.584C33.3969 17.4821 32.6422 17.392 32.3235 17.4769C30.9999 17.8384 28.8421 18.6197 27.2636 19.8208C26.004 20.7776 25.0845 22.0052 25.0419 23.5414C24.9995 25.12 26.1262 26.4859 27.3221 27.384C28.9485 28.5958 31.1861 29.3931 32.5361 29.7598C33.5034 30.0255 32.9666 30.4455 32.7646 30.7909C32.0896 31.9761 31.1223 34.0598 30.8619 36.0208C30.6493 37.5887 30.8671 39.1035 31.9141 40.2197C33.0037 41.373 34.7576 41.5483 36.2405 41.3305C38.2603 41.0381 40.3968 40.0018 41.6191 39.3107C42.459 38.8378 42.3472 39.2681 42.5068 39.8901C42.8735 41.2082 43.6655 43.3661 44.8614 44.934C45.515 45.7898 46.2963 46.4914 47.2106 46.8632L47.2106 94.5969C47.2106 95.3728 47.8378 96 48.6138 96C49.3897 96 50.0223 95.3728 50.0223 94.5969L50.0223 46.8684C50.963 46.4912 51.7603 45.7684 52.4193 44.8806C53.6364 43.2437 54.4072 41.0061 54.7899 39.6561C55.0344 38.7951 55.7891 39.4223 56.2888 39.6932C57.4473 40.3149 59.4086 41.1548 61.2583 41.3514C62.7517 41.5161 64.1973 41.277 65.255 40.2778C66.3871 39.2149 66.5677 37.4769 66.3712 36.0259C66.1055 34.0646 65.1434 31.9811 64.4632 30.7907C63.8308 29.6693 63.9796 29.9456 65.1594 29.611C66.4509 29.2495 68.5184 28.4629 70.0385 27.2777C71.2558 26.3318 72.1486 25.1199 72.191 23.6156C72.2336 22.0318 71.1174 20.6659 69.9108 19.7678C68.2897 18.556 66.0468 17.7694 64.6916 17.3972C63.7826 17.1475 64.4364 16.4511 64.7339 15.9036C65.3559 14.7503 66.1903 12.7838 66.3922 10.9341C66.5516 9.44064 66.3178 7.99502 65.3186 6.93714C64.229 5.78383 62.459 5.61902 60.9815 5.83164C58.9672 6.12396 56.8199 7.14433 55.6134 7.84071C55.2148 8.06383 54.8692 7.72371 54.731 7.25083C54.3643 5.93796 53.5672 3.78546 52.3659 2.21758C51.4093 0.963209 50.1815 0.0489591 48.656 0.00114678C47.0407 -0.0412281 45.6641 1.1014 44.7658 2.3344ZM47.03 3.99265C47.5136 3.32833 48.0558 2.84458 48.6138 2.80746C49.1347 2.84458 49.6608 3.30171 50.1391 3.92365C51.0798 5.1514 51.7284 6.91071 52.0259 8.00027C52.4193 9.41402 52.7276 10.2964 53.5674 10.8013C54.4921 11.3541 55.4701 11.1521 57.0061 10.2698C58.0106 9.69039 59.7806 8.84008 61.3751 8.61152C62.1776 8.49452 62.8899 8.53708 63.2992 8.89333C63.6234 9.26533 63.6819 9.91371 63.602 10.6367C63.4479 12.0557 62.7676 13.6343 62.2627 14.5697C62.1033 14.862 62.0396 14.9843 61.9756 15.1011C61.6355 15.7069 61.3591 16.2068 61.2103 16.7434C60.7586 18.3911 61.2954 19.3744 63.9528 20.1025C65.0849 20.4107 66.9399 21.0538 68.2314 22.0211C68.8745 22.4995 69.3476 23.0363 69.3847 23.5785C69.3528 24.0887 68.9116 24.6043 68.3111 25.072C67.1471 25.9808 65.4622 26.6132 64.3993 26.9109C62.858 27.3414 61.9173 27.6868 61.4176 28.5851C60.8703 29.5472 61.1148 30.5623 62.0289 32.1728C62.5869 33.1613 63.3841 34.8675 63.5913 36.3983C63.6976 37.1689 63.6498 37.8653 63.299 38.2639C62.927 38.5828 62.2784 38.6413 61.5556 38.5614C60.1366 38.4073 58.5633 37.7269 57.6172 37.2221C57.4897 37.153 57.3089 37.0521 57.1443 36.9563C56.5331 36.6214 56.0334 36.345 55.502 36.1961C53.8383 35.7231 52.8391 36.2439 52.0897 38.8961C51.7655 40.0442 51.1224 41.9258 50.1658 43.212C49.8363 43.6532 49.2144 44.3441 48.6138 44.3441C48.0399 44.3441 47.4127 43.6532 47.0938 43.2334C46.1531 42.0004 45.51 40.2358 45.2122 39.1408C44.8243 37.7428 44.4787 36.8606 43.6391 36.3718C42.7141 35.8403 41.7309 36.0263 40.2322 36.8713C39.2064 37.456 37.4311 38.3222 35.8473 38.5509C35.0553 38.6679 34.3432 38.6254 33.9286 38.2639C33.5831 37.8653 33.5353 37.1691 33.6416 36.393C33.8488 34.8625 34.6408 33.1615 35.204 32.173C35.9375 30.8869 36.3202 30.0205 36.0545 29.0798C35.7729 28.0487 34.9331 27.5119 33.2694 27.0548C32.148 26.7518 30.2983 26.098 29.0015 25.1308C28.3584 24.6471 27.8801 24.1103 27.8428 23.5789C27.8801 23.0473 28.337 22.5212 28.959 22.0534C30.1867 21.118 31.962 20.4803 33.062 20.1773C34.5024 19.7839 35.3846 19.449 35.8736 18.5987C36.3997 17.6738 36.1871 16.7066 35.3263 15.1971C34.7416 14.1713 33.8752 12.396 33.6414 10.8068C33.5244 10.0148 33.567 9.3079 33.9285 8.89333C34.3111 8.55846 34.9861 8.5054 35.7408 8.60102C37.2238 8.77652 38.8554 9.50458 39.8068 10.0414C40.4285 10.3922 41.1142 10.8227 41.7999 11.0087C43.3891 11.4551 44.3776 10.9609 45.0686 8.47877C45.3929 7.3039 46.0468 5.3374 47.03 3.99265ZM24.1597 60.2994C22.8735 61.6761 21.2842 62.7763 19.4666 63.5096C18.7438 63.7967 18.3982 64.6151 18.6853 65.3327C18.9723 66.0503 19.7908 66.4011 20.5083 66.114C22.3473 65.3753 23.9951 64.3228 25.3929 63.0261C28.922 66.8104 32.0578 70.7274 34.1731 75.4791C34.3325 75.8404 34.4921 76.2071 34.641 76.5793C33.3759 75.5376 31.9036 74.6818 30.2668 74.0706C27.9601 73.2148 25.5791 72.9544 23.3308 73.2096C20.9816 73.4805 18.7758 74.3098 16.9316 75.6118C16.533 75.8934 16.0173 76.1753 15.7783 76.8236C15.5231 77.5093 15.7942 78.2214 15.8634 78.4871C16.4107 80.6769 17.5428 82.7445 19.148 84.4772C20.6947 86.1459 22.6665 87.5014 24.9731 88.3569C27.4552 89.2764 30.017 89.5103 32.4088 89.1542C34.1255 88.8938 35.7519 88.341 37.2082 87.5119C37.4313 89.6803 37.5431 92.0242 37.5431 94.5967C37.5431 95.3726 38.1755 95.9998 38.9516 95.9998C39.7276 95.9998 40.3546 95.3726 40.3546 94.5967C40.3546 85.9652 39.111 79.6723 36.7351 74.3361C36.108 72.933 35.4116 71.6042 34.6357 70.3179C35.4277 70.1638 36.2036 69.9086 36.9478 69.5473C38.4466 68.8298 39.8126 67.7136 40.865 66.2415C41.8483 64.8649 42.4488 63.3394 42.6826 61.8088C42.9165 60.294 42.789 58.7687 42.3159 57.3654C42.1563 56.8871 41.9917 56.3556 41.4975 55.9729C41.1678 55.7231 40.7109 55.6646 40.1634 55.6539C38.6115 55.6221 37.0329 55.9993 35.5978 56.7542C34.2211 57.4718 32.9722 58.5347 31.9942 59.9061C31.0374 61.2401 30.4475 62.7176 30.1978 64.2058C29.2783 63.1163 28.3057 62.0319 27.2745 60.9319C27.5563 60.5544 27.8167 60.1665 28.0665 59.7679C30.0225 56.5948 30.708 53.0126 30.3678 49.3401C30.1179 46.6401 29.3953 44.2164 28.4066 42.4359C27.3648 40.5703 25.6321 38.7475 23.3308 38.9972C21.6513 39.178 20.2693 40.4428 19.3286 42.4095C18.7599 43.6001 18.3453 45.0829 18.1275 46.7464C16.6871 45.8961 15.2574 45.3115 13.9659 45.0244C11.7656 44.5354 9.86283 44.8862 8.69358 46.2043C7.52958 47.5225 7.41259 49.4516 8.16202 51.5777C8.60321 52.8266 9.3579 54.1714 10.373 55.5002C8.75733 55.9148 7.33815 56.5101 6.22196 57.2222C4.31396 58.434 3.21371 60.0285 3.32002 61.7824C3.43159 63.5522 4.73921 65.0139 6.81202 65.9918C8.60846 66.8368 11.0535 67.3365 13.748 67.3418C14.5241 67.3418 15.1511 66.7146 15.1511 65.9439C15.1511 65.1679 14.5239 64.5407 13.748 64.5407C11.4678 64.5354 9.44827 64.1314 7.99721 63.4511C6.87052 62.9196 6.16365 62.2764 6.12634 61.6174C6.08377 60.9636 6.68958 60.246 7.72608 59.5871C9.04946 58.7421 10.9734 58.0937 13.2058 57.8014C13.9764 57.7003 14.5132 56.9987 14.4176 56.2281C14.375 55.9146 14.2316 55.6382 14.0242 55.4308L14.0242 55.4256C12.4509 53.8256 11.3349 52.1303 10.8088 50.6473C10.3995 49.4835 10.3623 48.5481 10.7928 48.0589C11.2233 47.5701 12.164 47.4956 13.3653 47.7613C14.9013 48.1015 16.7191 48.9996 18.5049 50.3709C19.1161 50.8438 19.9931 50.727 20.4661 50.1158C20.6893 49.8234 20.7532 49.5366 20.7585 49.1858C20.7851 46.98 21.1942 45.0242 21.8692 43.6157C22.3794 42.5421 22.9961 41.8616 23.6231 41.7874C23.6602 41.7874 23.7028 41.782 23.7401 41.7767C24.4681 41.7767 25.2601 42.5421 25.9563 43.7964C26.8387 45.3855 27.4657 47.655 27.62 50.2168C27.7901 53.0604 27.1843 55.8561 25.68 58.2956C25.2386 59.0079 24.7284 59.6829 24.1597 60.2994ZM72.9935 60.1187C72.9669 60.0868 72.9404 60.0604 72.9084 60.0283C70.6974 57.5038 69.4749 54.0969 69.6875 50.3072C69.6928 50.2487 69.6982 50.1902 69.6982 50.1371C69.8578 47.6072 70.4795 45.3696 71.3564 43.7964C72.0526 42.5421 72.8446 41.7767 73.5727 41.7767C73.6098 41.7819 73.6524 41.7874 73.6895 41.7874C74.3167 41.8616 74.9332 42.5421 75.4434 43.6157C76.1077 45.0083 76.517 46.9374 76.5541 49.1113C76.5648 49.494 76.5967 49.7811 76.8464 50.1158C77.3195 50.727 78.1964 50.8438 78.8077 50.3709C80.5934 48.9996 82.4113 48.1014 83.9473 47.7613C85.1484 47.4956 86.0891 47.5701 86.5196 48.0589C86.9501 48.5479 86.9129 49.4833 86.5036 50.6473C85.9882 52.1036 84.9039 53.7673 83.3679 55.3459C83.1127 55.6063 82.9479 55.8401 82.8948 56.2283C82.7992 56.9989 83.336 57.7005 84.1066 57.8016C86.339 58.0939 88.2629 58.7423 89.5863 59.5873C90.6228 60.2464 91.2286 60.9638 91.1861 61.6176C91.1437 62.3563 90.2773 63.0686 88.9113 63.6212C86.5833 64.5673 84.6806 64.4981 82.2463 64.4981C78.4627 64.2431 75.2259 62.622 72.9935 60.1187ZM35.741 67.0228C34.9066 67.4214 34.0188 67.6446 33.1366 67.6819C32.8867 66.8368 32.8123 65.9173 32.9188 64.9978C33.057 63.8072 33.5086 62.6061 34.2793 61.5324C34.9968 60.5278 35.9004 59.7572 36.8943 59.2363C37.7925 58.7633 38.7598 58.5028 39.7218 58.4603C39.993 59.385 40.0567 60.3844 39.9026 61.3941C39.7325 62.5048 39.2966 63.6158 38.579 64.6149C37.8086 65.694 36.8199 66.5072 35.741 67.0228ZM64.1759 67.6819C63.2936 67.6448 62.4059 67.4214 61.5716 67.0228C60.4927 66.5072 59.504 65.694 58.7334 64.6151C58.0158 63.6159 57.5801 62.5052 57.4098 61.3943C57.2557 60.3844 57.3195 59.3852 57.5906 58.4604C58.5526 58.503 59.52 58.7634 60.4181 59.2365C61.412 59.7521 62.3156 60.528 63.0384 61.5326C63.8036 62.6063 64.2555 63.8074 64.3936 64.998C64.5003 65.9173 64.4259 66.8368 64.1759 67.6819ZM36.6393 84.5569C35.2946 85.4978 33.7055 86.1195 32.0047 86.3745C30.0648 86.6616 27.9813 86.4703 25.9509 85.7209C24.0534 85.014 22.4484 83.9192 21.2047 82.5797C19.9396 81.2138 19.0468 79.5874 18.6056 77.8706C20.0566 76.8553 21.7893 76.2124 23.6388 75.9998C25.4619 75.7926 27.4018 76.0104 29.2886 76.7066C31.3241 77.4613 33.0303 78.6731 34.3059 80.1561C35.4328 81.4583 36.23 82.9676 36.6393 84.5569Z" fill="white"/>
</svg>
