<svg width="96" height="96" viewBox="0 0 96 96" fill="none" xmlns="http://www.w3.org/2000/svg">
<path d="M89.6663 24.0667C89.1801 23.2352 88.1079 22.953 87.2718 23.4365L78.7194 28.3532C77.8833 28.8367 77.5996 29.9031 78.0857 30.7346C78.5719 31.5662 79.6441 31.8484 80.4802 31.3649L89.0326 26.4481C89.8687 25.9644 90.1524 24.8983 89.6663 24.0667Z" fill="white"/>
<path d="M89.0326 69.5686L80.4802 64.6518C79.6441 64.1683 78.5719 64.4505 78.0857 65.2821C77.5996 66.1136 77.8833 67.18 78.7194 67.6635L87.2718 72.5802C88.1079 73.0637 89.1801 72.7815 89.6663 71.95C90.1524 71.1182 89.8687 70.0521 89.0326 69.5686Z" fill="white"/>
<path d="M48.1398 82.419C47.1699 82.3473 46.3255 83.0711 46.2535 84.0357C46.2469 84.122 46.2469 84.2086 46.2535 84.295V94.1189C46.1814 95.0834 46.9092 95.9232 47.879 95.9949C48.8489 96.0666 49.6933 95.3427 49.7654 94.3782C49.7719 94.2918 49.7719 94.2052 49.7654 94.1189V84.295C49.8372 83.3306 49.1094 82.4906 48.1398 82.419Z" fill="white"/>
<path d="M17.2757 28.3537L8.72337 23.437C7.88724 22.9535 6.81505 23.2356 6.3289 24.0672C5.84275 24.8988 6.12646 25.9651 6.96259 26.4486L15.515 31.3654C16.3511 31.8489 17.4233 31.5667 17.9094 30.7351C18.3956 29.9033 18.1119 28.8372 17.2757 28.3537Z" fill="white"/>
<path d="M48.1397 0.00489656C47.1699 -0.066786 46.3255 0.657015 46.2534 1.6216C46.2469 1.70796 46.2469 1.79455 46.2534 1.88091V11.7048C46.2588 12.6643 47.0397 13.441 48.0045 13.4463C48.9771 13.4463 49.7653 12.6624 49.7653 11.6952V1.88115C49.8372 0.916564 49.1094 0.0765791 48.1397 0.00489656Z" fill="white"/>
<path d="M31.2574 15.6891L26.3234 7.18342C25.8372 6.35185 24.765 6.06969 23.9289 6.55319C23.0928 7.03669 22.8091 8.10302 23.2952 8.93459L28.2293 17.4403C28.7154 18.2718 29.7876 18.554 30.6237 18.0705C31.4599 17.5868 31.7436 16.5207 31.2574 15.6891Z" fill="white"/>
<path d="M48.2754 32.4599C48.1886 32.4535 48.1015 32.4535 48.0147 32.4599C39.3854 32.4599 32.3901 39.417 32.3901 47.9992C32.3901 48.9664 33.1784 49.7504 34.1509 49.7504C35.1196 49.7451 35.902 48.9626 35.902 47.9992C35.8967 41.3515 41.3111 35.958 47.9953 35.9527C48.0018 35.9527 48.0081 35.9527 48.0147 35.9527C48.9845 36.0244 49.8289 35.3005 49.901 34.336C49.9731 33.3714 49.2453 32.5314 48.2754 32.4599Z" fill="white"/>
<path d="M95.9952 47.8628C95.9306 46.9981 95.2394 46.3103 94.3696 46.2461H84.4918C83.5219 46.1744 82.6776 46.8982 82.6055 47.8628C82.5334 48.8274 83.2612 49.6671 84.2311 49.7388C84.3179 49.7453 84.4052 49.7453 84.4921 49.7388H94.3699C95.3395 49.6674 96.0673 48.8274 95.9952 47.8628Z" fill="white"/>
<path d="M11.769 46.2578C11.6822 46.2513 11.5951 46.2513 11.5083 46.2578H1.6305C0.660622 46.3295 -0.0671526 47.1695 0.00492343 48.1338C0.0695016 48.9986 0.760754 49.6863 1.6305 49.7505H11.5083C12.4782 49.8222 13.3225 49.0984 13.3946 48.1338C13.4667 47.1692 12.7389 46.3292 11.769 46.2578Z" fill="white"/>
<path d="M48.0018 22.2993C33.7303 22.2974 22.1594 33.802 22.1572 47.9956C22.1563 54.8143 24.8802 61.354 29.7288 66.1748C34.5683 70.9999 41.142 73.7077 47.9945 73.6991C62.2661 73.701 73.8372 62.1964 73.8391 48.0028C73.8411 33.8092 62.2733 22.3012 48.0018 22.2993ZM63.7835 63.7309C55.0636 72.4033 40.9255 72.4033 32.2055 63.7309C28.0109 59.5591 25.6578 53.8988 25.6655 47.9992C25.657 42.1078 28.0109 36.4561 32.2055 32.2964V32.3253C40.9255 23.6529 55.0636 23.6529 63.7835 32.3253C72.5038 40.9976 72.5038 55.0585 63.7835 63.7309Z" fill="white"/>
<path d="M72.6975 87.0757C72.696 87.0731 72.6946 87.0704 72.6929 87.068L67.7491 78.5623C67.263 77.7308 66.1908 77.4486 65.3547 77.9321C64.5185 78.4156 64.2348 79.4819 64.721 80.3135L69.6647 88.8192C70.1489 89.6498 71.218 89.9339 72.0544 89.4542C72.8924 88.9739 73.1805 87.909 72.6975 87.0757Z" fill="white"/>
<path d="M72.133 6.55319C71.2969 6.06969 70.2247 6.35185 69.7386 7.18342L64.7948 15.6891C64.3053 16.5187 64.5849 17.5858 65.4188 18.0724C65.4205 18.0734 65.422 18.0744 65.4237 18.0753C66.2591 18.5598 67.3313 18.2791 67.8184 17.448C67.8198 17.4453 67.8215 17.4427 67.823 17.4403L72.7667 8.93459C73.2529 8.10278 72.9692 7.03669 72.133 6.55319Z" fill="white"/>
<path d="M30.6334 77.9321C29.7973 77.4486 28.7251 77.7308 28.2389 78.5623L23.2952 87.068C22.8091 87.8996 23.0928 88.9659 23.9289 89.4494C24.765 89.9329 25.8372 89.6508 26.3234 88.8192L31.2671 80.3135C31.7533 79.4817 31.4696 78.4156 30.6334 77.9321Z" fill="white"/>
<path d="M17.9094 65.2684C17.4233 64.4368 16.3511 64.1547 15.515 64.6382L6.96259 69.5549C6.12646 70.0384 5.84275 71.1047 6.3289 71.9363C6.81505 72.7679 7.88724 73.05 8.72337 72.5665L17.2757 67.6498C18.1119 67.166 18.3956 66.0999 17.9094 65.2684Z" fill="white"/>
</svg>
