<svg width="96" height="96" viewBox="0 0 96 96" fill="none" xmlns="http://www.w3.org/2000/svg">
<g clip-path="url(#clip0_3754_16683)">
<path d="M91.1625 61.0892C91.4371 62.1133 90.8292 63.166 89.8049 63.4406L81.8797 65.5641L88.4864 69.3784C89.4048 69.9087 89.7194 71.0828 89.1891 72.0011C88.8334 72.6171 88.1881 72.9615 87.5245 72.9615C87.1989 72.9615 86.8688 72.8784 86.5664 72.7038L79.9597 68.8894L82.0834 76.8149C82.358 77.8391 81.7501 78.8918 80.7258 79.1664C80.5595 79.2109 80.3923 79.2322 80.2277 79.2322C79.3799 79.2322 78.6042 78.6666 78.3744 77.8087L75.257 66.1743L68.1279 62.0584L71.5666 74.8917C71.8412 75.9158 71.2333 76.9685 70.209 77.2431C70.0427 77.2876 69.8755 77.309 69.7109 77.309C68.8631 77.309 68.0874 76.7433 67.8576 75.8855L63.425 59.3431L49.5344 51.3235V67.3624L61.6444 79.4724C62.3942 80.2222 62.3942 81.4379 61.6444 82.1879C61.2695 82.5627 60.7781 82.7502 60.2868 82.7502C59.7955 82.7502 59.3042 82.5627 58.9292 82.1879L49.5344 72.7931V81.0251L58.0514 89.542C58.8011 90.2918 58.8011 91.5076 58.0514 92.2575C57.6764 92.6323 57.185 92.8199 56.6937 92.8199C56.2024 92.8199 55.7111 92.6323 55.3361 92.2575L49.5344 86.4556V94.078C49.5344 95.1383 48.6746 95.998 47.6144 95.998C46.5542 95.998 45.6944 95.1383 45.6944 94.078V86.4556L39.8926 92.2575C39.1424 93.0073 37.9271 93.0069 37.1771 92.2575C36.4274 91.5077 36.4274 90.292 37.1771 89.542L45.6944 81.0251V72.7931L36.2999 82.1879C35.5499 82.9374 34.3346 82.9374 33.5844 82.1879C32.8346 81.4381 32.8346 80.2224 33.5844 79.4724L45.6944 67.3624V51.3235L31.8042 59.3429L27.3717 75.8853C27.1418 76.7431 26.366 77.3088 25.5183 77.3088C25.3539 77.3088 25.1867 77.2876 25.0202 77.2429C23.9959 76.9683 23.3881 75.9156 23.6626 74.8915L27.1013 62.0582L19.972 66.1743L16.8547 77.8085C16.6249 78.6664 15.849 79.232 15.0013 79.232C14.837 79.232 14.6697 79.2109 14.5033 79.1662C13.4789 78.8916 12.8711 77.8389 13.1456 76.8148L15.2693 68.8896L8.66281 72.7038C8.3606 72.8784 8.03036 72.9615 7.70473 72.9615C7.04098 72.9615 6.39586 72.6171 6.04009 72.0011C5.50978 71.0828 5.82447 69.9087 6.74281 69.3784L13.3493 65.5641L5.42377 63.4406C4.39945 63.166 3.79157 62.1133 4.06613 61.0892C4.34069 60.0649 5.39266 59.457 6.41756 59.7316L18.0524 62.8491L25.1813 58.7331L12.3481 55.2944C11.3237 55.0199 10.7159 53.9671 10.9904 52.943C11.265 51.9189 12.3166 51.311 13.3418 51.5854L29.8844 56.0179L43.7744 47.998L29.884 39.9784L13.3415 44.4109C13.1752 44.4555 13.008 44.4768 12.8434 44.4768C11.9955 44.4768 11.2199 43.9111 10.99 43.0533C10.7155 42.029 11.3234 40.9762 12.3477 40.7017L25.1809 37.2631L18.0518 33.147L6.41737 36.2645C6.25109 36.3091 6.08386 36.3304 5.91932 36.3304C5.07145 36.3304 4.29577 35.7648 4.06594 34.9069C3.79138 33.8826 4.39925 32.8299 5.42357 32.5553L13.3488 30.4318L6.74223 26.6175C5.82389 26.0874 5.50921 24.9131 6.03951 23.9948C6.56981 23.0764 7.7437 22.7618 8.66223 23.2921L15.2688 27.1063L13.145 19.181C12.8705 18.1566 13.4784 17.1039 14.5027 16.8293C15.5266 16.5548 16.5795 17.1627 16.8541 18.187L19.9716 29.8216L27.1008 33.9377L23.662 21.1042C23.3875 20.0799 23.9954 19.0272 25.0197 18.7526C26.0432 18.4779 27.0967 19.0861 27.3711 20.1102L31.8036 36.653L45.6944 44.6726V28.6335L33.5846 16.5235C32.8348 15.7737 32.8348 14.558 33.5846 13.8082C34.3349 13.0585 35.5503 13.0585 36.3001 13.8082L45.6946 23.2028V14.971L37.1777 6.45386C36.4279 5.7041 36.4279 4.48835 37.1777 3.73859C37.9278 2.98864 39.1432 2.98883 39.8931 3.73859L45.6944 9.54045V1.91805C45.6944 0.857631 46.5542 -0.00195312 47.6144 -0.00195312C48.6746 -0.00195312 49.5344 0.857631 49.5344 1.91805V9.54045L55.3363 3.73878C56.0866 2.98883 57.302 2.98902 58.0517 3.73878C58.8015 4.48854 58.8015 5.70429 58.0517 6.45405L49.5344 14.971V23.203L58.9292 13.8084C59.6793 13.0587 60.8947 13.0587 61.6446 13.8084C62.3946 14.5582 62.3944 15.7739 61.6446 16.5237L49.5344 28.6335V44.6728L63.4247 36.6532L67.8572 20.1104C68.1317 19.0865 69.1835 18.4784 70.2086 18.7528C71.2329 19.0272 71.8408 20.0801 71.5662 21.1044L68.1275 33.9379L75.2565 29.822L78.374 18.1876C78.6487 17.1634 79.7005 16.5556 80.7254 16.8299C81.7497 17.1043 82.3576 18.1572 82.083 19.1815L79.9593 27.1069L86.566 23.2924C87.4846 22.7623 88.6585 23.0772 89.1888 23.9952C89.7191 24.9135 89.4044 26.0878 88.486 26.6179L81.8793 30.4322L89.8047 32.5557C90.829 32.83 91.4369 33.883 91.1623 34.9071C90.9325 35.765 90.1566 36.3308 89.3089 36.3308C89.1446 36.3308 88.9774 36.3095 88.8109 36.2649L77.1763 33.1474L70.0477 37.2633L82.8812 40.702C83.9055 40.9764 84.5134 42.0293 84.2388 43.0537C84.009 43.9113 83.2331 44.4772 82.3854 44.4772C82.2211 44.4772 82.0538 44.4558 81.8874 44.4113L65.3449 39.9788L51.4544 47.998L65.3447 56.0177L81.887 51.5852C82.9109 51.3106 83.9639 51.9187 84.2384 52.9428C84.513 53.9669 83.9051 55.0197 82.8808 55.2942L70.0477 58.733L77.1767 62.8489L88.8111 59.7314C89.8345 59.4566 90.8883 60.0651 91.1625 61.0892Z" fill="white"/>
</g>
<defs>
<clipPath id="clip0_3754_16683">
<rect width="96" height="96" fill="white"/>
</clipPath>
</defs>
</svg>
