<svg width="31" height="30" viewBox="0 0 31 30" fill="none" xmlns="http://www.w3.org/2000/svg">
<path d="M15.67 30C23.9543 30 30.67 23.2843 30.67 15C30.67 6.71573 23.9543 0 15.67 0C7.38577 0 0.670044 6.71573 0.670044 15C0.670044 23.2843 7.38577 30 15.67 30Z" fill="#B3B3B3"/>
<path d="M27.0026 24.8639C24.7963 20.8976 20.562 18.2139 15.7013 18.2139C10.7944 18.2139 6.57633 20.8564 4.3882 24.8851C4.36695 24.9232 4.43883 24.7926 4.3882 24.8851C7.1282 28.0489 11.1451 30.0001 15.7013 30.0001C20.2094 30.0001 24.2532 28.0114 27.0026 24.8639Z" fill="white"/>
<path d="M15.67 17.4106C19.2944 17.4106 22.2325 14.4725 22.2325 10.8481C22.2325 7.22378 19.2944 4.28564 15.67 4.28564C12.0457 4.28564 9.10754 7.22378 9.10754 10.8481C9.10754 14.4725 12.0457 17.4106 15.67 17.4106Z" fill="white"/>
</svg>
