<svg width="26" height="27" viewBox="0 0 26 27" fill="none" xmlns="http://www.w3.org/2000/svg">
<path fill-rule="evenodd" clip-rule="evenodd" d="M13.0003 5.10425C10.1584 5.10425 7.85449 7.40812 7.85449 10.2501C7.85449 13.092 10.1584 15.3959 13.0003 15.3959C15.8423 15.3959 18.1462 13.092 18.1462 10.2501C18.1462 7.40812 15.8423 5.10425 13.0003 5.10425ZM9.47949 10.2501C9.47949 8.30558 11.0558 6.72925 13.0003 6.72925C14.9448 6.72925 16.5212 8.30558 16.5212 10.2501C16.5212 12.1946 14.9448 13.7709 13.0003 13.7709C11.0558 13.7709 9.47949 12.1946 9.47949 10.2501Z" fill="#39BFC0"/>
<path fill-rule="evenodd" clip-rule="evenodd" d="M13.0003 1.85425C6.56851 1.85425 1.35449 7.06826 1.35449 13.5001C1.35449 16.8026 2.73021 19.7852 4.93762 21.9036C7.02935 23.9109 9.87146 25.1459 13.0003 25.1459C16.1292 25.1459 18.9713 23.9109 21.063 21.9036C23.2704 19.7852 24.6462 16.8026 24.6462 13.5001C24.6462 7.06826 19.4321 1.85425 13.0003 1.85425ZM2.97949 13.5001C2.97949 7.96573 7.46597 3.47925 13.0003 3.47925C18.5347 3.47925 23.0212 7.96573 23.0212 13.5001C23.0212 15.8778 22.1938 18.0613 20.81 19.7798C19.9498 18.1398 18.2313 17.0209 16.2503 17.0209H9.75033C7.76938 17.0209 6.05088 18.1398 5.19067 19.7798C3.80685 18.0613 2.97949 15.8778 2.97949 13.5001ZM16.2503 18.6459C17.8037 18.6459 19.1234 19.6525 19.5904 21.0493C17.8282 22.5891 15.5238 23.5209 13.0003 23.5209C10.4768 23.5209 8.17248 22.5891 6.41026 21.0493C6.87723 19.6525 8.19697 18.6459 9.75033 18.6459H16.2503Z" fill="#39BFC0"/>
</svg>
