<svg width="23" height="23" viewBox="0 0 23 23" fill="none" xmlns="http://www.w3.org/2000/svg">
<circle cx="11.5" cy="11.5" r="10.5" stroke="#39BFC0" stroke-width="1.75"/>
<path d="M11.7375 7.0882C12.5895 7.0882 13.2816 6.39612 13.2816 5.5441C13.2816 4.69209 12.5895 4 11.7375 4C10.8854 4 10.1934 4.69209 10.1934 5.5441C10.1934 6.39612 10.8854 7.0882 11.7375 7.0882Z" stroke="#39BFC0" stroke-width="1.5"/>
<path d="M16.5909 7.9929L16.5771 7.99566L16.5661 7.99842C16.5385 8.00669 16.5109 8.01496 16.4834 8.02323C15.9705 8.17489 13.4806 8.87525 11.7242 8.87525C10.0946 8.87525 7.82811 8.26864 7.10293 8.06184C7.03124 8.03426 6.95679 8.00945 6.88234 7.99015C6.35845 7.85228 6 8.38444 6 8.86973C6 9.35227 6.4329 9.58112 6.86856 9.74656V9.75483L9.49353 10.5738C9.76099 10.6758 9.83268 10.7806 9.86853 10.8716C9.98158 11.1638 9.89059 11.7429 9.86026 11.9442L9.70033 13.1849L8.81523 18.0461C8.81247 18.0599 8.80972 18.0737 8.80696 18.0875L8.80144 18.1233C8.73802 18.5672 9.06339 19.0001 9.68379 19.0001C10.2242 19.0001 10.4641 18.6279 10.5661 18.1206C10.5661 18.1206 11.3382 13.775 11.7242 13.775C12.1102 13.775 12.9043 18.1206 12.9043 18.1206C13.0091 18.6279 13.2463 19.0001 13.7867 19.0001C14.4071 19.0001 14.7352 18.5672 14.669 18.1206C14.6635 18.082 14.6552 18.0461 14.647 18.0075L13.7508 13.1905L13.5909 11.9497C13.4751 11.2272 13.5689 10.9874 13.5992 10.9322C13.5992 10.9322 13.6019 10.9295 13.6019 10.9267C13.6323 10.8716 13.7674 10.7475 14.0845 10.6289L16.5468 9.76862C16.5606 9.76586 16.5771 9.76035 16.5909 9.75483C17.0321 9.5894 17.4732 9.36054 17.4732 8.87525C17.4732 8.38996 17.1148 7.85504 16.5909 7.9929Z" stroke="#39BFC0" stroke-width="1.5"/>
</svg>
