<svg width="26" height="27" viewBox="0 0 26 27" fill="none" xmlns="http://www.w3.org/2000/svg">
<circle cx="13" cy="13.5" r="13" fill="white"/>
<path fill-rule="evenodd" clip-rule="evenodd" d="M14.9689 6.80016C14.9685 6.32645 14.7972 5.86878 14.4866 5.51111C14.176 5.15344 13.7469 4.91975 13.2779 4.85294C12.8089 4.78612 12.3316 4.89065 11.9335 5.14734C11.5353 5.40404 11.2431 5.79569 11.1104 6.25043C10.9777 6.70518 11.0135 7.19252 11.2111 7.62305C11.4087 8.05358 11.7549 8.39842 12.1862 8.59431C12.6175 8.7902 13.105 8.82399 13.5592 8.6895C14.0134 8.555 14.4039 8.26123 14.659 7.86209C14.862 7.54515 14.9695 7.17653 14.9689 6.80016ZM16.3701 21.1824L15.7908 18.4948C15.7889 18.4858 15.7876 18.4767 15.7864 18.4679L15.299 15.7514L14.9032 13.0092C14.9011 12.9946 14.9002 12.9798 14.9005 12.9651C14.8901 12.6711 14.9812 12.3826 15.1586 12.1479L15.1722 12.1312C15.3519 11.9034 15.6064 11.7465 15.8906 11.6882L15.9066 11.6855C16.558 11.5763 17.2003 11.4183 17.828 11.2127C18.4414 10.9926 19.0351 10.7213 19.6029 10.4015C19.7217 10.2888 19.8007 10.1405 19.8281 9.97896C19.8554 9.81744 19.8296 9.65141 19.7545 9.50582C19.6789 9.36027 19.5556 9.24509 19.4053 9.17958C19.246 9.11021 19.0686 9.09447 18.8996 9.1347H18.898C16.7884 9.7791 14.9375 10.1329 13.0605 10.1462C11.1803 10.1595 9.28292 9.83168 7.08357 9.11294C6.92025 9.0767 6.74952 9.09556 6.59804 9.16656C6.44655 9.23756 6.32284 9.35672 6.2462 9.50543C6.16749 9.6611 6.14231 9.83839 6.17456 10.0098C6.20252 10.1686 6.27989 10.3145 6.39565 10.4268C6.96304 10.7364 7.55416 11.0004 8.16341 11.2164C8.79104 11.4204 9.43314 11.5768 10.0843 11.6844L10.0908 11.6855C10.3838 11.7465 10.6439 11.9136 10.8211 12.1547C11.0007 12.398 11.0911 12.6957 11.0773 12.9978C11.0769 13.007 11.0761 13.0161 11.0748 13.0252L10.679 15.7514C10.6777 15.7609 10.6759 15.7703 10.6736 15.7795C10.3491 17.5874 10.0381 19.4194 9.62438 21.2088C9.5954 21.3444 9.60345 21.4853 9.64768 21.6167C9.7056 21.7892 9.82013 21.937 9.97266 22.0362C10.1252 22.1354 10.3068 22.1801 10.4879 22.163C10.6691 22.146 10.8391 22.0683 10.9705 21.9424C11.1019 21.8166 11.1869 21.65 11.2117 21.4697C11.213 21.4598 11.2148 21.45 11.2171 21.4403L12.5153 16.2071L12.5217 16.1853C12.5527 16.0816 12.6166 15.9907 12.7038 15.9266C12.791 15.8624 12.8968 15.8283 13.0051 15.8296H13.0062C13.1179 15.8309 13.226 15.8695 13.3133 15.9393C13.4005 16.0091 13.4619 16.1061 13.4877 16.2148L14.7836 21.4397C14.7866 21.4518 14.7888 21.4642 14.7901 21.4767C14.8059 21.5835 14.8431 21.6862 14.8994 21.7784C14.9557 21.8706 15.0301 21.9505 15.1179 22.0134C15.2058 22.0762 15.3054 22.1208 15.4109 22.1443C15.5163 22.1678 15.6254 22.1699 15.7317 22.1503C15.838 22.1308 15.9392 22.09 16.0294 22.0305C16.1196 21.971 16.1968 21.8939 16.2566 21.8039C16.3163 21.7139 16.3573 21.6127 16.3771 21.5065C16.3969 21.4003 16.3951 21.2912 16.3719 21.1857V21.1834L16.3701 21.1824Z" fill="#6660AA"/>
</svg>
