<svg width="37" height="37" viewBox="0 0 37 37" fill="none" xmlns="http://www.w3.org/2000/svg">
<mask id="mask0_1690_1683" style="mask-type:alpha" maskUnits="userSpaceOnUse" x="7" y="5" width="24" height="26">
<g clip-path="url(#clip0_1690_1683)">
<path d="M18.5411 12.7573C19.158 12.7573 19.761 12.5744 20.2739 12.2316C20.7869 11.8889 21.1866 11.4018 21.4227 10.8319C21.6588 10.262 21.7205 9.63483 21.6002 9.0298C21.4798 8.42477 21.1828 7.86902 20.7466 7.43282C20.3104 6.99662 19.7546 6.69957 19.1496 6.57922C18.5446 6.45887 17.9175 6.52064 17.3475 6.75671C16.7776 6.99278 16.2905 7.39255 15.9478 7.90546C15.605 8.41838 15.4221 9.02141 15.4221 9.63829C15.4221 10.4655 15.7507 11.2588 16.3357 11.8438C16.9206 12.4287 17.7139 12.7573 18.5411 12.7573Z" fill="black" stroke="black"/>
<path d="M25.7821 14.2782H25.7741L20.3161 14.7682C20.1301 14.7848 19.9437 14.7932 19.7571 14.7932H17.3271C17.1411 14.7932 16.9551 14.7848 16.7691 14.7682L11.3021 14.2782C11.0959 14.2585 10.8879 14.2801 10.6902 14.3416C10.4925 14.4032 10.309 14.5034 10.1505 14.6366C9.99192 14.7698 9.86147 14.9333 9.76672 15.1174C9.67198 15.3015 9.61485 15.5027 9.59865 15.7091C9.58245 15.9155 9.60752 16.1231 9.67239 16.3198C9.73725 16.5164 9.84062 16.6982 9.97647 16.8545C10.1123 17.0108 10.2779 17.1385 10.4636 17.2301C10.6493 17.3217 10.8514 17.3755 11.0581 17.3882L15.4701 17.7882C15.5992 17.7999 15.7192 17.8594 15.8067 17.955C15.8942 18.0507 15.9429 18.1756 15.9431 18.3052V19.5052C15.9435 19.7652 15.895 20.023 15.8001 20.2652L13.3001 26.6362C13.2171 26.8235 13.1719 27.0253 13.167 27.2301C13.1621 27.435 13.1975 27.6387 13.2714 27.8298C13.3452 28.0209 13.4559 28.1956 13.5973 28.3439C13.7386 28.4922 13.9077 28.6112 14.0951 28.6942C14.2824 28.7771 14.4842 28.8223 14.689 28.8273C14.8939 28.8322 15.0976 28.7967 15.2887 28.7229C15.4798 28.6491 15.6545 28.5383 15.8028 28.397C15.9511 28.2557 16.0701 28.0865 16.1531 27.8992L18.5371 22.0702L20.9431 27.9152C21.1186 28.2795 21.4288 28.5614 21.8082 28.7015C22.1877 28.8415 22.6066 28.8288 22.9768 28.6658C23.347 28.5029 23.6394 28.2026 23.7925 27.8283C23.9455 27.4539 23.9471 27.0347 23.7971 26.6592L21.2821 20.2622C21.1875 20.0206 21.139 19.7636 21.1391 19.5042V18.3042C21.1393 18.1746 21.1879 18.0497 21.2754 17.954C21.3629 17.8584 21.483 17.7989 21.6121 17.7872L26.0121 17.3872C26.2221 17.3801 26.4285 17.3306 26.6189 17.2418C26.8093 17.153 26.9798 17.0266 27.1202 16.8702C27.2606 16.7139 27.3679 16.5308 27.4358 16.3319C27.5037 16.133 27.5306 15.9225 27.5151 15.713C27.4996 15.5034 27.442 15.2992 27.3456 15.1125C27.2492 14.9257 27.1161 14.7604 26.9542 14.6264C26.7924 14.4924 26.6051 14.3925 26.4037 14.3327C26.2023 14.2728 25.9908 14.2543 25.7821 14.2782Z" fill="black" stroke="black"/>
</g>
</mask>
<g mask="url(#mask0_1690_1683)">
<rect x="7.03711" y="5.2124" width="23" height="25" fill="white"/>
</g>
<defs>
<clipPath id="clip0_1690_1683">
<rect width="18.846" height="23.386" fill="white" transform="translate(9.11414 6.01929)"/>
</clipPath>
</defs>
</svg>
