<svg width="11" height="6" viewBox="0 0 11 6" fill="none" xmlns="http://www.w3.org/2000/svg">
<path fill-rule="evenodd" clip-rule="evenodd" d="M0.229391 0.229675C0.543137 -0.0703253 1.03467 -0.0703253 1.33796 0.229675L5.48987 4.19967L9.64178 0.229675C9.71359 0.155988 9.80019 0.0968858 9.8964 0.0558938C9.99262 0.0149018 10.0965 -0.0071397 10.2018 -0.00891648C10.3071 -0.0106933 10.4117 0.00783113 10.5094 0.0455521C10.6071 0.0832732 10.6958 0.139418 10.7703 0.210637C10.8447 0.281855 10.9035 0.366689 10.9429 0.460077C10.9824 0.553465 11.0017 0.653495 10.9999 0.754197C10.998 0.8549 10.975 0.954214 10.9321 1.04621C10.8892 1.13821 10.8274 1.22101 10.7504 1.28968L6.04416 5.78967C5.89709 5.93013 5.69773 6.00902 5.48987 6.00902C5.28201 6.00902 5.08266 5.93013 4.93559 5.78967L0.229391 1.28968C0.0825045 1.14905 0 0.958426 0 0.759675C0 0.560924 0.0825045 0.3703 0.229391 0.229675Z" fill="white"/>
</svg>
