<svg width="69" height="70" viewBox="0 0 69 70" fill="none" xmlns="http://www.w3.org/2000/svg">
<path d="M33.5048 18.4435C39.124 16.3262 43.9768 14.4977 48.0386 16.2384C48.3221 16.3555 48.6404 16.3563 48.9245 16.2404C49.2086 16.1246 49.4356 15.9015 49.5564 15.6195C49.6772 15.3375 49.6821 15.0193 49.57 14.7337C49.4578 14.4482 49.2378 14.2183 48.9574 14.0938C44.1533 12.0347 38.7889 13.9612 33.1104 16.0986C35.0844 12.6812 35.6241 8.56183 35.6553 8.31099C35.6778 8.13075 35.6578 7.94777 35.5971 7.7766C35.5363 7.60543 35.4365 7.45081 35.3054 7.32504C35.1744 7.19928 35.0158 7.10585 34.8423 7.0522C34.6687 6.99854 34.4851 6.98614 34.3059 7.01598L28.8177 7.93065C28.8447 5.78892 28.0334 3.84436 26.4268 2.23755C25.5142 1.33083 24.4421 0.600529 23.2642 0.0834263C23.1023 0.0186703 22.9279 -0.00896746 22.7539 0.00254581C22.5799 0.0140591 22.4107 0.0644305 22.2587 0.149955C22.1068 0.23548 21.9759 0.353983 21.8758 0.496747C21.7756 0.639512 21.7088 0.802907 21.6801 0.974915C21.6703 1.03471 20.5761 6.99935 16.9978 6.99935C13.5745 6.99935 8.85278 3.03483 7.32268 1.50765C7.14225 1.32716 6.90761 1.21081 6.65472 1.17643C6.40184 1.14205 6.14465 1.19155 5.92259 1.31732C5.70052 1.4431 5.52582 1.63823 5.42527 1.8728C5.32471 2.10736 5.30385 2.36843 5.36587 2.61599L7.69266 11.923C6.27368 11.3169 4.93863 10.5306 3.72041 9.58355C3.52329 9.42801 3.28126 9.34022 3.03026 9.33322C2.77927 9.32622 2.53271 9.40038 2.32723 9.54469C2.12175 9.68899 1.96831 9.89574 1.8897 10.1342C1.81109 10.3727 1.81152 10.6301 1.89091 10.8684C1.92971 10.985 2.8699 13.7524 5.33407 16.5246C7.62179 19.0982 11.7047 22.1662 18.1645 22.1662C23.6247 22.1662 28.8737 20.1884 33.5048 18.4435ZM16.9978 9.33271C19.3777 9.33271 21.3521 7.89944 22.708 5.18779C23.069 4.45629 23.3677 3.69564 23.6009 2.91393C24.9951 3.85019 27.0114 5.81605 26.3538 9.10389C26.3168 9.28911 26.3253 9.48056 26.3786 9.66177C26.4318 9.84299 26.5283 10.0086 26.6597 10.1443C26.7911 10.28 26.9535 10.3817 27.1329 10.4408C27.3123 10.4999 27.5034 10.5145 27.6897 10.4835L33.0609 9.58836C32.5149 12.0552 31.2435 15.7955 28.9354 17.4655C27.3232 15.9071 24.6586 12.9986 23.9624 10.2165C23.9103 10.0075 23.8014 9.81713 23.6477 9.66629C23.494 9.51546 23.3016 9.4101 23.0917 9.36187C22.8819 9.31365 22.6628 9.32445 22.4587 9.39307C22.2546 9.46169 22.0734 9.58546 21.9353 9.75067L21.8388 9.86603C20.4119 11.5723 19.0619 13.1861 16.8162 13.994C14.6199 13.8834 12.4447 13.5106 10.3368 12.8836L8.51896 5.6075C10.7798 7.33258 14.0391 9.33271 16.9978 9.33271ZM7.13689 15.0402C6.77255 14.6342 6.42905 14.2099 6.10773 13.769C11.3512 16.254 16.709 16.3306 16.9888 16.3328C17.1168 16.3333 17.2441 16.3132 17.3657 16.2733C19.6262 15.5218 21.1302 14.1991 22.4262 12.7654C23.4514 14.9212 25.1253 16.9217 26.5759 18.4092C23.8351 19.242 21.0342 19.8325 18.1648 19.8325C13.7059 19.8328 9.99569 18.2203 7.13689 15.0402Z" fill="white"/>
<path d="M68.139 47.3081C68.2453 47.1469 68.3099 46.9619 68.327 46.7696C68.3442 46.5773 68.3134 46.3838 68.2373 46.2063C66.6712 42.552 63.5535 39.8571 59.2214 38.4132C58.1362 38.0539 57.0244 37.7808 55.8963 37.5965C58.8667 34.8369 64.4106 29.4126 66.9989 25.0985C67.1581 24.8332 67.2053 24.5155 67.1303 24.2153C67.0552 23.9151 66.864 23.657 66.5987 23.4978C66.3334 23.3386 66.0157 23.2913 65.7155 23.3664C65.4153 23.4414 65.1572 23.6327 64.998 23.898C62.5287 28.0136 56.946 33.4356 54.1135 36.0622C53.9298 34.833 53.6412 33.6218 53.2509 32.4419C51.8071 28.1097 49.1121 24.992 45.4578 23.4259C45.2802 23.3498 45.0865 23.319 44.8941 23.3362C44.7017 23.3534 44.5165 23.4181 44.3553 23.5246C44.1941 23.631 44.0618 23.7758 43.9704 23.946C43.8789 24.1161 43.8312 24.3064 43.8314 24.4996V28.8901C40.864 28.3213 33.938 27.3454 28.2956 29.2262C28.1299 29.2815 27.9787 29.3732 27.8532 29.4947C27.7276 29.6162 27.631 29.7644 27.5704 29.9282C27.5098 30.0921 27.4867 30.2674 27.503 30.4414C27.5192 30.6153 27.5743 30.7834 27.6642 30.9332L30.575 35.7841L22.2128 41.0104C22.0475 41.1137 21.9107 41.2568 21.8149 41.4266C21.7191 41.5964 21.6674 41.7875 21.6645 41.9825C21.6616 42.1774 21.7076 42.37 21.7983 42.5425C21.889 42.7151 22.0215 42.8622 22.1837 42.9704L28.6188 47.2606L27.501 62.9168C27.4891 63.0836 27.5132 63.251 27.5716 63.4077C27.63 63.5643 27.7215 63.7066 27.8397 63.8248C27.9579 63.943 28.1002 64.0345 28.2569 64.0929C28.4135 64.1514 28.5809 64.1755 28.7477 64.1636L44.4039 63.0455L48.6941 69.4806C48.8007 69.6404 48.945 69.7714 49.1143 69.862C49.2837 69.9526 49.4727 70 49.6648 70H49.682C49.8769 69.9972 50.0681 69.9455 50.2379 69.8497C50.4077 69.7539 50.5508 69.6172 50.6541 69.4518L55.8804 61.0895L60.7313 64.0001C60.8811 64.0898 61.0491 64.1448 61.223 64.161C61.3968 64.1771 61.5721 64.154 61.7358 64.0934C61.8996 64.0328 62.0477 63.9362 62.1691 63.8108C62.2906 63.6854 62.3823 63.5342 62.4376 63.3686C64.3189 57.7263 63.3418 50.8004 62.7737 47.8328H67.165C67.3581 47.8328 67.5481 47.7849 67.7181 47.6933C67.8881 47.6017 68.0327 47.4694 68.139 47.3081ZM61.3316 45.4998C61.1543 45.4998 60.9793 45.5402 60.82 45.6179C60.6607 45.6957 60.5211 45.8087 60.412 45.9485C60.3029 46.0882 60.2271 46.251 60.1903 46.4244C60.1535 46.5978 60.1568 46.7774 60.1998 46.9494C60.2206 47.0332 62.1277 54.8157 60.624 61.2149L56.0984 58.4995C55.8363 58.3422 55.5228 58.2941 55.2255 58.3655C54.9282 58.437 54.6709 58.6223 54.5088 58.8816L49.6331 66.6826L45.9688 61.1861C45.8622 61.0263 45.7179 60.8953 45.5485 60.8046C45.3792 60.714 45.1901 60.6666 44.9981 60.6666C44.9705 60.6666 44.9427 60.6676 44.9148 60.6697L29.924 61.7404L30.9947 46.7496C31.0094 46.544 30.9694 46.3381 30.8787 46.153C30.788 45.9679 30.6498 45.8101 30.4783 45.6958L24.9818 42.0314L32.7828 37.1557C33.0421 36.9936 33.2274 36.7363 33.2988 36.439C33.3703 36.1417 33.3222 35.8283 33.1649 35.5661L30.4496 31.0407C36.8388 29.5415 44.6314 31.4439 44.715 31.4648C44.887 31.5078 45.0666 31.511 45.24 31.4743C45.4135 31.4375 45.5763 31.3617 45.716 31.2526C45.8558 31.1435 45.9688 31.0039 46.0466 30.8446C46.1243 30.6852 46.1648 30.5103 46.1648 30.3329V26.4437C51.1153 29.6903 51.8653 36.2423 51.9782 38.0364L50.8913 39.1233C45.988 33.8976 39.4564 33.833 39.1647 33.833C38.8553 33.833 38.5585 33.9559 38.3397 34.1747C38.1209 34.3935 37.998 34.6902 37.998 34.9997C37.998 35.3091 38.1209 35.6058 38.3397 35.8246C38.5585 36.0434 38.8553 36.1663 39.1647 36.1663C39.2191 36.1663 43.8193 36.2101 47.8185 39.4476C39.0224 39.164 34.1246 42.0304 33.8977 42.1661C33.6326 42.3252 33.4415 42.5829 33.3663 42.8827C33.2911 43.1825 33.3379 43.4999 33.4965 43.7652C33.6552 44.0306 33.9126 44.2221 34.2123 44.2978C34.512 44.3734 34.8295 44.3271 35.095 44.1689C35.1458 44.1388 39.8431 41.4317 48.2142 41.8005L36.0063 54.0084C35.7875 54.2272 35.6646 54.5239 35.6646 54.8333C35.6646 55.1428 35.7875 55.4395 36.0063 55.6583C36.2251 55.8771 36.5219 56.0001 36.8313 56.0001C37.1408 56.0001 37.4375 55.8771 37.6563 55.6583L49.864 43.4505C50.2324 51.8143 47.5306 56.5106 47.4958 56.5695C47.337 56.8351 47.2902 57.1529 47.3657 57.453C47.4412 57.753 47.6329 58.0108 47.8984 58.1696C48.164 58.3284 48.4818 58.3752 48.7819 58.2997C49.082 58.2242 49.3397 58.0325 49.4985 57.767C49.6343 57.5406 52.5 52.6442 52.2173 43.851C55.4288 47.8347 55.4982 52.4415 55.4982 52.5026C55.4986 52.812 55.6218 53.1086 55.8409 53.3272C56.0599 53.5457 56.3568 53.6683 56.6662 53.6679C56.9757 53.6675 57.2723 53.5443 57.4908 53.3252C57.7093 53.1062 57.8319 52.8093 57.8315 52.4998C57.8315 52.2082 57.7669 45.6765 52.5412 40.7733L53.628 39.6864C55.4247 39.7995 61.9749 40.5503 65.2209 45.4998H61.3316Z" fill="white"/>
<path d="M55.4982 12.8327C55.6466 12.8326 55.7935 12.8042 55.9312 12.749C56.192 12.6446 62.3334 10.1345 63.6298 4.94861C63.6682 4.79956 63.6767 4.64439 63.6549 4.49203C63.6331 4.33967 63.5813 4.19315 63.5026 4.06089C63.4239 3.92863 63.3197 3.81325 63.1962 3.7214C63.0727 3.62956 62.9323 3.56306 62.783 3.52573C62.6336 3.48841 62.4784 3.481 62.3262 3.50393C62.174 3.52686 62.0279 3.57968 61.8962 3.65934C61.7645 3.739 61.6498 3.84394 61.5589 3.9681C61.4679 4.09225 61.4024 4.23318 61.3662 4.38277C60.3611 8.403 55.1164 10.5616 55.0631 10.5832C54.8114 10.6842 54.6028 10.8696 54.473 11.1076C54.3432 11.3457 54.3004 11.6215 54.3519 11.8876C54.4034 12.1538 54.546 12.3938 54.7552 12.5662C54.9644 12.7387 55.2271 12.8329 55.4982 12.8327Z" fill="white"/>
<path d="M67.5264 4.72344C67.2322 4.62762 66.912 4.65257 66.6362 4.79282C66.3604 4.93306 66.1516 5.17711 66.0558 5.47128C63.6317 12.9131 56.434 15.1839 56.3302 15.2151C56.1824 15.2581 56.0447 15.3299 55.9248 15.4264C55.805 15.5229 55.7054 15.6422 55.6318 15.7773C55.5582 15.9124 55.5121 16.0608 55.4961 16.2138C55.4801 16.3668 55.4945 16.5215 55.5385 16.669C55.5825 16.8164 55.6553 16.9537 55.7526 17.0729C55.8498 17.1921 55.9698 17.2909 56.1054 17.3636C56.241 17.4362 56.3897 17.4814 56.5428 17.4964C56.6959 17.5113 56.8505 17.4959 56.9977 17.4509C57.3418 17.3488 65.457 14.8435 68.2742 6.19404C68.37 5.89986 68.3451 5.57966 68.2048 5.30387C68.0646 5.02809 67.8205 4.8193 67.5264 4.72344Z" fill="white"/>
<path d="M14.581 41.2663C14.6379 41.1241 14.6663 40.972 14.6644 40.8188C14.6626 40.6655 14.6305 40.5142 14.5702 40.3734C14.5098 40.2325 14.4223 40.1049 14.3126 39.9979C14.203 39.8909 14.0733 39.8065 13.931 39.7497C12.9378 39.3186 11.9955 38.7786 11.1215 38.1395C9.81426 37.1888 8.14722 35.6208 7.62951 33.5501C7.59325 33.4005 7.52776 33.2596 7.4368 33.1354C7.34584 33.0112 7.23121 32.9063 7.09952 32.8266C6.96782 32.747 6.82167 32.6942 6.66947 32.6712C6.51728 32.6483 6.36205 32.6557 6.21273 32.693C6.06341 32.7304 5.92296 32.7969 5.79945 32.8887C5.67595 32.9805 5.57183 33.0959 5.49312 33.2282C5.4144 33.3604 5.36263 33.507 5.34079 33.6593C5.31894 33.8117 5.32747 33.9669 5.36586 34.1159C6.66233 39.3018 12.8034 41.8119 13.0645 41.9163C13.2067 41.9734 13.3588 42.0018 13.5121 42C13.6653 41.9982 13.8167 41.9662 13.9576 41.9058C14.0985 41.8454 14.2261 41.7579 14.3331 41.6482C14.4401 41.5384 14.5242 41.4087 14.581 41.2663Z" fill="white"/>
<path d="M2.94019 34.6383C2.84173 34.3473 2.63254 34.107 2.35799 33.9693C2.08344 33.8317 1.76569 33.8078 1.47367 33.903C1.18166 33.9981 0.938932 34.2046 0.798163 34.4775C0.657394 34.7505 0.629936 35.0679 0.721746 35.361C3.53898 44.0105 11.6541 46.5155 11.9983 46.6179C12.2943 46.7048 12.6126 46.671 12.8837 46.5238C13.1548 46.3767 13.3566 46.1281 13.445 45.8325C13.5333 45.537 13.5009 45.2184 13.355 44.9466C13.2091 44.6749 12.9615 44.4719 12.6663 44.3822C12.5936 44.3603 5.3695 42.0965 2.94019 34.6383Z" fill="white"/>
</svg>
