<svg width="70" height="70" viewBox="0 0 70 70" fill="none" xmlns="http://www.w3.org/2000/svg">
<path d="M66.0096 44.3219C66.2052 45.0512 65.7723 45.8008 65.0429 45.9963L59.3996 47.5084L64.1041 50.2245C64.758 50.6021 64.9821 51.4381 64.6045 52.092C64.3511 52.5306 63.8916 52.7759 63.4191 52.7759C63.1872 52.7759 62.9522 52.7167 62.7369 52.5924L58.0324 49.8762L59.5446 55.5198C59.7401 56.2491 59.3073 56.9987 58.5779 57.1942C58.4595 57.226 58.3404 57.2411 58.2232 57.2411C57.6195 57.2411 57.0671 56.8384 56.9035 56.2275L54.6837 47.9429L49.6072 45.0121L52.0559 54.1503C52.2514 54.8796 51.8185 55.6292 51.0891 55.8247C50.9707 55.8564 50.8516 55.8716 50.7345 55.8716C50.1307 55.8716 49.5784 55.4688 49.4147 54.858L46.2584 43.0786L36.3672 37.368V48.7889L44.9905 57.4122C45.5244 57.9461 45.5244 58.8118 44.9905 59.3458C44.7235 59.6127 44.3736 59.7462 44.0238 59.7462C43.6739 59.7462 43.324 59.6127 43.057 59.3458L36.3672 52.656V58.5178L42.432 64.5825C42.9658 65.1164 42.9658 65.9821 42.432 66.5161C42.1649 66.783 41.8151 66.9166 41.4652 66.9166C41.1153 66.9166 40.7655 66.783 40.4985 66.5161L36.3672 62.3848V67.8125C36.3672 68.5675 35.755 69.1797 35.0001 69.1797C34.2451 69.1797 33.6329 68.5675 33.6329 67.8125V62.3848L29.5015 66.5161C28.9673 67.05 28.1019 67.0497 27.5679 66.5161C27.034 65.9822 27.034 65.1165 27.5679 64.5825L33.6329 58.5178V52.656L26.9432 59.3458C26.4092 59.8795 25.5438 59.8795 25.0096 59.3458C24.4757 58.8119 24.4757 57.9462 25.0096 57.4122L33.6329 48.7889V37.368L23.742 43.0784L20.5857 54.8579C20.422 55.4687 19.8695 55.8715 19.2659 55.8715C19.1489 55.8715 19.0298 55.8564 18.9113 55.8246C18.1819 55.6291 17.749 54.8795 17.9445 54.1502L20.3932 45.0119L15.3165 47.9429L13.0968 56.2274C12.9331 56.8382 12.3806 57.241 11.777 57.241C11.66 57.241 11.5409 57.226 11.4224 57.1941C10.693 56.9986 10.2601 56.249 10.4556 55.5197L11.9679 49.8764L7.26351 52.5924C7.04832 52.7167 6.81316 52.7759 6.58129 52.7759C6.10865 52.7759 5.64928 52.5306 5.39594 52.092C5.01832 51.4381 5.2424 50.6021 5.89633 50.2245L10.6007 47.5084L4.95707 45.9963C4.22767 45.8008 3.79482 45.0512 3.99033 44.3219C4.18584 43.5925 4.93492 43.1596 5.66472 43.3552L13.9496 45.5751L19.026 42.6442L9.88769 40.1956C9.1583 40.0001 8.72545 39.2505 8.92096 38.5212C9.11646 37.7919 9.86527 37.3591 10.5953 37.5545L22.3749 40.7107L32.2657 35L22.3746 29.2894L10.5951 32.4457C10.4767 32.4774 10.3576 32.4926 10.2404 32.4926C9.63668 32.4926 9.08433 32.0898 8.92068 31.4789C8.72517 30.7496 9.15803 29.9999 9.88742 29.8044L19.0257 27.3559L13.9492 24.4249L5.66459 26.6448C5.54619 26.6766 5.42711 26.6917 5.30994 26.6917C4.70619 26.6917 4.15385 26.289 3.99019 25.6781C3.79469 24.9487 4.22754 24.1991 4.95693 24.0036L10.6003 22.4915L5.89592 19.7754C5.24199 19.3979 5.01791 18.5618 5.39553 17.9078C5.77314 17.2539 6.60904 17.0298 7.2631 17.4074L11.9675 20.1235L10.4552 14.48C10.2597 13.7506 10.6926 13.001 11.422 12.8055C12.1511 12.61 12.9008 13.0428 13.0963 13.7722L15.3162 22.057L20.3928 24.9879L17.9441 15.8495C17.7486 15.1201 18.1815 14.3705 18.9109 14.175C19.6397 13.9794 20.3899 14.4125 20.5853 15.1417L23.7415 26.9214L33.6329 32.632V21.211L25.0097 12.5877C24.4759 12.0538 24.4759 11.1881 25.0097 10.6542C25.544 10.1203 26.4095 10.1203 26.9434 10.6542L33.633 17.3439V11.4822L27.5683 5.41734C27.0344 4.88346 27.0344 4.01775 27.5683 3.48387C28.1025 2.94984 28.9679 2.94998 29.5019 3.48387L33.6329 7.61523V2.1875C33.6329 1.4324 34.2451 0.820312 35.0001 0.820312C35.755 0.820312 36.3672 1.4324 36.3672 2.1875V7.61523L40.4986 3.484C41.0329 2.94998 41.8983 2.95012 42.4322 3.484C42.9661 4.01789 42.9661 4.88359 42.4322 5.41748L36.3672 11.4822V17.344L43.057 10.6544C43.5912 10.1205 44.4566 10.1205 44.9906 10.6544C45.5247 11.1882 45.5245 12.0539 44.9906 12.5878L36.3672 21.211V32.6322L46.2582 26.9216L49.4145 15.1419C49.61 14.4128 50.3589 13.9798 51.0888 14.1751C51.8182 14.3705 52.2511 15.1203 52.0556 15.8497L49.6069 24.9881L54.6833 22.0572L56.9032 13.7726C57.0989 13.0434 57.8478 12.6105 58.5776 12.8059C59.307 13.0013 59.7399 13.751 59.5443 14.4804L58.0321 20.1239L62.7366 17.4077C63.3907 17.0302 64.2266 17.2545 64.6042 17.9081C64.9818 18.562 64.7577 19.3982 64.1038 19.7757L59.3993 22.4917L65.0428 24.0038C65.7722 24.1992 66.205 24.949 66.0095 25.6782C65.8459 26.2891 65.2934 26.692 64.6898 26.692C64.5727 26.692 64.4537 26.6768 64.3351 26.6451L56.0504 24.4252L50.9743 27.3561L60.1127 29.8047C60.8421 30.0001 61.2749 30.7498 61.0794 31.4792C60.9158 32.0899 60.3633 32.4929 59.7597 32.4929C59.6427 32.4929 59.5236 32.4777 59.405 32.446L47.6255 29.2897L37.7344 35L47.6254 40.7106L59.4048 37.5543C60.1339 37.3588 60.8837 37.7918 61.0792 38.5211C61.2747 39.2503 60.8418 39.9999 60.1124 40.1954L50.9743 42.6441L56.0506 45.5749L64.3353 43.355C65.064 43.1594 65.8144 43.5926 66.0096 44.3219Z" fill="white"/>
</svg>
