<svg width="68" height="70" viewBox="0 0 68 70" fill="none" xmlns="http://www.w3.org/2000/svg">
<path d="M52.4201 61.5631C51.9511 61.873 51.8193 62.5088 52.1332 62.9776C52.4433 63.4503 53.0789 63.5783 53.5517 63.2682C54.6523 62.5397 55.5863 61.6366 56.3187 60.6252C57.0667 59.5905 57.6092 58.4355 57.9115 57.2302C57.9619 57.0248 58.1595 56.5171 57.9736 56.0211C57.7993 55.5483 57.3961 55.3118 57.0086 55.0483C55.6909 54.1453 54.1252 53.5717 52.4665 53.3818C50.8271 53.1958 49.091 53.3857 47.409 54.0096C46.2155 54.4554 45.142 55.0793 44.2195 55.8389C44.3281 55.5677 44.4443 55.3003 44.5606 55.0367C46.1031 51.572 48.3896 48.7158 50.9629 45.9564C52.8 47.6617 55.2183 48.7777 57.9853 49.0413C60.0006 49.2312 62.2756 49.0413 64.1241 48.2895C65.8565 47.5841 66.9727 46.4486 67.0578 45.0495C67.1354 43.7706 66.3331 42.608 64.9418 41.7244C64.128 41.2051 63.0933 40.771 61.9152 40.4688C62.6554 39.4998 63.2057 38.5193 63.5274 37.6086C64.0738 36.0583 63.9885 34.6516 63.1398 33.6905C62.2872 32.7294 60.8998 32.4736 59.2952 32.8301C58.3535 33.0395 57.311 33.4657 56.2646 34.0858C56.1018 32.8727 55.7995 31.7915 55.3848 30.9235C54.7686 29.629 53.7067 28.4199 52.172 28.416C50.8389 28.416 49.6414 29.3694 48.7654 30.9429C47.9826 32.3497 47.4323 34.3067 47.2967 36.477L47.2928 36.477L47.2928 36.5545L47.2928 36.5583L47.289 36.5583L47.289 36.5661C47.1262 39.5541 47.9865 42.2825 49.5909 44.4295C48.8391 45.2318 48.13 46.0223 47.4595 46.8167C47.2772 45.7316 46.8471 44.6543 46.1496 43.6815C45.4365 42.6815 44.5258 41.9066 43.522 41.3833C42.4755 40.833 41.3245 40.5578 40.1929 40.581C39.7937 40.5888 39.5651 40.5694 39.2201 40.8136C38.8209 41.1004 38.7512 41.4492 38.6388 41.7747C38.2822 42.8133 38.1815 43.945 38.3559 45.0688C38.5264 46.185 38.9643 47.2972 39.6813 48.301C40.4487 49.3745 41.4447 50.1884 42.5376 50.7114C43.0801 50.9711 43.646 51.161 44.2234 51.2734C43.6575 52.2113 43.1498 53.18 42.6925 54.2032C40.9602 58.0943 40.0533 62.6828 40.0533 68.9767C40.0533 69.5424 40.5106 69.9997 41.0764 69.9997C41.6422 69.9997 42.1034 69.5424 42.1034 68.9767C42.1034 67.1009 42.1847 65.3879 42.3476 63.8106C43.0529 64.2098 43.8125 64.5237 44.6108 64.7447C45.9285 65.109 47.347 65.2136 48.7847 65.0315C49.3466 64.9618 49.742 64.4502 49.6721 63.8921C49.5986 63.3302 49.0908 62.9349 48.5289 63.0047C47.3662 63.1519 46.2192 63.0667 45.1533 62.7721C44.2891 62.5317 43.4791 62.1559 42.7621 61.6559C43.0606 60.4971 43.6419 59.3965 44.4634 58.447C45.3935 57.3657 46.6375 56.4821 48.1219 55.9318C49.4977 55.4241 50.9123 55.2653 52.2415 55.4163C53.5902 55.5714 54.8535 56.0403 55.9116 56.7805C55.6712 57.7145 55.2451 58.6137 54.6598 59.4236C54.0672 60.2416 53.3115 60.974 52.4201 61.5631ZM35.8641 21.8664C35.3409 22.0797 35.0889 22.6765 35.3022 23.1997C35.5153 23.7229 36.1121 23.9747 36.6353 23.7656C37.9491 23.2307 39.0692 22.3122 39.8559 21.1456C40.6193 20.014 41.0612 18.6536 41.0612 17.1927C41.0612 15.2317 40.2666 13.4605 38.9839 12.1777C37.701 10.895 35.93 10.1005 33.969 10.1005C32.0119 10.1005 30.2409 10.895 28.9541 12.1777C27.6712 13.4605 26.8769 15.2316 26.8769 17.1927C26.8769 18.6538 27.3226 20.014 28.086 21.1456C28.8689 22.3121 29.9889 23.2307 31.3066 23.7656C31.8298 23.9749 32.4266 23.7229 32.6397 23.1997C32.8529 22.6765 32.5972 22.0797 32.0738 21.8664C31.136 21.4828 30.3377 20.8317 29.7835 20.0062C29.2449 19.2039 28.931 18.235 28.931 17.1925C28.931 15.8013 29.4929 14.5377 30.4075 13.627C31.3183 12.7162 32.5778 12.1505 33.9692 12.1505C35.3644 12.1505 36.6238 12.7164 37.5347 13.627C38.4493 14.5377 39.0112 15.8011 39.0112 17.1925C39.0112 18.235 38.6973 19.2039 38.1586 20.0062C37.6003 20.8316 36.8058 21.4828 35.8641 21.8664ZM31.163 1.70216C30.26 2.93837 29.7251 4.51584 29.4461 5.51949C29.3299 5.93033 28.6594 5.60097 28.423 5.46918C27.5705 4.99257 26.2101 4.40345 24.8227 4.23679C23.7105 4.10117 22.6292 4.26783 21.8385 5.01582C20.9936 5.80632 20.8658 7.09298 21.0246 8.17429C21.2378 9.6432 21.9974 11.2011 22.5012 12.0925C22.8732 12.7474 22.3229 12.6816 22.0905 12.7436C21.1254 13.0072 19.552 13.5769 18.401 14.4527C17.4825 15.1504 16.8121 16.0455 16.781 17.1656C16.7501 18.3166 17.5717 19.3126 18.4437 19.9675C19.6296 20.8511 21.2612 21.4325 22.2455 21.6999C22.9509 21.8936 22.5595 22.1999 22.4122 22.4517C21.92 23.3159 21.2147 24.8352 21.0248 26.2652C20.8697 27.4084 21.0286 28.513 21.792 29.3269C22.5865 30.1678 23.8654 30.2957 24.9467 30.1368C26.4194 29.9236 27.9773 29.168 28.8686 28.6641C29.481 28.3192 29.3995 28.633 29.5158 29.0865C29.7833 30.0476 30.3608 31.6211 31.2328 32.7644C31.7094 33.3884 32.2791 33.9 32.9457 34.1711L32.9457 68.9769C32.9457 69.5427 33.403 70 33.9689 70C34.5346 70 34.9959 69.5427 34.9959 68.9769L34.9959 34.1749C35.6819 33.8998 36.2632 33.3728 36.7437 32.7254C37.6312 31.5319 38.1932 29.9003 38.4723 28.9159C38.6506 28.2881 39.2009 28.7454 39.5652 28.943C40.41 29.3963 41.8401 30.0087 43.1888 30.1521C44.2778 30.2721 45.3319 30.0978 46.1031 29.3692C46.9286 28.5942 47.0603 27.3269 46.917 26.2689C46.7233 24.8388 46.0217 23.3196 45.5257 22.4516C45.0646 21.6338 45.1731 21.8354 46.0334 21.5913C46.9751 21.3277 48.4827 20.7542 49.5911 19.89C50.4786 19.2002 51.1297 18.3166 51.1606 17.2197C51.1916 16.0649 50.3777 15.0689 49.498 14.414C48.3159 13.5304 46.6805 12.9568 45.6923 12.6855C45.0294 12.5034 45.5062 11.9956 45.7232 11.5964C46.1767 10.7554 46.7851 9.3215 46.9323 7.97277C47.0485 6.8838 46.878 5.8297 46.1494 5.05833C45.355 4.21738 44.0643 4.0972 42.987 4.25224C41.5182 4.46539 39.9525 5.20941 39.0727 5.71718C38.7821 5.87988 38.5301 5.63187 38.4293 5.28707C38.1619 4.32976 37.5807 2.76023 36.7048 1.61699C36.0072 0.70234 35.112 0.0356994 33.9997 0.000836194C32.8218 -0.0300621 31.818 0.803102 31.163 1.70216ZM32.814 2.9113C33.1666 2.42691 33.562 2.07418 33.9689 2.04711C34.3487 2.07418 34.7323 2.4075 35.0811 2.86099C35.767 3.75623 36.2399 5.03906 36.4569 5.83353C36.7437 6.86439 36.9685 7.50779 37.5809 7.87597C38.2552 8.27902 38.9683 8.13177 40.0883 7.48837C40.8207 7.06591 42.1113 6.44589 43.274 6.27923C43.8591 6.19392 44.3785 6.22496 44.677 6.48472C44.9134 6.75597 44.956 7.22874 44.8978 7.75593C44.7854 8.79062 44.2894 9.94165 43.9212 10.6237C43.805 10.8369 43.7585 10.926 43.7119 11.0112C43.4639 11.4529 43.2624 11.8174 43.1538 12.2087C42.8244 13.4102 43.2159 14.1272 45.1536 14.658C45.9791 14.8828 47.3317 15.3517 48.2734 16.0571C48.7423 16.4059 49.0873 16.7973 49.1143 17.1927C49.0911 17.5647 48.7694 17.9407 48.3315 18.2816C47.4827 18.9443 46.2542 19.4055 45.4791 19.6226C44.3553 19.9365 43.6694 20.1883 43.305 20.8433C42.9059 21.5448 43.0842 22.285 43.7507 23.4593C44.1576 24.1801 44.7389 25.4242 44.89 26.5404C44.9675 27.1023 44.9326 27.6101 44.6768 27.9008C44.4056 28.1333 43.9327 28.176 43.4056 28.1177C42.371 28.0053 41.2237 27.5092 40.5339 27.1411C40.4409 27.0907 40.3091 27.0171 40.1891 26.9473C39.7434 26.7031 39.379 26.5016 38.9915 26.393C37.7784 26.0481 37.0499 26.4279 36.5034 28.3618C36.267 29.1989 35.7981 30.5709 35.1005 31.5088C34.8603 31.8305 34.4068 32.3343 33.9689 32.3343C33.5504 32.3343 33.0931 31.8305 32.8605 31.5243C32.1746 30.6253 31.7057 29.3386 31.4886 28.5402C31.2057 27.5208 30.9537 26.8775 30.3415 26.5211C29.667 26.1335 28.9501 26.2692 27.8573 26.8853C27.1093 27.3116 25.8149 27.9433 24.66 28.1101C24.0825 28.1954 23.5632 28.1643 23.261 27.9008C23.009 27.6101 22.9741 27.1025 23.0516 26.5366C23.2027 25.4205 23.7802 24.1802 24.1909 23.4594C24.7258 22.5217 25.0048 21.8899 24.8111 21.204C24.6057 20.4522 23.9934 20.0608 22.7803 19.7274C21.9625 19.5065 20.6138 19.0298 19.6683 18.3246C19.1993 17.9718 18.8505 17.5804 18.8233 17.1929C18.8505 16.8053 19.1837 16.4217 19.6372 16.0806C20.5325 15.3985 21.8269 14.9335 22.629 14.7126C23.6793 14.4258 24.3226 14.1816 24.6791 13.5616C25.0628 12.8871 24.9077 12.1819 24.2801 11.0812C23.8538 10.3332 23.222 9.03876 23.0515 7.87994C22.9662 7.30244 22.9972 6.78701 23.2608 6.48472C23.5399 6.24054 24.032 6.20185 24.5823 6.27158C25.6636 6.39955 26.8534 6.93043 27.5471 7.32185C28.0004 7.57765 28.5004 7.89156 29.0004 8.02718C30.1592 8.35271 30.88 7.99232 31.3838 6.18244C31.6203 5.32576 32.0971 3.89185 32.814 2.9113ZM16.1378 43.9683C15.1999 44.9721 14.0411 45.7744 12.7157 46.3091C12.1887 46.5184 11.9367 47.1152 12.146 47.6384C12.3553 48.1616 12.9521 48.4174 13.4753 48.2081C14.8163 47.6695 16.0177 46.9021 17.037 45.9565C19.6103 48.7159 21.8968 51.5721 23.4392 55.0368C23.5555 55.3003 23.6718 55.5677 23.7804 55.8391C22.8579 55.0795 21.7844 54.4555 20.5908 54.0098C18.9089 53.3858 17.1727 53.1959 15.5333 53.382C13.8204 53.5795 12.212 54.1842 10.8673 55.1336C10.5766 55.339 10.2006 55.5445 10.0263 56.0172C9.84023 56.5172 10.0379 57.0365 10.0884 57.2302C10.4875 58.8269 11.313 60.3345 12.4834 61.598C13.6112 62.8148 15.0489 63.8031 16.7309 64.4269C18.5407 65.0974 20.4087 65.2679 22.1527 65.0083C23.4045 64.8184 24.5904 64.4153 25.6523 63.8107C25.815 65.3919 25.8965 67.101 25.8965 68.9768C25.8965 69.5425 26.3576 69.9999 26.9235 69.9999C27.4894 69.9999 27.9466 69.5425 27.9466 68.9768C27.9466 62.6829 27.0397 58.0944 25.3074 54.2034C24.85 53.1803 24.3423 52.2114 23.7765 51.2735C24.354 51.1611 24.9198 50.975 25.4624 50.7116C26.5553 50.1884 27.5513 49.3745 28.3187 48.3011C29.0357 47.2973 29.4736 46.185 29.6441 45.0689C29.8146 43.9644 29.7216 42.8522 29.3767 41.829C29.2603 41.4802 29.1403 41.0926 28.7799 40.8136C28.5395 40.6315 28.2063 40.5888 27.8071 40.581C26.6755 40.5578 25.5245 40.8328 24.478 41.3833C23.4742 41.9065 22.5636 42.6815 21.8504 43.6815C21.1528 44.6543 20.7226 45.7316 20.5405 46.8167C19.8701 46.0223 19.1609 45.2316 18.4089 44.4295C18.6144 44.1543 18.8043 43.8714 18.9864 43.5807C20.4127 41.2671 20.9125 38.655 20.6645 35.9771C20.4823 34.0084 19.9554 32.2412 19.2345 30.9429C18.4748 29.5825 17.2114 28.2533 15.5333 28.4355C14.3087 28.5673 13.301 29.4896 12.6151 30.9236C12.2004 31.7918 11.8981 32.8729 11.7393 34.0859C10.689 33.4659 9.64651 33.0396 8.70479 32.8303C7.10039 32.4737 5.71297 32.7295 4.86039 33.6907C4.01164 34.6518 3.92633 36.0585 4.47279 37.6087C4.79449 38.5194 5.34478 39.5 6.08498 40.4689C4.90688 40.7712 3.87205 41.2053 3.05817 41.7245C1.66692 42.6081 0.864651 43.7708 0.942165 45.0497C1.02352 46.3401 1.97699 47.406 3.48842 48.119C4.79832 48.7352 6.58113 49.0995 8.54592 49.1034C9.1118 49.1034 9.56899 48.646 9.56899 48.0841C9.56899 47.5182 9.11166 47.0609 8.54592 47.0609C6.88328 47.0571 5.41069 46.7625 4.35262 46.2665C3.53107 45.8789 3.01564 45.4099 2.98844 44.9293C2.9574 44.4526 3.39914 43.9294 4.15492 43.449C5.11988 42.8328 6.52275 42.36 8.15053 42.1468C8.71244 42.0732 9.10387 41.5616 9.03414 40.9996C9.0031 40.771 8.89852 40.5695 8.74731 40.4183L8.74731 40.4145C7.6001 39.2479 6.78635 38.0116 6.40271 36.9303C6.10426 36.0817 6.07719 35.3996 6.39109 35.0429C6.705 34.6865 7.39092 34.6322 8.26688 34.826C9.38687 35.074 10.7124 35.7289 12.0145 36.7288C12.4602 37.0736 13.0996 36.9884 13.4446 36.5427C13.6072 36.3296 13.6539 36.1204 13.6577 35.8646C13.6771 34.2563 13.9754 32.8301 14.4676 31.8031C14.8396 31.0203 15.2893 30.5241 15.7465 30.47C15.7736 30.47 15.8046 30.466 15.8318 30.4622C16.3627 30.4622 16.9402 31.0203 17.4478 31.9349C18.0912 33.0936 18.5484 34.7484 18.6609 36.6164C18.7849 38.6899 18.3432 40.7284 17.2463 42.5072C16.9245 43.0266 16.5524 43.5188 16.1378 43.9683ZM51.7458 43.8365C51.7263 43.8133 51.7071 43.794 51.6837 43.7707C50.0715 41.9299 49.1801 39.4457 49.3351 36.6823C49.339 36.6397 49.3429 36.597 49.3429 36.5583C49.4593 34.7136 49.9126 33.082 50.5521 31.9349C51.0597 31.0203 51.6372 30.4622 52.1681 30.4622C52.1951 30.466 52.2262 30.47 52.2533 30.47C52.7106 30.5241 53.1601 31.0203 53.5321 31.8031C54.0165 32.8185 54.315 34.2252 54.342 35.8103C54.3498 36.0894 54.3731 36.2987 54.5552 36.5427C54.9001 36.9884 55.5396 37.0736 55.9853 36.7288C57.2874 35.7289 58.6129 35.074 59.7329 34.826C60.6087 34.6322 61.2946 34.6865 61.6085 35.0429C61.9224 35.3995 61.8953 36.0816 61.5969 36.9303C61.221 37.9922 60.4304 39.2053 59.3104 40.3564C59.1243 40.5463 59.0042 40.7168 58.9655 40.9998C58.8957 41.5617 59.2872 42.0733 59.8491 42.147C61.4768 42.3601 62.8797 42.8329 63.8447 43.4491C64.6005 43.9297 65.0422 44.4527 65.0112 44.9295C64.9803 45.4681 64.3485 45.9875 63.3525 46.3904C61.655 47.0803 60.2676 47.0299 58.4926 47.0299C55.7337 46.8439 53.3735 45.6619 51.7458 43.8365ZM24.5825 48.8708C23.9741 49.1615 23.3267 49.3242 22.6835 49.3514C22.5012 48.7352 22.4469 48.0647 22.5246 47.3942C22.6254 46.5261 22.9547 45.6503 23.5166 44.8674C24.0398 44.1349 24.6987 43.573 25.4234 43.1932C26.0783 42.8482 26.7836 42.6583 27.4852 42.6273C27.6828 43.3016 27.7293 44.0303 27.617 44.7665C27.4929 45.5764 27.1751 46.3865 26.6519 47.1151C26.0901 47.9019 25.3692 48.4948 24.5825 48.8708ZM45.3163 49.3514C44.6729 49.3243 44.0257 49.1615 43.4173 48.8708C42.6306 48.4948 41.9097 47.9019 41.3478 47.1152C40.8245 46.3866 40.5068 45.5767 40.3827 44.7666C40.2703 44.0303 40.3168 43.3017 40.5144 42.6274C41.216 42.6584 41.9213 42.8483 42.5762 43.1933C43.3009 43.5693 43.9598 44.135 44.4868 44.8675C45.0448 45.6504 45.3743 46.5262 45.475 47.3944C45.5528 48.0647 45.4985 48.7352 45.3163 49.3514ZM25.2375 61.6561C24.257 62.3421 23.0983 62.7955 21.8581 62.9814C20.4436 63.1907 18.9244 63.0513 17.4438 62.5048C16.0603 61.9894 14.8899 61.1911 13.9831 60.2144C13.0606 59.2184 12.4096 58.0325 12.0879 56.7807C13.146 56.0403 14.4094 55.5715 15.758 55.4165C17.0873 55.2654 18.5018 55.4243 19.8776 55.9319C21.3618 56.4822 22.6059 57.3658 23.536 58.4471C24.3577 59.3966 24.939 60.4972 25.2375 61.6561Z" fill="white"/>
</svg>
