<svg width="70" height="70" viewBox="0 0 70 70" fill="none" xmlns="http://www.w3.org/2000/svg">
<path d="M65.2221 17.5475C64.8696 16.9411 64.092 16.7354 63.4856 17.088L57.2834 20.6732C56.677 21.0258 56.4712 21.8033 56.8238 22.4097C57.1764 23.0161 57.9539 23.2218 58.5603 22.8693L64.7626 19.284C65.369 18.9313 65.5747 18.1539 65.2221 17.5475Z" fill="white"/>
<path d="M64.7626 50.7234L58.5603 47.1381C57.9539 46.7856 57.1764 46.9913 56.8238 47.5977C56.4712 48.2041 56.677 48.9816 57.2834 49.3342L63.4856 52.9194C64.092 53.272 64.8696 53.0663 65.2221 52.4599C65.5747 51.8533 65.369 51.0759 64.7626 50.7234Z" fill="white"/>
<path d="M35.0981 60.097C34.3947 60.0447 33.7824 60.5725 33.7301 61.2758C33.7254 61.3388 33.7254 61.402 33.7301 61.4649V68.6284C33.6779 69.3318 34.2057 69.9441 34.909 69.9964C35.6124 70.0487 36.2247 69.5209 36.277 68.8175C36.2817 68.7545 36.2817 68.6914 36.277 68.6284V61.4649C36.3291 60.7617 35.8013 60.1492 35.0981 60.097Z" fill="white"/>
<path d="M12.7167 20.6732L6.51446 17.088C5.90808 16.7354 5.13052 16.9411 4.77796 17.5475C4.4254 18.1539 4.63114 18.9315 5.23752 19.284L11.4398 22.8693C12.0462 23.2218 12.8237 23.0161 13.1763 22.4097C13.5289 21.8032 13.3231 21.0258 12.7167 20.6732Z" fill="white"/>
<path d="M35.0981 0.00357053C34.3947 -0.0486999 33.7824 0.479091 33.7301 1.18246C33.7254 1.24543 33.7254 1.30858 33.7301 1.37155V8.53504C33.734 9.23473 34.3004 9.80111 35 9.80497C35.7053 9.80497 36.277 9.23333 36.277 8.52803V1.37172C36.3291 0.668352 35.8013 0.0558409 35.0981 0.00357053Z" fill="white"/>
<path d="M22.8621 11.4399L19.2839 5.23764C18.9313 4.63127 18.1538 4.42552 17.5474 4.77808C16.941 5.13064 16.7353 5.90821 17.0878 6.51458L20.6661 12.7169C21.0186 13.3232 21.7962 13.529 22.4026 13.1764C23.0089 12.8237 23.2147 12.0463 22.8621 11.4399Z" fill="white"/>
<path d="M35.1891 23.6691C35.1262 23.6643 35.063 23.6643 35 23.6691C28.742 23.6691 23.6689 28.7421 23.6689 35.0002C23.6689 35.7055 24.2406 36.2771 24.9459 36.2771C25.6484 36.2733 26.2158 35.7027 26.2158 35.0002C26.212 30.1527 30.1385 26.2198 34.986 26.2159C34.9907 26.2159 34.9953 26.2159 35 26.2159C35.7034 26.2682 36.3157 25.7404 36.368 25.0371C36.4203 24.3337 35.8925 23.7212 35.1891 23.6691Z" fill="white"/>
<path d="M69.8072 34.9019C69.7604 34.2714 69.2591 33.7699 68.6283 33.7231H61.4648C60.7614 33.6708 60.1491 34.1986 60.0968 34.9019C60.0446 35.6053 60.5724 36.2176 61.2757 36.2699C61.3387 36.2747 61.402 36.2747 61.465 36.2699H68.6285C69.3317 36.2178 69.8595 35.6053 69.8072 34.9019Z" fill="white"/>
<path d="M8.72419 33.7302C8.66122 33.7255 8.59808 33.7255 8.53511 33.7302H1.37161C0.668239 33.7825 0.140448 34.395 0.192718 35.0982C0.239551 35.7288 0.740856 36.2303 1.37161 36.2771H8.53511C9.23848 36.3294 9.85081 35.8016 9.90308 35.0982C9.95535 34.3948 9.42756 33.7823 8.72419 33.7302Z" fill="white"/>
<path d="M35.0052 16.26C24.6553 16.2586 16.264 24.6477 16.2624 34.9975C16.2617 39.9697 18.2371 44.7384 21.7534 48.2537C25.2631 51.7721 30.0304 53.7466 34.9999 53.7403C45.3498 53.7417 53.7413 45.3527 53.7427 35.0028C53.7441 24.6529 45.3551 16.2614 35.0052 16.26ZM46.4503 46.4716C40.1265 52.7954 29.8734 52.7954 23.5495 46.4716C20.5075 43.4296 18.801 39.3021 18.8066 35.0002C18.8005 30.7042 20.5075 26.5831 23.5495 23.5498V23.5708C29.8734 17.247 40.1265 17.247 46.4503 23.5708C52.7743 29.8947 52.7743 40.1478 46.4503 46.4716Z" fill="white"/>
<path d="M52.9155 63.4914C52.9145 63.4894 52.9134 63.4875 52.9122 63.4858L49.3269 57.2835C48.9744 56.6771 48.1968 56.4714 47.5904 56.8239C46.984 57.1765 46.7783 57.954 47.1309 58.5604L50.7161 64.7627C51.0673 65.3684 51.8426 65.5755 52.4491 65.2258C53.0569 64.8755 53.2658 64.099 52.9155 63.4914Z" fill="white"/>
<path d="M52.4948 4.77808C51.8885 4.42552 51.1109 4.63127 50.7583 5.23764L47.1731 11.4399C46.8181 12.0449 47.0208 12.823 47.6256 13.1778C47.6269 13.1785 47.6279 13.1792 47.6291 13.1799C48.235 13.5332 49.0126 13.3285 49.3658 12.7225C49.3669 12.7205 49.3681 12.7186 49.3691 12.7169L52.9544 6.51458C53.307 5.90803 53.1012 5.13064 52.4948 4.77808Z" fill="white"/>
<path d="M22.4096 56.8239C21.8032 56.4714 21.0257 56.6771 20.6731 57.2835L17.0878 63.4858C16.7353 64.0921 16.941 64.8697 17.5474 65.2223C18.1538 65.5748 18.9313 65.3691 19.2839 64.7627L22.8691 58.5604C23.2217 57.9539 23.016 57.1765 22.4096 56.8239Z" fill="white"/>
<path d="M13.1763 47.5907C12.8237 46.9843 12.0462 46.7785 11.4398 47.1311L5.23752 50.7164C4.63114 51.0689 4.4254 51.8465 4.77796 52.4529C5.13052 53.0592 5.90808 53.265 6.51446 52.9124L12.7167 49.3272C13.3231 48.9744 13.5289 48.197 13.1763 47.5907Z" fill="white"/>
</svg>
