<svg width="19" height="19" viewBox="0 0 19 19" fill="none" xmlns="http://www.w3.org/2000/svg">
<path fill-rule="evenodd" clip-rule="evenodd" d="M3.4827 1.62476C2.24099 1.62476 1.22461 2.64114 1.22461 3.88284V15.1167C1.22461 16.3584 2.24099 17.3748 3.4827 17.3748H14.7165C15.9652 17.3748 16.9746 16.3653 16.9746 15.1167V3.88284C16.9746 2.64114 15.9582 1.62476 14.7165 1.62476H3.4827ZM0.0996094 3.88284C0.0996094 2.01982 1.61967 0.499756 3.4827 0.499756H14.7165C16.5795 0.499756 18.0996 2.01982 18.0996 3.88284V15.1167C18.0996 16.9866 16.5865 18.4998 14.7165 18.4998H3.4827C1.61967 18.4998 0.0996094 16.9797 0.0996094 15.1167V3.88284Z" fill="white"/>
<path fill-rule="evenodd" clip-rule="evenodd" d="M9.10285 5.73389C8.09456 5.73389 7.14963 6.12518 6.43745 6.83736C5.72528 7.54954 5.33398 8.49446 5.33398 9.50275C5.33398 10.511 5.72528 11.456 6.43745 12.1681C7.14963 12.8803 8.09456 13.2716 9.10285 13.2716C10.1094 13.2716 11.0484 12.8815 11.7691 12.1673C12.4807 11.4552 12.8717 10.5106 12.8717 9.50275C12.8717 8.49446 12.4804 7.54954 11.7682 6.83736C11.0561 6.12518 10.1111 5.73389 9.10285 5.73389ZM5.64196 6.04186C6.5653 5.11852 7.79646 4.60889 9.10285 4.60889C10.4092 4.60889 11.6404 5.11852 12.5637 6.04186C13.4871 6.96521 13.9967 8.19636 13.9967 9.50275C13.9967 10.8091 13.4871 12.0403 12.5637 12.9636L12.5621 12.9653C11.6335 13.8861 10.4106 14.3966 9.10285 14.3966C7.79646 14.3966 6.5653 13.887 5.64196 12.9636C4.71862 12.0403 4.20898 10.8091 4.20898 9.50275C4.20898 8.19636 4.71862 6.96521 5.64196 6.04186Z" fill="white"/>
<path fill-rule="evenodd" clip-rule="evenodd" d="M14.2789 3.92874C14.1303 3.92874 14.0098 4.04923 14.0098 4.19787C14.0098 4.3465 14.1303 4.467 14.2789 4.467C14.4276 4.467 14.5481 4.3465 14.5481 4.19787C14.5481 4.04923 14.4276 3.92874 14.2789 3.92874ZM12.8848 4.19787C12.8848 3.4279 13.509 2.80371 14.2789 2.80371C15.0489 2.80371 15.6731 3.4279 15.6731 4.19787C15.6731 4.96784 15.0489 5.59203 14.2789 5.59203C13.509 5.59203 12.8848 4.96784 12.8848 4.19787Z" fill="white"/>
</svg>
