<svg width="24" height="25" viewBox="0 0 24 25" fill="none" xmlns="http://www.w3.org/2000/svg">
<g clip-path="url(#clip0_851_2024)">
<g clip-path="url(#clip1_851_2024)">
<path d="M20.1537 6.7833C18.0544 6.7833 16.3465 5.07538 16.3465 2.97608V2.39014H12.0365V15.8419C12.0365 17.0761 11.0323 18.0801 9.79816 18.0801C8.56403 18.0801 7.56 17.0761 7.56 15.8419C7.56 14.6077 8.56403 13.6036 9.79816 13.6036C10.1218 13.6036 10.3841 13.6036 10.3841 13.6036V9.29367C10.3841 9.29367 10.1218 9.29367 9.79816 9.29367C6.18747 9.29367 3.25 12.2313 3.25 15.8419C3.25 19.4526 6.18747 22.3901 9.79816 22.3901C13.4088 22.3901 16.3465 19.4526 16.3465 15.8419V10.1469C17.5125 10.7687 18.8103 11.0933 20.1537 11.0933H20.7396V6.7833H20.1537Z" fill="white"/>
</g>
</g>
<defs>
<clipPath id="clip0_851_2024">
<rect width="24" height="24" fill="white" transform="translate(0 0.390137)"/>
</clipPath>
<clipPath id="clip1_851_2024">
<rect width="24" height="24" fill="white" transform="translate(0 0.390137)"/>
</clipPath>
</defs>
</svg>
