<svg width="20" height="21" viewBox="0 0 20 21" fill="none" xmlns="http://www.w3.org/2000/svg">
<path fill-rule="evenodd" clip-rule="evenodd" d="M0.416016 6.75903H5.39997V20.3098H0.416016V6.75903ZM1.48629 7.8293V19.2395H4.3297V7.8293H1.48629Z" fill="white"/>
<path fill-rule="evenodd" clip-rule="evenodd" d="M11.505 7.61768C12.238 7.01014 13.3951 6.38621 15.0228 6.4532L15.0275 6.45339L15.0404 6.45415C15.1868 6.46276 15.3531 6.47254 15.5136 6.49239C16.8681 6.63995 17.9832 7.16739 18.7548 8.08523C19.5235 8.99954 19.9005 10.2408 19.9005 11.7222V20.4003H14.9165V12.588C14.9165 12.5282 14.9062 12.1028 14.6898 11.7098C14.5861 11.5214 14.4386 11.3469 14.224 11.2174C14.0103 11.0884 13.7001 10.9858 13.2423 10.9858C12.6778 10.9858 12.2238 11.2285 11.9706 11.6829C11.6672 12.2394 11.6708 12.8761 11.6752 13.6552C11.6758 13.7511 11.6763 13.8492 11.6763 13.9495V20.3462H6.69238V6.79542H11.505V7.61768ZM11.5653 9.08172C11.5138 9.14908 11.4774 9.20098 11.455 9.23418C11.4437 9.25088 11.436 9.26284 11.4316 9.26965L11.4277 9.27581C11.4275 9.2762 11.4274 9.27636 11.4276 9.27607L11.4277 9.27581L10.4347 10.9308V7.86569H7.76265V19.2759H10.6061V13.9495C10.6061 13.8595 10.605 13.7656 10.6039 13.6683C10.5955 12.9237 10.5849 11.9867 11.0323 11.168L11.0341 11.1647C11.5025 10.3216 12.3466 9.91554 13.2423 9.91554C13.8666 9.91554 14.3737 10.0576 14.7771 10.3011C15.1797 10.5441 15.4493 10.8702 15.6273 11.1935C15.9745 11.824 15.9868 12.4673 15.9868 12.5879V19.33H18.8302V11.7222C18.8302 10.4171 18.4993 9.44449 17.9356 8.77394C17.3757 8.10789 16.5355 7.6796 15.394 7.55598L15.3897 7.5555L15.3853 7.55495C15.2628 7.53965 15.1291 7.53149 14.9742 7.52238C13.0369 7.44452 11.9501 8.5851 11.5653 9.08172Z" fill="white"/>
<path fill-rule="evenodd" clip-rule="evenodd" d="M2.90818 1.67037C1.94868 1.67037 1.17086 2.44819 1.17086 3.40769C1.17086 4.36719 1.94868 5.14502 2.90818 5.14502C3.86768 5.14502 4.64551 4.36719 4.64551 3.40769C4.64551 2.4482 3.86768 1.67037 2.90818 1.67037ZM0.100586 3.40769C0.100586 1.8571 1.35758 0.600098 2.90818 0.600098C4.45877 0.600098 5.71578 1.8571 5.71578 3.40769C5.71578 4.95829 4.45877 6.21529 2.90818 6.21529C1.35758 6.21529 0.100586 4.95829 0.100586 3.40769Z" fill="white"/>
</svg>
