<svg width="13" height="21" viewBox="0 0 13 21" fill="none" xmlns="http://www.w3.org/2000/svg">
<path fill-rule="evenodd" clip-rule="evenodd" d="M6.2085 3.14458C5.3997 4.10968 4.96201 5.6017 4.96201 7.68762V9.37951H1.96968V11.4886H4.96201V19.3296H7.49361V12.0237H8.02874V11.4955H10.6324L11.3584 9.38644H7.49361V7.72918C7.49361 6.47905 7.70742 5.45839 8.26984 4.81433C8.52078 4.52696 8.8066 4.2852 9.17864 4.1215C9.54722 3.95933 9.96343 3.89002 10.4531 3.89002C10.9628 3.89002 11.2512 3.9229 11.5734 3.97819V1.88497C11.5611 1.88142 11.5489 1.87789 11.5367 1.87439C11.1379 1.75942 10.8282 1.67012 10.0167 1.67012C8.22809 1.67012 7.00205 2.19768 6.2085 3.14458ZM8.56388 12.5658V20.3999H3.89174V12.5589H0.899414V8.30924H3.89174V7.68762C3.89174 5.47901 4.35105 3.69471 5.3882 2.45713C6.44061 1.20135 8.00949 0.599854 10.0167 0.599854C10.9877 0.599854 11.4396 0.730676 11.8652 0.853905C11.9862 0.88892 12.105 0.923321 12.233 0.953935L12.6437 1.05214V5.25587L12.0164 5.14625C11.8731 5.1212 11.7521 5.09883 11.6452 5.07906C11.2053 4.9977 11.003 4.96029 10.4531 4.96029C10.063 4.96029 9.8039 5.01567 9.60968 5.10113C9.41893 5.18506 9.25452 5.31387 9.076 5.5183C8.77952 5.85783 8.56388 6.54113 8.56388 7.72918V8.31617H12.8587L11.3959 12.5658H8.56388Z" fill="white"/>
</svg>
