<svg width="24" height="18" viewBox="0 0 24 18" fill="none" xmlns="http://www.w3.org/2000/svg">
<path d="M19.2274 0H4.77257C2.1409 0 0 2.19256 0 4.88714V13.1129C0 15.8079 2.1409 18 4.77257 18H19.2274C21.8591 18 24 15.8074 24 13.1129V4.88714C24 2.19256 21.8591 0 19.2274 0ZM23.0204 13.1134C23.0204 15.2569 21.3189 17.0005 19.2274 17.0005H4.77257C2.68114 17.0005 0.979592 15.2564 0.979592 13.1134V4.88714C0.979592 2.74408 2.68114 1.00003 4.77257 1.00003H19.2274C21.3189 1.00003 23.0204 2.74408 23.0204 4.88714V13.1134Z" fill="white"/>
<path d="M16.6802 8.126L9.75252 4.06839C9.59852 3.97838 9.40701 3.97688 9.25151 4.06588C9.096 4.15489 9 4.32039 9 4.4999V12.6146C9 12.7936 9.096 12.9596 9.25101 13.0486C9.32801 13.0926 9.41401 13.1146 9.50001 13.1146C9.58752 13.1146 9.67452 13.0916 9.75252 13.0461L16.6802 8.98952C16.8332 8.90002 16.9277 8.73552 16.9277 8.55801C16.9277 8.38051 16.8337 8.2155 16.6802 8.126ZM10 11.7421V5.37192L15.4382 8.55751L10 11.7421Z" fill="white"/>
</svg>
