<svg width="19" height="12" viewBox="0 0 19 12" fill="none" xmlns="http://www.w3.org/2000/svg">
<path d="M4.83386 0.467309C5.12805 0.175726 5.60292 0.177844 5.89451 0.472041C6.18609 0.766238 6.18397 1.24111 5.88978 1.53269L4.12681 3.28C3.41131 3.98914 2.92051 4.47718 2.58841 4.89071C2.48048 5.02509 2.39628 5.1434 2.3309 5.25L17.3618 5.25C17.776 5.25 18.1118 5.58579 18.1118 6C18.1118 6.41422 17.776 6.75 17.3618 6.75L2.3309 6.75C2.39628 6.8566 2.48048 6.97491 2.58841 7.10929C2.92051 7.52282 3.41131 8.01086 4.12681 8.72L5.88978 10.4673C6.18397 10.7589 6.18609 11.2338 5.89451 11.528C5.60292 11.8222 5.12805 11.8243 4.83386 11.5327L3.03912 9.7539C2.36315 9.08395 1.81068 8.53641 1.41887 8.04854C1.01144 7.54121 0.716511 7.02628 0.637726 6.40816C0.620453 6.27265 0.611816 6.13632 0.611816 6C0.611816 5.86368 0.620453 5.72735 0.637726 5.59184C0.716511 4.97372 1.01144 4.45878 1.41887 3.95146C1.81068 3.46358 2.36316 2.91604 3.03914 2.24609L4.83386 0.467309Z" fill="#112138"/>
</svg>
