<svg width="21" height="21" viewBox="0 0 21 21" fill="none" xmlns="http://www.w3.org/2000/svg">
<path d="M11.25 14.7501C11.25 14.5512 11.1709 14.3604 11.0303 14.2198C10.8896 14.0791 10.6989 14.0001 10.5 14.0001C10.3011 14.0001 10.1103 14.0791 9.96963 14.2198C9.82898 14.3604 9.74996 14.5512 9.74996 14.7501C9.74996 14.949 9.82898 15.1398 9.96963 15.2804C10.1103 15.4211 10.3011 15.5001 10.5 15.5001C10.6989 15.5001 10.8896 15.4211 11.0303 15.2804C11.1709 15.1398 11.25 14.949 11.25 14.7501ZM8.99996 8.50008C8.99996 7.72008 9.54996 7.00008 10.57 7.00008C11.42 7.00008 12 7.72008 12 8.50008C12 8.92008 11.75 9.30008 11.35 9.72008L11.08 10.0001L11.06 10.0301L10.76 10.3501C10.58 10.5401 10.39 10.7801 10.29 11.0501C10.13 11.3901 10.09 11.7701 10.07 12.0301C10.0609 12.1866 10.0609 12.3435 10.07 12.5001V12.5401C10.0819 12.6727 10.146 12.7951 10.2482 12.8805C10.3504 12.9658 10.4824 13.007 10.615 12.9951C10.7476 12.9831 10.87 12.919 10.9553 12.8168C11.0407 12.7146 11.0819 12.5827 11.07 12.4501V12.4301C11.0629 12.3169 11.0629 12.2033 11.07 12.0901C11.0716 11.8554 11.1227 11.6237 11.22 11.4101C11.25 11.3201 11.33 11.2101 11.5 11.0101L11.77 10.7301L11.8 10.7001L12.09 10.4001C12.49 9.96008 13 9.33008 13 8.50008C13 7.28008 12.08 6.00008 10.57 6.00008C10.2347 5.98647 9.90026 6.04129 9.58692 6.16121C9.27359 6.28112 8.98797 6.46361 8.74748 6.69755C8.50699 6.93148 8.31669 7.21196 8.18817 7.52186C8.05965 7.83177 7.99561 8.16461 7.99996 8.50008C7.99996 8.63269 8.05264 8.75987 8.14641 8.85363C8.24018 8.9474 8.36736 9.00008 8.49996 9.00008C8.63257 9.00008 8.75975 8.9474 8.85352 8.85363C8.94729 8.75987 8.99996 8.63269 8.99996 8.50008Z" fill="black"/>
<path fill-rule="evenodd" clip-rule="evenodd" d="M18.5 10.5C18.5 8.37827 17.6571 6.34344 16.1569 4.84315C14.6566 3.34285 12.6217 2.5 10.5 2.5C8.37827 2.5 6.34344 3.34285 4.84315 4.84315C3.34285 6.34344 2.5 8.37827 2.5 10.5C2.5 12.6217 3.34285 14.6566 4.84315 16.1569C6.34344 17.6571 8.37827 18.5 10.5 18.5C12.6217 18.5 14.6566 17.6571 16.1569 16.1569C17.6571 14.6566 18.5 12.6217 18.5 10.5ZM3.5 10.5C3.5 9.58075 3.68106 8.6705 4.03284 7.82122C4.38463 6.97194 4.90024 6.20026 5.55025 5.55025C6.20026 4.90024 6.97194 4.38463 7.82122 4.03284C8.6705 3.68106 9.58075 3.5 10.5 3.5C11.4193 3.5 12.3295 3.68106 13.1788 4.03284C14.0281 4.38463 14.7997 4.90024 15.4497 5.55025C16.0998 6.20026 16.6154 6.97194 16.9672 7.82122C17.3189 8.6705 17.5 9.58075 17.5 10.5C17.5 12.3565 16.7625 14.137 15.4497 15.4497C14.137 16.7625 12.3565 17.5 10.5 17.5C8.64348 17.5 6.86301 16.7625 5.55025 15.4497C4.2375 14.137 3.5 12.3565 3.5 10.5Z" fill="black"/>
</svg>
