<svg width="27" height="26" viewBox="0 0 27 26" fill="none" xmlns="http://www.w3.org/2000/svg">
<mask id="mask0_1689_4774" style="mask-type:alpha" maskUnits="userSpaceOnUse" x="0" y="0" width="27" height="26">
<g clip-path="url(#clip0_1689_4774)">
<g clip-path="url(#clip1_1689_4774)">
<path d="M12.8203 20.83C14.6445 20.83 16.4277 20.289 17.9444 19.2756C19.4611 18.2622 20.6432 16.8217 21.3413 15.1365C22.0393 13.4512 22.222 11.5967 21.8661 9.80764C21.5103 8.01856 20.6318 6.37518 19.342 5.08532C18.0521 3.79546 16.4087 2.91705 14.6197 2.56118C12.8306 2.20531 10.9761 2.38795 9.29085 3.08602C7.60557 3.78409 6.16513 4.96622 5.1517 6.48294C4.13826 7.99965 3.59734 9.78282 3.59734 11.607C3.59734 14.0531 4.56905 16.399 6.29869 18.1286C8.02834 19.8583 10.3742 20.83 12.8203 20.83ZM12.8203 21.983C10.7682 21.983 8.76215 21.3744 7.05585 20.2344C5.34955 19.0943 4.01963 17.4738 3.23426 15.5779C2.4489 13.682 2.24336 11.5958 2.64364 9.58307C3.04392 7.57035 4.03204 5.72152 5.48305 4.27038C6.93406 2.81923 8.78279 1.83093 10.7955 1.43046C12.8082 1.02998 14.8944 1.23532 16.7904 2.0205C18.6864 2.80568 20.3069 4.13544 21.4472 5.84164C22.5874 7.54783 23.1961 9.55383 23.1963 11.606C23.1963 12.9686 22.928 14.3178 22.4065 15.5767C21.8851 16.8356 21.1208 17.9794 20.1573 18.9429C19.1938 19.9064 18.0499 20.6707 16.7911 21.1921C15.5322 21.7136 14.1829 21.983 12.8203 21.983ZM20.5523 18.524L25.4443 23.415L24.6293 24.23L19.7373 19.338L20.5523 18.524Z" stroke="black" stroke-width="1.3" stroke-linecap="round" stroke-linejoin="round"/>
</g>
</g>
</mask>
<g mask="url(#mask0_1689_4774)">
<rect x="0.944336" y="0.22998" width="26" height="25" rx="4" fill="white"/>
</g>
<defs>
<clipPath id="clip0_1689_4774">
<rect width="26" height="25" fill="white" transform="translate(0.944336 0.22998)"/>
</clipPath>
<clipPath id="clip1_1689_4774">
<rect width="24.3" height="24.3" fill="white" transform="translate(1.79443 0.580078)"/>
</clipPath>
</defs>
</svg>
