<svg width="27" height="26" viewBox="0 0 27 26" fill="none" xmlns="http://www.w3.org/2000/svg">
<path d="M2.74587 0.958984C2.0589 0.95924 1.50346 1.51601 1.50346 2.19781L1.49322 9.8727V9.87909C1.49013 10.2033 1.61802 10.5149 1.85283 10.7496C2.08744 10.9844 2.40241 11.1144 2.73204 11.1144L10.4114 11.1247M2.74587 0.958984C2.74603 0.958984 2.74572 0.958984 2.74587 0.958984ZM2.74587 0.958984L10.4252 0.969224C11.1104 0.969224 11.6671 1.52743 11.664 2.20847V2.21103L11.6538 9.88581C11.6538 10.5676 11.0983 11.1245 10.4114 11.1247M10.4114 11.1247C10.4112 11.1247 10.4116 11.1247 10.4114 11.1247Z" stroke="#29B6A3" stroke-width="1.5"/>
<path d="M15.3069 9.88773C15.307 10.2172 15.4371 10.5308 15.6717 10.7653C15.9062 10.9999 16.2213 11.1301 16.5509 11.1301L24.2302 11.1404M15.3069 9.88773C15.3069 9.88757 15.3069 9.88789 15.3069 9.88773ZM15.3069 9.88773L15.3171 2.21342C15.3171 1.53161 15.8726 0.974849 16.5595 0.974609M16.5595 0.974609C16.5597 0.974609 16.5594 0.974609 16.5595 0.974609ZM16.5595 0.974609L24.2388 0.984849C24.5646 0.984849 24.8767 1.11227 25.1199 1.35142C25.3534 1.58574 25.4827 1.89867 25.4828 2.22727M25.4828 2.22727C25.4828 2.22742 25.4828 2.22711 25.4828 2.22727ZM25.4828 2.22727L25.4726 9.90149C25.4726 10.5832 24.9172 11.14 24.2302 11.1404M24.2302 11.1404C24.23 11.1404 24.2304 11.1404 24.2302 11.1404Z" stroke="#29B6A3" stroke-width="1.5"/>
<path d="M2.73557 14.7776C2.0486 14.7779 1.49316 15.3347 1.49316 16.0165L1.48292 23.6913V23.6939C1.47982 24.3748 2.0354 24.9331 2.72068 24.9331H2.72687L10.4062 24.9433M2.73557 14.7776C2.73573 14.7776 2.73541 14.7776 2.73557 14.7776ZM2.73557 14.7776L10.4149 14.7878C10.7406 14.7878 11.0528 14.9153 11.296 15.1544C11.5294 15.3888 11.6587 15.7017 11.6588 16.0302M11.6588 16.0302C11.6588 16.0304 11.6588 16.0301 11.6588 16.0302ZM11.6588 16.0302L11.6486 23.7046C11.6486 24.3865 11.0933 24.9431 10.4062 24.9433M10.4062 24.9433C10.4061 24.9433 10.4064 24.9433 10.4062 24.9433Z" stroke="#29B6A3" stroke-width="1.5"/>
<path d="M16.5493 14.7932C15.8624 14.7934 15.3069 15.3503 15.3069 16.0321L15.2966 23.7069V23.7095C15.2936 24.3904 15.8502 24.9487 16.5355 24.9487L24.2148 24.9589M16.5493 14.7932C16.5494 14.7932 16.5491 14.7932 16.5493 14.7932ZM16.5493 14.7932L24.2288 14.8035C24.5545 14.8035 24.8665 14.9308 25.1097 15.17C25.3433 15.4046 25.4705 15.7154 25.4675 16.0388V16.0452L25.4572 23.72C25.4572 24.4018 24.9019 24.9586 24.2148 24.9589M24.2148 24.9589C24.2147 24.9589 24.215 24.9589 24.2148 24.9589Z" stroke="#29B6A3" stroke-width="1.5"/>
</svg>
