<svg width="24" height="24" viewBox="0 0 24 24" fill="none" xmlns="http://www.w3.org/2000/svg">
<path fill-rule="evenodd" clip-rule="evenodd" d="M12 22C9.34784 22 6.8043 20.9464 4.92893 19.0711C3.05357 17.1957 2 14.6522 2 12C2 9.34784 3.05357 6.8043 4.92893 4.92893C6.8043 3.05357 9.34784 2 12 2C14.6522 2 17.1957 3.05357 19.0711 4.92893C20.9464 6.8043 22 9.34784 22 12C22 14.6522 20.9464 17.1957 19.0711 19.0711C17.1957 20.9464 14.6522 22 12 22ZM12 3.5C11.5 3.5 10.63 3.95 9.8 5.6C9.4 6.4 9.07 7.38 8.84 8.5H15.16C14.93 7.38 14.59 6.4 14.19 5.6C13.37 3.95 12.51 3.5 12 3.5ZM4.25 8.5C5.17568 6.45866 6.86763 4.8637 8.96 4.06C8.13026 5.42045 7.57008 6.92786 7.31 8.5H4.25ZM3.74 10C3.33675 11.6591 3.44127 13.401 4.04 15H7.23C6.9711 13.3459 6.9274 11.6653 7.1 10H3.75H3.74ZM4.79 16.5C5.77029 18.0684 7.23381 19.2758 8.96 19.94C8.29954 18.8787 7.81653 17.7168 7.53 16.5H4.8H4.79ZM15.04 4.06C15.8697 5.42045 16.4299 6.92786 16.69 8.5H19.75C18.8243 6.45866 17.1324 4.8637 15.04 4.06ZM20.26 10H16.9C17.0679 11.6655 17.0242 13.3455 16.77 15H19.96C20.5612 13.4016 20.6657 11.6589 20.26 10ZM19.21 16.5C18.2297 18.0684 16.7662 19.2758 15.04 19.94C15.7005 18.8787 16.1835 17.7168 16.47 16.5H19.21ZM14.19 18.4C14.47 17.85 14.71 17.21 14.91 16.5H9.1C9.3 17.21 9.54 17.85 9.82 18.4C10.64 20.05 11.5 20.5 12.01 20.5C12.51 20.5 13.38 20.05 14.21 18.4H14.19ZM15.5 12C15.5 13.06 15.41 14.07 15.25 15H8.75C8.46769 13.3483 8.42056 11.6649 8.61 10H15.39C15.46 10.64 15.5 11.3 15.5 12Z" fill="black"/>
</svg>
