<svg width="24" height="24" viewBox="0 0 24 24" fill="none" xmlns="http://www.w3.org/2000/svg">
<g clip-path="url(#clip0_1330_806)">
<path d="M20.2972 18.0755H19.4941V17.2724C19.4941 16.8841 19.1793 16.5693 18.791 16.5693C18.4027 16.5693 18.0879 16.8841 18.0879 17.2724V18.0755H17.2849C16.8966 18.0755 16.5818 18.3903 16.5818 18.7785C16.5818 19.1668 16.8966 19.4816 17.2849 19.4816H18.0879V20.2847C18.0879 20.673 18.4027 20.9878 18.791 20.9878C19.1793 20.9878 19.4941 20.673 19.4941 20.2847V19.4816H20.2972C21.2289 19.4472 21.2285 18.1098 20.2972 18.0755Z" fill="#29B6A3"/>
<path d="M20.4587 13.8301C22.7889 7.21991 17.554 -0.129418 10.5071 0.00173004C4.71204 0.00158942 0.014169 4.69951 0.014169 10.4947C-0.11651 17.5403 7.23244 22.7782 13.8426 20.4461C14.54 22.51 16.4947 24 18.791 24C24.7214 23.8837 25.9773 15.7838 20.4587 13.8301ZM1.42033 10.4947C1.42033 5.48415 5.49668 1.40775 10.5072 1.40775C16.6754 1.29478 21.235 7.8104 19.0621 13.5639C18.032 13.5103 17.0127 13.7595 16.1387 14.2798C15.3009 13.4951 14.3108 12.8986 13.2406 12.5209C16.5716 9.95985 14.7638 4.52707 10.5071 4.52009C6.25361 4.52698 4.44384 9.95455 7.76908 12.5172C5.94173 13.1594 4.3823 14.4334 3.3896 16.1423C2.11328 14.5403 1.42033 12.5689 1.42033 10.4947ZM10.5072 12.0508C8.81868 12.0508 7.44491 10.677 7.44491 8.98852C7.59888 4.93153 13.4162 4.93265 13.5695 8.98857C13.5695 10.6771 12.1958 12.0508 10.5072 12.0508ZM13.5765 19.0493C10.4788 20.1862 6.81898 19.4675 4.40283 17.2236C6.29322 13.2699 11.7785 12.2071 15.0215 15.1644C14.0285 16.1902 13.4998 17.5991 13.5765 19.0493ZM18.791 22.5938C16.6872 22.5938 14.9757 20.8823 14.9757 18.7785C15.1675 13.7238 22.4154 13.7252 22.6064 18.7785C22.6064 20.8823 20.8948 22.5938 18.791 22.5938Z" fill="#29B6A3"/>
</g>
<defs>
<clipPath id="clip0_1330_806">
<rect width="24" height="24" fill="white"/>
</clipPath>
</defs>
</svg>
