<svg width="20" height="25" viewBox="0 0 20 25" fill="none" xmlns="http://www.w3.org/2000/svg">
<path d="M9.58555 2.48717H9.64581C9.64581 2.54747 9.6366 2.61243 9.63191 2.65417C9.60866 2.8861 9.55762 3.42881 10.0957 3.51694H10.1375C10.1375 3.51694 10.1514 3.51694 10.1561 3.51694C10.3091 3.51694 10.5874 3.44737 10.7497 2.96496C10.824 2.73767 10.8704 2.42687 10.8286 2.16247C10.8612 2.11609 10.889 2.06507 10.9029 2.0094C10.9956 1.67079 10.6523 1.25331 10.439 1.14663L10.1143 0.98427C10.0215 0.937892 9.91024 0.956437 9.84062 1.03066C9.76647 1.10487 9.75243 1.2162 9.79894 1.30897L9.81737 1.34144C9.81737 1.34144 9.7849 1.37391 9.771 1.39247L9.68749 1.52234C9.58087 1.6847 9.49736 1.85169 9.42774 2.02796L9.37217 2.16711C9.34423 2.2367 9.35359 2.32019 9.39527 2.3805C9.4371 2.44543 9.50672 2.48254 9.58087 2.48717H9.58555Z" fill="#29B6A3"/>
<path d="M18.951 10.5921C18.886 10.4253 18.733 10.198 18.3851 10.0681L18.2089 10.003C17.9769 9.92419 17.912 9.90108 17.7542 9.7294C17.6383 9.6088 17.5409 9.465 17.4203 9.29337C17.3043 9.13103 17.1883 8.9594 17.0398 8.79705C16.9657 8.71819 16.8961 8.62542 16.8172 8.51409C16.525 8.12446 16.1585 7.6374 15.5324 7.57246C15.3096 7.54926 15.1009 7.48896 14.8922 7.4333C14.7391 7.39156 14.5443 7.33589 14.3403 7.29879C13.5702 7.15499 12.7028 6.95089 12.1184 6.3525C11.7518 5.97214 11.4457 5.53612 11.1999 5.04442L11.1766 5.00267C11.0792 4.80786 10.9818 4.60376 10.7128 4.55736C10.699 4.55736 10.6432 4.54809 10.6293 4.54809C10.4578 4.54809 10.3232 4.63159 10.2119 4.72436C10.1376 4.64086 10.0449 4.57129 9.94749 4.52953C9.8732 4.49706 9.79904 4.48315 9.72021 4.48315C9.53461 4.48315 9.36306 4.57129 9.25629 4.72436C8.84809 5.30419 9.07069 6.26437 9.27018 6.71432C9.04758 6.7375 8.8203 6.79782 8.63939 7.00192L8.55119 7.09932C8.48626 7.1689 8.45847 7.2663 8.47704 7.35909C8.49094 7.45186 8.55119 7.53536 8.63471 7.58173L8.69964 7.61885C8.71354 7.8183 8.50951 8.44916 8.426 8.69963C8.22183 9.32586 8.04559 9.86393 8.1895 10.2489C8.31938 10.5968 8.58366 10.8612 8.84809 11.1302C8.98733 11.2694 9.12173 11.404 9.20525 11.5339C9.38616 11.8122 9.26097 12.2343 9.13109 12.6795C9.08473 12.8326 9.0429 12.9811 9.01043 13.1202C8.95018 13.3939 8.88056 13.6629 8.80173 13.9598C8.6486 14.5675 8.48626 15.1936 8.41211 15.8246C8.38432 16.0704 8.26834 16.126 7.74413 16.2791C7.60497 16.3208 7.4658 16.358 7.32666 16.409C6.79321 16.6038 5.615 17.0212 5.615 17.0212C4.51102 17.4155 3.36993 17.8237 2.25666 18.2413C2.1778 18.2691 2.11286 18.3293 2.08039 18.4128C2.07112 18.4314 2.06647 18.45 2.06183 18.4686C2.04329 18.4871 2.02937 18.5102 2.02009 18.5335C1.98299 18.6077 1.97834 18.6958 2.00617 18.7747C2.33552 19.7071 2.84113 20.5792 3.29107 21.3491C3.30963 21.3815 3.33746 21.4279 3.38383 21.5022C3.69926 21.9986 3.7874 22.2259 3.81059 22.3139L3.71317 22.4068C3.62504 22.4901 3.59721 22.62 3.63433 22.7315C3.67143 22.8428 3.77812 22.9263 3.89873 22.9402L4.13066 22.9633C4.19096 22.9957 4.28837 23.2926 4.32547 23.4039C4.44144 23.7566 4.6409 24.341 5.23464 24.3596H5.28567C5.82839 24.3596 6.29687 24.137 6.70972 23.9375C7.08544 23.7566 7.4055 23.6034 7.7534 23.6034C7.80907 23.6034 7.86467 23.6034 7.92961 23.6034H8.03169C8.15236 23.6034 8.20793 23.6173 8.26834 23.6592C8.38885 23.7472 8.52341 23.7937 8.67185 23.7937C8.84809 23.7937 8.99186 23.7288 9.09863 23.6777L9.14031 23.6592C9.72021 23.3947 10.0541 23.0098 10.082 22.5783C10.0913 22.3927 10.0727 22.2536 10.0541 22.1516C10.0418 22.0805 10.0649 22.0094 10.1237 21.9382C10.3418 21.6645 10.4345 21.6229 10.866 21.5904L11.0375 21.581C11.5015 21.5579 12.0812 21.5254 12.443 21.0754C12.6981 20.7554 12.7863 20.3889 12.8605 20.0595L12.8884 19.9435C13.0368 19.3405 13.8161 19.1921 14.4469 19.1737C14.7624 19.1643 14.9896 19.0716 15.1334 18.8907C15.3746 18.5891 15.2586 18.2041 15.1798 17.9211C15.1567 17.847 15.1334 17.7727 15.1148 17.7032C15.0082 17.3599 14.92 17.0863 15.0174 16.78C15.0593 16.6456 15.0824 16.4925 15.1148 16.2977C15.1473 16.089 15.1891 15.7874 15.2772 15.5926C15.3607 15.7086 15.4859 15.8292 15.6808 15.8801C15.7458 15.8987 15.8153 15.9081 15.8802 15.9081C15.9962 15.9081 16.1075 15.8801 16.2049 15.8246C16.5528 15.639 16.6596 15.1983 16.7291 14.9061C16.7384 14.8783 16.743 14.8504 16.7523 14.8226C16.8683 14.4237 17.1697 14.1083 17.4991 13.765C17.8377 13.4125 18.1903 13.046 18.3712 12.5404C18.4037 12.4616 18.4917 12.2992 18.5613 12.1786C18.835 11.7054 19.1737 11.1118 18.9695 10.5968L18.951 10.5921ZM15.9266 15.3329L15.8291 15.2679C15.7828 15.254 15.7503 15.203 15.6901 15.1009C15.6298 14.9988 15.5508 14.8597 15.3839 14.8179C15.3607 14.8134 15.3329 14.8087 15.3096 14.8087C15.2308 14.8087 15.1426 14.8365 15.0546 14.8875C14.6325 15.1241 14.5443 15.7272 14.4747 16.2142C14.4516 16.3765 14.433 16.4972 14.4052 16.5852C14.2521 17.0769 14.3773 17.4666 14.5026 17.8841C14.5257 17.9491 14.5443 18.0185 14.5675 18.0882C14.6 18.1949 14.6742 18.4453 14.6325 18.4917C14.6186 18.5102 14.5582 18.5382 14.4144 18.5427C13.2037 18.5752 12.4616 19.0066 12.2713 19.7859L12.2436 19.9065C12.1739 20.1941 12.1137 20.4677 11.9421 20.6766C11.7565 20.9084 11.3622 20.9316 10.9818 20.9548L10.8103 20.9641C10.2675 21.0013 9.97996 21.0893 9.62281 21.5393C9.38148 21.8361 9.39084 22.0125 9.42799 22.2398C9.44189 22.3186 9.45578 22.4113 9.44642 22.532C9.43253 22.8056 9.00122 23.0237 8.87135 23.0839L8.82498 23.1025C8.76926 23.1256 8.70432 23.1581 8.66264 23.1581C8.65328 23.1581 8.64407 23.1581 8.62549 23.1442C8.41211 22.9912 8.21729 22.968 8.04106 22.968C7.99923 22.968 7.79979 22.9726 7.74413 22.9726C7.25707 22.9726 6.83496 23.1767 6.42676 23.3715C6.04176 23.5571 5.68459 23.7288 5.28103 23.7288H5.24392C5.1094 23.7288 5.03054 23.5618 4.90994 23.1952C4.81253 22.8983 4.7012 22.5644 4.4368 22.416C4.46 22.1562 4.29764 21.7805 3.88944 21.1404L3.81059 21.0152C3.4163 20.3379 2.971 19.5772 2.66486 18.7886C2.6695 18.7794 2.67877 18.77 2.6834 18.7561C2.6834 18.7469 2.69269 18.7375 2.69269 18.7283C3.73637 18.3432 4.79397 17.963 5.82838 17.5919C5.82838 17.5919 6.99267 17.1744 7.53074 16.9795C7.66063 16.9332 7.78587 16.896 7.91571 16.8589C8.42132 16.7151 8.9455 16.5621 9.02433 15.8801C9.09395 15.2865 9.25161 14.6788 9.40474 14.085C9.47889 13.8021 9.54851 13.5191 9.61345 13.2408C9.64138 13.1156 9.68306 12.9811 9.72474 12.8373C9.88255 12.2992 10.0635 11.6962 9.72474 11.172C9.60423 10.9864 9.43721 10.8194 9.27486 10.6571C9.06616 10.4484 8.85277 10.2304 8.76926 10.0077C8.70432 9.83146 8.87588 9.29802 9.01511 8.87126C9.21461 8.25897 9.40474 7.6745 9.26097 7.32197C9.32123 7.3127 9.39552 7.30806 9.47436 7.30342C9.67385 7.29415 9.91502 7.28486 10.082 7.0854C10.1237 7.03439 10.147 6.99727 10.1609 6.96943C10.2026 6.89059 10.2072 6.79317 10.1748 6.70967C10.1423 6.62619 10.0727 6.56124 9.98464 6.52877L9.92424 6.51022C9.89177 6.50094 9.87319 6.4963 9.86866 6.4963C9.68774 6.14377 9.56708 5.45262 9.76189 5.114C9.77125 5.12328 9.78515 5.13256 9.78968 5.13256C9.75268 5.25316 9.78968 5.3784 9.88709 5.45726C9.94281 5.50365 10.0124 5.53148 10.0866 5.53148C10.1562 5.53148 10.2165 5.50829 10.2722 5.47117C10.3278 5.42943 10.4067 5.36913 10.518 5.26243C10.518 5.26243 10.583 5.20677 10.5969 5.18822C10.6061 5.20677 10.6526 5.2949 10.6526 5.2949C10.9262 5.84226 11.2695 6.33396 11.6822 6.75606C12.392 7.48896 13.3707 7.72089 14.2335 7.8786C14.4052 7.91109 14.5629 7.95283 14.7346 8.00385C14.9664 8.06879 15.203 8.13373 15.472 8.16156C15.8291 8.19867 16.0797 8.53729 16.3255 8.86199C16.4137 8.98259 16.5018 9.09392 16.5853 9.18669C16.7013 9.31657 16.8034 9.46037 16.9239 9.632C17.0445 9.80821 17.1605 9.97055 17.309 10.1284C17.5734 10.4112 17.7588 10.4716 18.0094 10.5597L18.1764 10.6201C18.2877 10.6618 18.3526 10.7175 18.3804 10.7869C18.4778 11.0283 18.1948 11.5153 18.0094 11.8353C17.8981 12.0256 17.8191 12.1694 17.7727 12.2899C17.6336 12.6703 17.3275 12.9903 17.0306 13.3011C16.6735 13.6723 16.3023 14.0619 16.1399 14.6046C16.1307 14.6371 16.1215 14.6741 16.1029 14.7391C16.0705 14.8736 15.9962 15.1844 15.8896 15.2401L15.922 15.3051L15.9266 15.3329Z" fill="#29B6A3"/>
<mask id="mask0_1327_1264" style="mask-type:luminance" maskUnits="userSpaceOnUse" x="0" y="3" width="20" height="22">
<path d="M19.5388 3.02075H0.525635V24.959H19.5388V3.02075Z" fill="white"/>
<path d="M18.951 10.5921C18.886 10.4253 18.733 10.198 18.3851 10.0681L18.2089 10.003C17.9769 9.92419 17.912 9.90108 17.7542 9.7294C17.6383 9.6088 17.5409 9.465 17.4203 9.29337C17.3043 9.13103 17.1883 8.9594 17.0398 8.79705C16.9657 8.71819 16.8961 8.62542 16.8172 8.51409C16.525 8.12446 16.1585 7.6374 15.5324 7.57246C15.3096 7.54926 15.1009 7.48896 14.8922 7.4333C14.7391 7.39156 14.5443 7.33589 14.3403 7.29879C13.5702 7.15499 12.7028 6.95089 12.1184 6.3525C11.7518 5.97214 11.4457 5.53612 11.1999 5.04442L11.1766 5.00267C11.0792 4.80786 10.9818 4.60376 10.7128 4.55736C10.699 4.55736 10.6432 4.54809 10.6293 4.54809C10.4578 4.54809 10.3232 4.63159 10.2119 4.72436C10.1376 4.64086 10.0449 4.57129 9.94749 4.52953C9.8732 4.49706 9.79904 4.48315 9.72021 4.48315C9.53461 4.48315 9.36306 4.57129 9.25629 4.72436C8.84809 5.30419 9.07069 6.26437 9.27018 6.71432C9.04758 6.7375 8.8203 6.79782 8.63939 7.00192L8.55119 7.09932C8.48626 7.1689 8.45847 7.2663 8.47704 7.35909C8.49094 7.45186 8.55119 7.53536 8.63471 7.58173L8.69964 7.61885C8.71354 7.8183 8.50951 8.44916 8.426 8.69963C8.22183 9.32586 8.04559 9.86393 8.1895 10.2489C8.31938 10.5968 8.58366 10.8612 8.84809 11.1302C8.98733 11.2694 9.12173 11.404 9.20525 11.5339C9.38616 11.8122 9.26097 12.2343 9.13109 12.6795C9.08473 12.8326 9.0429 12.9811 9.01043 13.1202C8.95018 13.3939 8.88056 13.6629 8.80173 13.9598C8.6486 14.5675 8.48626 15.1936 8.41211 15.8246C8.38432 16.0704 8.26834 16.126 7.74413 16.2791C7.60497 16.3208 7.4658 16.358 7.32666 16.409C6.79321 16.6038 5.615 17.0212 5.615 17.0212C4.51102 17.4155 3.36993 17.8237 2.25666 18.2413C2.1778 18.2691 2.11286 18.3293 2.08039 18.4128C2.07112 18.4314 2.06647 18.45 2.06183 18.4686C2.04329 18.4871 2.02937 18.5102 2.02009 18.5335C1.98299 18.6077 1.97834 18.6958 2.00617 18.7747C2.33552 19.7071 2.84113 20.5792 3.29107 21.3491C3.30963 21.3815 3.33746 21.4279 3.38383 21.5022C3.69926 21.9986 3.7874 22.2259 3.81059 22.3139L3.71317 22.4068C3.62504 22.4901 3.59721 22.62 3.63433 22.7315C3.67143 22.8428 3.77812 22.9263 3.89873 22.9402L4.13066 22.9633C4.19096 22.9957 4.28837 23.2926 4.32547 23.4039C4.44144 23.7566 4.6409 24.341 5.23464 24.3596H5.28567C5.82839 24.3596 6.29687 24.137 6.70972 23.9375C7.08544 23.7566 7.4055 23.6034 7.7534 23.6034C7.80907 23.6034 7.86467 23.6034 7.92961 23.6034H8.03169C8.15236 23.6034 8.20793 23.6173 8.26834 23.6592C8.38885 23.7472 8.52341 23.7937 8.67185 23.7937C8.84809 23.7937 8.99186 23.7288 9.09863 23.6777L9.14031 23.6592C9.72021 23.3947 10.0541 23.0098 10.082 22.5783C10.0913 22.3927 10.0727 22.2536 10.0541 22.1516C10.0418 22.0805 10.0649 22.0094 10.1237 21.9382C10.3418 21.6645 10.4345 21.6229 10.866 21.5904L11.0375 21.581C11.5015 21.5579 12.0812 21.5254 12.443 21.0754C12.6981 20.7554 12.7863 20.3889 12.8605 20.0595L12.8884 19.9435C13.0368 19.3405 13.8161 19.1921 14.4469 19.1737C14.7624 19.1643 14.9896 19.0716 15.1334 18.8907C15.3746 18.5891 15.2586 18.2041 15.1798 17.9211C15.1567 17.847 15.1334 17.7727 15.1148 17.7032C15.0082 17.3599 14.92 17.0863 15.0174 16.78C15.0593 16.6456 15.0824 16.4925 15.1148 16.2977C15.1473 16.089 15.1891 15.7874 15.2772 15.5926C15.3607 15.7086 15.4859 15.8292 15.6808 15.8801C15.7458 15.8987 15.8153 15.9081 15.8802 15.9081C15.9962 15.9081 16.1075 15.8801 16.2049 15.8246C16.5528 15.639 16.6596 15.1983 16.7291 14.9061C16.7384 14.8783 16.743 14.8504 16.7523 14.8226C16.8683 14.4237 17.1697 14.1083 17.4991 13.765C17.8377 13.4125 18.1903 13.046 18.3712 12.5404C18.4037 12.4616 18.4917 12.2992 18.5613 12.1786C18.835 11.7054 19.1737 11.1118 18.9695 10.5968L18.951 10.5921ZM15.9266 15.3329L15.8291 15.2679C15.7828 15.254 15.7503 15.203 15.6901 15.1009C15.6298 14.9988 15.5508 14.8597 15.3839 14.8179C15.3607 14.8134 15.3329 14.8087 15.3096 14.8087C15.2308 14.8087 15.1426 14.8365 15.0546 14.8875C14.6325 15.1241 14.5443 15.7272 14.4747 16.2142C14.4516 16.3765 14.433 16.4972 14.4052 16.5852C14.2521 17.0769 14.3773 17.4666 14.5026 17.8841C14.5257 17.9491 14.5443 18.0185 14.5675 18.0882C14.6 18.1949 14.6742 18.4453 14.6325 18.4917C14.6186 18.5102 14.5582 18.5382 14.4144 18.5427C13.2037 18.5752 12.4616 19.0066 12.2713 19.7859L12.2436 19.9065C12.1739 20.1941 12.1137 20.4677 11.9421 20.6766C11.7565 20.9084 11.3622 20.9316 10.9818 20.9548L10.8103 20.9641C10.2675 21.0013 9.97996 21.0893 9.62281 21.5393C9.38148 21.8361 9.39084 22.0125 9.42799 22.2398C9.44189 22.3186 9.45578 22.4113 9.44642 22.532C9.43253 22.8056 9.00122 23.0237 8.87135 23.0839L8.82498 23.1025C8.76926 23.1256 8.70432 23.1581 8.66264 23.1581C8.65328 23.1581 8.64407 23.1581 8.62549 23.1442C8.41211 22.9912 8.21729 22.968 8.04106 22.968C7.99923 22.968 7.79979 22.9726 7.74413 22.9726C7.25707 22.9726 6.83496 23.1767 6.42676 23.3715C6.04176 23.5571 5.68459 23.7288 5.28103 23.7288H5.24392C5.1094 23.7288 5.03054 23.5618 4.90994 23.1952C4.81253 22.8983 4.7012 22.5644 4.4368 22.416C4.46 22.1562 4.29764 21.7805 3.88944 21.1404L3.81059 21.0152C3.4163 20.3379 2.971 19.5772 2.66486 18.7886C2.6695 18.7794 2.67877 18.77 2.6834 18.7561C2.6834 18.7469 2.69269 18.7375 2.69269 18.7283C3.73637 18.3432 4.79397 17.963 5.82838 17.5919C5.82838 17.5919 6.99267 17.1744 7.53074 16.9795C7.66063 16.9332 7.78587 16.896 7.91571 16.8589C8.42132 16.7151 8.9455 16.5621 9.02433 15.8801C9.09395 15.2865 9.25161 14.6788 9.40474 14.085C9.47889 13.8021 9.54851 13.5191 9.61345 13.2408C9.64138 13.1156 9.68306 12.9811 9.72474 12.8373C9.88255 12.2992 10.0635 11.6962 9.72474 11.172C9.60423 10.9864 9.43721 10.8194 9.27486 10.6571C9.06616 10.4484 8.85277 10.2304 8.76926 10.0077C8.70432 9.83146 8.87588 9.29802 9.01511 8.87126C9.21461 8.25897 9.40474 7.6745 9.26097 7.32197C9.32123 7.3127 9.39552 7.30806 9.47436 7.30342C9.67385 7.29415 9.91502 7.28486 10.082 7.0854C10.1237 7.03439 10.147 6.99727 10.1609 6.96943C10.2026 6.89059 10.2072 6.79317 10.1748 6.70967C10.1423 6.62619 10.0727 6.56124 9.98464 6.52877L9.92424 6.51022C9.89177 6.50094 9.87319 6.4963 9.86866 6.4963C9.68774 6.14377 9.56708 5.45262 9.76189 5.114C9.77125 5.12328 9.78515 5.13256 9.78968 5.13256C9.75268 5.25316 9.78968 5.3784 9.88709 5.45726C9.94281 5.50365 10.0124 5.53148 10.0866 5.53148C10.1562 5.53148 10.2165 5.50829 10.2722 5.47117C10.3278 5.42943 10.4067 5.36913 10.518 5.26243C10.518 5.26243 10.583 5.20677 10.5969 5.18822C10.6061 5.20677 10.6526 5.2949 10.6526 5.2949C10.9262 5.84226 11.2695 6.33396 11.6822 6.75606C12.392 7.48896 13.3707 7.72089 14.2335 7.8786C14.4052 7.91109 14.5629 7.95283 14.7346 8.00385C14.9664 8.06879 15.203 8.13373 15.472 8.16156C15.8291 8.19867 16.0797 8.53729 16.3255 8.86199C16.4137 8.98259 16.5018 9.09392 16.5853 9.18669C16.7013 9.31657 16.8034 9.46037 16.9239 9.632C17.0445 9.80821 17.1605 9.97055 17.309 10.1284C17.5734 10.4112 17.7588 10.4716 18.0094 10.5597L18.1764 10.6201C18.2877 10.6618 18.3526 10.7175 18.3804 10.7869C18.4778 11.0283 18.1948 11.5153 18.0094 11.8353C17.8981 12.0256 17.8191 12.1694 17.7727 12.2899C17.6336 12.6703 17.3275 12.9903 17.0306 13.3011C16.6735 13.6723 16.3023 14.0619 16.1399 14.6046C16.1307 14.6371 16.1215 14.6741 16.1029 14.7391C16.0705 14.8736 15.9962 15.1844 15.8896 15.2401L15.922 15.3051L15.9266 15.3329Z" fill="black"/>
</mask>
<g mask="url(#mask0_1327_1264)">
<path d="M18.951 10.5921C18.886 10.4253 18.733 10.198 18.3851 10.0681L18.2089 10.003C17.9769 9.92419 17.912 9.90108 17.7542 9.7294C17.6383 9.6088 17.5409 9.465 17.4203 9.29337C17.3043 9.13103 17.1883 8.9594 17.0398 8.79705C16.9657 8.71819 16.8961 8.62542 16.8172 8.51409C16.525 8.12446 16.1585 7.6374 15.5324 7.57246C15.3096 7.54926 15.1009 7.48896 14.8922 7.4333C14.7391 7.39156 14.5443 7.33589 14.3403 7.29879C13.5702 7.15499 12.7028 6.95089 12.1184 6.3525C11.7518 5.97214 11.4457 5.53612 11.1999 5.04442L11.1766 5.00267C11.0792 4.80786 10.9818 4.60376 10.7128 4.55736C10.699 4.55736 10.6432 4.54809 10.6293 4.54809C10.4578 4.54809 10.3232 4.63159 10.2119 4.72436C10.1376 4.64086 10.0449 4.57129 9.94749 4.52953C9.8732 4.49706 9.79904 4.48315 9.72021 4.48315C9.53461 4.48315 9.36306 4.57129 9.25629 4.72436C8.84809 5.30419 9.07069 6.26437 9.27018 6.71432C9.04758 6.7375 8.8203 6.79782 8.63939 7.00192L8.55119 7.09932C8.48626 7.1689 8.45847 7.2663 8.47704 7.35909C8.49094 7.45186 8.55119 7.53536 8.63471 7.58173L8.69964 7.61885C8.71354 7.8183 8.50951 8.44916 8.426 8.69963C8.22183 9.32586 8.04559 9.86393 8.1895 10.2489C8.31938 10.5968 8.58366 10.8612 8.84809 11.1302C8.98733 11.2694 9.12173 11.404 9.20525 11.5339C9.38616 11.8122 9.26097 12.2343 9.13109 12.6795C9.08473 12.8326 9.0429 12.9811 9.01043 13.1202C8.95018 13.3939 8.88056 13.6629 8.80173 13.9598C8.6486 14.5675 8.48626 15.1936 8.41211 15.8246C8.38432 16.0704 8.26834 16.126 7.74413 16.2791C7.60497 16.3208 7.4658 16.358 7.32666 16.409C6.79321 16.6038 5.615 17.0212 5.615 17.0212C4.51102 17.4155 3.36993 17.8237 2.25666 18.2413C2.1778 18.2691 2.11286 18.3293 2.08039 18.4128C2.07112 18.4314 2.06647 18.45 2.06183 18.4686C2.04329 18.4871 2.02937 18.5102 2.02009 18.5335C1.98299 18.6077 1.97834 18.6958 2.00617 18.7747C2.33552 19.7071 2.84113 20.5792 3.29107 21.3491C3.30963 21.3815 3.33746 21.4279 3.38383 21.5022C3.69926 21.9986 3.7874 22.2259 3.81059 22.3139L3.71317 22.4068C3.62504 22.4901 3.59721 22.62 3.63433 22.7315C3.67143 22.8428 3.77812 22.9263 3.89873 22.9402L4.13066 22.9633C4.19096 22.9957 4.28837 23.2926 4.32547 23.4039C4.44144 23.7566 4.6409 24.341 5.23464 24.3596H5.28567C5.82839 24.3596 6.29687 24.137 6.70972 23.9375C7.08544 23.7566 7.4055 23.6034 7.7534 23.6034C7.80907 23.6034 7.86467 23.6034 7.92961 23.6034H8.03169C8.15236 23.6034 8.20793 23.6173 8.26834 23.6592C8.38885 23.7472 8.52341 23.7937 8.67185 23.7937C8.84809 23.7937 8.99186 23.7288 9.09863 23.6777L9.14031 23.6592C9.72021 23.3947 10.0541 23.0098 10.082 22.5783C10.0913 22.3927 10.0727 22.2536 10.0541 22.1516C10.0418 22.0805 10.0649 22.0094 10.1237 21.9382C10.3418 21.6645 10.4345 21.6229 10.866 21.5904L11.0375 21.581C11.5015 21.5579 12.0812 21.5254 12.443 21.0754C12.6981 20.7554 12.7863 20.3889 12.8605 20.0595L12.8884 19.9435C13.0368 19.3405 13.8161 19.1921 14.4469 19.1737C14.7624 19.1643 14.9896 19.0716 15.1334 18.8907C15.3746 18.5891 15.2586 18.2041 15.1798 17.9211C15.1567 17.847 15.1334 17.7727 15.1148 17.7032C15.0082 17.3599 14.92 17.0863 15.0174 16.78C15.0593 16.6456 15.0824 16.4925 15.1148 16.2977C15.1473 16.089 15.1891 15.7874 15.2772 15.5926C15.3607 15.7086 15.4859 15.8292 15.6808 15.8801C15.7458 15.8987 15.8153 15.9081 15.8802 15.9081C15.9962 15.9081 16.1075 15.8801 16.2049 15.8246C16.5528 15.639 16.6596 15.1983 16.7291 14.9061C16.7384 14.8783 16.743 14.8504 16.7523 14.8226C16.8683 14.4237 17.1697 14.1083 17.4991 13.765C17.8377 13.4125 18.1903 13.046 18.3712 12.5404C18.4037 12.4616 18.4917 12.2992 18.5613 12.1786C18.835 11.7054 19.1737 11.1118 18.9695 10.5968L18.951 10.5921ZM15.9266 15.3329L15.8291 15.2679C15.7828 15.254 15.7503 15.203 15.6901 15.1009C15.6298 14.9988 15.5508 14.8597 15.3839 14.8179C15.3607 14.8134 15.3329 14.8087 15.3096 14.8087C15.2308 14.8087 15.1426 14.8365 15.0546 14.8875C14.6325 15.1241 14.5443 15.7272 14.4747 16.2142C14.4516 16.3765 14.433 16.4972 14.4052 16.5852C14.2521 17.0769 14.3773 17.4666 14.5026 17.8841C14.5257 17.9491 14.5443 18.0185 14.5675 18.0882C14.6 18.1949 14.6742 18.4453 14.6325 18.4917C14.6186 18.5102 14.5582 18.5382 14.4144 18.5427C13.2037 18.5752 12.4616 19.0066 12.2713 19.7859L12.2436 19.9065C12.1739 20.1941 12.1137 20.4677 11.9421 20.6766C11.7565 20.9084 11.3622 20.9316 10.9818 20.9548L10.8103 20.9641C10.2675 21.0013 9.97996 21.0893 9.62281 21.5393C9.38148 21.8361 9.39084 22.0125 9.42799 22.2398C9.44189 22.3186 9.45578 22.4113 9.44642 22.532C9.43253 22.8056 9.00122 23.0237 8.87135 23.0839L8.82498 23.1025C8.76926 23.1256 8.70432 23.1581 8.66264 23.1581C8.65328 23.1581 8.64407 23.1581 8.62549 23.1442C8.41211 22.9912 8.21729 22.968 8.04106 22.968C7.99923 22.968 7.79979 22.9726 7.74413 22.9726C7.25707 22.9726 6.83496 23.1767 6.42676 23.3715C6.04176 23.5571 5.68459 23.7288 5.28103 23.7288H5.24392C5.1094 23.7288 5.03054 23.5618 4.90994 23.1952C4.81253 22.8983 4.7012 22.5644 4.4368 22.416C4.46 22.1562 4.29764 21.7805 3.88944 21.1404L3.81059 21.0152C3.4163 20.3379 2.971 19.5772 2.66486 18.7886C2.6695 18.7794 2.67877 18.77 2.6834 18.7561C2.6834 18.7469 2.69269 18.7375 2.69269 18.7283C3.73637 18.3432 4.79397 17.963 5.82838 17.5919C5.82838 17.5919 6.99267 17.1744 7.53074 16.9795C7.66063 16.9332 7.78587 16.896 7.91571 16.8589C8.42132 16.7151 8.9455 16.5621 9.02433 15.8801C9.09395 15.2865 9.25161 14.6788 9.40474 14.085C9.47889 13.8021 9.54851 13.5191 9.61345 13.2408C9.64138 13.1156 9.68306 12.9811 9.72474 12.8373C9.88255 12.2992 10.0635 11.6962 9.72474 11.172C9.60423 10.9864 9.43721 10.8194 9.27486 10.6571C9.06616 10.4484 8.85277 10.2304 8.76926 10.0077C8.70432 9.83146 8.87588 9.29802 9.01511 8.87126C9.21461 8.25897 9.40474 7.6745 9.26097 7.32197C9.32123 7.3127 9.39552 7.30806 9.47436 7.30342C9.67385 7.29415 9.91502 7.28486 10.082 7.0854C10.1237 7.03439 10.147 6.99727 10.1609 6.96943C10.2026 6.89059 10.2072 6.79317 10.1748 6.70967C10.1423 6.62619 10.0727 6.56124 9.98464 6.52877L9.92424 6.51022C9.89177 6.50094 9.87319 6.4963 9.86866 6.4963C9.68774 6.14377 9.56708 5.45262 9.76189 5.114C9.77125 5.12328 9.78515 5.13256 9.78968 5.13256C9.75268 5.25316 9.78968 5.3784 9.88709 5.45726C9.94281 5.50365 10.0124 5.53148 10.0866 5.53148C10.1562 5.53148 10.2165 5.50829 10.2722 5.47117C10.3278 5.42943 10.4067 5.36913 10.518 5.26243C10.518 5.26243 10.583 5.20677 10.5969 5.18822C10.6061 5.20677 10.6526 5.2949 10.6526 5.2949C10.9262 5.84226 11.2695 6.33396 11.6822 6.75606C12.392 7.48896 13.3707 7.72089 14.2335 7.8786C14.4052 7.91109 14.5629 7.95283 14.7346 8.00385C14.9664 8.06879 15.203 8.13373 15.472 8.16156C15.8291 8.19867 16.0797 8.53729 16.3255 8.86199C16.4137 8.98259 16.5018 9.09392 16.5853 9.18669C16.7013 9.31657 16.8034 9.46037 16.9239 9.632C17.0445 9.80821 17.1605 9.97055 17.309 10.1284C17.5734 10.4112 17.7588 10.4716 18.0094 10.5597L18.1764 10.6201C18.2877 10.6618 18.3526 10.7175 18.3804 10.7869C18.4778 11.0283 18.1948 11.5153 18.0094 11.8353C17.8981 12.0256 17.8191 12.1694 17.7727 12.2899C17.6336 12.6703 17.3275 12.9903 17.0306 13.3011C16.6735 13.6723 16.3023 14.0619 16.1399 14.6046C16.1307 14.6371 16.1215 14.6741 16.1029 14.7391C16.0705 14.8736 15.9962 15.1844 15.8896 15.2401L15.922 15.3051L15.9266 15.3329Z" stroke="#29B6A3" stroke-width="0.4"/>
</g>
</svg>
