<svg width="25" height="25" viewBox="0 0 25 25" fill="none" xmlns="http://www.w3.org/2000/svg">
<path d="M12.2798 23.6826C18.201 23.6826 23.0034 18.8802 23.0034 12.959C23.0034 7.03784 18.201 2.23547 12.2798 2.23547C6.35864 2.23547 1.55627 7.03784 1.55627 12.959C1.55627 18.8802 6.35864 23.6826 12.2798 23.6826ZM12.2798 24.8109C5.73286 24.8109 0.427979 19.506 0.427979 12.959C0.427979 6.41207 5.73286 1.10718 12.2798 1.10718C18.8268 1.10718 24.1317 6.41207 24.1317 12.959C24.1317 19.506 18.8268 24.8109 12.2798 24.8109ZM11.0946 11.7833L16.1103 9.12851L13.4555 14.1395L8.44457 16.7943L11.0946 11.7833ZM16.2004 7.80584L10.2603 10.949L7.1219 16.8844C6.56723 17.9321 7.31153 18.6716 8.35449 18.117L14.2899 14.9738L17.433 9.03844C17.9877 7.99073 17.2434 7.25118 16.2004 7.80584Z" fill="#29B6A3"/>
<path fill-rule="evenodd" clip-rule="evenodd" d="M10.2605 10.9489L16.2006 7.8058C17.2436 7.25113 17.9879 7.99069 17.4332 9.03839L14.2901 14.9738L8.35469 18.1169C7.31173 18.6716 6.56743 17.932 7.1221 16.8843L10.2605 10.9489ZM6.99117 16.815L10.1509 10.8393L16.131 7.675C16.6842 7.38081 17.2097 7.40613 17.5206 7.71633C17.8317 8.02661 17.8583 8.5522 17.5642 9.10771L14.3997 15.0834L8.42426 18.2477C7.87106 18.5419 7.34561 18.5166 7.03466 18.2064C6.72362 17.8962 6.69708 17.3705 6.99117 16.815ZM12.28 23.5344C18.1194 23.5344 22.8554 18.7984 22.8554 12.959C22.8554 7.11962 18.1194 2.38358 12.28 2.38358C6.44066 2.38358 1.70462 7.11962 1.70462 12.959C1.70462 18.7984 6.44066 23.5344 12.28 23.5344ZM12.28 24.959C5.65126 24.959 0.280029 19.5877 0.280029 12.959C0.280029 6.3302 5.65126 0.958984 12.28 0.958984C18.9088 0.958984 24.28 6.3302 24.28 12.959C24.28 19.5877 18.9088 24.959 12.28 24.959ZM11.2045 11.8929L8.80078 16.4379L13.3461 14.0298L15.7541 9.48473L11.2045 11.8929ZM11.0949 11.7833L8.44477 16.7942L13.4557 14.1394L16.1106 9.12847L11.0949 11.7833ZM23.0036 12.959C23.0036 18.8802 18.2012 23.6825 12.28 23.6825C6.35884 23.6825 1.55647 18.8802 1.55647 12.959C1.55647 7.0378 6.35884 2.23543 12.28 2.23543C18.2012 2.23543 23.0036 7.0378 23.0036 12.959ZM0.428177 12.959C0.428177 19.5059 5.73306 24.8108 12.28 24.8108C18.827 24.8108 24.1319 19.5059 24.1319 12.959C24.1319 6.41202 18.827 1.10713 12.28 1.10713C5.73306 1.10713 0.428177 6.41202 0.428177 12.959Z" fill="#29B6A3"/>
</svg>
