<svg width="21" height="21" viewBox="0 0 21 21" fill="none" xmlns="http://www.w3.org/2000/svg">
<path d="M10.5 11.1251C7.85837 11.1251 5.70837 8.97508 5.70837 6.33341C5.70837 3.69175 7.85837 1.54175 10.5 1.54175C13.1417 1.54175 15.2917 3.69175 15.2917 6.33341C15.2917 8.97508 13.1417 11.1251 10.5 11.1251ZM10.5 2.79175C8.55004 2.79175 6.95837 4.38341 6.95837 6.33341C6.95837 8.28341 8.55004 9.87508 10.5 9.87508C12.45 9.87508 14.0417 8.28341 14.0417 6.33341C14.0417 4.38341 12.45 2.79175 10.5 2.79175Z" fill="#292D32"/>
<path d="M17.6585 19.4583C17.3168 19.4583 17.0335 19.175 17.0335 18.8333C17.0335 15.9583 14.1001 13.625 10.5001 13.625C6.90013 13.625 3.9668 15.9583 3.9668 18.8333C3.9668 19.175 3.68346 19.4583 3.3418 19.4583C3.00013 19.4583 2.7168 19.175 2.7168 18.8333C2.7168 15.275 6.20846 12.375 10.5001 12.375C14.7918 12.375 18.2835 15.275 18.2835 18.8333C18.2835 19.175 18.0001 19.4583 17.6585 19.4583Z" fill="#292D32"/>
</svg>
