<svg width="26" height="26" viewBox="0 0 26 26" fill="none" xmlns="http://www.w3.org/2000/svg">
<path d="M1.04443 12.959C1.04443 19.5735 6.4251 24.959 13.0444 24.959C19.6638 24.959 25.0444 19.5735 25.0444 12.959C25.0444 6.34447 19.6638 0.958984 13.0444 0.958984C6.4251 0.958984 1.04443 6.34447 1.04443 12.959ZM2.23673 12.959C2.23673 7.0011 7.08655 2.15128 13.0444 2.15128C19.0024 2.15128 23.8521 7.0011 23.8521 12.959C23.8521 18.9169 19.0024 23.7667 13.0444 23.7667C7.08655 23.7667 2.23673 18.9169 2.23673 12.959Z" fill="#29B6A3" stroke="#29B6A3" stroke-width="0.2"/>
<path d="M11.8733 11.3099H12.8487V19.9036C12.8487 20.21 13.08 20.4617 13.3778 20.4939L13.3859 20.5022H13.4472C13.7757 20.5022 14.041 20.2367 14.041 19.9084V10.7208C14.041 10.3925 13.7709 10.1223 13.4425 10.1223H11.8733C11.545 10.1223 11.2795 10.3878 11.2795 10.7161C11.2795 11.0444 11.545 11.3099 11.8733 11.3099Z" fill="#29B6A3" stroke="#29B6A3" stroke-width="0.2"/>
<path d="M11.9526 7.19873C11.9526 7.80204 12.4409 8.29029 13.0442 8.29029C13.6475 8.29029 14.1357 7.80204 14.1357 7.19873C14.1357 6.59543 13.6475 6.10718 13.0442 6.10718C12.4409 6.10718 11.9526 6.59543 11.9526 7.19873Z" fill="#29B6A3" stroke="#29B6A3" stroke-width="0.2"/>
</svg>
