<svg width="21" height="21" viewBox="0 0 21 21" fill="none" xmlns="http://www.w3.org/2000/svg">
<path d="M10.5 11.1251C7.85837 11.1251 5.70837 8.97508 5.70837 6.33341C5.70837 3.69175 7.85837 1.54175 10.5 1.54175C13.1417 1.54175 15.2917 3.69175 15.2917 6.33341C15.2917 8.97508 13.1417 11.1251 10.5 11.1251ZM10.5 2.79175C8.55004 2.79175 6.95837 4.38341 6.95837 6.33341C6.95837 8.28341 8.55004 9.87508 10.5 9.87508C12.45 9.87508 14.0417 8.28341 14.0417 6.33341C14.0417 4.38341 12.45 2.79175 10.5 2.79175Z" fill="#292D32"/>
<path d="M3.3418 19.4583C3.00013 19.4583 2.7168 19.175 2.7168 18.8333C2.7168 15.275 6.20846 12.375 10.5001 12.375C11.3418 12.375 12.1668 12.4834 12.9668 12.7084C13.3001 12.8 13.4918 13.1417 13.4001 13.475C13.3085 13.8083 12.9668 14 12.6335 13.9084C11.9501 13.7167 11.2335 13.625 10.5001 13.625C6.90013 13.625 3.9668 15.9583 3.9668 18.8333C3.9668 19.175 3.68346 19.4583 3.3418 19.4583Z" fill="#292D32"/>
<path d="M15.5 19.4584C14.5166 19.4584 13.5833 19.0918 12.8583 18.4334C12.5666 18.1834 12.3083 17.8751 12.1083 17.5334C11.7416 16.9334 11.5416 16.2251 11.5416 15.5001C11.5416 14.4584 11.9416 13.4834 12.6583 12.7418C13.4083 11.9668 14.4166 11.5417 15.5 11.5417C16.6333 11.5417 17.7083 12.0251 18.4416 12.8584C19.0916 13.5834 19.4583 14.5167 19.4583 15.5001C19.4583 15.8167 19.4166 16.1334 19.3333 16.4334C19.25 16.8084 19.0916 17.2001 18.8749 17.5418C18.1833 18.7251 16.8833 19.4584 15.5 19.4584ZM15.5 12.7917C14.7583 12.7917 14.075 13.0834 13.5583 13.6084C13.0666 14.1167 12.7916 14.7834 12.7916 15.5001C12.7916 15.9917 12.925 16.4751 13.1833 16.8917C13.3166 17.1251 13.4916 17.3334 13.6916 17.5084C14.1916 17.9667 14.8333 18.2168 15.5 18.2168C16.4416 18.2168 17.3333 17.7168 17.8166 16.9084C17.9583 16.6751 18.0666 16.4084 18.125 16.1501C18.1833 15.9334 18.2083 15.7251 18.2083 15.5084C18.2083 14.8418 17.9583 14.2001 17.5083 13.7001C17.0083 13.1168 16.275 12.7917 15.5 12.7917Z" fill="#292D32"/>
<path d="M16.7498 16.1084H14.2582C13.9165 16.1084 13.6332 15.8251 13.6332 15.4834C13.6332 15.1417 13.9165 14.8584 14.2582 14.8584H16.7498C17.0915 14.8584 17.3748 15.1417 17.3748 15.4834C17.3748 15.8251 17.0915 16.1084 16.7498 16.1084Z" fill="#292D32"/>
<path d="M15.5 17.3833C15.1583 17.3833 14.875 17.0999 14.875 16.7583V14.2666C14.875 13.9249 15.1583 13.6416 15.5 13.6416C15.8417 13.6416 16.125 13.9249 16.125 14.2666V16.7583C16.125 17.1083 15.8417 17.3833 15.5 17.3833Z" fill="#292D32"/>
</svg>
