<svg width="19" height="12" viewBox="0 0 19 12" fill="none" xmlns="http://www.w3.org/2000/svg">
<path d="M13.8898 0.467309C13.5956 0.175726 13.1207 0.177844 12.8291 0.472041C12.5375 0.766238 12.5397 1.24111 12.8339 1.53269L14.5968 3.28C15.3123 3.98914 15.8031 4.47718 16.1352 4.89071C16.2432 5.02509 16.3274 5.1434 16.3927 5.25L1.36182 5.25C0.947603 5.25 0.611816 5.58579 0.611816 6C0.611816 6.41422 0.947603 6.75 1.36182 6.75L16.3927 6.75C16.3274 6.8566 16.2431 6.97491 16.1352 7.10929C15.8031 7.52282 15.3123 8.01086 14.5968 8.72L12.8339 10.4673C12.5397 10.7589 12.5375 11.2338 12.8291 11.528C13.1207 11.8222 13.5956 11.8243 13.8898 11.5327L15.6845 9.7539C16.3605 9.08395 16.913 8.53641 17.3048 8.04854C17.7122 7.54121 18.0071 7.02628 18.0859 6.40816C18.1032 6.27265 18.1118 6.13632 18.1118 6C18.1118 5.86368 18.1032 5.72735 18.0859 5.59184C18.0071 4.97372 17.7122 4.45878 17.3048 3.95146C16.913 3.46358 16.3605 2.91604 15.6845 2.24609L13.8898 0.467309Z" fill="#112138"/>
</svg>
