<svg width="30" height="30" viewBox="0 0 30 30" fill="none" xmlns="http://www.w3.org/2000/svg">
<path d="M29.2649 26.7629H26.2487C25.9113 26.7629 25.6359 26.6883 25.3821 26.5284C24.4676 25.9513 23.7391 24.1029 23.3038 22.9985C23.255 22.8746 23.206 22.7508 23.1565 22.6271C22.4404 20.8359 21.5491 18.6068 19.7784 17.4561C18.9857 16.9394 18.0846 16.6775 17.1002 16.6775H15.9153V11.5739C16.3363 11.5728 16.7317 11.4055 17.0284 11.1029C17.3266 10.7999 17.4911 10.3955 17.4915 9.96434C17.4919 9.53237 17.3277 9.12664 17.0285 8.82153L13.7531 5.49302C13.5812 5.31829 13.303 5.31871 13.1317 5.49415C12.9604 5.66947 12.9608 5.95325 13.1328 6.12791L16.4076 9.45582C16.54 9.59093 16.6129 9.77121 16.6127 9.9635C16.6125 10.155 16.5398 10.3341 16.4076 10.4685C16.1338 10.7477 15.6884 10.7477 15.4146 10.4685L9.05648 3.986C8.88486 3.81098 8.60666 3.81098 8.4351 3.986L2.07697 10.4685C1.94467 10.6035 1.76818 10.6777 1.57992 10.6777C1.57969 10.6777 1.57945 10.6777 1.57922 10.6777C1.39149 10.6776 1.21588 10.6035 1.08346 10.4679C0.95168 10.3341 0.879083 10.155 0.878907 9.9635C0.878731 9.77121 0.951563 9.59093 1.08404 9.45582L8.24988 2.14783C8.38113 2.0135 8.5568 1.93941 8.74447 1.93923H8.74518C8.93344 1.93923 9.10998 2.0135 9.24229 2.14843L11.7802 4.7367C11.9517 4.91172 12.23 4.91172 12.4016 4.7367C12.5732 4.56168 12.5732 4.27797 12.4016 4.10294L9.86373 1.51467C9.56537 1.21046 9.16822 1.04297 8.74518 1.04297C8.74465 1.04297 8.74412 1.04297 8.74365 1.04297C8.3209 1.04339 7.9244 1.21106 7.62785 1.51467L0.462598 8.82207C0.163887 9.1267 -0.00040939 9.53231 7.66092e-07 9.96434C0.000410922 10.3955 0.164884 10.7998 0.461954 11.1017C0.758614 11.4054 1.15424 11.573 1.57623 11.5739V19.4682V29.1054H0.439454C0.196759 29.1054 7.66092e-07 29.3061 7.66092e-07 29.5536C7.66092e-07 29.8011 0.196759 30.0017 0.439454 30.0017H29.2832C29.6784 30.0017 30 29.6745 30 29.2724V27.5124C30 27.0992 29.6702 26.7629 29.2649 26.7629ZM3.51785 29.1055H2.45514V19.9164H3.51785V29.1055ZM6.53912 29.1055H4.39676V19.9164H6.10488H6.53912V29.1055ZM10.0736 29.1055H7.41803V27.6744H10.0736V29.1055ZM10.0736 26.7781H7.41803V25.0895H10.0736V26.7781ZM10.0736 24.1932H7.41803V22.503H10.0736V24.1932ZM10.0736 21.6067H7.41803V19.9164H10.0736V21.6067ZM10.9472 19.0201H6.54434V16.7987C6.54434 15.5608 7.53188 14.5536 8.74576 14.5536C9.95965 14.5536 10.9472 15.5608 10.9472 16.7987V19.0201ZM13.0931 29.1055H10.9525V19.9164H11.3866H13.0931V29.1055ZM11.8261 19.0201V16.7987C11.8261 15.0665 10.4443 13.6573 8.74576 13.6573C7.04725 13.6573 5.66543 15.0665 5.66543 16.7987V19.0201H3.95731H2.45514V11.3058C2.54174 11.247 2.62324 11.179 2.69842 11.1023L8.74576 4.93664L14.793 11.1023C14.8683 11.179 14.9498 11.247 15.0364 11.3058V19.0201H13.5326H11.8261ZM15.9153 29.1055V26.1388C15.9153 25.8913 15.7185 25.6906 15.4758 25.6906C15.2331 25.6906 15.0364 25.8913 15.0364 26.1388V29.1055H13.972V19.9164H15.0364V24.0706C15.0364 24.3181 15.2331 24.5187 15.4758 24.5187C15.7185 24.5187 15.9153 24.3181 15.9153 24.0706V19.9164H17.1002C17.4779 19.9164 17.786 20.0023 18.0698 20.1866C19.0002 20.7915 19.693 22.5355 20.1514 23.6895C20.2081 23.8321 20.2649 23.9747 20.3218 24.1173C21.0023 25.8274 21.8411 27.9346 23.4495 29.1055H15.9153ZM29.1211 29.1055H26.2487C25.4873 29.1055 24.7888 28.9086 24.173 28.5205C22.6365 27.55 21.8395 25.5472 21.1362 23.7802C21.0795 23.6378 21.0226 23.4954 20.966 23.353C20.4656 22.0932 19.7094 20.1895 18.5421 19.4307C18.1167 19.1544 17.645 19.02 17.1002 19.02H15.9153V17.5737H17.1002C17.9142 17.5737 18.6561 17.7882 19.3056 18.2116C20.8409 19.2093 21.6388 21.2048 22.3427 22.9654C22.3916 23.0877 22.4401 23.2101 22.4883 23.3326C22.9946 24.6172 23.7597 26.5585 24.9198 27.2907C25.3133 27.5386 25.748 27.6591 26.2487 27.6591H29.1211V29.1055Z" fill="white"/>
<path d="M20.1532 8.97449H26.5893C28.47 8.97449 30.0001 7.41477 30.0001 5.49767C30.0001 3.5796 28.47 2.01917 26.5893 2.01917C26.567 2.01917 26.5445 2.01941 26.5221 2.01989C25.8346 0.783503 24.5325 0 23.1246 0C20.9709 0 19.2188 1.78619 19.2188 3.98163C19.2188 4.0629 19.2212 4.1447 19.2262 4.22651C18.3311 4.60182 17.7339 5.49038 17.7339 6.50716C17.7339 7.86765 18.8192 8.97449 20.1532 8.97449ZM19.8012 4.97702C20.0255 4.92366 20.1713 4.70287 20.1355 4.4709C20.1104 4.30831 20.0976 4.14369 20.0976 3.98163C20.0976 2.28042 21.4555 0.89632 23.1245 0.89632C24.2947 0.89632 25.3706 1.59473 25.8655 2.67551C25.945 2.8491 26.124 2.95194 26.3107 2.9315C26.4093 2.92069 26.5003 2.91543 26.5892 2.91543C27.9853 2.91543 29.1212 4.07377 29.1212 5.49761C29.1212 6.92048 27.9853 8.07811 26.5892 8.07811H20.1532C19.3038 8.07811 18.6128 7.37342 18.6128 6.50716C18.6128 5.77284 19.1015 5.14362 19.8012 4.97702Z" fill="white"/>
<path d="M8.7467 8.33594C7.66916 8.33594 6.79248 9.22999 6.79248 10.3289C6.79248 11.4279 7.66916 12.3219 8.7467 12.3219C9.82424 12.3219 10.7009 11.4279 10.7009 10.3289C10.7009 9.22999 9.82424 8.33594 8.7467 8.33594ZM8.7467 11.4256C8.15379 11.4256 7.67139 10.9337 7.67139 10.3289C7.67139 9.72422 8.15379 9.23226 8.7467 9.23226C9.33961 9.23226 9.82201 9.72422 9.82201 10.3289C9.82201 10.9337 9.33961 11.4256 8.7467 11.4256Z" fill="white"/>
</svg>
