<svg width="30" height="30" viewBox="0 0 30 30" fill="none" xmlns="http://www.w3.org/2000/svg">
<path d="M1.875 20.5387C2.07906 20.5373 2.2829 20.5523 2.48456 20.5835C2.50081 20.5882 2.51725 20.5903 2.53381 20.5937C2.96489 20.6805 3.37515 20.8498 3.74206 21.0922C4.48374 21.5842 5.35804 21.8379 6.24788 21.8192C7.12854 21.8401 7.99456 21.5914 8.72988 21.1063C8.73813 21.102 8.74606 21.0977 8.75425 21.0928C9.30257 20.7162 9.95576 20.5223 10.6208 20.5387C11.2874 20.5237 11.942 20.7172 12.4933 21.0922C13.2326 21.5847 14.1052 21.8384 14.9933 21.8192C15.8831 21.8361 16.7571 21.5829 17.5 21.0928C18.0483 20.7163 18.7015 20.5223 19.3664 20.5387C20.0371 20.5243 20.6954 20.72 21.2494 21.0983C21.9893 21.5859 22.8598 21.8373 23.7457 21.8192C24.3427 21.8323 24.9359 21.7217 25.488 21.4942C25.751 21.378 26.0058 21.244 26.2505 21.0931C26.8048 20.7228 27.4585 20.5295 28.125 20.5387C28.2908 20.5387 28.4497 20.4728 28.5669 20.3556C28.6842 20.2384 28.75 20.0794 28.75 19.9137C28.75 19.7479 28.6842 19.5889 28.5669 19.4717C28.4497 19.3545 28.2908 19.2887 28.125 19.2887C27.882 19.2857 27.6392 19.3029 27.399 19.3399C26.7638 19.4346 26.1565 19.6651 25.6183 20.0155C25.4196 20.1386 25.2128 20.2483 24.9996 20.3439C24.6021 20.5061 24.175 20.5828 23.7459 20.5689C23.0733 20.5859 22.4127 20.389 21.859 20.0068C21.3346 19.6682 20.7454 19.4426 20.129 19.3443L14.979 11.8233L21.5781 8.52016C21.8684 8.37514 22.1233 8.16818 22.3248 7.91389C22.5264 7.65959 22.6696 7.36416 22.7445 7.04844C22.8194 6.73272 22.8241 6.40441 22.7582 6.08669C22.6923 5.76897 22.5575 5.46958 22.3633 5.20966C22.0518 4.80771 21.6136 4.52285 21.1199 4.4013C20.6261 4.27976 20.1057 4.32867 19.6432 4.54009L10.5255 8.85591C10.2086 9.00605 9.92623 9.22004 9.69596 9.48447C9.4657 9.74889 9.29256 10.058 9.1874 10.3925C9.08225 10.727 9.04734 11.0796 9.08487 11.4282C9.1224 11.7769 9.23156 12.114 9.4055 12.4184L10.6174 14.5735L2.53325 19.3318C2.31498 19.3034 2.09511 19.289 1.875 19.2887C1.70924 19.2887 1.55027 19.3545 1.43306 19.4717C1.31585 19.5889 1.25 19.7479 1.25 19.9137C1.25 20.0794 1.31585 20.2384 1.43306 20.3556C1.55027 20.4728 1.70924 20.5387 1.875 20.5387ZM11.2546 15.6485C11.5408 15.4795 11.7489 15.2045 11.8337 14.8831C11.9186 14.5617 11.8733 14.2198 11.7078 13.9316L10.4901 11.7972C10.4018 11.6423 10.3464 11.4708 10.3275 11.2935C10.3085 11.1162 10.3264 10.9369 10.38 10.7668C10.4336 10.5967 10.5217 10.4396 10.6388 10.3052C10.756 10.1707 10.8997 10.062 11.0608 9.98566L20.1767 5.67109C20.3409 5.59173 20.5243 5.56077 20.7055 5.58184C20.8866 5.60291 21.0581 5.67513 21.1997 5.79006C21.3413 5.90499 21.4473 6.05787 21.5052 6.23081C21.5631 6.40376 21.5705 6.58962 21.5267 6.76666C21.4949 6.90352 21.4329 7.03155 21.3452 7.14137C21.2576 7.2512 21.1465 7.34004 21.0201 7.40141L14.4238 10.7034C14.2618 10.7827 14.1187 10.8959 14.0043 11.0353C13.8899 11.1747 13.8068 11.3372 13.7607 11.5115C13.7143 11.6878 13.7063 11.8721 13.7374 12.0518C13.7684 12.2314 13.8378 12.4023 13.9408 12.5528L18.6106 19.3437C17.9881 19.4419 17.3936 19.6708 16.8661 20.0155C16.3161 20.3932 15.6606 20.587 14.9936 20.5692C14.3231 20.5852 13.6648 20.3884 13.1131 20.007C12.3741 19.5211 11.5051 19.2707 10.6208 19.2887C9.73794 19.2694 8.8703 19.5202 8.13387 20.0074C8.12438 20.0123 8.11462 20.0178 8.10519 20.0233C7.55941 20.3971 6.90912 20.5881 6.24788 20.569C5.58037 20.585 4.92472 20.3907 4.37375 20.0135C4.28625 19.9622 4.19531 19.91 4.10225 19.8581L11.2546 15.6485Z" fill="white"/>
<path d="M28.125 23.1337C27.2358 23.1156 26.3622 23.3687 25.6204 23.8595C25.0626 24.2216 24.4118 24.4143 23.7468 24.4143C23.0818 24.4143 22.431 24.2216 21.8732 23.8595C21.124 23.3854 20.2556 23.1337 19.3691 23.1337C18.4825 23.1337 17.6141 23.3854 16.8649 23.8595C16.3146 24.2362 15.6597 24.4303 14.993 24.4143C14.3269 24.4302 13.6728 24.2361 13.1232 23.8595C12.3826 23.3687 11.5099 23.1155 10.6216 23.1337C9.73295 23.1155 8.85984 23.3687 8.11875 23.8595C7.56876 24.2362 6.91419 24.4303 6.24775 24.4143C5.5814 24.4302 4.92691 24.2361 4.377 23.8595C3.63619 23.3688 2.76339 23.1156 1.875 23.1337C1.70924 23.1337 1.55027 23.1996 1.43306 23.3168C1.31585 23.434 1.25 23.593 1.25 23.7587C1.25 23.9245 1.31585 24.0835 1.43306 24.2007C1.55027 24.3179 1.70924 24.3837 1.875 24.3837C2.54128 24.3679 3.19566 24.5621 3.74544 24.9389C4.48638 25.4296 5.35934 25.6828 6.24788 25.6646C7.13651 25.6828 8.00957 25.4296 8.75063 24.9389C9.30061 24.5622 9.95519 24.368 10.6216 24.384C11.2877 24.3681 11.9419 24.5622 12.4914 24.9389C13.232 25.4296 14.1047 25.6828 14.993 25.6646C15.8819 25.6828 16.7553 25.4296 17.4966 24.9389C18.0541 24.5768 18.7046 24.384 19.3693 24.384C20.0341 24.384 20.6846 24.5768 21.2421 24.9389C21.9915 25.4129 22.86 25.6646 23.7468 25.6646C24.6335 25.6646 25.5021 25.4129 26.2515 24.9389C26.8024 24.5621 27.4578 24.3679 28.125 24.3837C28.2908 24.3837 28.4497 24.3179 28.5669 24.2007C28.6842 24.0835 28.75 23.9245 28.75 23.7587C28.75 23.593 28.6842 23.434 28.5669 23.3168C28.4497 23.1996 28.2908 23.1337 28.125 23.1337Z" fill="white"/>
<path d="M19.1797 14.1541C19.1797 15.0375 19.4417 15.901 19.9325 16.6355C20.4233 17.37 21.1209 17.9424 21.9371 18.2805C22.7532 18.6185 23.6513 18.7069 24.5177 18.5345C25.3841 18.3621 26.1799 17.9367 26.8045 17.3121C27.4291 16.6874 27.8545 15.8915 28.0268 15.0251C28.1991 14.1587 28.1106 13.2607 27.7725 12.4445C27.4344 11.6284 26.8619 10.9309 26.1274 10.4401C25.3929 9.94938 24.5293 9.68746 23.6459 9.6875C22.4617 9.68876 21.3264 10.1598 20.4891 10.9972C19.6518 11.8345 19.1808 12.9699 19.1797 14.1541ZM23.6459 10.9375C24.282 10.9375 24.9039 11.1261 25.4328 11.4795C25.9617 11.8329 26.3739 12.3352 26.6173 12.9229C26.8608 13.5105 26.9245 14.1572 26.8004 14.7811C26.6763 15.405 26.3701 15.9781 25.9203 16.4279C25.4705 16.8777 24.8975 17.184 24.2736 17.3082C23.6497 17.4323 23.003 17.3686 22.4153 17.1253C21.8277 16.8819 21.3253 16.4697 20.9719 15.9408C20.6184 15.412 20.4298 14.7902 20.4297 14.1541C20.4306 13.3013 20.7698 12.4838 21.3727 11.8808C21.9757 11.2778 22.7932 10.9385 23.6459 10.9375Z" fill="white"/>
</svg>
