<svg width="31" height="30" viewBox="0 0 31 30" fill="none" xmlns="http://www.w3.org/2000/svg">
<path d="M19.3007 30C18.7081 29.9992 18.1399 29.7635 17.7209 29.3444C17.3019 28.9254 17.0662 28.3572 17.0656 27.7646V22.0566C17.0655 22.0164 17.0572 21.9766 17.0412 21.9398C17.0251 21.9029 17.0017 21.8697 16.9723 21.8423L15.2711 20.2588L14.214 22.5039C14.177 22.5824 14.1322 22.6569 14.0804 22.7265L10.1097 28.039C9.94494 28.3018 9.72764 28.5277 9.47146 28.7025C9.21528 28.8774 8.92574 28.9974 8.62099 29.0552C8.18289 29.1402 7.72946 29.0949 7.31684 28.9249C6.90423 28.7548 6.55055 28.4675 6.29961 28.0984C6.04866 27.7294 5.91147 27.2948 5.90502 26.8486C5.89858 26.4023 6.02315 25.964 6.26333 25.5879L9.92834 20.355C9.9471 20.3283 9.96114 20.2985 9.96984 20.2671L12.3734 11.7729C12.3875 11.725 12.3888 11.6742 12.3773 11.6256C12.3658 11.5769 12.3418 11.5321 12.3077 11.4956C12.2913 11.4779 12.273 11.4622 12.2531 11.4487L10.5184 15.3384C10.4157 15.5761 10.2672 15.7912 10.0812 15.9714C9.89521 16.1516 9.67552 16.2933 9.43468 16.3884C9.19385 16.4835 8.93661 16.5302 8.6777 16.5258C8.4188 16.5213 8.16331 16.4658 7.92589 16.3625C7.68847 16.2591 7.47378 16.1099 7.29411 15.9234C7.11445 15.737 6.97334 15.5169 6.87888 15.2758C6.78442 15.0347 6.73847 14.7773 6.74364 14.5184C6.74882 14.2595 6.80503 14.0042 6.90906 13.7671L9.20203 8.66159C9.3897 8.2935 9.68355 7.99021 10.0455 7.79099C10.0661 7.78011 10.0873 7.77049 10.109 7.76218L14.8505 5.97556C15.1675 5.855 15.5193 5.86466 15.8292 6.00241L18.7641 7.30271C19.0291 7.42042 19.247 7.62364 19.383 7.87986L20.2147 9.45114C20.2428 9.50333 20.2857 9.546 20.338 9.5737L24.8798 11.9634C25.1187 12.0879 25.3306 12.2584 25.5036 12.465C25.6765 12.6715 25.807 12.9102 25.8877 13.1672C25.9683 13.4243 25.9975 13.6947 25.9735 13.9631C25.9496 14.2314 25.873 14.4924 25.7481 14.7311C25.6231 14.9698 25.4524 15.1815 25.2456 15.3542C25.0388 15.5269 24.8 15.6571 24.5428 15.7374C24.2857 15.8177 24.0152 15.8465 23.7469 15.8222C23.4786 15.7979 23.2177 15.7209 22.9791 15.5957C22.9767 15.5942 20.1706 14.1006 18.7113 13.3208C18.673 13.3004 18.6305 13.2888 18.5871 13.2868C18.5437 13.2849 18.5005 13.2926 18.4604 13.3095C18.4204 13.3264 18.3846 13.352 18.3557 13.3844C18.3268 13.4169 18.3055 13.4553 18.2934 13.497L17.7306 15.4189C17.7181 15.4619 17.7156 15.5072 17.7233 15.5513C17.731 15.5954 17.7487 15.6371 17.775 15.6733L21.243 20.4233C21.4339 20.6837 21.5365 20.9984 21.536 21.3213V27.7646C21.5353 28.3573 21.2996 28.9254 20.8805 29.3445C20.4615 29.7636 19.8933 29.9993 19.3007 30ZM15.1105 18.9262C15.2369 18.9261 15.3586 18.974 15.4511 19.06L17.6537 21.1103C17.7834 21.2315 17.8869 21.378 17.9578 21.5408C18.0286 21.7035 18.0653 21.8791 18.0656 22.0566V27.7646C18.0656 27.9268 18.0975 28.0875 18.1596 28.2373C18.2217 28.3872 18.3127 28.5234 18.4274 28.6381C18.5421 28.7528 18.6782 28.8437 18.8281 28.9058C18.978 28.9679 19.1386 28.9998 19.3008 28.9998C19.463 28.9998 19.6236 28.9679 19.7735 28.9058C19.9234 28.8437 20.0595 28.7528 20.1742 28.6381C20.2889 28.5234 20.3799 28.3872 20.442 28.2373C20.5041 28.0875 20.536 27.9268 20.536 27.7646V21.3213C20.5361 21.2103 20.5008 21.1022 20.4352 21.0127L16.9674 16.2632C16.8512 16.1029 16.7731 15.9182 16.739 15.7231C16.705 15.5281 16.716 15.3278 16.7711 15.1377L17.3339 13.2158C17.3878 13.0314 17.4821 12.8613 17.6101 12.718C17.738 12.5747 17.8963 12.4617 18.0734 12.3873C18.2505 12.3129 18.442 12.2789 18.6339 12.2878C18.8258 12.2968 19.0133 12.3484 19.1828 12.4389C20.6413 13.2187 23.4464 14.7114 23.4464 14.7114C23.5736 14.7777 23.713 14.8172 23.8561 14.8275C23.9991 14.8378 24.1427 14.8187 24.2781 14.7714C24.4135 14.724 24.5377 14.6494 24.6431 14.5522C24.7485 14.455 24.8329 14.3371 24.891 14.206C24.9987 13.9619 25.0096 13.686 24.9216 13.4342C24.8335 13.1823 24.653 12.9734 24.4166 12.8496L24.4147 12.8486L19.8715 10.458C19.6412 10.337 19.4529 10.1493 19.3312 9.9194L18.4991 8.34763C18.4686 8.28968 18.4194 8.24374 18.3595 8.21726L15.4247 6.91697C15.3547 6.88604 15.2753 6.88393 15.2037 6.91112L10.4974 8.68406C10.3288 8.78287 10.1913 8.927 10.1005 9.10006L7.82312 14.1728C7.77269 14.2897 7.74579 14.4153 7.74396 14.5426C7.74213 14.6698 7.76539 14.7962 7.81243 14.9144C7.85947 15.0327 7.92936 15.1405 8.0181 15.2317C8.10684 15.3229 8.21269 15.3958 8.32959 15.446C8.4465 15.4963 8.57217 15.5231 8.69942 15.5247C8.82667 15.5264 8.95301 15.503 9.0712 15.4558C9.18939 15.4086 9.29712 15.3386 9.38823 15.2497C9.47934 15.1609 9.55204 15.0549 9.60217 14.938L11.4864 10.7109C11.5194 10.6372 11.5697 10.5725 11.633 10.5224C11.6963 10.4724 11.7709 10.4383 11.8502 10.4233C12.0667 10.3822 12.2901 10.3971 12.4993 10.4665C12.7084 10.536 12.8963 10.6578 13.0451 10.8203C13.1939 10.9828 13.2988 11.1807 13.3497 11.3951C13.4005 11.6095 13.3958 11.8333 13.3358 12.0454L10.9323 20.5395C10.893 20.6785 10.8306 20.8099 10.7477 20.9282L7.09412 26.144C6.92684 26.4167 6.86744 26.7419 6.92755 27.0561C6.98767 27.3703 7.16296 27.6506 7.41907 27.8423C7.56222 27.9492 7.72615 28.025 7.90034 28.0649C8.07453 28.1047 8.25513 28.1077 8.43055 28.0737C8.60596 28.0396 8.77231 27.9692 8.91892 27.8671C9.06552 27.7649 9.18915 27.6332 9.28186 27.4804L13.2789 22.1289C13.2906 22.1132 13.3007 22.0963 13.3089 22.0786L14.6581 19.2134C14.6915 19.1421 14.7414 19.0798 14.8035 19.0315C14.8657 18.9832 14.9384 18.9503 15.0157 18.9355C15.0469 18.9293 15.0787 18.9262 15.1105 18.9262ZM18.4442 6.082C17.8428 6.082 17.2548 5.90365 16.7547 5.5695C16.2547 5.23535 15.8649 4.76041 15.6347 4.20474C15.4045 3.64907 15.3443 3.03763 15.4617 2.44773C15.579 1.85784 15.8686 1.31598 16.2939 0.89069C16.7192 0.465398 17.2611 0.175771 17.851 0.0584333C18.4409 -0.0589043 19.0523 0.00131762 19.608 0.231484C20.1636 0.46165 20.6386 0.851423 20.9727 1.35151C21.3069 1.8516 21.4852 2.43955 21.4852 3.041C21.4843 3.84724 21.1636 4.62019 20.5935 5.19029C20.0234 5.76038 19.2505 6.08107 18.4442 6.082ZM18.4442 0.999972C18.0405 0.999972 17.6459 1.11967 17.3103 1.34394C16.9747 1.56821 16.7131 1.88697 16.5586 2.25991C16.4041 2.63286 16.3637 3.04324 16.4424 3.43915C16.5212 3.83507 16.7156 4.19874 17.001 4.48418C17.2864 4.76962 17.6501 4.964 18.046 5.04275C18.4419 5.12151 18.8523 5.08109 19.2253 4.92661C19.5982 4.77213 19.917 4.51053 20.1412 4.17489C20.3655 3.83925 20.4852 3.44464 20.4852 3.04097C20.4846 2.49985 20.2694 1.98105 19.8868 1.59842C19.5041 1.21579 18.9853 1.00056 18.4442 0.999972Z" fill="white"/>
</svg>
