<svg width="96" height="95" viewBox="0 0 96 95" fill="none" xmlns="http://www.w3.org/2000/svg">
<path fill-rule="evenodd" clip-rule="evenodd" d="M79.5898 30.8235H38.6371C37.5359 30.8235 36.64 31.7202 36.64 32.8224V58.1495H4.23185V23.7137C4.23185 22.6115 3.33595 21.7148 2.23477 21.7148C1.1336 21.7148 0.237701 22.6115 0.237701 23.7137V71.5342C0.237701 72.6363 1.1336 73.533 2.23477 73.533C3.33595 73.533 4.23185 72.6363 4.23185 71.5342V62.1472H91.2436V71.5342C91.2436 72.6363 92.1395 73.533 93.2406 73.533C94.3418 73.533 95.2377 72.6363 95.2377 71.5342V46.4853C95.2377 37.8493 88.2181 30.8235 79.5898 30.8235ZM40.6342 58.1495V34.8212H79.5898C86.0158 34.8212 91.2436 40.0536 91.2436 46.4853V58.1495H40.6342Z" fill="white"/>
<path fill-rule="evenodd" clip-rule="evenodd" d="M20.4361 53.0363C26.5558 53.0363 31.5338 48.0539 31.5338 41.9288C31.5338 35.8037 26.5558 30.8213 20.4361 30.8213C14.3165 30.8213 9.33847 35.8037 9.33847 41.9288C9.33847 48.0539 14.3175 53.0363 20.4361 53.0363ZM20.4361 34.819C24.3534 34.819 27.5396 38.008 27.5396 41.9288C27.5396 45.8496 24.3534 49.0386 20.4361 49.0386C16.5188 49.0386 13.3326 45.8496 13.3326 41.9288C13.3326 38.008 16.5198 34.819 20.4361 34.819Z" fill="white"/>
</svg>
