<svg width="1280" height="450" viewBox="0 0 1280 450" fill="none" xmlns="http://www.w3.org/2000/svg">
<rect width="1280" height="450" rx="15" fill="#1E926E"/>
<path fill-rule="evenodd" clip-rule="evenodd" d="M1.02231 335.113C1.02231 211.316 -14.1308 264.157 72.2421 309.448C158.615 354.74 255.595 171.057 426.826 252.079C598.056 333.101 711.705 360.779 854.144 360.779C995.069 360.779 1132.96 300.39 1208.73 226.414C1284.49 152.437 1279.95 37.6983 1279.95 182.632C1279.95 297.464 1279.95 398.08 1279.95 434.921C1279.95 443.205 1273.23 449.852 1264.95 449.852H1208.73C1137.51 449.852 995.069 449.852 854.144 449.852C711.705 449.852 569.265 449.852 426.826 449.852C285.901 449.852 143.462 449.852 72.2421 449.852H16.0223C7.73803 449.852 1.02231 443.478 1.02231 435.193C1.02231 420.582 1.02231 391.752 1.02231 335.113Z" fill="#1A8664"/>
</svg>
