<svg width="95" height="95" viewBox="0 0 95 95" fill="none" xmlns="http://www.w3.org/2000/svg">
<path d="M47.1279 1C24.9968 1 7 18.8096 7 40.7099C7 59.6866 20.5382 75.9755 39.2605 79.6488L46.154 93.421C46.338 93.7853 46.7167 94.0208 47.1279 94.0208C47.5391 94.0208 47.9072 93.7853 48.0911 93.421L54.9847 79.6488C73.7176 75.9755 87.2452 59.6866 87.2452 40.7099C87.2452 18.8096 69.2481 1 47.1279 1ZM54.0541 77.6354C53.7187 77.6997 53.4373 77.9138 53.2858 78.2137L47.1281 90.5293L40.9596 78.2137C40.8081 77.9138 40.5267 77.6997 40.1913 77.6354C22.2159 74.369 9.16461 58.83 9.16461 40.7099C9.16461 19.9982 26.1876 3.14184 47.1281 3.14184C68.0578 3.14184 85.0808 19.9982 85.0808 40.7099C85.0808 58.8302 72.0401 74.3692 54.0541 77.6354Z" fill="white" stroke="white" stroke-width="1.37044"/>
<path d="M47.1148 11.3447C30.7519 11.3447 17.4409 24.517 17.4409 40.7095C17.4409 56.8912 30.7519 70.0635 47.1148 70.0635C63.4668 70.0635 76.7778 56.891 76.7778 40.7095C76.778 24.517 63.4668 11.3447 47.1148 11.3447ZM47.1148 67.9217C31.9424 67.9217 19.6053 55.7131 19.6053 40.7095C19.6053 25.6951 31.9424 13.4866 47.1148 13.4866C62.2763 13.4866 74.6134 25.6949 74.6134 40.7095C74.6136 55.7131 62.2765 67.9217 47.1148 67.9217Z" fill="white" stroke="white" stroke-width="1.37044"/>
<path d="M59.9065 31.6053H55.8807L54.0301 28.1033C53.5972 27.2679 52.7316 26.7539 51.7899 26.7539H42.4831C41.5309 26.7539 40.6758 27.2679 40.2322 28.1033L38.3816 31.6053H34.3558C32.6459 31.6053 31.25 32.9869 31.25 34.6788V51.578C31.25 53.2701 32.6461 54.6514 34.3558 54.6514H59.9065C61.6164 54.6514 63.0125 53.2699 63.0125 51.578V34.6788C63.0125 32.9869 61.6164 31.6053 59.9065 31.6053ZM60.8481 51.5782C60.8481 52.0922 60.4261 52.5098 59.9065 52.5098H34.3558C33.8364 52.5098 33.4144 52.0922 33.4144 51.5782V34.679C33.4144 34.165 33.8364 33.7474 34.3558 33.7474H59.9065C60.4259 33.7474 60.8481 34.165 60.8481 34.679V51.5782Z" fill="white" stroke="white" stroke-width="1.37044"/>
<path d="M54.1444 43.1406C54.1444 46.9639 50.9953 50.0909 47.1102 50.0909C43.2359 50.0909 40.0868 46.9639 40.0868 43.1406C40.0868 39.296 43.2361 36.1797 47.1102 36.1797C50.9951 36.1795 54.1444 39.296 54.1444 43.1406Z" fill="white" stroke="white" stroke-width="1.37044"/>
<path d="M57.1357 35.4766H55.2228C54.6252 35.4766 54.1405 35.9556 54.1405 36.5476C54.1405 37.1396 54.625 37.6186 55.2228 37.6186H57.1357C57.7332 37.6186 58.218 37.1396 58.218 36.5476C58.218 35.9556 57.7335 35.4766 57.1357 35.4766Z" fill="white" stroke="white" stroke-width="1.37044"/>
</svg>
