<svg width="96" height="95" viewBox="0 0 96 95" fill="none" xmlns="http://www.w3.org/2000/svg">
<g clip-path="url(#clip0_2589_16157)">
<path d="M47.5311 17.8223C30.7518 17.8223 17.1014 31.4726 17.1014 48.252C17.1014 65.0313 30.7518 78.6816 47.5311 78.6816C64.3105 78.6816 77.9608 65.0313 77.9608 48.252C77.9608 31.4726 64.3105 17.8223 47.5311 17.8223ZM47.5311 75.7129C32.389 75.7129 20.0702 63.3941 20.0702 48.252C20.0702 33.1098 32.389 20.791 47.5311 20.791C62.6732 20.791 74.9921 33.1098 74.9921 48.252C74.9921 63.3941 62.6732 75.7129 47.5311 75.7129Z" fill="white"/>
<path d="M66.6558 54.4592C65.8987 54.1519 65.0304 54.5141 64.7201 55.2711C61.8553 62.2759 55.1118 66.8017 47.54 66.8017C39.9682 66.8017 33.2247 62.2759 30.3598 55.2711C30.0496 54.5126 29.1812 54.1519 28.4242 54.4592C27.6657 54.7694 27.302 55.6363 27.6123 56.3948C30.9358 64.5202 38.7584 69.7705 47.5415 69.7705C56.3245 69.7705 64.1472 64.5202 67.4707 56.3948C67.7809 55.6363 67.4173 54.7694 66.6587 54.4592H66.6558Z" fill="white"/>
<path d="M47.5415 26.7285C38.7584 26.7285 30.9358 31.9787 27.6123 40.1042C27.302 40.8627 27.6657 41.7296 28.4242 42.0398C29.1812 42.3486 30.0496 41.9864 30.3598 41.2279C33.2247 34.2231 39.9682 29.6973 47.54 29.6973C55.1118 29.6973 61.8553 34.2231 64.7201 41.2279C64.9562 41.8023 65.5781 42.4599 66.6558 42.0398C67.4143 41.7296 67.778 40.8627 67.4677 40.1042C64.1442 31.9787 56.3215 26.7285 47.5385 26.7285H47.5415Z" fill="white"/>
<path d="M12.4489 11.8977C5.79744 12.8403 0.781738 18.6219 0.781738 25.3461V51.7235C0.781738 53.4097 1.32205 55.0722 2.29729 56.3948C3.06174 57.4487 4.04291 58.2859 5.17252 58.8574C5.17252 58.8574 3.98799 78.0118 3.98799 78.0563C3.98799 80.8558 6.26502 83.1329 9.06455 83.1329C11.4069 83.1329 14.1411 81.4139 14.1411 76.5719V13.3672C14.1411 12.9368 13.9556 12.5286 13.6305 12.2465C13.3054 11.9645 12.8705 11.8368 12.4489 11.8977ZM4.69307 54.6432C4.08447 53.8179 3.75049 52.7818 3.75049 51.7235V25.3461C3.75049 20.6793 6.84096 16.5943 11.1724 15.2227V56.4141H7.00869C6.09135 56.0682 5.29275 55.4671 4.69307 54.6432ZM9.06455 80.1641C7.90229 80.1641 6.95674 79.2186 6.95822 78.0682C6.95822 78.0548 8.11455 59.3829 8.11455 59.3829H11.1724V76.5719C11.1724 77.6525 10.9675 80.1641 9.06455 80.1641Z" fill="white"/>
<path d="M94.2924 11.8828H77.9642C77.1449 11.8828 76.4799 12.5478 76.4799 13.3672V30.4375C76.4799 32.2306 77.1805 33.908 78.4348 35.1459C79.3284 36.0529 80.4387 36.6689 81.6529 36.9465L80.9909 77.9954C80.9909 80.8276 83.2946 83.1313 86.1268 83.1313C87.5088 83.1313 88.8076 82.5866 89.7813 81.5995C90.7566 80.6094 91.2835 79.3002 91.2627 77.9123L90.6022 36.945C93.562 36.2607 95.7753 33.6022 95.7753 30.436V13.3672C95.7753 12.5478 95.1117 11.8828 94.2924 11.8828ZM92.808 30.4375C92.808 32.483 91.1425 34.1484 89.097 34.1484C88.6992 34.1484 88.3177 34.3073 88.0387 34.5923C87.7596 34.8758 87.6052 35.2588 87.6127 35.6566L88.2955 77.9598C88.3044 78.5446 88.0802 79.0983 87.6676 79.5169C87.2564 79.9355 86.7087 80.1656 86.1283 80.1656C84.9334 80.1656 83.9611 79.1933 83.9611 77.9627L84.6439 35.658C84.6499 35.2602 84.497 34.8773 84.2179 34.5938C83.9388 34.3102 83.5574 34.1499 83.1595 34.1499C82.168 34.1499 81.2402 33.764 80.5352 33.0485C79.8345 32.3583 79.4486 31.432 79.4486 30.439V14.8516H81.9275V26.7266C81.9275 27.5459 82.5925 28.2109 83.4119 28.2109C84.2313 28.2109 84.8963 27.5459 84.8963 26.7266V14.8516H87.3603V26.7266C87.3603 27.5459 88.0253 28.2109 88.8447 28.2109C89.6641 28.2109 90.3291 27.5459 90.3291 26.7266V14.8516H92.808V30.4375Z" fill="white"/>
<path d="M67.5719 47.5088C68.3917 47.5088 69.0563 46.8442 69.0563 46.0244C69.0563 45.2046 68.3917 44.54 67.5719 44.54C66.7521 44.54 66.0875 45.2046 66.0875 46.0244C66.0875 46.8442 66.7521 47.5088 67.5719 47.5088Z" fill="white"/>
</g>
<defs>
<clipPath id="clip0_2589_16157">
<rect width="95" height="95" fill="white" transform="translate(0.779785 0.00878906)"/>
</clipPath>
</defs>
</svg>
