<svg width="99" height="99" viewBox="0 0 99 99" fill="none" xmlns="http://www.w3.org/2000/svg">
<path d="M89.6351 58.9491L89.6351 58.9491L89.6336 58.9476C88.9799 58.2939 87.9273 58.3017 87.2758 58.953L87.2758 58.9531C86.6219 59.607 86.63 60.6703 87.2812 61.3219L87.2813 61.3219C87.6075 61.6481 88.0357 61.8112 88.4628 61.8112C88.89 61.8112 89.3182 61.6481 89.6444 61.3219L89.6444 61.3219C90.2967 60.6693 90.297 59.612 89.6452 58.9593L89.6351 58.9491Z" fill="white" stroke="white" stroke-width="0.5"/>
<path d="M78.3488 61.3268C78.6746 61.6501 79.1006 61.8114 79.5255 61.8114C79.9552 61.8114 80.3854 61.6465 80.7122 61.3171L80.7122 61.3171C81.3622 60.6617 81.3574 59.6036 80.7022 58.9539L80.7022 58.9539L80.7014 58.9531L80.6911 58.943C80.6909 58.9428 80.6908 58.9427 80.6906 58.9425C80.0341 58.2916 78.9816 58.3041 78.3334 58.9582L78.5109 59.1343L78.3333 58.9583C77.6823 59.6148 77.6947 60.6783 78.3488 61.3268ZM78.3488 61.3268L78.5249 61.1493L78.3489 61.3269C78.3489 61.3269 78.3489 61.3268 78.3488 61.3268Z" fill="white" stroke="white" stroke-width="0.5"/>
<path d="M71.7601 58.9491L71.7601 58.9491L71.7586 58.9476C71.1049 58.2939 70.0523 58.3017 69.4008 58.953L69.4008 58.9531C68.7469 59.607 68.755 60.6703 69.4062 61.3219L69.4063 61.3219C69.7325 61.6481 70.1607 61.8112 70.5878 61.8112C71.015 61.8112 71.4432 61.6481 71.7694 61.3219L71.7694 61.3219C72.4217 60.6693 72.422 59.612 71.7702 58.9593L71.7601 58.9491Z" fill="white" stroke="white" stroke-width="0.5"/>
<path d="M62.8305 58.9491L62.8305 58.9491L62.8289 58.9476C62.1752 58.2939 61.1226 58.3017 60.4711 58.953L60.4711 58.9531C59.8172 59.6069 59.8253 60.6703 60.4766 61.3219L60.4766 61.3219C60.8028 61.6481 61.231 61.8112 61.6582 61.8112C62.0853 61.8112 62.5135 61.6481 62.8397 61.3219L62.8397 61.3219C63.492 60.6694 63.4923 59.6121 62.8405 58.9594L62.8305 58.9491Z" fill="white" stroke="white" stroke-width="0.5"/>
<path d="M53.8929 58.9491L53.8929 58.9491L53.8914 58.9476C53.2377 58.2939 52.1851 58.3017 51.5336 58.953L51.5336 58.9531C50.8797 59.6069 50.8878 60.6703 51.5391 61.3219L51.5391 61.3219C51.8653 61.6481 52.2935 61.8112 52.7207 61.8112C53.1478 61.8112 53.576 61.6481 53.9022 61.3219L53.9022 61.3219C54.5545 60.6693 54.5548 59.612 53.903 58.9593L53.8929 58.9491Z" fill="white" stroke="white" stroke-width="0.5"/>
<path d="M44.9554 58.9491L44.9554 58.9491L44.9539 58.9476C44.3002 58.2939 43.2476 58.3017 42.5961 58.953L42.5961 58.9531C41.9422 59.6069 41.9503 60.6703 42.6016 61.3219L42.6016 61.3219C42.9278 61.6481 43.356 61.8112 43.7832 61.8112C44.2103 61.8112 44.6385 61.6481 44.9647 61.3219L44.9647 61.3219C45.617 60.6694 45.6173 59.6121 44.9655 58.9594L44.9554 58.9491Z" fill="white" stroke="white" stroke-width="0.5"/>
<path d="M83.055 51.944L83.0549 51.944L82.8024 54.1229L82.5944 54.2616L82.5946 54.2619L82.6054 54.2781L82.6056 54.2783C82.9279 54.7604 83.4574 55.0209 83.9961 55.0209C84.3156 55.0209 84.6386 54.9294 84.9236 54.7389L84.9237 54.7388C85.6907 54.2258 85.8972 53.1882 85.384 52.4209L85.384 52.4209L85.3831 52.4196L85.3723 52.4038C84.8593 51.6372 83.8219 51.4314 83.055 51.944Z" fill="white" stroke="white" stroke-width="0.5"/>
<path d="M76.2276 52.1514L76.2276 52.1514C75.575 51.499 74.5169 51.499 73.8645 52.1514L73.8644 52.1515C73.2119 52.8042 73.2118 53.8621 73.8645 54.5147L73.8645 54.5148L73.8809 54.5312C73.8809 54.5312 73.881 54.5312 73.881 54.5313C74.2072 54.8574 74.6354 55.0205 75.0625 55.0205C75.4897 55.0205 75.9179 54.8574 76.2441 54.5312L76.2441 54.5312C76.8966 53.8784 76.8967 52.8205 76.2441 52.1679L76.2276 52.1514Z" fill="white" stroke="white" stroke-width="0.5"/>
<path d="M67.2835 52.1425L67.2835 52.1424L67.282 52.1409C66.6281 51.487 65.5755 51.4953 64.9242 52.1464L64.9242 52.1464C64.2703 52.8003 64.2784 53.8637 64.9297 54.5152L64.9297 54.5153C65.2559 54.8414 65.6841 55.0046 66.1113 55.0046C66.5384 55.0046 66.9666 54.8414 67.2928 54.5153L67.2929 54.5152C67.9452 53.8627 67.9455 52.8054 67.2936 52.1527L67.2835 52.1425Z" fill="white" stroke="white" stroke-width="0.5"/>
<path d="M58.3461 52.1425L58.3461 52.1424L58.3446 52.141C57.6909 51.487 56.6383 51.4954 55.9868 52.1464C55.3327 52.8001 55.341 53.8638 55.9923 54.5152L55.9923 54.5153C56.3185 54.8414 56.7467 55.0046 57.1738 55.0046C57.601 55.0046 58.0292 54.8414 58.3554 54.5153L58.3554 54.5152C59.0077 53.8627 59.008 52.8054 58.3562 52.1527L58.3461 52.1425Z" fill="white" stroke="white" stroke-width="0.5"/>
<path d="M46.8175 54.2295L46.8175 54.2295C46.3076 53.4602 46.5176 52.4233 47.2869 51.9134L46.8175 54.2295ZM46.8175 54.2295L46.8179 54.23M46.8175 54.2295L46.8179 54.23M46.8179 54.23L46.8285 54.2459C46.8286 54.246 46.8286 54.2461 46.8287 54.2462C47.1504 54.7315 47.6819 54.9939 48.2226 54.9939C48.5398 54.9939 48.8608 54.9037 49.1447 54.7153C49.914 54.2055 50.124 53.1686 49.6141 52.3993L49.6137 52.3988M46.8179 54.23L49.6137 52.3988M49.6137 52.3988L49.6031 52.3828C49.603 52.3827 49.603 52.3827 49.6029 52.3826M49.6137 52.3988L49.6029 52.3826M49.6029 52.3826C49.0932 51.6138 48.0564 51.403 47.287 51.9133L49.6029 52.3826Z" fill="white" stroke="white" stroke-width="0.5"/>
<path d="M71.954 47.4948L71.9541 47.4946L71.9649 47.4785C72.4818 46.7139 72.2811 45.6752 71.5167 45.1582C70.7521 44.6408 69.7132 44.8419 69.1963 45.6065L69.1961 45.6067L69.1853 45.6228C69.1853 45.6228 69.1852 45.6229 69.1852 45.6229C68.6684 46.3875 68.8692 47.4262 69.6336 47.9431C69.9202 48.1369 70.2459 48.23 70.5683 48.23C71.1036 48.23 71.6309 47.9727 71.954 47.4948Z" fill="white" stroke="white" stroke-width="0.5"/>
<path d="M60.7015 47.9465L60.7016 47.9466C60.9871 48.1377 61.3107 48.2297 61.6308 48.2297C62.1686 48.2297 62.6977 47.9701 63.0201 47.489L63.0307 47.4733L63.031 47.4728C63.5451 46.7063 63.3403 45.668 62.5736 45.1542L62.5735 45.1542C61.807 44.6407 60.7689 44.8448 60.255 45.6117L60.2445 45.6274L60.2445 45.6274L60.2441 45.6279C59.7303 46.3944 59.935 47.4325 60.7015 47.9465Z" fill="white" stroke="white" stroke-width="0.5"/>
<mask id="path-14-outside-1_1910_2745" maskUnits="userSpaceOnUse" x="-0.0078125" y="0.296875" width="99" height="99" fill="black">
<rect fill="white" x="-0.0078125" y="0.296875" width="99" height="99"/>
<path d="M94.3664 68.6538C96.372 68.6538 98.0036 67.0221 98.0036 65.0165V63.0738C98.0036 55.4591 94.4943 49.0748 87.8547 44.6109C82.0973 40.7396 74.3773 38.6078 66.1164 38.6078C65.8595 38.6078 65.6033 38.6099 65.3475 38.614L66.1463 32.7477C68.133 32.6611 69.7236 31.0225 69.7236 29.0148V25.7587C69.7236 23.6928 68.0454 22.012 65.9824 22.012H41.0446V13.2967L52.3455 10.3553C54.7952 9.71297 56.2718 7.19597 55.6363 4.74151C54.9955 2.28894 52.4761 0.809517 50.0178 1.44369L35.2804 5.28549C33.2218 5.82398 31.8386 7.61453 31.8386 9.7412V22.0118H4.73338C2.67037 22.0118 0.992188 23.6926 0.992188 25.7585V29.0146C0.992188 31.0223 2.58302 32.6609 4.56967 32.7475L12.8795 93.7402C13.2442 96.423 15.1915 98.2969 17.6147 98.2969H40.2528H91.9805C95.3017 98.2969 98.0036 95.5948 98.0036 92.2736V88.6783C98.0036 87.3395 96.912 86.2504 95.5702 86.2504H92.8872V82.3698C95.3047 81.6958 97.0843 79.4736 97.0843 76.842C97.0843 74.2312 95.3295 72.024 92.9381 71.334C93.2671 70.5198 93.4931 69.6232 93.6026 68.654H94.3664V68.6538ZM34.6805 9.7412C34.6805 8.91452 35.1982 8.24491 35.9983 8.03554L50.7312 4.19468C51.6736 3.95159 52.6407 4.51926 52.8855 5.45697C53.1286 6.39582 52.5628 7.35987 51.6268 7.60543L39.2655 10.8229C38.6392 10.9857 38.2023 11.5513 38.2023 12.1981V22.0116H34.6803V9.7412H34.6805ZM7.43928 32.7558H33.2212C34.006 32.7558 34.6423 32.1198 34.6423 31.3348C34.6423 30.5498 34.006 29.9137 33.2212 29.9137H4.73338C4.24605 29.9137 3.83432 29.502 3.83432 29.0146V25.7585C3.83432 25.2681 4.24605 24.8539 4.73338 24.8539H65.9826C66.47 24.8539 66.8817 25.2683 66.8817 25.7585V29.0146C66.8817 29.502 66.47 29.9137 65.9826 29.9137H39.9737C39.1889 29.9137 38.5527 30.5498 38.5527 31.3348C38.5527 32.1198 39.1889 32.7558 39.9737 32.7558H63.2769L62.4608 38.7499C55.5967 39.2836 49.277 41.3171 44.3786 44.6109C41.3035 46.6785 38.9011 49.1589 37.2066 51.9819L11.2447 60.6881L7.43928 32.7558ZM11.5028 62.5811C11.5117 62.6079 11.5141 62.6351 11.5139 62.6626L11.5028 62.5811ZM11.6354 63.5547L35.5093 55.5484C34.6627 57.8859 34.2296 60.4039 34.2296 63.0738V65.0165C34.2296 67.0221 35.8613 68.6538 37.8669 68.6538H38.6307C38.74 69.6232 38.9661 70.5196 39.2948 71.334C36.9035 72.0242 35.1489 74.2314 35.1489 76.842C35.1489 77.3265 35.2101 77.7966 35.3236 78.2462L14.6145 85.4211L11.6354 63.5547ZM35.1415 95.4547H17.6147C16.486 95.4547 15.8376 94.4013 15.6957 93.3569L15.0058 88.2935L36.7142 80.7723C37.4215 81.5228 38.3257 82.0854 39.346 82.3698V86.2504H36.663C35.3211 86.2504 34.2296 87.3395 34.2296 88.6783V92.2736C34.2296 93.4408 34.5644 94.5309 35.1415 95.4547ZM95.1615 89.0925V92.2736C95.1615 94.0278 93.7345 95.4547 91.9805 95.4547H40.2528C38.4988 95.4547 37.0717 94.0278 37.0717 92.2736V89.0925H64.8498C65.6346 89.0925 66.2708 88.4565 66.2708 87.6715C66.2708 86.8865 65.6346 86.2504 64.8498 86.2504H42.1881V82.5807H90.0451V86.2504H71.5367C70.7519 86.2504 70.1157 86.8865 70.1157 87.6715C70.1157 88.4565 70.7519 89.0925 71.5367 89.0925H95.1615ZM94.2421 76.842C94.2421 78.4393 92.9454 79.7385 91.3513 79.7385H40.8821C39.288 79.7385 37.9912 78.4393 37.9912 76.842C37.9912 75.2478 39.288 73.9508 40.8821 73.9508H40.9986C41.6201 74.5747 42.3478 75.0854 43.18 75.4569C45.8086 76.6307 48.9855 76.2361 51.2875 74.5027C52.714 75.7717 54.4532 76.4627 56.2533 76.4627C58.0398 76.4627 59.7661 75.7821 61.1866 74.5315C62.606 75.7787 64.33 76.4572 66.1139 76.4572C67.899 76.4572 69.623 75.7804 71.0439 74.5338C72.4642 75.783 74.1916 76.4629 75.9803 76.4629C77.7818 76.4629 79.5222 75.7709 80.9463 74.5033C83.2471 76.2366 86.4212 76.6307 89.0496 75.4581C89.8829 75.0863 90.6114 74.5753 91.2336 73.951H91.3513C92.9454 73.9508 94.2421 75.2476 94.2421 76.842ZM41.4963 68.6538H90.737C90.4337 70.6958 89.4505 72.1669 87.8919 72.8623C86.097 73.6628 83.8102 73.2937 82.3207 71.9564C81.0527 70.8383 80.0404 71.3808 79.4104 72.0375C78.4391 73.0584 77.221 73.6205 75.9803 73.6205C74.736 73.6205 73.516 73.0582 72.5447 72.0375C72.5207 72.0121 72.4955 71.9875 72.4697 71.964C71.1989 70.8118 70.1787 71.3667 69.5499 72.0318C68.5644 73.0675 67.3764 73.6149 66.1141 73.6149C64.8734 73.6149 63.6551 73.0527 62.6869 72.0348C62.0582 71.37 61.0409 70.8167 59.7658 71.9577C59.7373 71.9831 59.71 72.0094 59.6837 72.0373C58.7125 73.0582 57.4943 73.6204 56.2536 73.6204C55.0129 73.6204 53.7948 73.058 52.8192 72.0327C52.1892 71.3758 51.1725 70.8307 49.9039 71.9642C48.4213 73.2935 46.133 73.6624 44.339 72.8615C42.7816 72.1665 41.7995 70.6954 41.4963 68.6538ZM37.8669 65.8117C37.4285 65.8117 37.0717 65.4549 37.0717 65.0165V63.0738C37.0717 54.705 41.9075 49.6968 45.9642 46.9693C51.2577 43.41 58.4146 41.4499 66.1164 41.4499C73.8182 41.4499 80.9752 43.41 86.2688 46.9693C90.3257 49.6968 95.1615 54.705 95.1615 63.0736V65.0163C95.1615 65.4547 94.8049 65.8115 94.3664 65.8115H37.8669V65.8117Z"/>
</mask>
<path d="M94.3664 68.6538C96.372 68.6538 98.0036 67.0221 98.0036 65.0165V63.0738C98.0036 55.4591 94.4943 49.0748 87.8547 44.6109C82.0973 40.7396 74.3773 38.6078 66.1164 38.6078C65.8595 38.6078 65.6033 38.6099 65.3475 38.614L66.1463 32.7477C68.133 32.6611 69.7236 31.0225 69.7236 29.0148V25.7587C69.7236 23.6928 68.0454 22.012 65.9824 22.012H41.0446V13.2967L52.3455 10.3553C54.7952 9.71297 56.2718 7.19597 55.6363 4.74151C54.9955 2.28894 52.4761 0.809517 50.0178 1.44369L35.2804 5.28549C33.2218 5.82398 31.8386 7.61453 31.8386 9.7412V22.0118H4.73338C2.67037 22.0118 0.992188 23.6926 0.992188 25.7585V29.0146C0.992188 31.0223 2.58302 32.6609 4.56967 32.7475L12.8795 93.7402C13.2442 96.423 15.1915 98.2969 17.6147 98.2969H40.2528H91.9805C95.3017 98.2969 98.0036 95.5948 98.0036 92.2736V88.6783C98.0036 87.3395 96.912 86.2504 95.5702 86.2504H92.8872V82.3698C95.3047 81.6958 97.0843 79.4736 97.0843 76.842C97.0843 74.2312 95.3295 72.024 92.9381 71.334C93.2671 70.5198 93.4931 69.6232 93.6026 68.654H94.3664V68.6538ZM34.6805 9.7412C34.6805 8.91452 35.1982 8.24491 35.9983 8.03554L50.7312 4.19468C51.6736 3.95159 52.6407 4.51926 52.8855 5.45697C53.1286 6.39582 52.5628 7.35987 51.6268 7.60543L39.2655 10.8229C38.6392 10.9857 38.2023 11.5513 38.2023 12.1981V22.0116H34.6803V9.7412H34.6805ZM7.43928 32.7558H33.2212C34.006 32.7558 34.6423 32.1198 34.6423 31.3348C34.6423 30.5498 34.006 29.9137 33.2212 29.9137H4.73338C4.24605 29.9137 3.83432 29.502 3.83432 29.0146V25.7585C3.83432 25.2681 4.24605 24.8539 4.73338 24.8539H65.9826C66.47 24.8539 66.8817 25.2683 66.8817 25.7585V29.0146C66.8817 29.502 66.47 29.9137 65.9826 29.9137H39.9737C39.1889 29.9137 38.5527 30.5498 38.5527 31.3348C38.5527 32.1198 39.1889 32.7558 39.9737 32.7558H63.2769L62.4608 38.7499C55.5967 39.2836 49.277 41.3171 44.3786 44.6109C41.3035 46.6785 38.9011 49.1589 37.2066 51.9819L11.2447 60.6881L7.43928 32.7558ZM11.5028 62.5811C11.5117 62.6079 11.5141 62.6351 11.5139 62.6626L11.5028 62.5811ZM11.6354 63.5547L35.5093 55.5484C34.6627 57.8859 34.2296 60.4039 34.2296 63.0738V65.0165C34.2296 67.0221 35.8613 68.6538 37.8669 68.6538H38.6307C38.74 69.6232 38.9661 70.5196 39.2948 71.334C36.9035 72.0242 35.1489 74.2314 35.1489 76.842C35.1489 77.3265 35.2101 77.7966 35.3236 78.2462L14.6145 85.4211L11.6354 63.5547ZM35.1415 95.4547H17.6147C16.486 95.4547 15.8376 94.4013 15.6957 93.3569L15.0058 88.2935L36.7142 80.7723C37.4215 81.5228 38.3257 82.0854 39.346 82.3698V86.2504H36.663C35.3211 86.2504 34.2296 87.3395 34.2296 88.6783V92.2736C34.2296 93.4408 34.5644 94.5309 35.1415 95.4547ZM95.1615 89.0925V92.2736C95.1615 94.0278 93.7345 95.4547 91.9805 95.4547H40.2528C38.4988 95.4547 37.0717 94.0278 37.0717 92.2736V89.0925H64.8498C65.6346 89.0925 66.2708 88.4565 66.2708 87.6715C66.2708 86.8865 65.6346 86.2504 64.8498 86.2504H42.1881V82.5807H90.0451V86.2504H71.5367C70.7519 86.2504 70.1157 86.8865 70.1157 87.6715C70.1157 88.4565 70.7519 89.0925 71.5367 89.0925H95.1615ZM94.2421 76.842C94.2421 78.4393 92.9454 79.7385 91.3513 79.7385H40.8821C39.288 79.7385 37.9912 78.4393 37.9912 76.842C37.9912 75.2478 39.288 73.9508 40.8821 73.9508H40.9986C41.6201 74.5747 42.3478 75.0854 43.18 75.4569C45.8086 76.6307 48.9855 76.2361 51.2875 74.5027C52.714 75.7717 54.4532 76.4627 56.2533 76.4627C58.0398 76.4627 59.7661 75.7821 61.1866 74.5315C62.606 75.7787 64.33 76.4572 66.1139 76.4572C67.899 76.4572 69.623 75.7804 71.0439 74.5338C72.4642 75.783 74.1916 76.4629 75.9803 76.4629C77.7818 76.4629 79.5222 75.7709 80.9463 74.5033C83.2471 76.2366 86.4212 76.6307 89.0496 75.4581C89.8829 75.0863 90.6114 74.5753 91.2336 73.951H91.3513C92.9454 73.9508 94.2421 75.2476 94.2421 76.842ZM41.4963 68.6538H90.737C90.4337 70.6958 89.4505 72.1669 87.8919 72.8623C86.097 73.6628 83.8102 73.2937 82.3207 71.9564C81.0527 70.8383 80.0404 71.3808 79.4104 72.0375C78.4391 73.0584 77.221 73.6205 75.9803 73.6205C74.736 73.6205 73.516 73.0582 72.5447 72.0375C72.5207 72.0121 72.4955 71.9875 72.4697 71.964C71.1989 70.8118 70.1787 71.3667 69.5499 72.0318C68.5644 73.0675 67.3764 73.6149 66.1141 73.6149C64.8734 73.6149 63.6551 73.0527 62.6869 72.0348C62.0582 71.37 61.0409 70.8167 59.7658 71.9577C59.7373 71.9831 59.71 72.0094 59.6837 72.0373C58.7125 73.0582 57.4943 73.6204 56.2536 73.6204C55.0129 73.6204 53.7948 73.058 52.8192 72.0327C52.1892 71.3758 51.1725 70.8307 49.9039 71.9642C48.4213 73.2935 46.133 73.6624 44.339 72.8615C42.7816 72.1665 41.7995 70.6954 41.4963 68.6538ZM37.8669 65.8117C37.4285 65.8117 37.0717 65.4549 37.0717 65.0165V63.0738C37.0717 54.705 41.9075 49.6968 45.9642 46.9693C51.2577 43.41 58.4146 41.4499 66.1164 41.4499C73.8182 41.4499 80.9752 43.41 86.2688 46.9693C90.3257 49.6968 95.1615 54.705 95.1615 63.0736V65.0163C95.1615 65.4547 94.8049 65.8115 94.3664 65.8115H37.8669V65.8117Z" fill="white"/>
<path d="M94.3664 68.6538C96.372 68.6538 98.0036 67.0221 98.0036 65.0165V63.0738C98.0036 55.4591 94.4943 49.0748 87.8547 44.6109C82.0973 40.7396 74.3773 38.6078 66.1164 38.6078C65.8595 38.6078 65.6033 38.6099 65.3475 38.614L66.1463 32.7477C68.133 32.6611 69.7236 31.0225 69.7236 29.0148V25.7587C69.7236 23.6928 68.0454 22.012 65.9824 22.012H41.0446V13.2967L52.3455 10.3553C54.7952 9.71297 56.2718 7.19597 55.6363 4.74151C54.9955 2.28894 52.4761 0.809517 50.0178 1.44369L35.2804 5.28549C33.2218 5.82398 31.8386 7.61453 31.8386 9.7412V22.0118H4.73338C2.67037 22.0118 0.992188 23.6926 0.992188 25.7585V29.0146C0.992188 31.0223 2.58302 32.6609 4.56967 32.7475L12.8795 93.7402C13.2442 96.423 15.1915 98.2969 17.6147 98.2969H40.2528H91.9805C95.3017 98.2969 98.0036 95.5948 98.0036 92.2736V88.6783C98.0036 87.3395 96.912 86.2504 95.5702 86.2504H92.8872V82.3698C95.3047 81.6958 97.0843 79.4736 97.0843 76.842C97.0843 74.2312 95.3295 72.024 92.9381 71.334C93.2671 70.5198 93.4931 69.6232 93.6026 68.654H94.3664V68.6538ZM34.6805 9.7412C34.6805 8.91452 35.1982 8.24491 35.9983 8.03554L50.7312 4.19468C51.6736 3.95159 52.6407 4.51926 52.8855 5.45697C53.1286 6.39582 52.5628 7.35987 51.6268 7.60543L39.2655 10.8229C38.6392 10.9857 38.2023 11.5513 38.2023 12.1981V22.0116H34.6803V9.7412H34.6805ZM7.43928 32.7558H33.2212C34.006 32.7558 34.6423 32.1198 34.6423 31.3348C34.6423 30.5498 34.006 29.9137 33.2212 29.9137H4.73338C4.24605 29.9137 3.83432 29.502 3.83432 29.0146V25.7585C3.83432 25.2681 4.24605 24.8539 4.73338 24.8539H65.9826C66.47 24.8539 66.8817 25.2683 66.8817 25.7585V29.0146C66.8817 29.502 66.47 29.9137 65.9826 29.9137H39.9737C39.1889 29.9137 38.5527 30.5498 38.5527 31.3348C38.5527 32.1198 39.1889 32.7558 39.9737 32.7558H63.2769L62.4608 38.7499C55.5967 39.2836 49.277 41.3171 44.3786 44.6109C41.3035 46.6785 38.9011 49.1589 37.2066 51.9819L11.2447 60.6881L7.43928 32.7558ZM11.5028 62.5811C11.5117 62.6079 11.5141 62.6351 11.5139 62.6626L11.5028 62.5811ZM11.6354 63.5547L35.5093 55.5484C34.6627 57.8859 34.2296 60.4039 34.2296 63.0738V65.0165C34.2296 67.0221 35.8613 68.6538 37.8669 68.6538H38.6307C38.74 69.6232 38.9661 70.5196 39.2948 71.334C36.9035 72.0242 35.1489 74.2314 35.1489 76.842C35.1489 77.3265 35.2101 77.7966 35.3236 78.2462L14.6145 85.4211L11.6354 63.5547ZM35.1415 95.4547H17.6147C16.486 95.4547 15.8376 94.4013 15.6957 93.3569L15.0058 88.2935L36.7142 80.7723C37.4215 81.5228 38.3257 82.0854 39.346 82.3698V86.2504H36.663C35.3211 86.2504 34.2296 87.3395 34.2296 88.6783V92.2736C34.2296 93.4408 34.5644 94.5309 35.1415 95.4547ZM95.1615 89.0925V92.2736C95.1615 94.0278 93.7345 95.4547 91.9805 95.4547H40.2528C38.4988 95.4547 37.0717 94.0278 37.0717 92.2736V89.0925H64.8498C65.6346 89.0925 66.2708 88.4565 66.2708 87.6715C66.2708 86.8865 65.6346 86.2504 64.8498 86.2504H42.1881V82.5807H90.0451V86.2504H71.5367C70.7519 86.2504 70.1157 86.8865 70.1157 87.6715C70.1157 88.4565 70.7519 89.0925 71.5367 89.0925H95.1615ZM94.2421 76.842C94.2421 78.4393 92.9454 79.7385 91.3513 79.7385H40.8821C39.288 79.7385 37.9912 78.4393 37.9912 76.842C37.9912 75.2478 39.288 73.9508 40.8821 73.9508H40.9986C41.6201 74.5747 42.3478 75.0854 43.18 75.4569C45.8086 76.6307 48.9855 76.2361 51.2875 74.5027C52.714 75.7717 54.4532 76.4627 56.2533 76.4627C58.0398 76.4627 59.7661 75.7821 61.1866 74.5315C62.606 75.7787 64.33 76.4572 66.1139 76.4572C67.899 76.4572 69.623 75.7804 71.0439 74.5338C72.4642 75.783 74.1916 76.4629 75.9803 76.4629C77.7818 76.4629 79.5222 75.7709 80.9463 74.5033C83.2471 76.2366 86.4212 76.6307 89.0496 75.4581C89.8829 75.0863 90.6114 74.5753 91.2336 73.951H91.3513C92.9454 73.9508 94.2421 75.2476 94.2421 76.842ZM41.4963 68.6538H90.737C90.4337 70.6958 89.4505 72.1669 87.8919 72.8623C86.097 73.6628 83.8102 73.2937 82.3207 71.9564C81.0527 70.8383 80.0404 71.3808 79.4104 72.0375C78.4391 73.0584 77.221 73.6205 75.9803 73.6205C74.736 73.6205 73.516 73.0582 72.5447 72.0375C72.5207 72.0121 72.4955 71.9875 72.4697 71.964C71.1989 70.8118 70.1787 71.3667 69.5499 72.0318C68.5644 73.0675 67.3764 73.6149 66.1141 73.6149C64.8734 73.6149 63.6551 73.0527 62.6869 72.0348C62.0582 71.37 61.0409 70.8167 59.7658 71.9577C59.7373 71.9831 59.71 72.0094 59.6837 72.0373C58.7125 73.0582 57.4943 73.6204 56.2536 73.6204C55.0129 73.6204 53.7948 73.058 52.8192 72.0327C52.1892 71.3758 51.1725 70.8307 49.9039 71.9642C48.4213 73.2935 46.133 73.6624 44.339 72.8615C42.7816 72.1665 41.7995 70.6954 41.4963 68.6538ZM37.8669 65.8117C37.4285 65.8117 37.0717 65.4549 37.0717 65.0165V63.0738C37.0717 54.705 41.9075 49.6968 45.9642 46.9693C51.2577 43.41 58.4146 41.4499 66.1164 41.4499C73.8182 41.4499 80.9752 43.41 86.2688 46.9693C90.3257 49.6968 95.1615 54.705 95.1615 63.0736V65.0163C95.1615 65.4547 94.8049 65.8115 94.3664 65.8115H37.8669V65.8117Z" stroke="white" mask="url(#path-14-outside-1_1910_2745)"/>
</svg>
