<svg width="97" height="98" viewBox="0 0 97 98" fill="none" xmlns="http://www.w3.org/2000/svg">
<mask id="path-1-inside-1_2181_2546" fill="white">
<path d="M79.6609 83.0469C89.2209 83.0469 96.9985 75.2692 96.9985 65.7092C96.9985 59.3144 93.4925 53.4927 87.9465 50.4766C88.0831 49.6209 88.152 48.753 88.152 47.8817C88.152 38.8658 80.8172 31.5309 71.8013 31.5309C70.0746 31.5309 68.4104 31.8021 66.8467 32.3005C66.869 31.7877 66.8844 31.2744 66.8844 30.762C66.8844 24.531 65.2206 18.4153 62.073 13.0759C59.0187 7.89477 54.6527 3.56444 49.4471 0.553087C48.8602 0.213587 48.1367 0.213587 47.5498 0.553087C42.344 3.56444 37.9782 7.89477 34.9238 13.0759C31.7763 18.4153 30.1125 24.531 30.1125 30.762C30.1125 31.0219 30.1197 31.2811 30.1254 31.5404C28.5127 31.2214 26.8675 31.0579 25.2077 31.0579C20.0139 31.0579 15.0258 32.625 10.783 35.5902C6.63773 38.4871 3.48902 42.5029 1.67728 47.2038C1.30103 48.1801 1.78754 49.2766 2.76379 49.6529C2.98792 49.7393 3.2181 49.7802 3.44469 49.7802C4.20534 49.7802 4.92299 49.3187 5.21285 48.5664C8.37558 40.3602 16.4109 34.8468 25.2079 34.8468C26.9816 34.8468 28.734 35.0661 30.4353 35.4928C31.0586 40.0597 32.5786 44.4695 34.9238 48.4478C37.7238 53.1974 41.6282 57.2287 46.2692 60.1878C44.5255 69.6258 36.6257 76.76 27.1025 77.6031V70.3717L35.7392 61.7349C36.4791 60.9951 36.4791 59.7955 35.7392 59.0555C34.9994 58.3155 33.7998 58.3156 33.0598 59.0555L27.1025 65.0128V50.9131C27.1025 49.8668 26.2543 49.0186 25.2079 49.0186C24.1616 49.0186 23.3134 49.8668 23.3134 50.9131V56.8421L19.6168 53.1455C18.877 52.4057 17.6774 52.4057 16.9373 53.1455C16.1973 53.8853 16.1975 55.0849 16.9373 55.8249L23.3134 62.2009V77.5987C15.2751 76.8726 8.1471 71.5808 5.21304 63.9685C4.8366 62.9923 3.74023 62.5062 2.76379 62.8822C1.78754 63.2585 1.30103 64.355 1.67747 65.3315C3.4894 70.0322 6.63811 74.048 10.7832 76.9446C14.5074 79.5471 18.8057 81.0718 23.3132 81.406V93.5094H1.89307C0.846717 93.5094 -0.00146484 94.3576 -0.00146484 95.4039C-0.00146484 96.4503 0.846717 97.2985 1.89307 97.2985H95.104C96.1504 97.2985 96.9985 96.4503 96.9985 95.4039C96.9985 94.3576 96.1504 93.5094 95.104 93.5094H72.4814V81.4937C74.7181 82.5147 77.1507 83.0469 79.6609 83.0469ZM84.363 47.8819C84.363 48.9568 84.2269 50.0246 83.9587 51.0554C83.7236 51.9593 84.1822 52.8997 85.0393 53.2709C90.0024 55.4204 93.2095 60.3028 93.2095 65.7094C93.2095 73.1801 87.1316 79.258 79.6609 79.258C77.0942 79.258 74.6315 78.5475 72.4814 77.1984V66.0849L79.9375 58.6288C80.6773 57.889 80.6773 56.6894 79.9375 55.9494C79.1977 55.2096 77.9981 55.2096 77.2581 55.9494L72.4812 60.7262V56.6284C72.4812 55.582 71.633 54.7338 70.5867 54.7338C69.5403 54.7338 68.6922 55.582 68.6922 56.6284V67.9628L64.3844 63.655C63.6446 62.9152 62.4449 62.9152 61.7049 63.655C60.9649 64.3948 60.9651 65.5944 61.7049 66.3344L68.692 73.3215V77.2458C66.7514 78.564 64.5001 79.2578 62.1272 79.2578C55.6568 79.2578 50.3927 73.9936 50.3927 67.5233C50.3927 62.1153 54.0546 57.4318 59.2977 56.1341C59.8553 55.996 60.32 55.6127 60.5616 55.0915C60.8031 54.5703 60.795 53.9679 60.54 53.4535C59.6768 51.7128 59.2392 49.8382 59.2392 47.8817C59.2392 40.9551 64.8745 35.32 71.8009 35.32C78.7273 35.32 84.363 40.9553 84.363 47.8819ZM33.9017 30.762C33.9017 20.0679 39.4669 10.0701 48.4985 4.40448C57.5301 10.0699 63.0953 20.0677 63.0953 30.762C63.0953 31.9004 63.0305 33.0434 62.9078 34.1719C58.4238 37.0908 55.4505 42.1441 55.4505 47.8817C55.4505 48.8928 55.5439 49.8867 55.7228 50.8605C54.1384 52.7296 52.355 54.3926 50.3931 55.8321V33.7779L56.2155 27.9554C56.9553 27.2156 56.9553 26.016 56.2155 25.276C55.4757 24.5361 54.2761 24.5361 53.5361 25.276L50.3931 28.4194V20.3805C50.3931 19.3341 49.5449 18.486 48.4985 18.486C47.4522 18.486 46.604 19.3341 46.604 20.3805V37.2934L41.9088 32.5981C41.169 31.8583 39.9694 31.8583 39.2295 32.5981C38.4897 33.338 38.4897 34.5376 39.2295 35.2774L46.604 42.6518V55.8268C38.6964 50.0075 33.9017 40.6857 33.9017 30.762ZM27.1025 81.4049C35.2578 80.7924 42.4368 76.2604 46.604 69.5987V93.5094H27.1025V81.4049ZM50.3931 93.5094V77.6688C53.2417 80.9593 57.4441 83.047 62.1276 83.047C64.4355 83.047 66.6572 82.5516 68.6923 81.5966V93.5094H50.3931Z"/>
</mask>
<path d="M79.6609 83.0469C89.2209 83.0469 96.9985 75.2692 96.9985 65.7092C96.9985 59.3144 93.4925 53.4927 87.9465 50.4766C88.0831 49.6209 88.152 48.753 88.152 47.8817C88.152 38.8658 80.8172 31.5309 71.8013 31.5309C70.0746 31.5309 68.4104 31.8021 66.8467 32.3005C66.869 31.7877 66.8844 31.2744 66.8844 30.762C66.8844 24.531 65.2206 18.4153 62.073 13.0759C59.0187 7.89477 54.6527 3.56444 49.4471 0.553087C48.8602 0.213587 48.1367 0.213587 47.5498 0.553087C42.344 3.56444 37.9782 7.89477 34.9238 13.0759C31.7763 18.4153 30.1125 24.531 30.1125 30.762C30.1125 31.0219 30.1197 31.2811 30.1254 31.5404C28.5127 31.2214 26.8675 31.0579 25.2077 31.0579C20.0139 31.0579 15.0258 32.625 10.783 35.5902C6.63773 38.4871 3.48902 42.5029 1.67728 47.2038C1.30103 48.1801 1.78754 49.2766 2.76379 49.6529C2.98792 49.7393 3.2181 49.7802 3.44469 49.7802C4.20534 49.7802 4.92299 49.3187 5.21285 48.5664C8.37558 40.3602 16.4109 34.8468 25.2079 34.8468C26.9816 34.8468 28.734 35.0661 30.4353 35.4928C31.0586 40.0597 32.5786 44.4695 34.9238 48.4478C37.7238 53.1974 41.6282 57.2287 46.2692 60.1878C44.5255 69.6258 36.6257 76.76 27.1025 77.6031V70.3717L35.7392 61.7349C36.4791 60.9951 36.4791 59.7955 35.7392 59.0555C34.9994 58.3155 33.7998 58.3156 33.0598 59.0555L27.1025 65.0128V50.9131C27.1025 49.8668 26.2543 49.0186 25.2079 49.0186C24.1616 49.0186 23.3134 49.8668 23.3134 50.9131V56.8421L19.6168 53.1455C18.877 52.4057 17.6774 52.4057 16.9373 53.1455C16.1973 53.8853 16.1975 55.0849 16.9373 55.8249L23.3134 62.2009V77.5987C15.2751 76.8726 8.1471 71.5808 5.21304 63.9685C4.8366 62.9923 3.74023 62.5062 2.76379 62.8822C1.78754 63.2585 1.30103 64.355 1.67747 65.3315C3.4894 70.0322 6.63811 74.048 10.7832 76.9446C14.5074 79.5471 18.8057 81.0718 23.3132 81.406V93.5094H1.89307C0.846717 93.5094 -0.00146484 94.3576 -0.00146484 95.4039C-0.00146484 96.4503 0.846717 97.2985 1.89307 97.2985H95.104C96.1504 97.2985 96.9985 96.4503 96.9985 95.4039C96.9985 94.3576 96.1504 93.5094 95.104 93.5094H72.4814V81.4937C74.7181 82.5147 77.1507 83.0469 79.6609 83.0469ZM84.363 47.8819C84.363 48.9568 84.2269 50.0246 83.9587 51.0554C83.7236 51.9593 84.1822 52.8997 85.0393 53.2709C90.0024 55.4204 93.2095 60.3028 93.2095 65.7094C93.2095 73.1801 87.1316 79.258 79.6609 79.258C77.0942 79.258 74.6315 78.5475 72.4814 77.1984V66.0849L79.9375 58.6288C80.6773 57.889 80.6773 56.6894 79.9375 55.9494C79.1977 55.2096 77.9981 55.2096 77.2581 55.9494L72.4812 60.7262V56.6284C72.4812 55.582 71.633 54.7338 70.5867 54.7338C69.5403 54.7338 68.6922 55.582 68.6922 56.6284V67.9628L64.3844 63.655C63.6446 62.9152 62.4449 62.9152 61.7049 63.655C60.9649 64.3948 60.9651 65.5944 61.7049 66.3344L68.692 73.3215V77.2458C66.7514 78.564 64.5001 79.2578 62.1272 79.2578C55.6568 79.2578 50.3927 73.9936 50.3927 67.5233C50.3927 62.1153 54.0546 57.4318 59.2977 56.1341C59.8553 55.996 60.32 55.6127 60.5616 55.0915C60.8031 54.5703 60.795 53.9679 60.54 53.4535C59.6768 51.7128 59.2392 49.8382 59.2392 47.8817C59.2392 40.9551 64.8745 35.32 71.8009 35.32C78.7273 35.32 84.363 40.9553 84.363 47.8819ZM33.9017 30.762C33.9017 20.0679 39.4669 10.0701 48.4985 4.40448C57.5301 10.0699 63.0953 20.0677 63.0953 30.762C63.0953 31.9004 63.0305 33.0434 62.9078 34.1719C58.4238 37.0908 55.4505 42.1441 55.4505 47.8817C55.4505 48.8928 55.5439 49.8867 55.7228 50.8605C54.1384 52.7296 52.355 54.3926 50.3931 55.8321V33.7779L56.2155 27.9554C56.9553 27.2156 56.9553 26.016 56.2155 25.276C55.4757 24.5361 54.2761 24.5361 53.5361 25.276L50.3931 28.4194V20.3805C50.3931 19.3341 49.5449 18.486 48.4985 18.486C47.4522 18.486 46.604 19.3341 46.604 20.3805V37.2934L41.9088 32.5981C41.169 31.8583 39.9694 31.8583 39.2295 32.5981C38.4897 33.338 38.4897 34.5376 39.2295 35.2774L46.604 42.6518V55.8268C38.6964 50.0075 33.9017 40.6857 33.9017 30.762ZM27.1025 81.4049C35.2578 80.7924 42.4368 76.2604 46.604 69.5987V93.5094H27.1025V81.4049ZM50.3931 93.5094V77.6688C53.2417 80.9593 57.4441 83.047 62.1276 83.047C64.4355 83.047 66.6572 82.5516 68.6923 81.5966V93.5094H50.3931Z" fill="white" stroke="white" stroke-width="2" mask="url(#path-1-inside-1_2181_2546)"/>
<path d="M77.6826 11.6025V11.6026C77.6826 16.0226 81.2776 19.6176 85.6977 19.6176C90.1177 19.6176 93.7127 16.0226 93.7127 11.6026C93.7127 7.18251 90.1177 3.58752 85.6977 3.58752C81.2778 3.58752 77.6828 7.18252 77.6826 11.6025ZM96.5018 11.6024C96.5018 17.5592 91.6545 22.4065 85.6977 22.4065C79.7408 22.4065 74.8936 17.5596 74.8936 11.6026C74.8936 5.64551 79.7406 0.798462 85.6977 0.798462C91.6547 0.798462 96.5018 5.64551 96.5018 11.6024Z" fill="white" stroke="white"/>
<path d="M3.2876 56.2676C3.2876 56.6321 3.13837 56.9925 2.87845 57.254C2.62064 57.5116 2.25958 57.6603 1.89307 57.6603C1.52632 57.6603 1.16503 57.5114 0.907186 57.2535C0.648444 56.9948 0.498535 56.6331 0.498535 56.2676C0.498535 55.9 0.64863 55.5384 0.907186 55.2799C1.16593 55.0211 1.52759 54.8712 1.89307 54.8712C2.25831 54.8712 2.61976 55.0209 2.87847 55.2794C3.13819 55.5408 3.2876 55.901 3.2876 56.2676Z" fill="white" stroke="white"/>
</svg>
