<svg width="69" height="99" viewBox="0 0 69 99" fill="none" xmlns="http://www.w3.org/2000/svg">
<path d="M1.89031 90.2495L1.89038 90.2491C1.95518 89.8612 2.04084 89.4771 2.14699 89.0984C2.3754 88.286 2.75149 87.5226 3.25645 86.8465L15.2707 70.8004C15.8315 70.0515 16.1788 69.1647 16.2757 68.2341L16.2769 68.2225L16.277 68.2107L16.4419 54.7993L16.4419 54.7992C16.447 54.3707 16.6208 53.9614 16.9257 53.6601C17.2306 53.3589 17.6419 53.1899 18.0705 53.19H18.0925C18.5237 53.1957 18.935 53.3723 19.2362 53.6809C19.5378 53.99 19.7043 54.4061 19.6992 54.8378C19.6992 54.8379 19.6992 54.8379 19.6992 54.8379L19.5343 68.3305H19.5343V68.3336C19.5343 68.3848 19.5338 68.4161 19.5298 68.4447L19.5294 68.4446L19.5283 68.4576C19.3864 70.0135 18.8158 71.4995 17.8798 72.7504C17.8798 72.7504 17.8797 72.7504 17.8797 72.7504L5.86458 88.7962C5.86449 88.7963 5.86439 88.7964 5.86429 88.7965C5.59703 89.1515 5.39702 89.5525 5.27415 89.9795L5.27342 89.9822C5.20048 90.2463 5.14085 90.514 5.09477 90.7841C4.98096 91.4353 5.04437 92.1052 5.27837 92.7235C5.51222 93.3413 5.90783 93.885 6.42379 94.2976C6.92441 94.7092 7.52636 94.9789 8.1668 95.0785C8.80788 95.1781 9.46397 95.1037 10.0664 94.8629L10.0664 94.863L10.0717 94.8607L10.1311 94.8354L10.1729 94.8194L10.1729 94.8195L10.1799 94.8165C10.78 94.565 11.3015 94.1569 11.6899 93.6349C11.6901 93.6347 11.6903 93.6345 11.6904 93.6343L26.0423 74.5039L26.0755 74.4597L26.0874 74.4058L27.6081 67.5635L27.6081 67.5634C27.6545 67.3547 27.7415 67.157 27.8643 66.9819C27.987 66.8067 28.1431 66.6575 28.3235 66.5426C28.504 66.4278 28.7053 66.3496 28.9159 66.3126C29.1266 66.2755 29.3424 66.2803 29.5512 66.3267C29.76 66.3731 29.9577 66.4602 30.1328 66.5829C30.308 66.7057 30.4572 66.8617 30.5721 67.0422C30.6869 67.2226 30.7651 67.4239 30.8021 67.6345C30.8392 67.8452 30.8344 68.0611 30.788 68.2698C30.788 68.2698 30.788 68.2699 30.788 68.2699L29.179 75.5091L29.1789 75.5095C29.1291 75.7354 29.0313 75.948 28.8922 76.1328L28.892 76.133L14.2862 95.5917L14.2861 95.5919C13.5439 96.5828 12.5491 97.356 11.4057 97.8305L11.4048 97.8309L11.3711 97.8451L11.3683 97.8462L11.2483 97.8949C11.248 97.895 11.2477 97.8952 11.2473 97.8953C10.438 98.2153 9.57595 98.3809 8.70567 98.3834C7.69731 98.3746 6.70285 98.1471 5.79087 97.7168C4.87838 97.2862 4.07018 96.6627 3.42207 95.8894C2.77396 95.1161 2.30136 94.2114 2.03691 93.2377C1.77246 92.264 1.72244 91.2445 1.89031 90.2495Z" fill="white" stroke="white" stroke-width="0.512"/>
<path d="M17.7284 52.8425L17.7284 52.8425C17.6394 53.0882 17.6108 53.3516 17.645 53.6106C17.6792 53.8696 17.7753 54.1165 17.925 54.3306C18.0747 54.5447 18.2737 54.7196 18.5052 54.8406C18.7367 54.9616 18.9939 55.0252 19.2551 55.0259C19.5895 55.0257 19.9157 54.9226 20.1894 54.7306C20.4633 54.5384 20.6714 54.2666 20.7854 53.952L30.0769 28.2976C30.0771 28.2972 30.0772 28.2968 30.0773 28.2964C30.4041 27.3684 30.953 26.5345 31.6762 25.8674C32.3997 25.2001 33.2756 24.7201 34.2274 24.4694L34.2296 24.4688C35.7061 24.0938 37.1333 24.3218 38.5722 25.1487L38.5741 25.1498C39.6565 25.784 40.5772 26.6605 41.2639 27.7105C41.2641 27.7107 41.2642 27.711 41.2644 27.7112L49.1894 39.6571L49.1896 39.6574C49.6528 40.3575 50.2825 40.9318 51.0222 41.3287C51.762 41.7255 52.5886 41.9326 53.4281 41.9313H53.4285H62.6034C63.0118 41.9251 63.4153 42.0217 63.7766 42.2123C64.1385 42.4033 64.4464 42.6824 64.6719 43.0239L64.6755 43.0295L64.6754 43.0295C64.7918 43.216 64.9184 43.4486 64.9098 43.7483C64.9012 44.0465 64.7614 44.3615 64.4678 44.7307L64.4657 44.7334C64.2318 45.0195 63.9369 45.2498 63.6026 45.4073C63.2685 45.5647 62.9035 45.6455 62.5342 45.6437M17.7284 52.8425L62.5347 45.3877M17.7284 52.8425L27.0207 27.1858L27.0213 27.1843C27.5287 25.756 28.3786 24.4739 29.4964 23.4502C30.6141 22.4266 31.9656 21.6926 33.4327 21.3123C35.7324 20.7281 38.0067 21.0641 40.1985 22.3247C41.7184 23.2118 43.012 24.4391 43.9775 25.9104L43.9782 25.9115L51.9047 37.8625C51.9049 37.8627 51.905 37.8629 51.9052 37.8632M17.7284 52.8425L51.9052 37.8632M62.5342 45.6437C62.5339 45.6437 62.5337 45.6437 62.5334 45.6437L62.5347 45.3877M62.5342 45.6437H62.5347V45.3877M62.5342 45.6437H47.4496M62.5347 45.3877H47.4484M47.4496 45.6437C47.45 45.6437 47.4505 45.6437 47.4509 45.6436L47.4484 45.3877M47.4496 45.6437C46.4801 45.6531 45.5226 45.428 44.6589 44.9875C43.7947 44.5469 43.05 43.9038 42.4881 43.113L42.4863 43.1105L42.4863 43.1105C42.4201 43.0148 42.3526 42.9117 42.2874 42.8046L42.2866 42.8034C41.9144 42.1846 41.5433 41.5654 41.1735 40.9458M47.4496 45.6437H47.4484V45.3877M47.4484 45.3877L41.1735 40.9458M41.1735 40.9458C41.1735 40.9458 41.1735 40.9459 41.1736 40.946L41.3929 40.8139M41.1735 40.9458L42.6968 42.9648C42.6332 42.8729 42.5684 42.7739 42.506 42.6715C42.1338 42.0527 41.7627 41.4335 41.3929 40.8139M41.1735 40.9458C40.9991 40.6562 40.8259 40.3671 40.6529 40.0783C40.4144 39.6802 40.1763 39.2826 39.9359 38.8851L39.9358 38.8849C39.185 37.6411 38.5994 36.6898 38.0388 35.8013C38.0387 35.8011 38.0386 35.801 38.0385 35.8008L36.7847 33.8336L36.7805 33.8271L36.7768 33.8204C36.6691 33.6267 36.523 33.457 36.3474 33.3217C36.1719 33.1865 35.9706 33.0885 35.7558 33.0337C35.541 32.9789 35.3174 32.9686 35.0985 33.0033C34.8796 33.038 34.6701 33.117 34.4828 33.2355C34.2955 33.354 34.1343 33.5094 34.0092 33.6924C33.8841 33.8753 33.7976 34.0818 33.7551 34.2993C33.7126 34.5169 33.7149 34.7408 33.7619 34.9573C33.8089 35.1739 33.8996 35.3786 34.0285 35.5589L34.0328 35.5649L34.0368 35.5712L35.284 37.5475L38.255 35.6642C38.8168 36.5547 39.4034 37.5076 40.1549 38.7526C40.3954 39.1502 40.6342 39.5489 40.8731 39.9477C41.0461 40.2366 41.2192 40.5255 41.3929 40.8139M41.1735 40.9458C41.1733 40.9456 41.1732 40.9454 41.1731 40.9452L41.3929 40.8139M62.5359 49.1651C63.435 49.1708 64.3236 48.9723 65.1349 48.5846C65.9461 48.197 66.6588 47.6302 67.2192 46.9272C68.6515 45.1238 68.8117 43.0295 67.6574 41.1803C66.5973 39.4829 64.662 38.4287 62.6066 38.4287H53.4285C53.1687 38.4288 52.913 38.3642 52.6843 38.2408C52.4557 38.1175 52.2613 37.9392 52.1187 37.722L62.5359 49.1651ZM62.5359 49.1651H47.4484M62.5359 49.1651H47.4484M51.9052 37.8632C52.071 38.1155 52.297 38.3227 52.5628 38.4661C52.8288 38.6096 53.1263 38.6848 53.4286 38.6847H62.6066C64.5766 38.6847 66.4284 39.6958 67.4402 41.3158C68.5329 43.0663 68.3888 45.0428 67.0189 46.7678C66.4826 47.4405 65.8007 47.9827 65.0245 48.3536C64.2482 48.7246 63.3979 48.9145 62.5375 48.9091H62.5359H47.4484C44.3754 48.9091 41.5221 47.4382 39.8139 44.9801L39.8135 44.9795C39.7073 44.8277 39.601 44.6641 39.4991 44.4948L39.499 44.4945C39.123 43.8713 38.7494 43.249 38.3782 42.6274L38.3781 42.6273C37.9697 41.9438 37.5592 41.2604 37.1468 40.577C36.4089 39.3522 35.8343 38.4177 35.2841 37.5477L51.9052 37.8632ZM47.4484 49.1651C44.294 49.1651 41.3611 47.6551 39.6037 45.1262L47.4484 49.1651Z" fill="white" stroke="white" stroke-width="0.512"/>
<path d="M42.8702 97.9739H42.8706C43.6735 97.9765 44.4687 97.816 45.2077 97.502C48.1639 96.2436 49.0982 93.0781 49.1746 91.383V91.3051V72.7676V72.7673C49.1766 70.6531 48.3829 68.6155 46.9512 67.0597L46.9509 67.0593L38.1439 57.4491L42.8702 97.9739ZM42.8702 97.9739C42.1628 97.9726 41.4606 97.854 40.792 97.6228L40.7915 97.6226M42.8702 97.9739L40.7915 97.6226M40.7915 97.6226C37.3336 96.4348 35.4741 94.2906 35.5272 91.7937M40.7915 97.6226L35.5272 91.7937M35.5979 88.5934H35.5978L35.5272 91.7935C35.5272 91.7936 35.5272 91.7936 35.5272 91.7937M35.5979 88.5934L35.2712 91.788L35.5272 91.7937M35.5979 88.5934V88.5877M35.5979 88.5934V88.5877M35.5979 88.5877V79.8714V79.8711M35.5979 88.5877V79.8711M35.5979 79.8711C35.5967 78.6404 35.1576 77.4502 34.3591 76.5136L35.5979 79.8711ZM16.8215 55.8687L16.8216 55.8688L34.3588 76.5132L16.8215 55.8687ZM16.8215 55.8687C16.683 55.7057 16.5779 55.517 16.5123 55.3134C16.4466 55.1097 16.4218 54.8952 16.4391 54.6819C16.4564 54.4687 16.5155 54.2609 16.6131 54.0705C16.7107 53.8801 16.8448 53.7108 17.0078 53.5723C17.1708 53.4337 17.3595 53.3286 17.5632 53.263C17.7668 53.1974 17.9814 53.1725 18.1946 53.1898C18.4079 53.2071 18.6156 53.2662 18.806 53.3638C18.9964 53.4614 19.1657 53.5955 19.3043 53.7585C19.3043 53.7585 19.3043 53.7585 19.3043 53.7586L36.8464 74.4032L16.8215 55.8687ZM38.7833 91.8638L38.7833 91.8636L38.8551 88.6474V79.8703C38.8551 79.8703 38.8551 79.8702 38.8551 79.8702C38.8545 77.8675 38.1427 75.93 36.8465 74.4033L38.7833 91.8638ZM38.7833 91.8638C38.7746 92.2717 38.9417 92.631 39.183 92.9337C39.4231 93.235 39.7465 93.493 40.08 93.7078C40.7457 94.1365 41.4972 94.4212 41.8478 94.5418C42.5208 94.7874 43.2609 94.7751 43.9254 94.5073L43.9254 94.5073M38.7833 91.8638L43.9254 94.5073M43.9254 94.5073L43.93 94.5054M43.9254 94.5073L43.93 94.5054M43.93 94.5054C44.8119 94.1299 45.3011 93.3669 45.5706 92.6957C45.8408 92.0228 45.9048 91.4075 45.9165 91.2674L45.9173 91.2568M43.93 94.5054L45.9173 91.2568M45.9173 91.2568V91.2462M45.9173 91.2568V91.2462M45.9173 91.2462V72.7678M45.9173 91.2462V72.7678M35.7484 59.6495L35.7486 59.6497L44.5542 69.2645L35.7484 59.6495ZM35.7484 59.6495C34.4827 58.271 33.6119 56.577 33.2275 54.7455C32.8432 52.9141 32.9594 51.0129 33.5641 49.242C33.5641 49.242 33.5641 49.2419 33.5641 49.2419L37.0105 39.1558M35.7484 59.6495L37.0105 39.1558M40.0927 40.2093L40.0927 40.2093C40.2324 39.8006 40.204 39.3531 40.0138 38.9653C39.8236 38.5775 39.4871 38.2812 39.0784 38.1415C38.6697 38.0017 38.2222 38.0301 37.8344 38.2204C37.4466 38.4106 37.1503 38.747 37.0106 39.1558C37.0106 39.1558 37.0105 39.1558 37.0105 39.1558M40.0927 40.2093L36.7683 39.073L37.0105 39.1558M40.0927 40.2093L36.6463 50.2954M40.0927 40.2093L36.6463 50.2954M45.9173 72.7678C45.9186 71.4705 45.4322 70.2201 44.5545 69.2648L45.9173 72.7678ZM36.6463 50.2954C36.6462 50.2955 36.6462 50.2955 36.6462 50.2955M36.6463 50.2954L36.6462 50.2955M36.6462 50.2955C36.2297 51.5124 36.149 52.8191 36.4126 54.078M36.6462 50.2955L36.4126 54.078M36.4126 54.078C36.6761 55.3368 37.2742 56.5014 38.1438 57.449L36.4126 54.078Z" fill="white" stroke="white" stroke-width="0.512"/>
<path d="M16.5335 57.1187H16.5335C17.4771 57.1187 18.7702 56.7422 20.0461 55.1176L20.1197 55.0238L20.2389 55.0198C22.4322 54.9465 24.6099 54.6215 26.7291 54.0511C32.2094 52.5562 36.21 49.5204 38.3468 45.2908C38.4432 45.0998 38.501 44.8918 38.5169 44.6785C38.5329 44.4652 38.5067 44.2509 38.4398 44.0477C38.373 43.8445 38.2667 43.6565 38.1272 43.4944C37.9876 43.3323 37.8176 43.1992 37.6266 43.1029C37.4356 43.0065 37.2276 42.9487 37.0143 42.9327C36.801 42.9167 36.5866 42.9429 36.3835 43.0098C36.1803 43.0767 35.9923 43.1829 35.8302 43.3224C35.668 43.462 35.535 43.6321 35.4386 43.823L35.4386 43.8232C33.3383 47.9786 29.3137 49.9608 25.8392 50.9064C24.0987 51.3801 22.4857 51.5969 21.3006 51.6954C20.7078 51.7446 20.2213 51.7644 19.8786 51.7718C19.7072 51.7755 19.5718 51.7761 19.477 51.7758C19.4295 51.7756 19.3923 51.7752 19.366 51.7749L19.3349 51.7744L19.3279 51.7743C19.325 51.7742 19.3246 51.7742 19.3251 51.7742H19.3154L19.3154 51.774C19.0268 51.7631 18.7405 51.829 18.4858 51.9651C18.2311 52.1012 18.0171 52.3026 17.8659 52.5487C17.5545 53.0559 17.2776 53.3751 17.0588 53.5709C16.9495 53.6687 16.8529 53.7375 16.7717 53.7834C16.7312 53.8062 16.6923 53.8247 16.6556 53.8382C16.6248 53.8496 16.5756 53.865 16.5206 53.865H16.4769L16.4358 53.8505C16.0374 53.7107 15.6394 53.57 15.2418 53.4286L16.5335 57.1187ZM16.5335 57.1187C16.1355 57.1188 15.7404 57.0523 15.3644 56.9221M16.5335 57.1187L15.3644 56.9221M15.3644 56.9221C15.0059 56.7974 14.6493 56.6709 14.2913 56.5438L14.1506 56.4939L15.3644 56.9221ZM15.2281 53.4237L15.2416 53.4285L5.96437 50.1625L5.91227 50.4131C5.91235 50.4131 5.91243 50.4132 5.91252 50.4132C6.35146 50.5044 6.78501 50.6199 7.21116 50.7592L7.21125 50.7592L12.593 52.5154L12.5933 52.5155C13.4835 52.8049 14.3684 53.1188 15.2281 53.4237ZM14.1503 56.4938C13.3107 56.1947 12.4397 55.8862 11.5868 55.6083L11.5866 55.6082L6.20648 53.8596C6.20631 53.8595 6.20614 53.8595 6.20598 53.8594C5.89399 53.7557 5.57626 53.6702 5.25438 53.6033L5.25404 53.6033C3.20172 53.1796 1.87816 52.3572 1.24261 51.2073C1.01233 50.7859 0.875997 50.3197 0.842977 49.8406C0.809936 49.3612 0.881123 48.8804 1.05164 48.4311L1.05201 48.4302L1.06614 48.3925C1.0728 48.3747 1.07948 48.357 1.08617 48.3392C1.13837 48.2003 1.19072 48.0611 1.23259 47.929C1.23274 47.9285 1.23289 47.9281 1.23304 47.9276L10.3348 20.2913L10.3349 20.2912C10.5911 19.5116 10.7969 18.712 11.012 17.8751C11.0121 17.8749 11.0121 17.8746 11.0122 17.8744L11.0708 17.6493C11.0708 17.6492 11.0709 17.6492 11.0709 17.6491C11.0709 17.6491 11.0709 17.6491 11.0709 17.6491C11.2949 16.7922 11.7981 16.0345 12.5008 15.4955C13.0602 15.0665 13.7108 14.7719 14.4022 14.6345C15.0937 14.4971 15.8075 14.5207 16.4884 14.7033L16.4893 14.7036L25.4637 17.0747L25.4636 17.075L25.4768 17.0778C27.778 17.5576 29.4024 18.6396 30.3475 20.2757C31.6729 22.5698 31.1408 25.1289 30.9115 25.9582L27.817 24.9268C27.8841 24.636 27.9471 24.2289 27.9535 23.7814C27.9621 23.1818 27.8696 22.4808 27.5213 21.8884L27.5212 21.8882C27.0321 21.0576 26.0826 20.5246 24.7757 20.2584L24.7748 20.2582C24.7447 20.2522 24.7153 20.2453 24.6878 20.2377L24.6878 20.2377L24.6851 20.237L15.6646 17.8538C15.4713 17.7975 15.2676 17.7863 15.0692 17.8211C14.8719 17.8557 14.6851 17.9348 14.5231 18.0525C14.3799 18.1476 14.2755 18.2911 14.2292 18.4568L14.2291 18.4568L14.2278 18.4621L14.1701 18.6869L14.1701 18.687L14.1503 56.4938Z" fill="white" stroke="white" stroke-width="0.512"/>
<path d="M44.257 4.3117L44.2566 4.3117C43.0099 4.31267 41.7915 4.68324 40.7554 5.37657C39.7193 6.06991 38.912 7.05486 38.4356 8.20693C37.9592 9.35901 37.835 10.6265 38.0788 11.8491C38.3226 13.0717 38.9235 14.1946 39.8054 15.0758C40.6872 15.957 41.8106 16.5569 43.0334 16.7998C44.2562 17.0427 45.5236 16.9175 46.6753 16.4402C47.827 15.9629 48.8113 15.1548 49.5038 14.1182C50.1963 13.0815 50.566 11.8628 50.566 10.6161V10.6158C50.5637 8.94369 49.8981 7.3408 48.7153 6.1589C47.5325 4.97701 45.9291 4.31267 44.257 4.3117ZM44.2567 20.1778C42.3659 20.1769 40.5178 19.6153 38.946 18.5641C37.3742 17.5129 36.1494 16.0193 35.4264 14.2721C34.7034 12.5248 34.5147 10.6024 34.8841 8.74794C35.2536 6.89346 36.1646 5.19016 37.502 3.85339C38.8394 2.51663 40.5432 1.60642 42.3978 1.23786C44.2525 0.869288 46.1748 1.05891 47.9217 1.78274C49.6686 2.50658 51.1616 3.73212 52.2121 5.30443C53.2625 6.87665 53.8231 8.72499 53.8232 10.6158C53.8199 13.1516 52.8107 15.5825 51.0172 17.3751C49.2238 19.1677 46.7925 20.1757 44.2567 20.1778Z" fill="white" stroke="white" stroke-width="0.512"/>
<path d="M62.5135 98.5425C62.0816 98.5425 61.6673 98.3709 61.3619 98.0654C61.0565 97.76 60.8849 97.3458 60.8849 96.9138V47.2766C60.8849 46.8446 61.0565 46.4304 61.3619 46.125C61.6673 45.8196 62.0816 45.648 62.5135 45.648C62.9455 45.648 63.3597 45.8196 63.6651 46.125C63.9706 46.4304 64.1421 46.8446 64.1421 47.2766V96.9138C64.1421 97.3458 63.9706 97.76 63.6651 98.0654C63.3597 98.3709 62.9455 98.5425 62.5135 98.5425Z" fill="white" stroke="white" stroke-width="0.512"/>
<path d="M62.5135 41.936C62.0816 41.936 61.6673 41.7644 61.3619 41.459C61.0565 41.1536 60.8849 40.7394 60.8849 40.3074V29.995C60.8849 29.5631 61.0565 29.1489 61.3619 28.8434C61.6673 28.538 62.0816 28.3664 62.5135 28.3664C62.9455 28.3664 63.3597 28.538 63.6651 28.8434C63.9706 29.1489 64.1421 29.5631 64.1421 29.995V40.3074C64.1421 40.7394 63.9706 41.1536 63.6651 41.459C63.3597 41.7644 62.9455 41.936 62.5135 41.936Z" fill="white" stroke="white" stroke-width="0.512"/>
<path d="M9.69019 27.6439L9.69019 27.6439L9.68883 27.6435C9.48221 27.5854 9.2891 27.4871 9.1206 27.3542C8.9521 27.2213 8.81153 27.0564 8.70697 26.869C8.60242 26.6815 8.53594 26.4753 8.51135 26.2621C8.48677 26.0489 8.50456 25.8329 8.56371 25.6266C8.62287 25.4203 8.72221 25.2278 8.85604 25.06C8.98987 24.8922 9.15553 24.7525 9.34352 24.649C9.53151 24.5454 9.7381 24.4801 9.95144 24.4567C10.1648 24.4332 10.3806 24.4522 10.5866 24.5125L10.5866 24.5125L10.5879 24.5128L27.8062 29.4517L27.8768 29.2056L27.8062 29.4517C28.1836 29.5599 28.5092 29.8008 28.723 30.13C28.9369 30.4592 29.0246 30.8546 28.9701 31.2434C28.9156 31.6321 28.7225 31.9881 28.4264 32.2458C28.1303 32.5035 27.7511 32.6455 27.3586 32.6458C27.2062 32.6457 27.0547 32.6244 26.9082 32.5826L9.69019 27.6439Z" fill="white" stroke="white" stroke-width="0.512"/>
</svg>
