<svg width="99" height="99" viewBox="0 0 99 99" fill="none" xmlns="http://www.w3.org/2000/svg">
<mask id="path-1-outside-1_2181_4226" maskUnits="userSpaceOnUse" x="0.0395508" y="0.298462" width="99" height="99" fill="black">
<rect fill="white" x="0.0395508" y="0.298462" width="99" height="99"/>
<path d="M96.542 25.7446H94.8874L96.9125 22.6827C97.6458 21.574 97.9033 20.246 97.6379 18.9436C97.3725 17.6411 96.6156 16.52 95.5071 15.7867C94.7264 15.2705 93.8368 14.9911 92.9239 14.9631C93.1967 13.1112 92.4101 11.179 90.7483 10.0798C90.0404 9.61177 89.2554 9.3492 88.4639 9.27699C88.7302 8.39893 88.744 7.47494 88.5244 6.60746H96.353C97.1362 6.60746 97.7707 5.97269 97.7707 5.18971C97.7707 4.40674 97.1362 3.77196 96.353 3.77196H86.5803C86.5365 3.74096 86.4932 3.70939 86.4482 3.67971C84.5705 2.43795 82.1526 2.64003 80.5084 4.01563C80.1322 3.31564 79.5835 2.69599 78.8755 2.22775C77.767 1.49449 76.4385 1.23684 75.1365 1.50243C73.8338 1.76783 72.7129 2.52472 71.9796 3.6334L71.8879 3.77215H48.5555L46.6495 2.95439C44.0891 1.85554 41.3778 1.29846 38.5912 1.29846H11.1173C8.37329 1.29846 6.14099 3.53095 6.14099 6.27476C6.14099 7.23052 6.41245 8.1237 6.88125 8.88248C5.18467 9.67623 4.00605 11.3987 4.00605 13.3919C4.00605 14.2406 4.22004 15.0402 4.5964 15.7402C2.54199 16.3531 1.03955 18.2587 1.03955 20.5094C1.03955 22.76 2.54199 24.6656 4.59621 25.2783C4.21985 25.9783 4.00586 26.7779 4.00586 27.6266C4.00586 30.3707 6.23835 32.6029 8.98235 32.6029H24.9099L22.9203 34.1224C21.7491 35.0167 21.0087 36.3154 20.8353 37.7789C20.662 39.2424 21.0788 40.6781 22.0088 41.8213C23.0782 43.1361 24.6271 43.8211 26.1944 43.8211C27.3301 43.8211 28.4755 43.4614 29.455 42.7206L33.886 39.3692L48.2215 53.7047C48.4398 53.9231 48.7234 54.0641 49.0291 54.1064L72.7191 57.393C74.0936 57.5837 75.0593 58.8147 74.9174 60.1952C74.8459 60.8914 74.5038 61.5133 73.9541 61.9466C73.4045 62.3799 72.72 62.5678 72.0261 62.4744L65.8649 61.6487L65.2029 60.9867C64.6491 60.433 63.7515 60.433 63.1979 60.9867C62.6442 61.5404 62.6442 62.4381 63.1979 62.9916L78.426 78.2197C78.8306 78.6241 79.053 79.1617 79.053 79.7335C79.053 80.3053 78.8302 80.8429 78.4258 81.2473C78.0215 81.6516 77.4841 81.8743 76.912 81.8743C76.3404 81.8743 75.8026 81.6516 75.3983 81.2473L66.2559 72.1049C65.702 71.5512 64.8045 71.5512 64.2508 72.1049C63.6971 72.6585 63.6971 73.5563 64.2508 74.1098L75.4909 85.3499C76.3257 86.1846 76.3257 87.5428 75.4909 88.3776C74.6565 89.2124 73.2977 89.2124 72.4633 88.3776L61.8646 77.7789C61.3108 77.2252 60.4132 77.2252 59.8595 77.7789C59.3059 78.3326 59.3059 79.2303 59.8595 79.7838L68.3607 88.285C69.1955 89.1198 69.1955 90.478 68.3607 91.3127C67.9564 91.7171 67.419 91.9398 66.847 91.9398C66.275 91.9398 65.7375 91.7171 65.3332 91.3127L56.8318 82.8115C56.2779 82.2578 55.3804 82.2578 54.8267 82.8115C54.273 83.3652 54.273 84.2629 54.8267 84.8164L61.8183 91.808C62.6531 92.6428 62.6531 94.001 61.8183 94.8357C61.414 95.2401 60.8765 95.4628 60.3045 95.4628C59.7325 95.4628 59.1951 95.2401 58.7907 94.8357L39.3634 75.409C37.6665 73.712 36.3546 71.7217 35.4642 69.493L34.5867 67.2966C34.5155 67.1182 34.4087 66.956 34.2726 66.8201L26.8108 59.3583C26.2572 58.8047 25.3594 58.8047 24.806 59.3583C24.2523 59.912 24.2523 60.8097 24.806 61.3632L32.0616 68.6189L32.7249 70.2788L16.0023 95.5635C15.5704 96.2166 15.7497 97.0962 16.4029 97.5282C16.6435 97.6873 16.9149 97.7635 17.1836 97.7635C17.6435 97.7635 18.0947 97.5399 18.3675 97.1276L34.154 73.2582C35.0344 74.77 36.1056 76.161 37.3585 77.4137L47.5858 87.6409L42.2715 95.6762C41.8396 96.3293 42.0188 97.2089 42.6719 97.6408C42.9125 97.8002 43.184 97.8764 43.4526 97.8764C43.9125 97.8764 44.3637 97.6527 44.6365 97.2404L49.6319 89.6872L56.7855 96.8408C57.7255 97.7807 58.9751 98.2985 60.3043 98.2985C61.6336 98.2985 62.8833 97.7807 63.8232 96.8408C64.498 96.166 64.9375 95.3437 65.1428 94.4768C65.6816 94.6726 66.2562 94.7753 66.8466 94.7753C68.1759 94.7753 69.4256 94.2575 70.3654 93.3176C70.9547 92.7284 71.3777 92.0174 71.6115 91.2413C72.3471 91.6382 73.1618 91.8377 73.9769 91.8377C75.2512 91.8377 76.5255 91.3526 77.4958 90.3825C79.0873 88.7908 79.3723 86.381 78.3529 84.4952C79.1139 84.2663 79.8307 83.8523 80.4309 83.2522C82.3711 81.3119 82.3711 78.1549 80.4309 76.2146L69.1685 64.9522L71.6496 65.2847C71.8943 65.3174 72.1384 65.3337 72.3807 65.3337C73.5853 65.3337 74.7461 64.9329 75.7094 64.1734C76.8669 63.2609 77.5873 61.9511 77.7379 60.4852C78.0368 57.5778 76.0032 54.9858 73.1085 54.5843L72.8698 54.5512L74.197 52.5446L75.9304 51.4061C78.2597 49.8761 80.2198 47.9218 81.7566 45.598L83.4477 43.0412C83.8796 42.3881 83.7002 41.5085 83.0473 41.0766C82.3938 40.6444 81.5148 40.8236 81.0825 41.4769L79.3914 44.034C78.068 46.0353 76.3795 47.7184 74.3733 49.0362L72.3966 50.3347C72.2359 50.4401 72.0987 50.5772 71.9925 50.7375L69.7558 54.1193L49.8897 51.3632L49.1342 50.6076L56.3556 39.6889C56.5257 39.4314 56.6074 39.1254 56.5879 38.8172L55.077 14.948C54.9893 13.5629 56.0025 12.3709 57.3836 12.2342C58.0794 12.1658 58.7579 12.3764 59.2921 12.8284C59.8265 13.2805 60.1467 13.914 60.1943 14.6123L60.6157 20.8141L60.099 21.5954C59.6671 22.2485 59.8465 23.128 60.4994 23.56C60.7402 23.7193 61.0117 23.7955 61.2803 23.7955C61.7402 23.7955 62.1913 23.5719 62.4642 23.1596L74.3446 5.19727C74.6601 4.72034 75.1423 4.39464 75.7028 4.28046C76.2627 4.16629 76.8344 4.27706 77.3113 4.59237C78.296 5.24359 78.5672 6.57438 77.9158 7.55906L70.7836 18.3432C70.3516 18.9963 70.531 19.8759 71.184 20.3078C71.8371 20.7396 72.7165 20.5604 73.1488 19.9073L81.9177 6.64886C82.2332 6.17193 82.7154 5.84642 83.2759 5.73205C83.8358 5.61806 84.4072 5.72865 84.8843 6.04414C85.3615 6.35964 85.6868 6.84186 85.8011 7.40235C85.9155 7.96283 85.8046 8.5339 85.4891 9.01102L77.2206 21.5131C76.7886 22.1662 76.968 23.0458 77.6209 23.4777C77.8618 23.6371 78.1332 23.7133 78.4018 23.7133C78.8617 23.7133 79.313 23.4897 79.5857 23.0774L80.909 21.0768C80.9092 21.0765 86.218 13.0495 86.218 13.0495C86.5335 12.5726 87.0157 12.2469 87.5762 12.1327C88.1361 12.0185 88.7077 12.1293 89.1847 12.4448C90.1693 13.096 90.4408 14.4268 89.7894 15.4113L83.1571 25.4392C82.7252 26.0923 82.9046 26.9718 83.5575 27.4038C83.7983 27.5631 84.0698 27.6393 84.3384 27.6393C84.7983 27.6393 85.2496 27.4157 85.5223 27.0034L90.9769 18.7563C91.2924 18.2793 91.7746 17.9538 92.3349 17.8396C92.895 17.7255 93.4663 17.8362 93.9434 18.1515C94.4203 18.467 94.746 18.9494 94.8604 19.5097C94.9746 20.07 94.8638 20.6413 94.5483 21.1182L84.6235 36.1245C84.1915 36.7776 84.3709 37.6571 85.0238 38.0891C85.2647 38.2484 85.5361 38.3246 85.8047 38.3246C86.2647 38.3246 86.7157 38.101 86.9887 37.6887L93.013 28.5799H96.543C97.3261 28.5799 97.9607 27.9452 97.9607 27.1622C97.9607 26.3792 97.3252 25.7446 96.542 25.7446ZM63.0236 14.4204C62.9238 12.9499 62.2487 11.6161 61.1236 10.6641C59.9985 9.71215 58.5709 9.26792 57.1048 9.4131C54.1963 9.7008 52.0627 12.211 52.2474 15.1276L52.9196 25.7446H47.6748C47.3661 25.7446 47.0658 25.8454 46.8196 26.0318L41.4157 30.1191C40.7912 30.5914 40.6679 31.4807 41.1403 32.105C41.4192 32.4736 41.843 32.6676 42.2721 32.6676C42.57 32.6676 42.8704 32.574 43.1263 32.3805L48.1508 28.5801H53.0993L53.7288 38.5218L47.0886 48.5617L36.1693 37.6424L38.3075 36.0252C38.9319 35.5528 39.0553 34.6636 38.5831 34.0392C38.1107 33.4148 37.2215 33.2914 36.5971 33.7636L27.7449 40.459C26.6379 41.2962 25.0848 41.1087 24.2088 40.032C23.7672 39.4891 23.5693 38.8072 23.6515 38.1123C23.7339 37.4174 24.0854 36.8008 24.6417 36.3759L29.5823 32.6029H30.5185C31.3015 32.6029 31.9363 31.9682 31.9363 31.1852C31.9363 30.4022 31.3015 29.7674 30.5185 29.7674H8.98235C7.80184 29.7674 6.84136 28.807 6.84136 27.6266C6.84136 26.4461 7.80184 25.4857 8.98235 25.4857H21.9117C22.6946 25.4857 23.3294 24.8509 23.3294 24.0679C23.3294 23.2849 22.6946 22.6502 21.9117 22.6502H6.01604C4.83553 22.6502 3.87505 21.6897 3.87505 20.5092C3.87505 19.3287 4.83553 18.3684 6.01604 18.3684H21.0049C21.7878 18.3684 22.4226 17.7336 22.4226 16.9506C22.4226 16.1676 21.7878 15.5329 21.0049 15.5329H8.98235C7.80184 15.5329 6.84136 14.5724 6.84136 13.3919C6.84136 12.2114 7.80184 11.2511 8.98235 11.2511H21.0049C21.7878 11.2511 22.4226 10.6163 22.4226 9.83332C22.4226 9.05034 21.7878 8.41557 21.0049 8.41557H11.1173C9.93678 8.41557 8.9763 7.45509 8.9763 6.27458C8.97649 5.09444 9.93678 4.13396 11.1173 4.13396H38.5912C40.9912 4.13396 43.3261 4.61373 45.5316 5.55984L47.7053 6.49253C47.8818 6.56833 48.072 6.60727 48.2642 6.60727H70.0123L63.1931 16.9177L63.0236 14.4204Z"/>
<path d="M21.3852 57.3557C21.748 57.3557 22.1109 57.2174 22.3877 56.9404C22.9413 56.3867 22.9413 55.489 22.3877 54.9355L3.45974 36.0076C2.90607 35.454 2.00835 35.454 1.45486 36.0076C0.901178 36.5613 0.901178 37.459 1.45486 38.0125L20.3828 56.9404C20.6595 57.2174 21.0225 57.3557 21.3852 57.3557Z"/>
</mask>
<path d="M96.542 25.7446H94.8874L96.9125 22.6827C97.6458 21.574 97.9033 20.246 97.6379 18.9436C97.3725 17.6411 96.6156 16.52 95.5071 15.7867C94.7264 15.2705 93.8368 14.9911 92.9239 14.9631C93.1967 13.1112 92.4101 11.179 90.7483 10.0798C90.0404 9.61177 89.2554 9.3492 88.4639 9.27699C88.7302 8.39893 88.744 7.47494 88.5244 6.60746H96.353C97.1362 6.60746 97.7707 5.97269 97.7707 5.18971C97.7707 4.40674 97.1362 3.77196 96.353 3.77196H86.5803C86.5365 3.74096 86.4932 3.70939 86.4482 3.67971C84.5705 2.43795 82.1526 2.64003 80.5084 4.01563C80.1322 3.31564 79.5835 2.69599 78.8755 2.22775C77.767 1.49449 76.4385 1.23684 75.1365 1.50243C73.8338 1.76783 72.7129 2.52472 71.9796 3.6334L71.8879 3.77215H48.5555L46.6495 2.95439C44.0891 1.85554 41.3778 1.29846 38.5912 1.29846H11.1173C8.37329 1.29846 6.14099 3.53095 6.14099 6.27476C6.14099 7.23052 6.41245 8.1237 6.88125 8.88248C5.18467 9.67623 4.00605 11.3987 4.00605 13.3919C4.00605 14.2406 4.22004 15.0402 4.5964 15.7402C2.54199 16.3531 1.03955 18.2587 1.03955 20.5094C1.03955 22.76 2.54199 24.6656 4.59621 25.2783C4.21985 25.9783 4.00586 26.7779 4.00586 27.6266C4.00586 30.3707 6.23835 32.6029 8.98235 32.6029H24.9099L22.9203 34.1224C21.7491 35.0167 21.0087 36.3154 20.8353 37.7789C20.662 39.2424 21.0788 40.6781 22.0088 41.8213C23.0782 43.1361 24.6271 43.8211 26.1944 43.8211C27.3301 43.8211 28.4755 43.4614 29.455 42.7206L33.886 39.3692L48.2215 53.7047C48.4398 53.9231 48.7234 54.0641 49.0291 54.1064L72.7191 57.393C74.0936 57.5837 75.0593 58.8147 74.9174 60.1952C74.8459 60.8914 74.5038 61.5133 73.9541 61.9466C73.4045 62.3799 72.72 62.5678 72.0261 62.4744L65.8649 61.6487L65.2029 60.9867C64.6491 60.433 63.7515 60.433 63.1979 60.9867C62.6442 61.5404 62.6442 62.4381 63.1979 62.9916L78.426 78.2197C78.8306 78.6241 79.053 79.1617 79.053 79.7335C79.053 80.3053 78.8302 80.8429 78.4258 81.2473C78.0215 81.6516 77.4841 81.8743 76.912 81.8743C76.3404 81.8743 75.8026 81.6516 75.3983 81.2473L66.2559 72.1049C65.702 71.5512 64.8045 71.5512 64.2508 72.1049C63.6971 72.6585 63.6971 73.5563 64.2508 74.1098L75.4909 85.3499C76.3257 86.1846 76.3257 87.5428 75.4909 88.3776C74.6565 89.2124 73.2977 89.2124 72.4633 88.3776L61.8646 77.7789C61.3108 77.2252 60.4132 77.2252 59.8595 77.7789C59.3059 78.3326 59.3059 79.2303 59.8595 79.7838L68.3607 88.285C69.1955 89.1198 69.1955 90.478 68.3607 91.3127C67.9564 91.7171 67.419 91.9398 66.847 91.9398C66.275 91.9398 65.7375 91.7171 65.3332 91.3127L56.8318 82.8115C56.2779 82.2578 55.3804 82.2578 54.8267 82.8115C54.273 83.3652 54.273 84.2629 54.8267 84.8164L61.8183 91.808C62.6531 92.6428 62.6531 94.001 61.8183 94.8357C61.414 95.2401 60.8765 95.4628 60.3045 95.4628C59.7325 95.4628 59.1951 95.2401 58.7907 94.8357L39.3634 75.409C37.6665 73.712 36.3546 71.7217 35.4642 69.493L34.5867 67.2966C34.5155 67.1182 34.4087 66.956 34.2726 66.8201L26.8108 59.3583C26.2572 58.8047 25.3594 58.8047 24.806 59.3583C24.2523 59.912 24.2523 60.8097 24.806 61.3632L32.0616 68.6189L32.7249 70.2788L16.0023 95.5635C15.5704 96.2166 15.7497 97.0962 16.4029 97.5282C16.6435 97.6873 16.9149 97.7635 17.1836 97.7635C17.6435 97.7635 18.0947 97.5399 18.3675 97.1276L34.154 73.2582C35.0344 74.77 36.1056 76.161 37.3585 77.4137L47.5858 87.6409L42.2715 95.6762C41.8396 96.3293 42.0188 97.2089 42.6719 97.6408C42.9125 97.8002 43.184 97.8764 43.4526 97.8764C43.9125 97.8764 44.3637 97.6527 44.6365 97.2404L49.6319 89.6872L56.7855 96.8408C57.7255 97.7807 58.9751 98.2985 60.3043 98.2985C61.6336 98.2985 62.8833 97.7807 63.8232 96.8408C64.498 96.166 64.9375 95.3437 65.1428 94.4768C65.6816 94.6726 66.2562 94.7753 66.8466 94.7753C68.1759 94.7753 69.4256 94.2575 70.3654 93.3176C70.9547 92.7284 71.3777 92.0174 71.6115 91.2413C72.3471 91.6382 73.1618 91.8377 73.9769 91.8377C75.2512 91.8377 76.5255 91.3526 77.4958 90.3825C79.0873 88.7908 79.3723 86.381 78.3529 84.4952C79.1139 84.2663 79.8307 83.8523 80.4309 83.2522C82.3711 81.3119 82.3711 78.1549 80.4309 76.2146L69.1685 64.9522L71.6496 65.2847C71.8943 65.3174 72.1384 65.3337 72.3807 65.3337C73.5853 65.3337 74.7461 64.9329 75.7094 64.1734C76.8669 63.2609 77.5873 61.9511 77.7379 60.4852C78.0368 57.5778 76.0032 54.9858 73.1085 54.5843L72.8698 54.5512L74.197 52.5446L75.9304 51.4061C78.2597 49.8761 80.2198 47.9218 81.7566 45.598L83.4477 43.0412C83.8796 42.3881 83.7002 41.5085 83.0473 41.0766C82.3938 40.6444 81.5148 40.8236 81.0825 41.4769L79.3914 44.034C78.068 46.0353 76.3795 47.7184 74.3733 49.0362L72.3966 50.3347C72.2359 50.4401 72.0987 50.5772 71.9925 50.7375L69.7558 54.1193L49.8897 51.3632L49.1342 50.6076L56.3556 39.6889C56.5257 39.4314 56.6074 39.1254 56.5879 38.8172L55.077 14.948C54.9893 13.5629 56.0025 12.3709 57.3836 12.2342C58.0794 12.1658 58.7579 12.3764 59.2921 12.8284C59.8265 13.2805 60.1467 13.914 60.1943 14.6123L60.6157 20.8141L60.099 21.5954C59.6671 22.2485 59.8465 23.128 60.4994 23.56C60.7402 23.7193 61.0117 23.7955 61.2803 23.7955C61.7402 23.7955 62.1913 23.5719 62.4642 23.1596L74.3446 5.19727C74.6601 4.72034 75.1423 4.39464 75.7028 4.28046C76.2627 4.16629 76.8344 4.27706 77.3113 4.59237C78.296 5.24359 78.5672 6.57438 77.9158 7.55906L70.7836 18.3432C70.3516 18.9963 70.531 19.8759 71.184 20.3078C71.8371 20.7396 72.7165 20.5604 73.1488 19.9073L81.9177 6.64886C82.2332 6.17193 82.7154 5.84642 83.2759 5.73205C83.8358 5.61806 84.4072 5.72865 84.8843 6.04414C85.3615 6.35964 85.6868 6.84186 85.8011 7.40235C85.9155 7.96283 85.8046 8.5339 85.4891 9.01102L77.2206 21.5131C76.7886 22.1662 76.968 23.0458 77.6209 23.4777C77.8618 23.6371 78.1332 23.7133 78.4018 23.7133C78.8617 23.7133 79.313 23.4897 79.5857 23.0774L80.909 21.0768C80.9092 21.0765 86.218 13.0495 86.218 13.0495C86.5335 12.5726 87.0157 12.2469 87.5762 12.1327C88.1361 12.0185 88.7077 12.1293 89.1847 12.4448C90.1693 13.096 90.4408 14.4268 89.7894 15.4113L83.1571 25.4392C82.7252 26.0923 82.9046 26.9718 83.5575 27.4038C83.7983 27.5631 84.0698 27.6393 84.3384 27.6393C84.7983 27.6393 85.2496 27.4157 85.5223 27.0034L90.9769 18.7563C91.2924 18.2793 91.7746 17.9538 92.3349 17.8396C92.895 17.7255 93.4663 17.8362 93.9434 18.1515C94.4203 18.467 94.746 18.9494 94.8604 19.5097C94.9746 20.07 94.8638 20.6413 94.5483 21.1182L84.6235 36.1245C84.1915 36.7776 84.3709 37.6571 85.0238 38.0891C85.2647 38.2484 85.5361 38.3246 85.8047 38.3246C86.2647 38.3246 86.7157 38.101 86.9887 37.6887L93.013 28.5799H96.543C97.3261 28.5799 97.9607 27.9452 97.9607 27.1622C97.9607 26.3792 97.3252 25.7446 96.542 25.7446ZM63.0236 14.4204C62.9238 12.9499 62.2487 11.6161 61.1236 10.6641C59.9985 9.71215 58.5709 9.26792 57.1048 9.4131C54.1963 9.7008 52.0627 12.211 52.2474 15.1276L52.9196 25.7446H47.6748C47.3661 25.7446 47.0658 25.8454 46.8196 26.0318L41.4157 30.1191C40.7912 30.5914 40.6679 31.4807 41.1403 32.105C41.4192 32.4736 41.843 32.6676 42.2721 32.6676C42.57 32.6676 42.8704 32.574 43.1263 32.3805L48.1508 28.5801H53.0993L53.7288 38.5218L47.0886 48.5617L36.1693 37.6424L38.3075 36.0252C38.9319 35.5528 39.0553 34.6636 38.5831 34.0392C38.1107 33.4148 37.2215 33.2914 36.5971 33.7636L27.7449 40.459C26.6379 41.2962 25.0848 41.1087 24.2088 40.032C23.7672 39.4891 23.5693 38.8072 23.6515 38.1123C23.7339 37.4174 24.0854 36.8008 24.6417 36.3759L29.5823 32.6029H30.5185C31.3015 32.6029 31.9363 31.9682 31.9363 31.1852C31.9363 30.4022 31.3015 29.7674 30.5185 29.7674H8.98235C7.80184 29.7674 6.84136 28.807 6.84136 27.6266C6.84136 26.4461 7.80184 25.4857 8.98235 25.4857H21.9117C22.6946 25.4857 23.3294 24.8509 23.3294 24.0679C23.3294 23.2849 22.6946 22.6502 21.9117 22.6502H6.01604C4.83553 22.6502 3.87505 21.6897 3.87505 20.5092C3.87505 19.3287 4.83553 18.3684 6.01604 18.3684H21.0049C21.7878 18.3684 22.4226 17.7336 22.4226 16.9506C22.4226 16.1676 21.7878 15.5329 21.0049 15.5329H8.98235C7.80184 15.5329 6.84136 14.5724 6.84136 13.3919C6.84136 12.2114 7.80184 11.2511 8.98235 11.2511H21.0049C21.7878 11.2511 22.4226 10.6163 22.4226 9.83332C22.4226 9.05034 21.7878 8.41557 21.0049 8.41557H11.1173C9.93678 8.41557 8.9763 7.45509 8.9763 6.27458C8.97649 5.09444 9.93678 4.13396 11.1173 4.13396H38.5912C40.9912 4.13396 43.3261 4.61373 45.5316 5.55984L47.7053 6.49253C47.8818 6.56833 48.072 6.60727 48.2642 6.60727H70.0123L63.1931 16.9177L63.0236 14.4204Z" fill="white"/>
<path d="M21.3852 57.3557C21.748 57.3557 22.1109 57.2174 22.3877 56.9404C22.9413 56.3867 22.9413 55.489 22.3877 54.9355L3.45974 36.0076C2.90607 35.454 2.00835 35.454 1.45486 36.0076C0.901178 36.5613 0.901178 37.459 1.45486 38.0125L20.3828 56.9404C20.6595 57.2174 21.0225 57.3557 21.3852 57.3557Z" fill="white"/>
<path d="M96.542 25.7446H94.8874L96.9125 22.6827C97.6458 21.574 97.9033 20.246 97.6379 18.9436C97.3725 17.6411 96.6156 16.52 95.5071 15.7867C94.7264 15.2705 93.8368 14.9911 92.9239 14.9631C93.1967 13.1112 92.4101 11.179 90.7483 10.0798C90.0404 9.61177 89.2554 9.3492 88.4639 9.27699C88.7302 8.39893 88.744 7.47494 88.5244 6.60746H96.353C97.1362 6.60746 97.7707 5.97269 97.7707 5.18971C97.7707 4.40674 97.1362 3.77196 96.353 3.77196H86.5803C86.5365 3.74096 86.4932 3.70939 86.4482 3.67971C84.5705 2.43795 82.1526 2.64003 80.5084 4.01563C80.1322 3.31564 79.5835 2.69599 78.8755 2.22775C77.767 1.49449 76.4385 1.23684 75.1365 1.50243C73.8338 1.76783 72.7129 2.52472 71.9796 3.6334L71.8879 3.77215H48.5555L46.6495 2.95439C44.0891 1.85554 41.3778 1.29846 38.5912 1.29846H11.1173C8.37329 1.29846 6.14099 3.53095 6.14099 6.27476C6.14099 7.23052 6.41245 8.1237 6.88125 8.88248C5.18467 9.67623 4.00605 11.3987 4.00605 13.3919C4.00605 14.2406 4.22004 15.0402 4.5964 15.7402C2.54199 16.3531 1.03955 18.2587 1.03955 20.5094C1.03955 22.76 2.54199 24.6656 4.59621 25.2783C4.21985 25.9783 4.00586 26.7779 4.00586 27.6266C4.00586 30.3707 6.23835 32.6029 8.98235 32.6029H24.9099L22.9203 34.1224C21.7491 35.0167 21.0087 36.3154 20.8353 37.7789C20.662 39.2424 21.0788 40.6781 22.0088 41.8213C23.0782 43.1361 24.6271 43.8211 26.1944 43.8211C27.3301 43.8211 28.4755 43.4614 29.455 42.7206L33.886 39.3692L48.2215 53.7047C48.4398 53.9231 48.7234 54.0641 49.0291 54.1064L72.7191 57.393C74.0936 57.5837 75.0593 58.8147 74.9174 60.1952C74.8459 60.8914 74.5038 61.5133 73.9541 61.9466C73.4045 62.3799 72.72 62.5678 72.0261 62.4744L65.8649 61.6487L65.2029 60.9867C64.6491 60.433 63.7515 60.433 63.1979 60.9867C62.6442 61.5404 62.6442 62.4381 63.1979 62.9916L78.426 78.2197C78.8306 78.6241 79.053 79.1617 79.053 79.7335C79.053 80.3053 78.8302 80.8429 78.4258 81.2473C78.0215 81.6516 77.4841 81.8743 76.912 81.8743C76.3404 81.8743 75.8026 81.6516 75.3983 81.2473L66.2559 72.1049C65.702 71.5512 64.8045 71.5512 64.2508 72.1049C63.6971 72.6585 63.6971 73.5563 64.2508 74.1098L75.4909 85.3499C76.3257 86.1846 76.3257 87.5428 75.4909 88.3776C74.6565 89.2124 73.2977 89.2124 72.4633 88.3776L61.8646 77.7789C61.3108 77.2252 60.4132 77.2252 59.8595 77.7789C59.3059 78.3326 59.3059 79.2303 59.8595 79.7838L68.3607 88.285C69.1955 89.1198 69.1955 90.478 68.3607 91.3127C67.9564 91.7171 67.419 91.9398 66.847 91.9398C66.275 91.9398 65.7375 91.7171 65.3332 91.3127L56.8318 82.8115C56.2779 82.2578 55.3804 82.2578 54.8267 82.8115C54.273 83.3652 54.273 84.2629 54.8267 84.8164L61.8183 91.808C62.6531 92.6428 62.6531 94.001 61.8183 94.8357C61.414 95.2401 60.8765 95.4628 60.3045 95.4628C59.7325 95.4628 59.1951 95.2401 58.7907 94.8357L39.3634 75.409C37.6665 73.712 36.3546 71.7217 35.4642 69.493L34.5867 67.2966C34.5155 67.1182 34.4087 66.956 34.2726 66.8201L26.8108 59.3583C26.2572 58.8047 25.3594 58.8047 24.806 59.3583C24.2523 59.912 24.2523 60.8097 24.806 61.3632L32.0616 68.6189L32.7249 70.2788L16.0023 95.5635C15.5704 96.2166 15.7497 97.0962 16.4029 97.5282C16.6435 97.6873 16.9149 97.7635 17.1836 97.7635C17.6435 97.7635 18.0947 97.5399 18.3675 97.1276L34.154 73.2582C35.0344 74.77 36.1056 76.161 37.3585 77.4137L47.5858 87.6409L42.2715 95.6762C41.8396 96.3293 42.0188 97.2089 42.6719 97.6408C42.9125 97.8002 43.184 97.8764 43.4526 97.8764C43.9125 97.8764 44.3637 97.6527 44.6365 97.2404L49.6319 89.6872L56.7855 96.8408C57.7255 97.7807 58.9751 98.2985 60.3043 98.2985C61.6336 98.2985 62.8833 97.7807 63.8232 96.8408C64.498 96.166 64.9375 95.3437 65.1428 94.4768C65.6816 94.6726 66.2562 94.7753 66.8466 94.7753C68.1759 94.7753 69.4256 94.2575 70.3654 93.3176C70.9547 92.7284 71.3777 92.0174 71.6115 91.2413C72.3471 91.6382 73.1618 91.8377 73.9769 91.8377C75.2512 91.8377 76.5255 91.3526 77.4958 90.3825C79.0873 88.7908 79.3723 86.381 78.3529 84.4952C79.1139 84.2663 79.8307 83.8523 80.4309 83.2522C82.3711 81.3119 82.3711 78.1549 80.4309 76.2146L69.1685 64.9522L71.6496 65.2847C71.8943 65.3174 72.1384 65.3337 72.3807 65.3337C73.5853 65.3337 74.7461 64.9329 75.7094 64.1734C76.8669 63.2609 77.5873 61.9511 77.7379 60.4852C78.0368 57.5778 76.0032 54.9858 73.1085 54.5843L72.8698 54.5512L74.197 52.5446L75.9304 51.4061C78.2597 49.8761 80.2198 47.9218 81.7566 45.598L83.4477 43.0412C83.8796 42.3881 83.7002 41.5085 83.0473 41.0766C82.3938 40.6444 81.5148 40.8236 81.0825 41.4769L79.3914 44.034C78.068 46.0353 76.3795 47.7184 74.3733 49.0362L72.3966 50.3347C72.2359 50.4401 72.0987 50.5772 71.9925 50.7375L69.7558 54.1193L49.8897 51.3632L49.1342 50.6076L56.3556 39.6889C56.5257 39.4314 56.6074 39.1254 56.5879 38.8172L55.077 14.948C54.9893 13.5629 56.0025 12.3709 57.3836 12.2342C58.0794 12.1658 58.7579 12.3764 59.2921 12.8284C59.8265 13.2805 60.1467 13.914 60.1943 14.6123L60.6157 20.8141L60.099 21.5954C59.6671 22.2485 59.8465 23.128 60.4994 23.56C60.7402 23.7193 61.0117 23.7955 61.2803 23.7955C61.7402 23.7955 62.1913 23.5719 62.4642 23.1596L74.3446 5.19727C74.6601 4.72034 75.1423 4.39464 75.7028 4.28046C76.2627 4.16629 76.8344 4.27706 77.3113 4.59237C78.296 5.24359 78.5672 6.57438 77.9158 7.55906L70.7836 18.3432C70.3516 18.9963 70.531 19.8759 71.184 20.3078C71.8371 20.7396 72.7165 20.5604 73.1488 19.9073L81.9177 6.64886C82.2332 6.17193 82.7154 5.84642 83.2759 5.73205C83.8358 5.61806 84.4072 5.72865 84.8843 6.04414C85.3615 6.35964 85.6868 6.84186 85.8011 7.40235C85.9155 7.96283 85.8046 8.5339 85.4891 9.01102L77.2206 21.5131C76.7886 22.1662 76.968 23.0458 77.6209 23.4777C77.8618 23.6371 78.1332 23.7133 78.4018 23.7133C78.8617 23.7133 79.313 23.4897 79.5857 23.0774L80.909 21.0768C80.9092 21.0765 86.218 13.0495 86.218 13.0495C86.5335 12.5726 87.0157 12.2469 87.5762 12.1327C88.1361 12.0185 88.7077 12.1293 89.1847 12.4448C90.1693 13.096 90.4408 14.4268 89.7894 15.4113L83.1571 25.4392C82.7252 26.0923 82.9046 26.9718 83.5575 27.4038C83.7983 27.5631 84.0698 27.6393 84.3384 27.6393C84.7983 27.6393 85.2496 27.4157 85.5223 27.0034L90.9769 18.7563C91.2924 18.2793 91.7746 17.9538 92.3349 17.8396C92.895 17.7255 93.4663 17.8362 93.9434 18.1515C94.4203 18.467 94.746 18.9494 94.8604 19.5097C94.9746 20.07 94.8638 20.6413 94.5483 21.1182L84.6235 36.1245C84.1915 36.7776 84.3709 37.6571 85.0238 38.0891C85.2647 38.2484 85.5361 38.3246 85.8047 38.3246C86.2647 38.3246 86.7157 38.101 86.9887 37.6887L93.013 28.5799H96.543C97.3261 28.5799 97.9607 27.9452 97.9607 27.1622C97.9607 26.3792 97.3252 25.7446 96.542 25.7446ZM63.0236 14.4204C62.9238 12.9499 62.2487 11.6161 61.1236 10.6641C59.9985 9.71215 58.5709 9.26792 57.1048 9.4131C54.1963 9.7008 52.0627 12.211 52.2474 15.1276L52.9196 25.7446H47.6748C47.3661 25.7446 47.0658 25.8454 46.8196 26.0318L41.4157 30.1191C40.7912 30.5914 40.6679 31.4807 41.1403 32.105C41.4192 32.4736 41.843 32.6676 42.2721 32.6676C42.57 32.6676 42.8704 32.574 43.1263 32.3805L48.1508 28.5801H53.0993L53.7288 38.5218L47.0886 48.5617L36.1693 37.6424L38.3075 36.0252C38.9319 35.5528 39.0553 34.6636 38.5831 34.0392C38.1107 33.4148 37.2215 33.2914 36.5971 33.7636L27.7449 40.459C26.6379 41.2962 25.0848 41.1087 24.2088 40.032C23.7672 39.4891 23.5693 38.8072 23.6515 38.1123C23.7339 37.4174 24.0854 36.8008 24.6417 36.3759L29.5823 32.6029H30.5185C31.3015 32.6029 31.9363 31.9682 31.9363 31.1852C31.9363 30.4022 31.3015 29.7674 30.5185 29.7674H8.98235C7.80184 29.7674 6.84136 28.807 6.84136 27.6266C6.84136 26.4461 7.80184 25.4857 8.98235 25.4857H21.9117C22.6946 25.4857 23.3294 24.8509 23.3294 24.0679C23.3294 23.2849 22.6946 22.6502 21.9117 22.6502H6.01604C4.83553 22.6502 3.87505 21.6897 3.87505 20.5092C3.87505 19.3287 4.83553 18.3684 6.01604 18.3684H21.0049C21.7878 18.3684 22.4226 17.7336 22.4226 16.9506C22.4226 16.1676 21.7878 15.5329 21.0049 15.5329H8.98235C7.80184 15.5329 6.84136 14.5724 6.84136 13.3919C6.84136 12.2114 7.80184 11.2511 8.98235 11.2511H21.0049C21.7878 11.2511 22.4226 10.6163 22.4226 9.83332C22.4226 9.05034 21.7878 8.41557 21.0049 8.41557H11.1173C9.93678 8.41557 8.9763 7.45509 8.9763 6.27458C8.97649 5.09444 9.93678 4.13396 11.1173 4.13396H38.5912C40.9912 4.13396 43.3261 4.61373 45.5316 5.55984L47.7053 6.49253C47.8818 6.56833 48.072 6.60727 48.2642 6.60727H70.0123L63.1931 16.9177L63.0236 14.4204Z" stroke="white" mask="url(#path-1-outside-1_2181_4226)"/>
<path d="M21.3852 57.3557C21.748 57.3557 22.1109 57.2174 22.3877 56.9404C22.9413 56.3867 22.9413 55.489 22.3877 54.9355L3.45974 36.0076C2.90607 35.454 2.00835 35.454 1.45486 36.0076C0.901178 36.5613 0.901178 37.459 1.45486 38.0125L20.3828 56.9404C20.6595 57.2174 21.0225 57.3557 21.3852 57.3557Z" stroke="white" mask="url(#path-1-outside-1_2181_4226)"/>
</svg>
