<svg width="113" height="99" viewBox="0 0 113 99" fill="none" xmlns="http://www.w3.org/2000/svg">
<mask id="path-1-inside-1_1910_2738" fill="white">
<path d="M80.4922 23.91C80.4922 29.5267 85.0454 34.0799 90.662 34.0799C96.2786 34.0799 100.832 29.5267 100.832 23.91C100.832 18.2934 96.2786 13.7402 90.662 13.7402C85.0479 13.7463 80.4983 18.2959 80.4922 23.91ZM97.1337 23.91C97.1337 27.4843 94.2362 30.3817 90.662 30.3817C87.0878 30.3817 84.1903 27.4843 84.1903 23.91C84.1903 20.3358 87.0878 17.4383 90.662 17.4383C94.2362 17.4383 97.1337 20.3358 97.1337 23.91Z"/>
</mask>
<path d="M80.4922 23.91C80.4922 29.5267 85.0454 34.0799 90.662 34.0799C96.2786 34.0799 100.832 29.5267 100.832 23.91C100.832 18.2934 96.2786 13.7402 90.662 13.7402C85.0479 13.7463 80.4983 18.2959 80.4922 23.91ZM97.1337 23.91C97.1337 27.4843 94.2362 30.3817 90.662 30.3817C87.0878 30.3817 84.1903 27.4843 84.1903 23.91C84.1903 20.3358 87.0878 17.4383 90.662 17.4383C94.2362 17.4383 97.1337 20.3358 97.1337 23.91Z" fill="white"/>
<path d="M80.4922 23.91L72.0987 23.9009V23.91H80.4922ZM90.662 13.7402V5.34679L90.6529 5.3468L90.662 13.7402ZM72.0987 23.91C72.0987 34.1622 80.4098 42.4733 90.662 42.4733V25.6864C89.6809 25.6864 88.8856 24.8911 88.8856 23.91H72.0987ZM90.662 42.4733C100.914 42.4733 109.225 34.1622 109.225 23.91H92.4384C92.4384 24.8911 91.6431 25.6864 90.662 25.6864V42.4733ZM109.225 23.91C109.225 13.6578 100.914 5.34679 90.662 5.34679V22.1337C91.6431 22.1337 92.4384 22.929 92.4384 23.91H109.225ZM90.6529 5.3468C80.4103 5.35795 72.1099 13.6584 72.0988 23.9009L88.8856 23.9192C88.8867 22.9335 89.6855 22.1347 90.6711 22.1337L90.6529 5.3468ZM88.7403 23.91C88.7403 22.8487 89.6006 21.9883 90.662 21.9883V38.7752C98.8718 38.7752 105.527 32.1198 105.527 23.91H88.7403ZM90.662 21.9883C91.7233 21.9883 92.5837 22.8487 92.5837 23.91H75.7969C75.7969 32.1198 82.4522 38.7752 90.662 38.7752V21.9883ZM92.5837 23.91C92.5837 24.9714 91.7233 25.8318 90.662 25.8318V9.0449C82.4522 9.0449 75.7969 15.7003 75.7969 23.91H92.5837ZM90.662 25.8318C89.6006 25.8318 88.7403 24.9714 88.7403 23.91H105.527C105.527 15.7003 98.8718 9.0449 90.662 9.0449V25.8318Z" fill="white" mask="url(#path-1-inside-1_1910_2738)"/>
<mask id="path-3-inside-2_1910_2738" fill="white">
<path d="M47.2109 8.1931C47.2109 12.2779 50.5223 15.5893 54.6072 15.5893C58.692 15.5893 62.0034 12.2779 62.0034 8.1931C62.0034 4.10828 58.692 0.796875 54.6072 0.796875C50.5223 0.796875 47.2109 4.10828 47.2109 8.1931ZM58.3053 8.1931C58.3053 10.2355 56.6496 11.8912 54.6072 11.8912C52.5648 11.8912 50.9091 10.2355 50.9091 8.1931C50.9091 6.15069 52.5648 4.49499 54.6072 4.49499C56.6496 4.49499 58.3053 6.15069 58.3053 8.1931Z"/>
</mask>
<path d="M47.2109 8.1931C47.2109 12.2779 50.5223 15.5893 54.6072 15.5893C58.692 15.5893 62.0034 12.2779 62.0034 8.1931C62.0034 4.10828 58.692 0.796875 54.6072 0.796875C50.5223 0.796875 47.2109 4.10828 47.2109 8.1931ZM58.3053 8.1931C58.3053 10.2355 56.6496 11.8912 54.6072 11.8912C52.5648 11.8912 50.9091 10.2355 50.9091 8.1931C50.9091 6.15069 52.5648 4.49499 54.6072 4.49499C56.6496 4.49499 58.3053 6.15069 58.3053 8.1931Z" fill="white"/>
<path d="M38.8175 8.1931C38.8175 16.9135 45.8868 23.9828 54.6072 23.9828V7.19589C55.1579 7.19589 55.6044 7.64235 55.6044 8.1931H38.8175ZM54.6072 23.9828C63.3276 23.9828 70.3968 16.9135 70.3968 8.1931H53.6099C53.6099 7.64235 54.0564 7.19589 54.6072 7.19589V23.9828ZM70.3968 8.1931C70.3968 -0.527292 63.3276 -7.59657 54.6072 -7.59657V9.19032C54.0564 9.19032 53.6099 8.74385 53.6099 8.1931H70.3968ZM54.6072 -7.59657C45.8868 -7.59657 38.8175 -0.527292 38.8175 8.1931H55.6044C55.6044 8.74385 55.1579 9.19032 54.6072 9.19032V-7.59657ZM49.9118 8.1931C49.9118 5.59994 52.014 3.49777 54.6072 3.49777V20.2847C61.2851 20.2847 66.6987 14.8711 66.6987 8.1931H49.9118ZM54.6072 3.49777C57.2003 3.49777 59.3025 5.59994 59.3025 8.1931H42.5156C42.5156 14.8711 47.9292 20.2847 54.6072 20.2847V3.49777ZM59.3025 8.1931C59.3025 10.7863 57.2003 12.8884 54.6072 12.8884V-3.89845C47.9292 -3.89845 42.5156 1.51512 42.5156 8.1931H59.3025ZM54.6072 12.8884C52.014 12.8884 49.9118 10.7863 49.9118 8.1931H66.6987C66.6987 1.51512 61.2851 -3.89845 54.6072 -3.89845V12.8884Z" fill="white" mask="url(#path-3-inside-2_1910_2738)"/>
<mask id="path-5-inside-3_1910_2738" fill="white">
<path d="M79.7441 60.1519C81.3853 62.7659 84.4618 64.1056 87.4935 63.5264L105.984 59.8283C108.603 59.3382 110.756 57.4775 111.62 54.9572C112.484 52.4369 111.926 49.6466 110.159 47.6526C108.392 45.6587 105.689 44.7693 103.083 45.3243L89.6421 48.011L77.5493 28.3481C76.2079 26.1563 73.8192 24.8242 71.2495 24.8349H54.608C54.0332 24.8411 53.4611 24.9144 52.9032 25.0531L44.2552 11.0003C43.1908 9.25159 41.2895 8.18693 39.2424 8.19339H27.1126C25.5486 8.19692 24.0492 8.81678 22.9392 9.91856L16.1902 16.6676C14.6509 18.1481 14.0328 20.3454 14.5744 22.4112C15.1161 24.4771 16.7328 26.0884 18.8004 26.6232C20.8681 27.158 23.0633 26.5326 24.5387 24.9884L29.5441 19.9663H33.6268L27.1033 29.7386L17.9967 34.3095L10.0143 29.317C8.68589 28.4875 7.08231 28.2198 5.55648 28.5729C4.03064 28.9259 2.70759 29.8707 1.87848 31.1994C1.05059 32.5237 0.78358 34.123 1.13637 35.6444C1.48915 37.1659 2.43274 38.4845 3.75897 39.3093L14.5556 46.0676C16.2982 47.1439 18.4734 47.2426 20.3062 46.3283L31.1472 40.8995L38.7283 44.6827C39.2973 45.9182 40.2126 46.962 41.3632 47.6874L46.7144 58.4119L42.0696 60.7343L30.7903 53.6876C27.3264 51.5226 22.7633 52.5756 20.5983 56.0396C18.4334 59.5035 19.4864 64.0666 22.9503 66.2316L37.7428 75.4769C39.9351 76.821 42.6626 76.9508 44.9726 75.8208L60.1552 68.236L73.1356 74.7243L81.2714 91.0108C82.518 93.5242 85.0855 95.1099 87.891 95.0991H49.0609C48.0396 95.0991 47.2118 95.9269 47.2118 96.9481C47.2118 97.9693 48.0396 98.7972 49.0609 98.7972H110.08C111.101 98.7972 111.929 97.9693 111.929 96.9481C111.929 95.9269 111.101 95.0991 110.08 95.0991H87.904C89.0482 95.0951 90.1763 94.8282 91.2009 94.3187C92.9553 93.4412 94.2893 91.9027 94.9093 90.0415C95.5293 88.1804 95.3846 86.1493 94.507 84.3949L85.2617 65.9043C84.5438 64.475 83.3845 63.315 81.9556 62.5963L70.9574 57.0991L74.5519 51.7072L79.7441 60.1519ZM30.3151 37.1792L18.6661 43.0111C17.9748 43.3542 17.1562 43.3207 16.4953 42.9224L5.71527 36.1715C5.22116 35.8655 4.86952 35.3751 4.73831 34.809C4.6071 34.2428 4.70717 33.6477 5.01633 33.1557C5.66002 32.1259 7.01579 31.8116 8.04693 32.453L16.9039 38.0002C17.4511 38.3426 18.1372 38.3748 18.7141 38.0852L29.1983 32.8339C29.4854 32.6902 29.7301 32.4741 29.9083 32.2071L38.5619 19.2452C38.8904 18.6989 38.9438 18.0302 38.7061 17.4387C38.4245 16.7381 37.7452 16.2792 36.9902 16.2793H28.7767C28.2848 16.2789 27.813 16.4746 27.4657 16.8229L21.9296 22.3794C21.0606 23.2273 19.6738 23.2273 18.8047 22.3794C17.9509 21.5228 17.9509 20.1369 18.8047 19.2803L25.5538 12.5313C25.9691 12.1214 26.5291 11.8915 27.1126 11.8915H39.2424C40.0033 11.8891 40.7102 12.2846 41.1062 12.9344L49.6322 26.8023C49.5509 26.8763 49.4584 26.9317 49.3789 27.0112L46.4204 29.9697L43.2548 24.8238C42.9236 24.2881 42.3425 23.9578 41.7127 23.9474C41.0782 23.9154 40.4766 24.2314 40.1429 24.772L35.5202 31.7245C35.2264 32.1663 35.1365 32.713 35.2734 33.2256C35.4103 33.7382 35.7608 34.1673 36.2358 34.4038L40.08 36.3138C39.0309 37.3847 38.3358 38.7516 38.0886 40.2301L31.9682 37.1774C31.4475 36.9179 30.8352 36.9186 30.3151 37.1792ZM39.7601 32.0259L41.6258 29.2209L43.7411 32.6416L42.8295 33.5514L39.7601 32.0259ZM46.0469 48.8061C47.5467 48.67 48.9677 48.0732 50.1148 47.0975L53.9664 54.7896L50.0205 56.7626L46.0469 48.8061ZM56.6457 51.8921L52.8976 44.3961L57.6719 39.6274H64.8278L56.6457 51.8921ZM73.069 47.2547L66.7193 56.7903C66.4253 57.2316 66.3348 57.778 66.471 58.2905C66.6072 58.803 66.9569 59.2324 67.4312 59.4696L80.3025 65.9043C81.0162 66.2636 81.5952 66.8432 81.9537 67.5574L91.199 86.0479C91.6381 86.9252 91.7106 87.941 91.4006 88.8718C91.0906 89.8026 90.4234 90.572 89.546 91.0108C87.7171 91.8886 85.5217 91.1571 84.5849 89.3577L76.1662 72.5202C75.9876 72.1619 75.6976 71.8712 75.3397 71.6918L60.9836 64.5138C60.4623 64.2549 59.8499 64.2549 59.3287 64.5138L43.3288 72.5202C42.1725 73.0909 40.8044 73.0287 39.7046 72.3557L24.9122 63.1104C23.7891 62.4098 23.1252 61.1633 23.1704 59.8405C23.2156 58.5176 23.9631 57.3194 25.1313 56.6971C26.2995 56.0748 27.711 56.123 28.834 56.8236L40.9879 64.4214C41.5342 64.7624 42.2185 64.7946 42.7944 64.5064L57.1856 57.3099C57.4727 57.1661 57.7174 56.9501 57.8956 56.6831L69.7518 38.9062C70.1348 38.2554 70.1234 37.4455 69.7222 36.8057C69.3854 36.2611 68.7908 35.9296 68.1505 35.9292H56.9064C56.416 35.9293 55.9458 36.1242 55.5991 36.471L47.9773 44.091C46.5144 45.4885 44.2111 45.4885 42.7482 44.091C42.375 43.7135 42.0874 43.26 41.905 42.7615L41.8939 42.7245C41.3928 41.3811 41.7273 39.8687 42.7482 38.8618L44.5399 37.0701L44.5621 37.0498L51.9953 29.6166C52.6861 28.9203 53.6272 28.53 54.608 28.533H71.2495C72.5328 28.5309 73.7242 29.1981 74.3929 30.2933L87.1607 51.0397C87.566 51.6993 88.3393 52.0365 89.0985 51.8847L103.797 48.9447C105.092 48.6848 106.428 49.1357 107.301 50.1276C108.173 51.1195 108.451 52.5018 108.028 53.7536C107.606 55.0055 106.547 55.9368 105.252 56.1968L86.7613 59.8949C85.242 60.1926 83.6967 59.5208 82.8783 58.2067L76.1736 47.312C75.8432 46.7749 75.2619 46.4431 74.6315 46.4319C74.0051 46.4186 73.4164 46.7298 73.0746 47.2547H73.069Z"/>
</mask>
<path d="M79.7441 60.1519C81.3853 62.7659 84.4618 64.1056 87.4935 63.5264L105.984 59.8283C108.603 59.3382 110.756 57.4775 111.62 54.9572C112.484 52.4369 111.926 49.6466 110.159 47.6526C108.392 45.6587 105.689 44.7693 103.083 45.3243L89.6421 48.011L77.5493 28.3481C76.2079 26.1563 73.8192 24.8242 71.2495 24.8349H54.608C54.0332 24.8411 53.4611 24.9144 52.9032 25.0531L44.2552 11.0003C43.1908 9.25159 41.2895 8.18693 39.2424 8.19339H27.1126C25.5486 8.19692 24.0492 8.81678 22.9392 9.91856L16.1902 16.6676C14.6509 18.1481 14.0328 20.3454 14.5744 22.4112C15.1161 24.4771 16.7328 26.0884 18.8004 26.6232C20.8681 27.158 23.0633 26.5326 24.5387 24.9884L29.5441 19.9663H33.6268L27.1033 29.7386L17.9967 34.3095L10.0143 29.317C8.68589 28.4875 7.08231 28.2198 5.55648 28.5729C4.03064 28.9259 2.70759 29.8707 1.87848 31.1994C1.05059 32.5237 0.78358 34.123 1.13637 35.6444C1.48915 37.1659 2.43274 38.4845 3.75897 39.3093L14.5556 46.0676C16.2982 47.1439 18.4734 47.2426 20.3062 46.3283L31.1472 40.8995L38.7283 44.6827C39.2973 45.9182 40.2126 46.962 41.3632 47.6874L46.7144 58.4119L42.0696 60.7343L30.7903 53.6876C27.3264 51.5226 22.7633 52.5756 20.5983 56.0396C18.4334 59.5035 19.4864 64.0666 22.9503 66.2316L37.7428 75.4769C39.9351 76.821 42.6626 76.9508 44.9726 75.8208L60.1552 68.236L73.1356 74.7243L81.2714 91.0108C82.518 93.5242 85.0855 95.1099 87.891 95.0991H49.0609C48.0396 95.0991 47.2118 95.9269 47.2118 96.9481C47.2118 97.9693 48.0396 98.7972 49.0609 98.7972H110.08C111.101 98.7972 111.929 97.9693 111.929 96.9481C111.929 95.9269 111.101 95.0991 110.08 95.0991H87.904C89.0482 95.0951 90.1763 94.8282 91.2009 94.3187C92.9553 93.4412 94.2893 91.9027 94.9093 90.0415C95.5293 88.1804 95.3846 86.1493 94.507 84.3949L85.2617 65.9043C84.5438 64.475 83.3845 63.315 81.9556 62.5963L70.9574 57.0991L74.5519 51.7072L79.7441 60.1519ZM30.3151 37.1792L18.6661 43.0111C17.9748 43.3542 17.1562 43.3207 16.4953 42.9224L5.71527 36.1715C5.22116 35.8655 4.86952 35.3751 4.73831 34.809C4.6071 34.2428 4.70717 33.6477 5.01633 33.1557C5.66002 32.1259 7.01579 31.8116 8.04693 32.453L16.9039 38.0002C17.4511 38.3426 18.1372 38.3748 18.7141 38.0852L29.1983 32.8339C29.4854 32.6902 29.7301 32.4741 29.9083 32.2071L38.5619 19.2452C38.8904 18.6989 38.9438 18.0302 38.7061 17.4387C38.4245 16.7381 37.7452 16.2792 36.9902 16.2793H28.7767C28.2848 16.2789 27.813 16.4746 27.4657 16.8229L21.9296 22.3794C21.0606 23.2273 19.6738 23.2273 18.8047 22.3794C17.9509 21.5228 17.9509 20.1369 18.8047 19.2803L25.5538 12.5313C25.9691 12.1214 26.5291 11.8915 27.1126 11.8915H39.2424C40.0033 11.8891 40.7102 12.2846 41.1062 12.9344L49.6322 26.8023C49.5509 26.8763 49.4584 26.9317 49.3789 27.0112L46.4204 29.9697L43.2548 24.8238C42.9236 24.2881 42.3425 23.9578 41.7127 23.9474C41.0782 23.9154 40.4766 24.2314 40.1429 24.772L35.5202 31.7245C35.2264 32.1663 35.1365 32.713 35.2734 33.2256C35.4103 33.7382 35.7608 34.1673 36.2358 34.4038L40.08 36.3138C39.0309 37.3847 38.3358 38.7516 38.0886 40.2301L31.9682 37.1774C31.4475 36.9179 30.8352 36.9186 30.3151 37.1792ZM39.7601 32.0259L41.6258 29.2209L43.7411 32.6416L42.8295 33.5514L39.7601 32.0259ZM46.0469 48.8061C47.5467 48.67 48.9677 48.0732 50.1148 47.0975L53.9664 54.7896L50.0205 56.7626L46.0469 48.8061ZM56.6457 51.8921L52.8976 44.3961L57.6719 39.6274H64.8278L56.6457 51.8921ZM73.069 47.2547L66.7193 56.7903C66.4253 57.2316 66.3348 57.778 66.471 58.2905C66.6072 58.803 66.9569 59.2324 67.4312 59.4696L80.3025 65.9043C81.0162 66.2636 81.5952 66.8432 81.9537 67.5574L91.199 86.0479C91.6381 86.9252 91.7106 87.941 91.4006 88.8718C91.0906 89.8026 90.4234 90.572 89.546 91.0108C87.7171 91.8886 85.5217 91.1571 84.5849 89.3577L76.1662 72.5202C75.9876 72.1619 75.6976 71.8712 75.3397 71.6918L60.9836 64.5138C60.4623 64.2549 59.8499 64.2549 59.3287 64.5138L43.3288 72.5202C42.1725 73.0909 40.8044 73.0287 39.7046 72.3557L24.9122 63.1104C23.7891 62.4098 23.1252 61.1633 23.1704 59.8405C23.2156 58.5176 23.9631 57.3194 25.1313 56.6971C26.2995 56.0748 27.711 56.123 28.834 56.8236L40.9879 64.4214C41.5342 64.7624 42.2185 64.7946 42.7944 64.5064L57.1856 57.3099C57.4727 57.1661 57.7174 56.9501 57.8956 56.6831L69.7518 38.9062C70.1348 38.2554 70.1234 37.4455 69.7222 36.8057C69.3854 36.2611 68.7908 35.9296 68.1505 35.9292H56.9064C56.416 35.9293 55.9458 36.1242 55.5991 36.471L47.9773 44.091C46.5144 45.4885 44.2111 45.4885 42.7482 44.091C42.375 43.7135 42.0874 43.26 41.905 42.7615L41.8939 42.7245C41.3928 41.3811 41.7273 39.8687 42.7482 38.8618L44.5399 37.0701L44.5621 37.0498L51.9953 29.6166C52.6861 28.9203 53.6272 28.53 54.608 28.533H71.2495C72.5328 28.5309 73.7242 29.1981 74.3929 30.2933L87.1607 51.0397C87.566 51.6993 88.3393 52.0365 89.0985 51.8847L103.797 48.9447C105.092 48.6848 106.428 49.1357 107.301 50.1276C108.173 51.1195 108.451 52.5018 108.028 53.7536C107.606 55.0055 106.547 55.9368 105.252 56.1968L86.7613 59.8949C85.242 60.1926 83.6967 59.5208 82.8783 58.2067L76.1736 47.312C75.8432 46.7749 75.2619 46.4431 74.6315 46.4319C74.0051 46.4186 73.4164 46.7298 73.0746 47.2547H73.069Z" fill="white" stroke="white" stroke-width="16.7869" mask="url(#path-5-inside-3_1910_2738)"/>
<path d="M40.3139 96.9487C40.3139 97.4944 40.1277 97.9967 39.8153 98.3954C39.5029 97.9967 39.3167 97.4944 39.3167 96.9487C39.3167 96.4029 39.5029 95.9006 39.8153 95.5019C40.1277 95.9006 40.3139 96.4029 40.3139 96.9487Z" fill="white" stroke="white" stroke-width="8.39344"/>
</svg>
