<svg width="95" height="95" viewBox="0 0 95 95" fill="none" xmlns="http://www.w3.org/2000/svg">
<path d="M11.3249 53.6585C10.507 54.044 10.1462 55.0146 10.5107 55.8441L14.2463 63.9015C14.4298 64.3027 14.7647 64.6151 15.1764 64.7692C15.3569 64.835 15.5482 64.869 15.7406 64.869C15.9813 64.8711 16.2189 64.8193 16.4378 64.7196L44.6621 51.4738L42.1057 78.3304C42.0563 78.8591 42.2591 79.3789 42.6527 79.732C43.8901 80.7611 45.4322 81.3472 47.0366 81.4C47.4791 81.3995 47.9189 81.3436 48.3479 81.2339C50.6392 80.6331 52.4157 78.5817 53.6277 75.078L64.7347 42.0327L86.7325 31.7228C93.2076 28.6872 96.5444 22.5319 94.3036 17.7274C93.0319 15.2163 90.596 13.5081 87.8119 13.1732C84.7184 12.7041 81.5567 13.1931 78.7471 14.5753L53.3615 26.5354L26.0677 15.8092C22.6305 14.5085 19.9082 14.5419 17.9991 15.9268C16.3972 17.2474 15.4858 19.2324 15.5248 21.3142C15.5414 21.8423 15.8061 22.3307 16.2386 22.6327L34.6173 35.3268L24.092 40.3312L6.44283 35.8267C5.71963 35.648 4.96678 35.9756 4.60024 36.6275L0.201194 44.584C-0.0270506 45.0056 -0.0629251 45.506 0.102929 45.9563C0.267744 46.4072 0.61817 46.764 1.06478 46.9363L14.1309 52.3582L11.3249 53.6585ZM18.9277 20.4804C19.0254 19.7752 19.3805 19.1332 19.9244 18.6787C20.8711 17.9944 22.5978 18.0947 24.9052 18.9618L49.2115 28.4871L38.1205 33.6917L18.9277 20.4804ZM3.98621 44.5678L6.87489 39.4134L23.8591 43.65C24.2251 43.743 24.6114 43.708 24.9556 43.5507L80.1586 17.6444C82.3532 16.5568 84.8249 16.1608 87.2478 16.5097C88.9469 16.667 90.4603 17.6522 91.299 19.1452C92.6924 22.1484 89.9534 26.5355 85.3209 28.7039L66.1952 37.7125L67.3577 34.2585C67.6515 33.3699 67.1716 32.4097 66.2872 32.1151C65.4018 31.8205 64.4467 32.3026 64.1534 33.1912L50.4894 74.0432C49.6757 76.3626 48.6629 77.7474 47.5342 78.0468C46.8349 78.1821 46.1112 78.0442 45.5086 77.6639L48.8293 42.6324C48.9161 41.7114 48.2439 40.8939 47.3262 40.8066C46.4096 40.7183 45.5959 41.3948 45.5086 42.3158L44.9944 47.6703L16.5038 61.0153L14.1642 56.0108L18.845 53.8094C19.4476 53.5425 19.836 52.9438 19.836 52.283C19.836 51.6217 19.4476 51.023 18.845 50.7566L3.98621 44.5678Z" fill="white"/>
</svg>
