<svg width="183" height="38" viewBox="0 0 183 38" fill="none" xmlns="http://www.w3.org/2000/svg">
<path d="M25.9251 27.3422V37.8342H19.5201V28.4097C19.5201 25.7867 18.3611 24.6582 16.5006 24.6582C14.4266 24.6582 12.8406 25.9392 12.8406 28.9892V37.8342H6.43555V12.4582H12.8711V21.2117C14.3046 19.9002 16.2261 19.2292 18.3916 19.2292C22.6616 19.1987 25.9251 21.6692 25.9251 27.3422ZM41.9071 28.3182C41.9071 31.1242 40.2601 32.7102 38.0641 32.7102C35.8986 32.7102 34.2211 31.1242 34.2211 28.3182C34.2211 25.5427 35.8986 23.9872 38.0641 23.9872C40.2601 23.9872 41.9071 25.5427 41.9071 28.3182ZM27.7246 28.3182C27.7246 33.8692 32.0861 37.8037 38.0641 37.8037C44.1031 37.8037 48.4036 33.8387 48.4036 28.3182C48.4036 22.7977 44.1031 18.8937 38.0641 18.8937C32.0556 18.8937 27.7246 22.7977 27.7246 28.3182ZM69.7841 27.4337C69.9976 24.8412 71.4616 23.4382 73.6576 23.4382C75.4571 23.4382 76.7686 24.4447 77.1956 25.9697L69.7841 27.4337ZM78.6596 31.3072C77.4091 32.3747 76.2196 32.8932 74.4201 32.8932C72.4071 32.8932 70.9736 32.1917 70.2721 30.6972L83.3566 28.1962C83.3261 22.2182 78.9036 18.8632 73.6271 18.8632C67.8016 18.8632 63.5011 22.7977 63.5011 28.2877C63.5011 33.7777 67.7406 37.7733 74.2371 37.7733C77.7141 37.7733 80.2761 36.7667 82.0146 34.8147L78.6596 31.3072ZM112.545 28.3182C112.545 31.1242 110.868 32.7102 108.702 32.7102C106.537 32.7102 104.859 31.1242 104.859 28.3182C104.859 25.5427 106.537 23.9872 108.702 23.9872C110.837 23.9872 112.545 25.5427 112.545 28.3182ZM119.011 28.3182C119.011 22.4927 114.985 18.8937 110.014 18.8937C107.879 18.8937 106.171 19.5037 104.92 20.7847V12.4277H98.4846V37.4987H104.615V35.6687C105.835 37.1327 107.635 37.8037 110.014 37.8037C114.985 37.8037 119.011 34.1742 119.011 28.3182ZM127.124 27.4337C127.338 24.8412 128.802 23.4382 130.998 23.4382C132.797 23.4382 134.109 24.4447 134.536 25.9697L127.124 27.4337ZM136.03 31.3072C134.78 32.3747 133.59 32.8932 131.791 32.8932C129.778 32.8932 128.344 32.1917 127.643 30.6972L140.727 28.1962C140.697 22.2182 136.274 18.8632 130.998 18.8632C125.172 18.8632 120.872 22.7977 120.872 28.2877C120.872 33.7777 125.111 37.7733 131.608 37.7733C135.085 37.7733 137.647 36.7667 139.385 34.8147L136.03 31.3072ZM156.831 28.3182C156.831 31.1242 155.184 32.7102 153.019 32.7102C150.823 32.7102 149.176 31.1242 149.176 28.3182C149.176 25.5427 150.823 23.9872 153.019 23.9872C155.184 23.9872 156.831 25.5427 156.831 28.3182ZM156.74 12.4277V20.7847C155.52 19.5037 153.812 18.8937 151.677 18.8937C146.675 18.8937 142.649 22.5232 142.649 28.3182C142.649 34.1742 146.675 37.8037 151.677 37.8037C154.056 37.8037 155.825 37.1327 157.045 35.6687V37.4987H163.175V12.4277H156.74ZM165.829 35.9127C167.628 37.0413 170.831 37.8037 173.942 37.8037C179.889 37.8037 183 35.1807 183 31.7952C183 24.5362 172.203 27.2507 172.203 24.7192C172.203 24.0482 172.996 23.4382 175.131 23.4382C176.748 23.4382 178.578 23.7737 180.408 24.7802L182.329 20.4187C180.499 19.4122 177.663 18.8632 175.101 18.8632C169.367 18.8632 166.164 21.4862 166.164 24.9327C166.164 32.2527 176.992 29.4772 176.992 31.9172C176.992 32.6797 176.29 33.1677 174.125 33.1677C171.898 33.1677 169.428 32.5272 167.75 31.4902L165.829 35.9127ZM61.1221 32.2832C60.5731 32.6492 59.8716 32.8627 59.1701 32.8627C58.0111 32.8627 57.2791 32.1307 57.2791 30.7582V23.6822H61.4271V18.8937H57.2791V14.2577V12.4582H50.8436V14.2577V18.7717V30.8192C50.8436 35.5162 53.5581 37.8037 58.2551 37.8037C59.9326 37.8037 61.6101 37.4682 62.7081 36.7667L61.1221 32.2832ZM86.0101 31.1547C86.0101 35.4857 88.6941 37.8037 93.0556 37.8037C94.0621 37.8037 95.0076 37.6817 96.0141 37.3462L95.7396 32.5577C95.4041 32.7407 94.8246 32.8932 94.3061 32.8932C93.0556 32.8932 92.3236 32.1917 92.3236 30.8192V12.4277H85.9796V31.1547" fill="#193153"/>
<path d="M12.8711 6.60156H6.43555V13.0371H12.8711V6.60156Z" fill="#B92354"/>
<path d="M12.8711 0.166016H6.43555V6.60151H12.8711V0.166016Z" fill="#193153"/>
<path d="M6.4355 0.166016H0V6.60151H6.4355V0.166016Z" fill="#A1CFCA"/>
</svg>
