<svg width="225" height="80" viewBox="0 0 225 80" fill="none" xmlns="http://www.w3.org/2000/svg">
<path d="M46.9251 48.3422V58.8342H40.5201V49.4097C40.5201 46.7867 39.3611 45.6582 37.5006 45.6582C35.4266 45.6582 33.8406 46.9392 33.8406 49.9892V58.8342H27.4355V33.4582H33.8711V42.2117C35.3046 40.9002 37.2261 40.2292 39.3916 40.2292C43.6616 40.1987 46.9251 42.6692 46.9251 48.3422ZM62.9071 49.3182C62.9071 52.1242 61.2601 53.7102 59.0641 53.7102C56.8986 53.7102 55.2211 52.1242 55.2211 49.3182C55.2211 46.5427 56.8986 44.9872 59.0641 44.9872C61.2601 44.9872 62.9071 46.5427 62.9071 49.3182ZM48.7246 49.3182C48.7246 54.8692 53.0861 58.8037 59.0641 58.8037C65.1031 58.8037 69.4036 54.8387 69.4036 49.3182C69.4036 43.7977 65.1031 39.8937 59.0641 39.8937C53.0556 39.8937 48.7246 43.7977 48.7246 49.3182ZM90.7841 48.4337C90.9976 45.8412 92.4616 44.4382 94.6576 44.4382C96.4571 44.4382 97.7686 45.4447 98.1956 46.9697L90.7841 48.4337ZM99.6596 52.3072C98.4091 53.3747 97.2196 53.8932 95.4201 53.8932C93.4071 53.8932 91.9736 53.1917 91.2721 51.6972L104.357 49.1962C104.326 43.2182 99.9036 39.8632 94.6271 39.8632C88.8016 39.8632 84.5011 43.7977 84.5011 49.2877C84.5011 54.7777 88.7406 58.7733 95.2371 58.7733C98.7141 58.7733 101.276 57.7667 103.015 55.8147L99.6596 52.3072ZM133.545 49.3182C133.545 52.1242 131.868 53.7102 129.702 53.7102C127.537 53.7102 125.859 52.1242 125.859 49.3182C125.859 46.5427 127.537 44.9872 129.702 44.9872C131.837 44.9872 133.545 46.5427 133.545 49.3182ZM140.011 49.3182C140.011 43.4927 135.985 39.8937 131.014 39.8937C128.879 39.8937 127.171 40.5037 125.92 41.7847V33.4277H119.485V58.4987H125.615V56.6687C126.835 58.1327 128.635 58.8037 131.014 58.8037C135.985 58.8037 140.011 55.1742 140.011 49.3182ZM148.124 48.4337C148.338 45.8412 149.802 44.4382 151.998 44.4382C153.797 44.4382 155.109 45.4447 155.536 46.9697L148.124 48.4337ZM157.03 52.3072C155.78 53.3747 154.59 53.8932 152.791 53.8932C150.778 53.8932 149.344 53.1917 148.643 51.6972L161.727 49.1962C161.697 43.2182 157.274 39.8632 151.998 39.8632C146.172 39.8632 141.872 43.7977 141.872 49.2877C141.872 54.7777 146.111 58.7733 152.608 58.7733C156.085 58.7733 158.647 57.7667 160.385 55.8147L157.03 52.3072ZM177.831 49.3182C177.831 52.1242 176.184 53.7102 174.019 53.7102C171.823 53.7102 170.176 52.1242 170.176 49.3182C170.176 46.5427 171.823 44.9872 174.019 44.9872C176.184 44.9872 177.831 46.5427 177.831 49.3182ZM177.74 33.4277V41.7847C176.52 40.5037 174.812 39.8937 172.677 39.8937C167.675 39.8937 163.649 43.5232 163.649 49.3182C163.649 55.1742 167.675 58.8037 172.677 58.8037C175.056 58.8037 176.825 58.1327 178.045 56.6687V58.4987H184.175V33.4277H177.74ZM186.829 56.9127C188.628 58.0413 191.831 58.8037 194.942 58.8037C200.889 58.8037 204 56.1807 204 52.7952C204 45.5362 193.203 48.2507 193.203 45.7192C193.203 45.0482 193.996 44.4382 196.131 44.4382C197.748 44.4382 199.578 44.7737 201.408 45.7802L203.329 41.4187C201.499 40.4122 198.663 39.8632 196.101 39.8632C190.367 39.8632 187.164 42.4862 187.164 45.9327C187.164 53.2527 197.992 50.4772 197.992 52.9172C197.992 53.6797 197.29 54.1677 195.125 54.1677C192.898 54.1677 190.428 53.5272 188.75 52.4902L186.829 56.9127ZM82.1221 53.2832C81.5731 53.6492 80.8716 53.8627 80.1701 53.8627C79.0111 53.8627 78.2791 53.1307 78.2791 51.7582V44.6822H82.4271V39.8937H78.2791V35.2577V33.4582H71.8436V35.2577V39.7717V51.8192C71.8436 56.5162 74.5581 58.8037 79.2551 58.8037C80.9326 58.8037 82.6101 58.4682 83.7081 57.7667L82.1221 53.2832ZM107.01 52.1547C107.01 56.4857 109.694 58.8037 114.056 58.8037C115.062 58.8037 116.008 58.6817 117.014 58.3462L116.74 53.5577C116.404 53.7407 115.825 53.8932 115.306 53.8932C114.056 53.8932 113.324 53.1917 113.324 51.8192V33.4277H106.98V52.1547" fill="#193153"/>
<path d="M33.8711 27.6016H27.4355V34.0371H33.8711V27.6016Z" fill="#B92354"/>
<path d="M33.8711 21.166H27.4355V27.6015H33.8711V21.166Z" fill="#193153"/>
<path d="M27.4355 21.166H21V27.6015H27.4355V21.166Z" fill="#A1CFCA"/>
</svg>
