<svg width="183" height="38" viewBox="0 0 183 38" fill="none" xmlns="http://www.w3.org/2000/svg">
<path d="M25.9251 27.3437V37.8357H19.5201V28.4112C19.5201 25.7882 18.3611 24.6597 16.5006 24.6597C14.4266 24.6597 12.8406 25.9407 12.8406 28.9907V37.8357H6.43555V12.4597H12.8711V21.2132C14.3046 19.9017 16.2261 19.2307 18.3916 19.2307C22.6616 19.2002 25.9251 21.6707 25.9251 27.3437ZM41.9071 28.3197C41.9071 31.1257 40.2601 32.7117 38.0641 32.7117C35.8986 32.7117 34.2211 31.1257 34.2211 28.3197C34.2211 25.5442 35.8986 23.9887 38.0641 23.9887C40.2601 23.9887 41.9071 25.5442 41.9071 28.3197ZM27.7246 28.3197C27.7246 33.8707 32.0861 37.8052 38.0641 37.8052C44.1031 37.8052 48.4036 33.8402 48.4036 28.3197C48.4036 22.7992 44.1031 18.8952 38.0641 18.8952C32.0556 18.8952 27.7246 22.7992 27.7246 28.3197ZM69.7841 27.4352C69.9976 24.8427 71.4616 23.4397 73.6576 23.4397C75.4571 23.4397 76.7686 24.4462 77.1956 25.9712L69.7841 27.4352ZM78.6596 31.3087C77.4091 32.3762 76.2196 32.8947 74.4201 32.8947C72.4071 32.8947 70.9736 32.1932 70.2721 30.6987L83.3566 28.1977C83.3261 22.2197 78.9036 18.8647 73.6271 18.8647C67.8016 18.8647 63.5011 22.7992 63.5011 28.2892C63.5011 33.7792 67.7406 37.7747 74.2371 37.7747C77.7141 37.7747 80.2761 36.7682 82.0146 34.8162L78.6596 31.3087ZM112.545 28.3197C112.545 31.1257 110.868 32.7117 108.702 32.7117C106.537 32.7117 104.859 31.1257 104.859 28.3197C104.859 25.5442 106.537 23.9887 108.702 23.9887C110.837 23.9887 112.545 25.5442 112.545 28.3197ZM119.011 28.3197C119.011 22.4942 114.985 18.8952 110.014 18.8952C107.879 18.8952 106.171 19.5052 104.92 20.7862V12.4292H98.4846V37.5002H104.615V35.6702C105.835 37.1342 107.635 37.8052 110.014 37.8052C114.985 37.8052 119.011 34.1757 119.011 28.3197ZM127.124 27.4352C127.338 24.8427 128.802 23.4397 130.998 23.4397C132.797 23.4397 134.109 24.4462 134.536 25.9712L127.124 27.4352ZM136.03 31.3087C134.78 32.3762 133.59 32.8947 131.791 32.8947C129.778 32.8947 128.344 32.1932 127.643 30.6987L140.727 28.1977C140.697 22.2197 136.274 18.8647 130.998 18.8647C125.172 18.8647 120.872 22.7992 120.872 28.2892C120.872 33.7792 125.111 37.7747 131.608 37.7747C135.085 37.7747 137.647 36.7682 139.385 34.8162L136.03 31.3087ZM156.831 28.3197C156.831 31.1257 155.184 32.7117 153.019 32.7117C150.823 32.7117 149.176 31.1257 149.176 28.3197C149.176 25.5442 150.823 23.9887 153.019 23.9887C155.184 23.9887 156.831 25.5442 156.831 28.3197ZM156.74 12.4292V20.7862C155.52 19.5052 153.812 18.8952 151.677 18.8952C146.675 18.8952 142.649 22.5247 142.649 28.3197C142.649 34.1757 146.675 37.8052 151.677 37.8052C154.056 37.8052 155.825 37.1342 157.045 35.6702V37.5002H163.175V12.4292H156.74ZM165.829 35.9142C167.628 37.0427 170.831 37.8052 173.942 37.8052C179.889 37.8052 183 35.1822 183 31.7967C183 24.5377 172.203 27.2522 172.203 24.7207C172.203 24.0497 172.996 23.4397 175.131 23.4397C176.748 23.4397 178.578 23.7752 180.408 24.7817L182.329 20.4202C180.499 19.4137 177.663 18.8647 175.101 18.8647C169.367 18.8647 166.164 21.4877 166.164 24.9342C166.164 32.2542 176.992 29.4787 176.992 31.9187C176.992 32.6812 176.29 33.1692 174.125 33.1692C171.898 33.1692 169.428 32.5287 167.75 31.4917L165.829 35.9142ZM61.1221 32.2847C60.5731 32.6507 59.8716 32.8642 59.1701 32.8642C58.0111 32.8642 57.2791 32.1322 57.2791 30.7597V23.6837H61.4271V18.8952H57.2791V14.2592V12.4597H50.8436V14.2592V18.7732V30.8207C50.8436 35.5177 53.5581 37.8052 58.2551 37.8052C59.9326 37.8052 61.6101 37.4697 62.7081 36.7682L61.1221 32.2847ZM86.0101 31.1562C86.0101 35.4872 88.6941 37.8052 93.0556 37.8052C94.0621 37.8052 95.0076 37.6832 96.0141 37.3477L95.7396 32.5592C95.4041 32.7422 94.8246 32.8947 94.3061 32.8947C93.0556 32.8947 92.3236 32.1932 92.3236 30.8207V12.4292H85.9796V31.1562" fill="#193153"/>
<path d="M12.8711 6.60352H6.43555V13.039H12.8711V6.60352Z" fill="#B92354"/>
<path d="M12.8711 0.167969H6.43555V6.60347H12.8711V0.167969Z" fill="#193153"/>
<path d="M6.4355 0.167969H0V6.60347H6.4355V0.167969Z" fill="#A1CFCA"/>
</svg>
