<svg width="96" height="95" viewBox="0 0 96 95" fill="none" xmlns="http://www.w3.org/2000/svg">
<g clip-path="url(#clip0_2589_16167)">
<path d="M24.3314 28.5576C11.4878 28.5576 1.0387 39.0067 1.0387 51.8503C1.0387 59.8246 4.83202 68.3983 12.3135 77.3335C13.4251 78.6611 14.5328 79.8913 15.5958 81.0137C10.7653 82.3322 7.86498 84.701 7.86498 87.4659C7.86498 92.3604 16.3486 95.0015 24.3306 95.0015C32.3129 95.0015 40.7963 92.3603 40.7963 87.4659C40.7963 84.7033 37.8969 82.3338 33.0695 81.0148C34.9981 78.9788 37.0733 76.5834 39.0423 73.9115C39.4987 73.2919 39.3666 72.4201 38.7473 71.9636C38.1283 71.5077 37.2558 71.6395 36.7994 72.2588C34.4222 75.4849 31.849 78.3201 29.6037 80.5721C29.3463 80.7034 29.1311 80.912 28.9962 81.1749C26.9849 83.1515 25.2923 84.6179 24.3319 85.4191C23.3821 84.6257 21.7153 83.1792 19.7298 81.2283C19.5873 80.9161 19.337 80.6711 19.0316 80.5346C12.7217 74.1879 3.82469 63.2228 3.82469 51.8507C3.82469 40.5434 13.0239 31.3442 24.3312 31.3442C35.6384 31.3442 44.8377 40.5434 44.8377 51.8507C44.8377 56.7886 43.1551 62.1213 39.8368 67.7005C39.4436 68.3619 39.6607 69.2168 40.322 69.6099C40.9833 70.0031 41.8383 69.786 42.2315 69.1247C45.8096 63.1085 47.6239 57.2968 47.6239 51.8507C47.624 39.0067 37.1749 28.5576 24.3314 28.5576ZM23.4788 88.3166C23.7296 88.5109 24.0306 88.6079 24.3314 88.6079C24.6321 88.6079 24.9329 88.5109 25.184 88.3166C25.3548 88.1843 27.6827 86.3689 30.7856 83.335C35.4841 84.2932 38.0105 86.1381 38.0105 87.4661C38.0105 88.4578 36.6511 89.6279 34.463 90.5194C31.7792 91.6132 28.1809 92.2157 24.3308 92.2157C15.9801 92.2157 10.6512 89.4024 10.6512 87.4661C10.6512 86.1363 13.1783 84.2923 17.8793 83.3341C20.9995 86.386 23.3307 88.202 23.4788 88.3166Z" fill="white"/>
<path d="M24.33 41.7236C22.1266 41.7236 20.0314 42.4192 18.2709 43.7353C17.6549 44.196 17.5288 45.069 17.9893 45.6853C18.4502 46.3013 19.3232 46.4273 19.9392 45.9669C21.2141 45.0138 22.7324 44.5098 24.3298 44.5098C28.3779 44.5098 31.6712 47.8031 31.6712 51.8514C31.6712 55.8994 28.3779 59.1927 24.3298 59.1927C20.2817 59.1927 16.9884 55.8993 16.9884 51.8514C16.9884 51.1606 17.084 50.4776 17.2723 49.8218C17.4846 49.0824 17.0573 48.3109 16.3179 48.0985C15.5787 47.887 14.807 48.3137 14.5945 49.0531C14.3346 49.9591 14.2026 50.9004 14.2026 51.8514C14.2026 57.4356 18.7458 61.9789 24.3302 61.9789C29.9144 61.9789 34.4577 57.4358 34.4577 51.8514C34.4575 46.2669 29.9142 41.7236 24.33 41.7236Z" fill="white"/>
<path d="M85.0592 40.4737C85.7679 39.7131 86.4981 38.8938 87.2302 38.0191C93.0301 31.0921 95.9708 24.433 95.9708 18.2262C95.9708 8.17754 87.7954 0.00195312 77.7465 0.00195312C70.4057 0.00195312 63.8145 4.37085 60.9551 11.1322C60.6552 11.8408 60.9868 12.6583 61.6952 12.9578C62.4036 13.2573 63.2213 12.9261 63.5208 12.2176C65.9437 6.48943 71.5276 2.78794 77.7465 2.78794C86.2593 2.78794 93.1848 9.71368 93.1848 18.2264C93.1848 29.7383 81.0986 40.7674 77.746 43.6046C77.0071 42.9803 75.8441 41.9583 74.4805 40.6216C74.3445 40.352 74.1248 40.1382 73.861 40.0059C69.0511 35.163 62.3083 26.838 62.3083 18.2264C62.3083 17.4569 61.6848 16.8333 60.9152 16.8333C60.1459 16.8333 59.5221 17.4569 59.5221 18.2264C59.5221 24.433 62.4628 31.0921 68.2629 38.0193C68.9948 38.8934 69.7244 39.7124 70.4328 40.4728C66.8417 41.5517 64.7686 43.3883 64.7686 45.5998C64.7686 47.4649 66.2816 49.1087 69.0292 50.2281C71.38 51.1861 74.4759 51.7138 77.7464 51.7138C81.0166 51.7138 84.1125 51.1861 86.4636 50.2281C89.2106 49.1085 90.7235 47.4647 90.7235 45.5996C90.7233 43.3922 88.6487 41.554 85.0592 40.4737ZM77.7462 48.9274C71.152 48.9274 67.5548 46.7291 67.5548 45.5994C67.5548 44.8636 69.1911 43.5169 72.6854 42.7739C75.0364 45.0615 76.7815 46.4209 76.8941 46.5083C77.1452 46.7025 77.446 46.7996 77.7467 46.7996C78.0475 46.7996 78.3481 46.7025 78.5993 46.5083C78.7119 46.4212 80.4567 45.0617 82.8077 42.7743C84.3645 43.1062 85.713 43.5926 86.6567 44.167C87.4588 44.6558 87.9377 45.1912 87.9377 45.5994C87.9374 46.7291 84.3402 48.9274 77.7462 48.9274Z" fill="white"/>
<path d="M77.7402 10.1211C73.2706 10.1211 69.634 13.7574 69.634 18.2275C69.634 22.6971 73.2704 26.3335 77.7402 26.3335C82.2101 26.3335 85.8464 22.6973 85.8464 18.2275C85.8464 13.7576 82.2101 10.1211 77.7402 10.1211ZM77.7404 23.5473C74.8065 23.5473 72.4202 21.1608 72.4202 18.2273C72.4202 15.2938 74.8067 12.9071 77.7404 12.9071C80.6739 12.9071 83.0606 15.2936 83.0606 18.2273C83.0604 21.1608 80.6739 23.5473 77.7404 23.5473Z" fill="white"/>
<path d="M59.6704 44.207H59.0343C58.5712 44.207 58.1058 44.2376 57.6505 44.2983C56.8881 44.3998 56.352 45.1001 56.4533 45.863C56.5467 46.5635 57.1449 47.0726 57.8325 47.0726C57.8937 47.0726 57.9557 47.0687 58.0181 47.0604C58.3519 47.016 58.6938 46.9936 59.0345 46.9936H59.6704V46.9934C60.4398 46.9934 61.0634 46.37 61.0634 45.6003C61.0634 44.8307 60.4398 44.207 59.6704 44.207Z" fill="white"/>
<path d="M55.0476 86.001C55.0454 86.001 55.0434 86.001 55.0411 86.001L53.2012 86.0093C52.432 86.0128 51.8111 86.6394 51.8145 87.4087C51.8178 88.176 52.4411 88.7955 53.2074 88.7955C53.2096 88.7955 53.2116 88.7955 53.2139 88.7955L55.0537 88.7872C55.823 88.7836 56.4439 88.157 56.4405 87.3878C56.4372 86.6203 55.8141 86.001 55.0476 86.001Z" fill="white"/>
<path d="M61.3336 62.249H59.4937C58.7242 62.249 58.1006 62.8728 58.1006 63.6421C58.1006 64.4116 58.724 65.0352 59.4937 65.0352H61.3336C62.103 65.0352 62.7267 64.4118 62.7267 63.6421C62.7267 62.8728 62.1032 62.249 61.3336 62.249Z" fill="white"/>
<path d="M53.9207 47.0401C53.3991 46.4749 52.5181 46.4393 51.9522 46.9607C51.4329 47.4396 50.9605 47.9734 50.5482 48.5475C50.0993 49.1726 50.2422 50.043 50.8671 50.4918C51.113 50.6685 51.3972 50.7535 51.6787 50.7535C52.112 50.7535 52.5391 50.5518 52.8113 50.1729C53.1137 49.7519 53.4603 49.36 53.8413 49.0086C54.4068 48.487 54.4422 47.6057 53.9207 47.0401Z" fill="white"/>
<path d="M62.4012 85.9658C62.399 85.9658 62.3969 85.9658 62.3947 85.9658L60.555 85.9742C59.7857 85.9775 59.1649 86.6043 59.1682 87.3736C59.1716 88.1408 59.7948 88.7603 60.5611 88.7603C60.5634 88.7603 60.5654 88.7603 60.5676 88.7603L62.4073 88.752C63.1766 88.7487 63.7974 88.1219 63.7941 87.3526C63.7906 86.5854 63.1675 85.9658 62.4012 85.9658Z" fill="white"/>
<path d="M47.6862 86.0322C47.684 86.0322 47.6819 86.0322 47.6797 86.0322L45.8398 86.0406C45.0705 86.0441 44.4497 86.6707 44.453 87.44C44.4565 88.2072 45.0792 88.8268 45.8459 88.8268C45.8481 88.8268 45.8502 88.8268 45.8524 88.8268L47.6923 88.8184C48.4616 88.8149 49.0824 88.1883 49.0791 87.419C49.0757 86.6516 48.4527 86.0322 47.6862 86.0322Z" fill="white"/>
<path d="M54.9517 61.0784C54.514 60.8023 54.1023 60.4798 53.7284 60.1204C53.1738 59.587 52.2917 59.6046 51.7586 60.1586C51.2252 60.713 51.2424 61.595 51.7968 62.1282C52.3067 62.6186 52.868 63.0582 53.4651 63.4348C53.6959 63.5805 53.9529 63.6499 54.2071 63.6499C54.6695 63.6499 55.1217 63.42 55.3868 62.9997C55.7974 62.3492 55.6024 61.4888 54.9517 61.0784Z" fill="white"/>
<path d="M51.5233 56.0888C51.4297 55.6086 51.3823 55.1147 51.3823 54.6204L51.3826 54.543C51.3917 53.7737 50.7753 53.1429 50.0059 53.134C50.0005 53.1338 49.9949 53.1338 49.9893 53.1338C49.2275 53.1338 48.6055 53.7468 48.5966 54.5107L48.5961 54.6206C48.5961 55.2934 48.6608 55.9667 48.7885 56.6219C48.918 57.2871 49.501 57.7485 50.1543 57.7485C50.2424 57.7485 50.3322 57.7402 50.422 57.7226C51.1774 57.5754 51.6702 56.844 51.5233 56.0888Z" fill="white"/>
<path d="M68.664 62.249H66.8241C66.0547 62.249 65.431 62.8728 65.431 63.6421C65.431 64.4116 66.0547 65.0352 66.8241 65.0352H68.664C69.4335 65.0352 70.0571 64.4118 70.0571 63.6421C70.0571 62.8728 69.4335 62.249 68.664 62.249Z" fill="white"/>
<path d="M91.0523 65.0867C90.5155 64.6631 89.9418 64.2783 89.3468 63.9434C88.6771 63.5656 87.8271 63.8029 87.4494 64.4733C87.0718 65.1435 87.3089 65.9933 87.9793 66.3707C88.4487 66.6355 88.9018 66.939 89.3254 67.2736C89.5815 67.4756 89.8854 67.5734 90.1879 67.5734C90.5994 67.5734 91.0072 67.3916 91.2822 67.0435C91.7591 66.4395 91.6563 65.5634 91.0523 65.0867Z" fill="white"/>
<path d="M85.8675 86.9655C85.7618 86.2035 85.0574 85.67 84.2969 85.7761C83.8406 85.8392 83.3734 85.8724 82.9075 85.8743L82.6468 85.8756C81.8773 85.8795 81.2567 86.5063 81.2604 87.2754C81.2643 88.0424 81.8872 88.6618 82.6533 88.6618C82.6557 88.6618 82.6579 88.6618 82.6602 88.6618L82.9203 88.6605C83.5087 88.6579 84.1002 88.6161 84.6782 88.5362C85.4406 88.4308 85.9729 87.7274 85.8675 86.9655Z" fill="white"/>
<path d="M92.0033 83.0467C91.4725 82.4893 90.5906 82.468 90.0339 82.9988C89.643 83.3712 89.2199 83.716 88.7763 84.0236C88.1441 84.4619 87.987 85.3299 88.425 85.9624C88.6958 86.3526 89.1298 86.5619 89.5712 86.5619C89.845 86.5619 90.1215 86.4814 90.3636 86.3136C90.9251 85.9242 91.4608 85.4878 91.9556 85.0163C92.5128 84.4854 92.534 83.6035 92.0033 83.0467Z" fill="white"/>
<path d="M94.7255 76.2811C93.9705 76.1388 93.2413 76.6361 93.0988 77.3922C92.9988 77.9223 92.8566 78.4483 92.6757 78.956C92.4174 79.6805 92.7954 80.4775 93.5201 80.7359C93.6747 80.7911 93.8328 80.8172 93.9881 80.8172C94.5603 80.8172 95.0969 80.4617 95.3003 79.8917C95.5298 79.2479 95.7103 78.5804 95.8371 77.9078C95.979 77.1517 95.4814 76.4233 94.7255 76.2811Z" fill="white"/>
<path d="M95.5421 71.8083C95.3532 71.1505 95.1109 70.5026 94.821 69.8816C94.4956 69.1843 93.6673 68.8829 92.9695 69.208C92.2724 69.5335 91.9709 70.3623 92.2961 71.0596C92.5243 71.5485 92.7154 72.0591 92.8641 72.5768C93.0394 73.1878 93.5968 73.586 94.2024 73.586C94.3299 73.586 94.459 73.5684 94.5874 73.5316C95.3268 73.3192 95.7542 72.5477 95.5421 71.8083Z" fill="white"/>
<path d="M76.0178 62.249H74.1779C73.4084 62.249 72.7848 62.8728 72.7848 63.6421C72.7848 64.4116 73.4082 65.0352 74.1779 65.0352H76.0178C76.7872 65.0352 77.4109 64.4118 77.4109 63.6421C77.4109 62.8728 76.7872 62.249 76.0178 62.249Z" fill="white"/>
<path d="M69.7705 85.9316C69.7683 85.9316 69.7663 85.9316 69.764 85.9316L67.9241 85.94C67.1549 85.9433 66.534 86.5701 66.5374 87.3394C66.5409 88.1066 67.164 88.7262 67.9303 88.7262C67.9325 88.7262 67.9345 88.7262 67.9368 88.7262L69.7766 88.7178C70.5459 88.7143 71.1668 88.0877 71.1634 87.3184C71.1601 86.5512 70.5368 85.9316 69.7705 85.9316Z" fill="white"/>
<path d="M83.456 62.2622C83.259 62.2533 83.0593 62.249 82.863 62.249H81.5547C80.7852 62.249 80.1616 62.8728 80.1616 63.6421C80.1616 64.4116 80.7851 65.0352 81.5547 65.0352H82.863V65.035C83.0205 65.035 83.1771 65.0385 83.3328 65.0454C83.3538 65.0465 83.3747 65.0469 83.3955 65.0469C84.1364 65.0469 84.7532 64.4632 84.786 63.7156C84.82 62.9467 84.2245 62.2962 83.456 62.2622Z" fill="white"/>
<path d="M77.1397 85.8984C77.1374 85.8984 77.1354 85.8984 77.1332 85.8984L75.2933 85.9068C74.524 85.9101 73.9032 86.5369 73.9065 87.3062C73.91 88.0734 74.5331 88.693 75.2994 88.693C75.3016 88.693 75.3039 88.693 75.3059 88.693L77.1458 88.6846C77.9151 88.6811 78.5359 88.0545 78.5326 87.2852C78.5292 86.5178 77.9062 85.8984 77.1397 85.8984Z" fill="white"/>
</g>
<defs>
<clipPath id="clip0_2589_16167">
<rect width="95" height="95" fill="white" transform="translate(1)"/>
</clipPath>
</defs>
</svg>
