<svg width="95" height="95" viewBox="0 0 95 95" fill="none" xmlns="http://www.w3.org/2000/svg">
<path d="M90.7453 47.9815C90.378 46.5855 89.6052 45.3297 88.5245 44.3727C85.471 41.8281 82.0319 38.8053 80.3508 37.1243H85.2243C86.3282 37.1113 87.3825 36.6636 88.1585 35.8783C88.9345 35.093 89.3697 34.0335 89.3697 32.9294C89.3697 31.8254 88.9344 30.7659 88.1584 29.9807C87.3823 29.1954 86.328 28.7478 85.2241 28.7347C82.9139 28.8616 78.6028 28.2133 76.665 29.6908C75.2925 26.2364 73.6423 22.0107 72.3777 18.7412C71.794 17.3328 70.8052 16.1295 69.5367 15.2838C68.2682 14.4382 66.7772 13.9883 65.2527 13.9912H30.3062C28.776 13.9901 27.2801 14.4441 26.0087 15.2954C24.7372 16.1467 23.7476 17.3569 23.1657 18.772C21.9166 22.0261 20.2664 26.2364 18.8939 29.6909C16.9546 28.2001 12.5987 28.8749 10.3345 28.7346C9.23004 28.747 8.17506 29.1944 7.39846 29.9798C6.62187 30.7652 6.18632 31.8251 6.18635 32.9296C6.18637 34.0341 6.62196 35.094 7.39859 35.8793C8.17522 36.6646 9.23023 37.112 10.3346 37.1243H15.208C13.5116 38.8207 10.0724 41.8435 6.94177 44.4498C6.19544 45.1225 5.60052 45.9461 5.1964 46.866C4.79228 47.7858 4.58817 48.7811 4.59759 49.7858V64.884C4.59096 66.5536 5.13279 68.179 6.1398 69.5107V77.2217C6.14337 78.4477 6.63197 79.6224 7.49887 80.4893C8.36577 81.3562 9.54051 81.8448 10.7665 81.8483H20.0197C21.2456 81.8448 22.4204 81.3562 23.2872 80.4893C24.1541 79.6224 24.6427 78.4477 24.6463 77.2217V72.5951H70.9125V77.2217C70.9139 78.4484 71.4018 79.6244 72.2691 80.4917C73.1365 81.3591 74.3125 81.847 75.5391 81.8483H84.7924C86.019 81.847 87.195 81.3591 88.0624 80.4918C88.9298 79.6244 89.4177 78.4484 89.419 77.2217V69.5107C90.426 68.179 90.9678 66.5536 90.9612 64.884C90.8871 63.8963 91.1648 48.3881 90.7453 47.9815ZM79.9344 31.8191H85.2243C85.5151 31.8246 85.7922 31.9441 85.9959 32.1517C86.1996 32.3594 86.3137 32.6387 86.3137 32.9295C86.3137 33.2204 86.1996 33.4997 85.9958 33.7073C85.7921 33.915 85.515 34.0344 85.2242 34.0399H78.454C78.2688 33.6235 78.0838 33.1454 77.8834 32.6364C78.4422 32.1194 79.1731 31.8281 79.9344 31.8191ZM26.0343 19.9286C26.3798 19.0807 26.9714 18.3557 27.7328 17.8472C28.4943 17.3387 29.3906 17.0699 30.3062 17.0756H65.2527C66.1606 17.0681 67.0503 17.3311 67.8083 17.8309C68.5663 18.3308 69.1584 19.0449 69.5092 19.8824C69.9255 20.9773 75.4621 34.8726 75.7705 35.5821H19.7883C21.7007 31.156 25.5408 21.2241 26.0343 19.9286ZM10.3346 34.0399C10.0437 34.0343 9.76666 33.9149 9.56294 33.7073C9.35922 33.4996 9.2451 33.2203 9.24512 32.9294C9.24513 32.6386 9.35927 32.3593 9.56301 32.1517C9.76674 31.944 10.0438 31.8246 10.3346 31.8191H15.6244C16.3857 31.8281 17.1166 32.1194 17.6755 32.6364C17.4749 33.1454 17.2899 33.6235 17.1049 34.0399H10.3346ZM21.5619 77.2217C21.5607 77.6304 21.3978 78.0219 21.1088 78.3109C20.8199 78.5998 20.4283 78.7627 20.0197 78.7639H10.7665C10.3578 78.7627 9.96626 78.5999 9.6773 78.3109C9.38834 78.0219 9.22548 77.6304 9.22428 77.2217V71.9627C10.1994 72.379 11.2485 72.5941 12.3087 72.5951H21.5619L21.5619 77.2217ZM29.678 69.5107L30.8114 66.4262H65.0765L66.1323 69.5107H29.678ZM86.3346 77.2217C86.3341 77.6306 86.1715 78.0225 85.8823 78.3116C85.5932 78.6008 85.2013 78.7634 84.7924 78.7639H75.5391C75.1303 78.7634 74.7383 78.6008 74.4492 78.3116C74.1601 78.0225 73.9974 77.6306 73.9969 77.2217V72.5951C76.3956 72.4347 84.3356 73.0841 86.3346 71.9628L86.3346 77.2217ZM83.2502 69.5107H69.3927L67.6376 64.3848C67.5334 64.0805 67.3368 63.8164 67.0751 63.6294C66.8135 63.4424 66.4999 63.3419 66.1783 63.3418H29.7353C29.4196 63.3419 29.1115 63.4388 28.8527 63.6195C28.5938 63.8002 28.3967 64.0561 28.288 64.3524L26.3927 69.5107C24.0872 69.5158 14.7629 69.507 12.3086 69.5107C11.701 69.5108 11.0994 69.3912 10.538 69.1587C9.97662 68.9262 9.46655 68.5854 9.03691 68.1558C8.60727 67.7261 8.26648 67.2161 8.034 66.6547C7.80152 66.0933 7.68191 65.4916 7.682 64.884V49.7858C7.68554 49.2159 7.80495 48.6527 8.03296 48.1304C8.26098 47.6081 8.59284 47.1377 9.00837 46.7477C10.7355 45.298 15.794 41.0416 17.9839 38.6665H77.5749C79.7648 41.0415 84.8233 45.2825 86.4735 46.6706C86.9112 47.0636 87.2621 47.5437 87.5037 48.0801C87.7454 48.6165 87.8724 49.1975 87.8767 49.7858L87.8768 64.884C87.8733 66.11 87.3847 67.2847 86.5178 68.1516C85.6509 69.0185 84.4762 69.5071 83.2502 69.5107Z" fill="white"/>
<path d="M25.8249 48.605C25.6841 48.394 25.4934 48.221 25.2697 48.1013C25.046 47.9817 24.7962 47.919 24.5425 47.9189H12.3126C11.9036 47.919 11.5113 48.0815 11.2221 48.3707C10.9329 48.6599 10.7704 49.0521 10.7704 49.4612C10.7728 51.5055 11.5859 53.4655 13.0315 54.911C14.4771 56.3566 16.437 57.1698 18.4814 57.1722H28.6601C28.9379 57.1687 29.2096 57.0907 29.447 56.9464C29.6844 56.8021 29.8787 56.5967 30.0097 56.3517C30.1407 56.1067 30.2035 55.8311 30.1917 55.5535C30.1798 55.276 30.0938 55.0067 29.9424 54.7737L25.8249 48.605ZM18.4814 54.0878C17.5249 54.0868 16.5921 53.7897 15.8111 53.2375C15.03 52.6853 14.439 51.9049 14.1191 51.0034H23.718L25.7768 54.0878H18.4814Z" fill="white"/>
<path d="M63.6137 47.9189H31.9368C31.659 47.9225 31.3873 48.0005 31.1499 48.1448C30.9126 48.2891 30.7183 48.4945 30.5873 48.7395C30.4563 48.9844 30.3935 49.26 30.4053 49.5376C30.4171 49.8151 30.5031 50.0844 30.6545 50.3174L34.7719 56.4862C34.9128 56.6972 35.1035 56.8702 35.3272 56.9899C35.5509 57.1096 35.8007 57.1722 36.0543 57.1723H59.4962C59.7499 57.1722 59.9996 57.1096 60.2233 56.9899C60.447 56.8702 60.6378 56.6972 60.7786 56.4862L64.8962 50.3174C65.0475 50.0844 65.1335 49.8151 65.1453 49.5375C65.1571 49.26 65.0942 48.9844 64.9632 48.7394C64.8322 48.4944 64.6379 48.2891 64.4006 48.1448C64.1632 48.0005 63.8915 47.9225 63.6137 47.9189ZM58.6716 54.0878H36.8789L34.8201 51.0034H60.7304L58.6716 54.0878Z" fill="white"/>
<path d="M83.255 47.9189H71.025C70.7713 47.919 70.5215 47.9817 70.2978 48.1013C70.0742 48.221 69.8834 48.394 69.7426 48.605L65.625 54.7739C65.4736 55.0068 65.3876 55.2761 65.3758 55.5537C65.3639 55.8312 65.4268 56.1069 65.5578 56.3518C65.6888 56.5968 65.8831 56.8022 66.1205 56.9465C66.3579 57.0908 66.6296 57.1688 66.9074 57.1723H77.0861C79.1305 57.1699 81.0904 56.3567 82.536 54.9111C83.9816 53.4655 84.7948 51.5056 84.7972 49.4612C84.7972 49.0522 84.6347 48.6599 84.3455 48.3707C84.0562 48.0815 83.664 47.919 83.255 47.9189ZM77.0861 54.0878H69.7908L71.8495 51.0034H81.4484C81.1285 51.9049 80.5375 52.6853 79.7565 53.2375C78.9754 53.7897 78.0426 54.0868 77.0861 54.0878Z" fill="white"/>
</svg>
